# Blender v2.80 (sub 75) OBJ File: 'Pine.blend'
# www.blender.org
mtllib Pine.mtl
o Tree_Cylinder
v 0.000000 5.787365 -1.000000
v 0.000000 7.787365 0.000000
v 0.866025 5.787365 -0.500000
v 0.866025 5.787365 0.500000
v -0.000000 5.787365 1.000000
v -0.866025 5.787365 0.500000
v -0.866025 5.787365 -0.500000
v 0.000000 4.369722 -1.422567
v 1.231979 4.369722 -0.711283
v 1.231979 4.369722 0.711284
v -0.000000 4.369722 1.422567
v -1.231979 4.369722 0.711283
v -1.231979 4.369722 -0.711283
v 0.000000 2.878529 -1.790129
v 1.550297 2.878529 -0.895064
v 1.550297 2.878529 0.895064
v -0.000000 2.878529 1.790129
v -1.550297 2.878529 0.895064
v -1.550297 2.878529 -0.895064
v 0.000000 1.560215 -1.885614
v 1.632990 1.560215 -0.942807
v 1.632990 1.560215 0.942807
v -0.000000 1.560215 1.885614
v -1.632990 1.560215 0.942807
v -1.632990 1.560215 -0.942807
v 0.132256 -0.006188 -0.459907
v 0.424613 -0.006188 -0.103669
v 0.283715 -0.006188 0.268240
v -0.030143 -0.006188 0.363447
v -0.353916 -0.006188 0.132495
v -0.308745 -0.006188 -0.326131
v -0.192477 1.560215 -0.180062
v 0.089607 1.560215 -0.314316
v 0.186487 1.560215 0.151439
v 0.293424 1.560215 -0.060447
v -0.014270 1.560215 0.212338
v -0.209843 1.560215 0.098023
v -1.062143 2.878530 -0.613228
v -1.062143 2.878530 0.613228
v 1.062143 2.878530 -0.613228
v 1.062143 2.878530 0.613228
v -0.000000 2.878530 1.226457
v 0.000000 2.878529 -1.226457
v -0.904592 4.369722 0.522266
v 0.904592 4.369722 -0.522266
v 0.904592 4.369722 0.522266
v -0.904592 4.369722 -0.522266
v -0.000000 4.369722 1.044532
v -0.000000 4.369722 -1.044532
v -0.618122 5.787365 -0.356873
v -0.618122 5.787365 0.356873
v 0.618122 5.787365 0.356873
v 0.618122 5.787365 -0.356873
v -0.000000 5.787365 0.713745
v -0.000000 5.787365 -0.713745
vt 0.597697 0.310898
vt 0.705752 0.191099
vt 0.665930 0.342698
vt 0.782615 0.394048
vt 0.782615 0.003101
vt 0.636672 0.000104
vt 0.526412 0.095766
vt 0.508791 0.240673
vt 0.584873 0.334572
vt 0.494807 0.273794
vt 0.567202 0.414578
vt 0.652910 0.370541
vt 0.659203 0.433532
vt 0.000104 0.075290
vt 0.129954 0.075417
vt 0.163639 0.163147
vt 0.067240 0.250144
vt 0.263615 0.181632
vt 0.234313 0.334808
vt 0.382482 0.223496
vt 0.363714 0.368841
vt 0.475995 0.399925
vt 0.636671 0.457058
vt 0.563754 0.439033
vt 0.476642 0.425469
vt 0.571761 0.499041
vt 0.649920 0.492743
vt 0.054534 0.570783
vt 0.072493 0.491117
vt 0.158731 0.458847
vt 0.193957 0.550302
vt 0.269138 0.436647
vt 0.300565 0.521916
vt 0.377132 0.425068
vt 0.398278 0.504852
vt 0.488744 0.498406
vt 0.666640 0.856174
vt 0.632115 0.883398
vt 0.553843 0.790333
vt 0.580167 0.754687
vt 0.591698 0.930510
vt 0.673474 0.968874
vt 0.653722 0.999896
vt 0.045542 0.685099
vt 0.075377 0.598910
vt 0.194703 0.594635
vt 0.184299 0.673576
vt 0.326052 0.641381
vt 0.303149 0.724727
vt 0.449680 0.708374
vt 0.416955 0.782082
vt 0.513229 0.852563
vt 0.266594 0.147742
vt 0.153430 0.140208
vt 0.391380 0.187268
vt 0.740320 0.423656
vt 0.836442 0.014073
vt 0.832554 0.104102
vt 0.794679 0.106737
vt 0.782823 0.017708
vt 0.469896 0.666283
vt 0.338678 0.594862
vt 0.713169 0.974874
vt 0.973275 0.033984
vt 0.973275 0.125636
vt 0.946515 0.125350
vt 0.947813 0.064796
vt 0.147082 0.433685
vt 0.055434 0.478894
vt 0.924335 0.122375
vt 0.931263 0.065331
vt 0.900267 0.119324
vt 0.914339 0.056277
vt 0.135321 0.819751
vt 0.017216 0.733967
vt 0.144789 0.792851
vt 0.158350 0.834533
vt 0.022551 0.899051
vt 0.168185 0.976972
vt 0.179844 0.822971
vt 0.166621 0.787298
vt 0.146508 0.782263
vt 0.868391 0.110653
vt 0.889574 0.022151
vt 0.261079 0.408230
vt 0.372740 0.397700
vt 0.179309 0.803135
vt 0.935378 0.000104
vt 0.308484 0.889810
vn 0.4588 0.3974 -0.7947
vn 0.9177 0.3974 0.0000
vn 0.4588 0.3974 0.7947
vn -0.4588 0.3974 0.7947
vn -0.9177 0.3974 0.0000
vn -0.4588 0.3974 -0.7947
vn 0.0000 -1.0000 0.0000
vn 0.7733 0.0808 -0.6289
vn 0.9178 0.0761 0.3896
vn 0.2891 0.0890 0.9531
vn -0.5520 0.0774 0.8303
vn -0.9928 0.0855 -0.0843
vn -0.3460 0.0950 -0.9334
usemtl Material.001
s off
f 1/1/1 2/2/1 3/3/1
f 3/3/2 2/2/2 4/4/2
f 4/5/3 2/2/3 5/6/3
f 5/6/4 2/2/4 6/7/4
f 6/7/5 2/2/5 7/8/5
f 7/8/6 2/2/6 1/1/6
f 1/1/7 55/9/7 50/10/7 7/8/7
f 8/11/1 55/9/1 53/12/1 9/13/1
f 9/14/2 53/15/2 52/16/2 10/17/2
f 10/17/3 52/16/3 54/18/3 11/19/3
f 11/19/4 54/18/4 51/20/4 12/21/4
f 12/21/5 51/20/5 50/10/5 13/22/5
f 13/22/6 50/10/6 55/9/6 8/11/6
f 8/11/7 9/13/7 45/23/7 49/24/7 47/25/7 13/22/7
f 14/26/1 49/24/1 45/23/1 15/27/1
f 15/28/2 45/29/2 46/30/2 16/31/2
f 16/31/3 46/30/3 48/32/3 17/33/3
f 17/33/4 48/32/4 44/34/4 18/35/4
f 18/35/5 44/34/5 47/25/5 19/36/5
f 19/36/6 47/25/6 49/24/6 14/26/6
f 14/37/7 43/38/7 38/39/7 19/40/7
f 20/41/1 43/38/1 40/42/1 21/43/1
f 21/44/2 40/45/2 41/46/2 22/47/2
f 22/47/3 41/46/3 42/48/3 23/49/3
f 23/49/4 42/48/4 39/50/4 24/51/4
f 24/51/5 39/50/5 38/39/5 25/52/5
f 25/52/6 38/39/6 43/38/6 20/41/6
f 5/53/7 54/18/7 52/16/7 4/54/7
f 6/55/7 51/20/7 54/18/7 5/53/7
f 55/9/7 1/1/7 3/3/7 53/12/7
f 53/12/7 3/3/7 4/4/7 52/56/7
f 26/57/8 33/58/8 35/59/8 27/60/8
f 18/61/7 39/50/7 42/48/7 17/62/7
f 43/38/7 14/37/7 15/63/7 40/42/7
f 16/31/7 41/46/7 40/45/7 15/28/7
f 27/64/9 35/65/9 34/66/9 28/67/9
f 17/62/7 42/48/7 41/46/7 16/31/7
f 10/68/7 46/30/7 45/29/7 9/69/7
f 28/67/10 34/66/10 36/70/10 29/71/10
f 29/71/11 36/70/11 37/72/11 30/73/11
f 33/74/7 21/75/7 35/76/7
f 32/77/7 20/78/7 33/74/7
f 25/79/7 32/77/7 37/80/7
f 21/44/7 22/47/7 34/81/7
f 34/81/7 35/82/7 21/44/7
f 30/73/12 37/72/12 32/83/12 31/84/12
f 11/85/7 48/32/7 46/30/7 10/68/7
f 12/86/7 44/34/7 48/32/7 11/85/7
f 23/49/7 37/80/7 36/87/7
f 21/75/7 33/74/7 20/78/7
f 22/47/7 36/87/7 34/81/7
f 31/84/13 32/83/13 33/58/13 26/57/13
f 23/49/7 36/87/7 22/47/7
f 26/88/7 27/64/7 28/67/7 29/71/7 30/73/7 31/84/7
f 24/89/7 37/80/7 23/49/7
f 19/40/7 38/39/7 39/50/7 18/61/7
f 13/22/7 47/25/7 44/34/7 12/86/7
f 7/8/7 50/10/7 51/20/7 6/55/7
f 20/78/7 32/77/7 25/79/7
f 25/79/7 37/80/7 24/89/7
