# Blender v2.80 (sub 75) OBJ File: 'Tent.blend'
# www.blender.org
mtllib Tent.mtl
o Tent_Plane
v -0.974758 -0.000229 1.015949
v 1.087150 0.000210 1.016696
v -0.974758 -0.000242 -0.983258
v 1.087150 0.000223 -0.984096
v 1.080253 1.614997 0.007541
v 1.025242 0.000074 0.176809
v 1.025242 0.000074 -0.175954
v 1.087150 0.000000 -0.175954
v 1.087150 0.000000 0.176809
v -0.968595 1.611074 0.007756
vt 0.293937 0.500430
vt 0.001579 0.681812
vt 0.000165 0.318207
vt 0.621806 0.364391
vt 0.621806 0.710720
vt 0.492246 0.629797
vt 0.758533 0.374113
vt 0.821960 0.364452
vt 0.833220 0.660011
vt 0.747407 0.709040
vt 0.622136 0.441272
vt 0.747407 0.364391
vt 0.833220 0.364391
vt 0.747737 0.377314
vt 0.503506 0.217080
vt 0.492246 0.364061
vt 0.492246 0.217080
vt 0.503506 0.152920
vt 0.492246 0.000165
vt 0.867258 0.000301
vt 0.867258 0.363909
vt 0.492246 0.152920
vt 0.198869 0.000165
vt 0.491916 0.184736
vt 0.200312 0.999835
vt 0.491916 0.816124
vn -1.0000 0.0038 -0.0000
vn 1.0000 0.0043 -0.0000
vn 0.9994 -0.0340 0.0000
vn -0.0001 -0.1129 0.9936
vn -0.0001 -0.1042 -0.9946
vn -0.0012 -1.0000 -0.0003
vn 0.0002 -1.0000 0.0000
vn -0.0012 -1.0000 0.0003
vn -0.0007 0.5302 0.8479
vn -0.0008 0.5236 -0.8520
usemtl Material.001
s off
f 10/1/1 3/2/1 1/3/1
f 5/4/2 2/5/2 9/6/2
f 6/7/3 7/8/3 5/9/3
f 5/10/2 8/11/2 4/12/2
f 5/9/4 7/8/4 8/13/4
f 6/7/5 5/9/5 9/14/5
f 7/15/6 4/16/6 8/17/6
f 6/18/7 2/19/7 1/20/7 3/21/7 4/16/7 7/15/7
f 2/19/8 6/18/8 9/22/8
f 2/23/9 5/24/9 10/1/9 1/3/9
f 4/25/10 3/2/10 10/1/10 5/26/10
o Tent.001_Plane.001
v 1.080253 1.614997 0.007541
v 1.081671 1.616860 0.007760
v 1.077958 1.617221 0.007745
v -0.968595 1.611074 0.007756
v -0.960419 1.614378 0.007947
v -0.967655 1.616993 0.007808
v -0.778483 -0.060046 1.701393
v 0.924385 0.066084 1.685749
v -0.785914 0.064600 1.683946
v 0.936202 -0.060049 1.701362
v 0.948083 0.071174 1.684868
v 0.947635 0.070594 1.716962
v -0.789931 0.070595 1.716969
v -0.759971 0.070747 -1.698178
v -0.778292 -0.060004 -1.692515
v -0.799767 0.071109 -1.696366
v 0.954985 0.071174 -1.685881
v 0.935740 -0.060063 -1.692150
v 0.935760 0.070594 -1.711582
v 0.940591 0.048814 1.687568
v 0.939284 0.059735 1.685795
v -0.775317 0.047154 1.688511
v -0.768579 0.065931 1.685873
v 0.935678 0.064463 -1.672254
v 0.949395 0.057310 -1.683177
v 0.948988 0.051627 -1.684706
v -0.791884 0.051925 -1.680217
v -0.782064 0.063836 -1.672532
v -0.782795 0.047247 -1.678559
v 1.080253 1.614997 0.007541
v 1.081671 1.616860 0.007760
v 1.077958 1.617221 0.007745
v 0.940591 0.048814 1.687568
v 0.939284 0.059735 1.685795
vt 0.668855 0.617027
vt 0.658602 0.039955
vt 0.668855 0.027317
vt 0.116183 0.027317
vt 0.116183 0.910155
vt 0.100798 0.030665
vt 0.183192 0.031515
vt 0.195424 0.728929
vt 0.183115 0.741095
vt 0.027317 0.943260
vt 0.046165 0.027317
vt 0.043327 0.941737
vt 0.472323 0.032070
vt 0.460735 0.695952
vt 0.460735 0.027317
vt 0.328681 0.036941
vt 0.339524 0.649666
vt 0.328793 0.652556
vt 0.406102 0.715598
vt 0.394157 0.040892
vt 0.406102 0.027317
vt 0.526957 0.665257
vt 0.538092 0.027317
vt 0.538092 0.669684
vt 0.785596 0.420856
vt 0.792466 0.027317
vt 0.792466 0.421808
vt 0.636316 0.801991
vt 0.612298 0.797871
vt 0.636316 0.720685
vt 0.383694 0.776429
vt 0.406102 0.770231
vt 0.406102 0.851014
vt 0.846726 0.477368
vt 0.870675 0.476441
vt 0.870675 0.554522
vt 0.595168 0.785494
vt 0.856148 0.616620
vt 0.846726 0.613558
vt 0.860894 0.609155
vt 0.483327 0.832578
vt 0.463609 0.826355
vt 0.483327 0.751795
vt 0.865985 0.903583
vt 0.865985 0.923220
vt 0.785596 0.915223
vt 0.046165 0.972683
vt 0.327196 0.845039
vt 0.327196 0.869386
vt 0.250057 0.845330
vt 0.636316 0.856624
vt 0.636316 0.876260
vt 0.555917 0.864689
vt 0.866726 0.178205
vt 0.847099 0.177586
vt 0.866726 0.163178
vt 0.857562 0.623287
vt 0.860894 0.690383
vt 0.384036 0.788734
vt 0.847099 0.099762
vt 0.847836 0.096230
vt 0.850135 0.108545
vt 0.857007 0.745016
vt 0.857007 0.822155
vt 0.846726 0.753974
vt 0.847099 0.313031
vt 0.854260 0.307109
vt 0.854260 0.322136
vt 0.317929 0.719831
vt 0.327867 0.707189
vt 0.327867 0.788494
vt 0.592725 0.774660
vt 0.599016 0.775396
vt 0.186892 0.820098
vt 0.170816 0.820443
vt 0.171217 0.809903
vt 0.250057 0.789866
vt 0.250057 0.027317
vt 0.263296 0.031415
vt 0.263296 0.790405
vt 0.170816 0.033576
vt 0.195424 0.027317
vt 0.472323 0.697162
vt 0.339524 0.027317
vt 0.394325 0.715051
vt 0.317929 0.036573
vt 0.785596 0.479928
vt 0.792093 0.476441
vt 0.792093 0.848950
vt 0.460735 0.813887
vt 0.861914 0.232838
vt 0.861914 0.252476
vt 0.847099 0.251678
vt 0.186892 0.795728
vt 0.850135 0.027317
vt 0.723489 0.513498
vt 0.729005 0.510240
vt 0.729005 0.826454
vt 0.723489 0.027379
vt 0.730963 0.027317
vt 0.730963 0.455607
vt 0.603969 0.027317
vt 0.603969 0.666052
vt 0.592880 0.662623
vt 0.592725 0.036438
vn 0.9632 0.1513 0.2221
vn 0.2916 0.6890 0.6636
vn 0.8312 -0.3580 -0.4254
vn -0.1310 0.7202 0.6813
vn -0.7186 -0.5484 -0.4276
vn -0.4542 -0.6776 0.5784
vn -0.3072 0.6817 -0.6640
vn 0.9693 -0.1206 0.2141
vn 0.9976 -0.0672 -0.0160
vn -0.0458 -0.0368 -0.9983
vn 0.8247 0.0048 0.5656
vn -0.8019 -0.0012 0.5975
vn 0.7658 -0.0797 0.6382
vn -0.0236 -0.0627 -0.9978
vn -0.9915 -0.0741 -0.1071
vn 0.9960 -0.0886 0.0123
vn -0.0548 0.9813 -0.1848
vn -1.0000 -0.0002 -0.0021
vn 0.7986 -0.0887 -0.5954
vn -0.2289 0.9619 0.1495
vn 0.0901 -0.1491 -0.9847
vn 0.0200 -0.1265 -0.9918
vn -0.0217 -0.1248 -0.9919
vn -0.0612 -0.1173 -0.9912
vn 0.7955 -0.2100 0.5684
vn 0.6111 -0.1246 0.7817
vn 0.5938 -0.0833 0.8003
vn -0.9464 -0.1466 0.2879
vn -0.2447 -0.1352 0.9601
vn -0.7509 0.2166 0.6239
vn -0.9348 -0.0841 0.3450
vn -0.5614 -0.5815 -0.5888
vn 0.2918 -0.6833 -0.6693
vn 0.2498 0.7257 0.6411
vn -0.9583 0.1501 0.2430
vn -0.9577 0.1542 -0.2428
vn 0.2729 0.7213 -0.6366
vn 0.2641 -0.6925 0.6713
vn -0.5285 -0.6006 0.5999
vn 0.2152 -0.1228 -0.9688
vn -0.2094 0.9777 0.0148
vn 0.0214 0.9606 0.2773
vn 0.5546 -0.1207 0.8233
vn 0.7452 -0.5175 -0.4205
vn 0.0682 0.7284 0.6817
vn -0.2083 0.7273 -0.6540
usemtl Material
s off
f 12/27/11 31/28/11 30/29/11
f 31/30/12 13/31/12 18/32/12
f 15/33/13 33/34/13 32/35/13
f 33/36/14 16/37/14 19/38/14
f 19/39/15 14/40/15 32/41/15
f 14/42/16 37/43/16 39/44/16
f 16/45/17 38/46/17 37/47/17
f 38/48/18 15/49/18 39/50/18
f 35/51/19 12/52/19 36/53/19
f 26/54/20 24/55/20 25/56/20
f 33/57/21 23/58/21 17/59/21
f 22/60/22 18/61/22 20/62/22
f 24/55/23 38/63/23 25/56/23
f 31/64/24 18/65/24 21/66/24
f 23/67/25 19/68/25 17/69/25
f 21/70/26 22/71/26 20/72/26
f 33/36/27 19/38/27 23/73/27
f 34/74/28 29/75/28 28/76/28
f 29/77/29 27/78/29 28/79/29
f 27/80/30 29/81/30 34/82/30
f 31/64/31 21/66/31 30/83/31
f 21/66/32 20/84/32 30/83/32
f 18/65/33 30/83/33 20/84/33
f 17/59/34 32/85/34 33/57/34
f 35/86/35 36/87/35 27/88/35
f 34/89/36 28/90/36 36/91/36
f 35/92/37 27/93/37 34/94/37
f 37/95/38 26/96/38 25/97/38
f 37/98/39 25/56/39 39/99/39
f 26/100/40 37/101/40 38/102/40
f 38/63/41 39/99/41 25/56/41
f 11/103/42 30/104/42 18/105/42 13/106/42
f 14/107/43 15/33/43 32/35/43
f 15/33/44 16/108/44 33/34/44
f 19/39/45 16/109/45 14/40/45
f 14/42/46 16/110/46 37/43/46
f 38/46/47 16/45/47 15/111/47
f 39/44/48 15/112/48 14/42/48
f 11/113/49 13/114/49 34/115/49
f 19/68/50 32/116/50 17/69/50
f 22/117/51 21/118/51 18/119/51
f 26/100/52 38/102/52 24/120/52
f 27/88/53 36/87/53 28/121/53
f 40/122/54 41/123/54 43/124/54
f 41/125/55 42/126/55 44/127/55
f 12/128/56 35/129/56 34/130/56 11/131/56
