# Blender v2.80 (sub 75) OBJ File: 'Bush1.blend'
# www.blender.org
mtllib Bush1.mtl
o Bush1_Icosphere
v -0.673558 0.006189 -0.647110
v -1.022434 1.067928 -0.720091
v 0.104845 1.734288 -1.030486
v -0.429206 1.892637 0.140068
v -0.159583 0.005267 0.827598
v -0.005707 0.513754 -1.187762
v -1.288572 0.035573 0.076898
v 0.414565 -0.004150 -0.199540
v -1.328132 1.063648 0.597829
v -1.422182 0.653335 0.076898
v 0.761342 1.397552 1.389365
v 1.079118 0.993294 -1.132435
v 1.836146 1.003380 0.243772
v 0.281038 2.105084 -0.280283
v 1.272066 -0.004922 0.436796
v 0.859418 -0.004923 -0.850964
v 0.947251 1.982288 0.204012
vt 0.408409 0.020418
vt 0.511475 0.081356
vt 0.486264 0.164971
vt 0.615511 0.144957
vt 0.234095 0.358933
vt 0.116444 0.287956
vt 0.297004 0.291644
vt 0.341013 0.982125
vt 0.194326 0.900906
vt 0.325007 0.830662
vt 0.443152 0.879760
vt 0.556826 0.067290
vt 0.579123 0.000078
vt 0.538811 0.268993
vt 0.435818 0.338381
vt 0.149585 0.467293
vt 0.321769 0.447603
vt 0.417362 0.545448
vt 0.255647 0.643517
vt 0.413332 0.795584
vt 0.538427 0.407652
vt 0.401272 0.699089
vt 0.571106 0.877382
vt 0.615511 0.710028
vt 0.470321 0.723621
vt 0.494410 0.999922
vt 0.000078 0.578040
vn -0.0344 -0.9993 0.0114
vn -0.7364 -0.2842 -0.6140
vn -0.0078 -1.0000 -0.0041
vn -0.7124 0.6825 -0.1630
vn -0.5462 0.7601 -0.3520
vn -0.8687 0.4531 -0.2000
vn -0.1040 -0.6578 -0.7460
vn -0.8380 -0.1813 -0.5146
vn -0.9245 -0.2000 0.3244
vn -0.5141 -0.4033 0.7570
vn -0.0108 -0.9999 0.0031
vn 0.6663 -0.2374 0.7068
vn -0.4377 0.8426 -0.3137
vn 0.8334 -0.3120 -0.4562
vn 0.6664 0.6219 0.4113
vn 0.5006 0.7236 -0.4752
vn 0.6911 0.6119 -0.3846
vn 0.4879 0.7240 -0.4876
vn -0.1403 0.8965 0.4202
vn 0.1820 -0.3038 -0.9352
vn 0.2264 -0.4895 0.8421
vn 0.8198 -0.5089 -0.2627
vn -0.0062 0.1283 -0.9917
vn -0.0012 -1.0000 0.0004
vn -0.0054 -1.0000 0.0061
vn -0.5052 -0.2233 -0.8336
vn -0.3442 0.1506 -0.9267
vn -0.0378 0.9161 0.3991
vn -0.3454 0.7121 0.6113
vn -0.3274 -0.1593 0.9314
usemtl Material.001
s off
f 5/1/1 7/2/1 1/3/1
f 1/3/2 7/2/2 2/4/2
f 8/5/3 1/6/3 16/7/3
f 2/8/4 9/9/4 4/10/4
f 3/11/5 2/8/5 4/10/5
f 10/12/6 9/13/6 2/4/6
f 1/3/7 6/14/7 16/15/7
f 2/4/8 7/2/8 10/12/8
f 10/12/9 7/2/9 9/13/9
f 7/2/10 5/1/10 9/13/10
f 5/16/11 1/6/11 8/5/11
f 15/17/12 13/18/12 11/19/12
f 4/10/13 14/20/13 3/11/13
f 16/15/14 12/21/14 13/18/14
f 11/19/15 13/18/15 17/22/15
f 12/23/16 3/11/16 14/20/16
f 13/24/17 12/23/17 17/25/17
f 17/25/18 12/23/18 14/20/18
f 14/20/19 11/19/19 17/22/19
f 16/15/20 6/14/20 12/21/20
f 5/16/21 15/17/21 11/19/21
f 15/17/22 16/15/22 13/18/22
f 12/23/23 6/26/23 3/11/23
f 15/17/24 8/5/24 16/7/24
f 8/5/25 15/17/25 5/16/25
f 6/14/26 1/3/26 2/4/26
f 3/11/27 6/26/27 2/8/27
f 4/10/28 11/19/28 14/20/28
f 9/9/29 11/19/29 4/10/29
f 5/16/30 11/19/30 9/27/30
