# Blender v2.81 (sub 16) OBJ File: 'models.blend'
# www.blender.org
o D_Border_Cylinder.279
v -0.300000 0.000000 0.699998
v -0.300000 0.700000 0.699998
v -0.300000 -0.000000 -0.700002
v -0.300000 0.700000 -0.700002
v 0.300000 0.000000 0.699998
v 0.300000 0.700000 0.699998
v 0.300000 -0.000000 -0.700002
v 0.300000 0.700000 -0.700002
v -0.400000 0.000000 1.999998
v -0.400000 0.800000 1.999998
v -0.400000 0.000000 0.699998
v -0.400000 0.800000 0.699998
v 0.400000 0.000000 1.999998
v 0.400000 0.800000 1.999998
v 0.400000 0.000000 0.699998
v 0.400000 0.800000 0.699998
v -0.400000 -0.000000 -0.700002
v -0.400000 0.800000 -0.700002
v -0.400000 -0.000000 -2.000003
v -0.400000 0.800000 -2.000003
v 0.400000 -0.000000 -0.700002
v 0.400000 0.800000 -0.700002
v 0.400000 -0.000000 -2.000003
v 0.400000 0.800000 -2.000003
vt 0.973118 0.975004
vt 0.973118 0.975004
vt 0.973118 0.975004
vt 0.974827 0.964994
vt 0.974827 0.964994
vt 0.974827 0.964994
vt 0.973118 0.975004
vt 0.973118 0.975004
vt 0.973118 0.975004
vt 0.974827 0.964994
vt 0.974827 0.964994
vt 0.974827 0.964994
vt 0.973118 0.975004
vt 0.973118 0.975004
vt 0.974827 0.964994
vt 0.974827 0.964994
vt 0.974827 0.964994
vt 0.974827 0.964994
vt 0.974827 0.964994
vt 0.974827 0.964994
vt 0.974827 0.964994
vt 0.974827 0.964994
vt 0.974827 0.964994
vt 0.974827 0.964994
vt 0.974827 0.964994
vt 0.974827 0.964994
vt 0.974827 0.964994
vt 0.974827 0.964994
vt 0.974827 0.964994
vt 0.974827 0.964994
vt 0.974827 0.964994
vt 0.974827 0.964994
vn -1.0000 0.0000 0.0000
vn 0.0000 -0.0000 -1.0000
vn 1.0000 -0.0000 0.0000
vn 0.0000 0.0000 1.0000
vn 0.0000 -1.0000 0.0000
vn 0.0000 1.0000 -0.0000
s 1
f 2/1/1 3/2/1 1/3/1
f 4/4/2 7/5/2 3/6/2
f 8/7/3 5/8/3 7/9/3
f 6/10/4 1/11/4 5/12/4
f 7/9/5 1/3/5 3/2/5
f 4/13/6 6/14/6 8/7/6
f 10/15/1 11/16/1 9/17/1
f 12/18/2 15/19/2 11/16/2
f 16/20/3 13/21/3 15/19/3
f 14/22/4 9/17/4 13/21/4
f 15/19/5 9/17/5 11/16/5
f 12/18/6 14/22/6 16/20/6
f 18/23/1 19/24/1 17/25/1
f 20/26/2 23/27/2 19/24/2
f 24/28/3 21/29/3 23/27/3
f 22/30/4 17/25/4 21/29/4
f 23/27/5 17/25/5 19/24/5
f 20/26/6 22/30/6 24/28/6
f 2/1/1 4/13/1 3/2/1
f 4/4/2 8/31/2 7/5/2
f 8/7/3 6/14/3 5/8/3
f 6/10/4 2/32/4 1/11/4
f 7/9/5 5/8/5 1/3/5
f 4/13/6 2/1/6 6/14/6
f 10/15/1 12/18/1 11/16/1
f 12/18/2 16/20/2 15/19/2
f 16/20/3 14/22/3 13/21/3
f 14/22/4 10/15/4 9/17/4
f 15/19/5 13/21/5 9/17/5
f 12/18/6 10/15/6 14/22/6
f 18/23/1 20/26/1 19/24/1
f 20/26/2 24/28/2 23/27/2
f 24/28/3 22/30/3 21/29/3
f 22/30/4 18/23/4 17/25/4
f 23/27/5 21/29/5 17/25/5
f 20/26/6 18/23/6 22/30/6
