# Blender v2.81 (sub 16) OBJ File: 'models.blend'
# www.blender.org
o D_Bridge_Broken_Cylinder.337
v -0.160342 -0.009325 -0.848444
v -0.151499 0.040211 -0.848029
v 0.211853 -0.076293 -0.785736
v 0.220696 -0.026757 -0.785320
v -0.356552 0.012279 0.752317
v -0.347708 0.061814 0.752732
v 0.017024 -0.054803 0.799197
v 0.025867 -0.005268 0.799613
v -1.000010 -0.040000 0.690005
v -1.000010 0.040000 0.690005
v -1.000010 -0.040000 0.610005
v -1.000010 0.040000 0.610005
v -1.000010 -0.040000 -0.609995
v -1.000010 0.040000 -0.609995
v -1.000010 -0.040000 -0.689995
v -1.000010 0.040000 -0.689995
v -0.981560 0.040000 -0.787413
v -0.981560 0.090000 -0.787413
v -0.604921 0.040000 -0.837844
v -0.604921 0.090000 -0.837844
v -0.767363 0.040000 0.812320
v -0.767363 0.090000 0.812320
v -0.390723 0.040000 0.761889
v -0.390723 0.090000 0.761889
v 0.035988 -0.053452 0.473923
v 0.094885 -0.080476 0.063974
v 0.158149 -0.078859 -0.384364
v 0.166297 -0.033217 -0.383982
v 0.103033 -0.034834 0.064357
v 0.044136 -0.007810 0.474306
v -0.184199 -0.006587 -0.427472
v -0.249330 -0.018666 0.020779
v -0.308228 0.008358 0.430728
v -0.300079 0.054000 0.431110
v -0.241183 0.026976 0.021162
v -0.176051 0.039055 -0.427089
v -0.445254 0.041474 0.389910
v -0.520565 0.021838 -0.074370
v -0.551053 0.041473 -0.449343
v -0.551053 0.088527 -0.449343
v -0.520565 0.068891 -0.074369
v -0.445254 0.088527 0.389910
v -0.905497 0.041473 -0.401885
v -0.875009 0.021838 -0.026911
v -0.799697 0.041474 0.437368
v -0.799697 0.088527 0.437368
v -0.875009 0.068891 -0.026911
v -0.905497 0.088527 -0.401885
v 0.344161 -0.276221 0.587669
v -0.014274 -0.115825 0.606842
v -0.495982 -0.040961 0.616332
v -0.495423 0.038529 0.616332
v -0.005932 -0.035484 0.606842
v 0.384772 -0.207372 0.586817
v -0.495980 -0.040961 0.696332
v -0.014274 -0.115825 0.686842
v 0.341524 -0.275041 0.667810
v 0.323994 -0.180633 0.669932
v -0.005932 -0.035484 0.686842
v -0.495423 0.038529 0.696332
v 0.470972 -0.204091 -0.684457
v 0.006589 -0.094092 -0.698894
v -0.498085 -0.040725 -0.696351
v -0.497685 0.038832 -0.696351
v 0.013700 -0.014522 -0.698894
v 0.495257 -0.127923 -0.684078
v -0.498085 -0.040725 -0.616351
v 0.006589 -0.094092 -0.618893
v 0.468652 -0.203542 -0.604529
v 0.540915 -0.138675 -0.602673
v 0.013700 -0.014522 -0.618893
v -0.497685 0.038832 -0.616351
v 0.096119 -0.055544 -0.796276
v 0.036075 -0.044618 -0.820996
v 0.040650 0.005692 -0.822042
v 0.108656 -0.006680 -0.794472
v 0.045975 -0.047108 -0.679233
v 0.051213 -0.011955 -0.678768
v 0.024923 0.004551 -0.513334
v 0.396618 -0.251688 0.629254
v 0.548570 -0.191828 -0.626303
vt 0.961599 0.957907
vt 0.961599 0.957907
vt 0.961599 0.957907
vt 0.961599 0.957907
vt 0.961599 0.957907
vt 0.961599 0.957907
vt 0.961599 0.957907
vt 0.961599 0.957907
vt 0.961599 0.957907
vt 0.961599 0.957907
vt 0.961599 0.957907
vt 0.961599 0.957907
vt 0.961599 0.957907
vt 0.961599 0.957907
vt 0.961599 0.957907
vt 0.961599 0.957907
vt 0.961599 0.957907
vt 0.961599 0.957907
vt 0.961599 0.957907
vt 0.961599 0.957907
vt 0.961599 0.957907
vt 0.961599 0.957907
vt 0.961599 0.957907
vt 0.961599 0.957907
vt 0.958725 0.976305
vt 0.958725 0.976305
vt 0.958725 0.976305
vt 0.958725 0.976305
vt 0.958725 0.976305
vt 0.958725 0.976305
vt 0.961599 0.957907
vt 0.961599 0.957907
vt 0.961599 0.957907
vt 0.961599 0.957907
vt 0.961599 0.957907
vt 0.961599 0.957907
vt 0.961599 0.957907
vt 0.961599 0.957907
vt 0.961599 0.957907
vt 0.961599 0.957907
vt 0.961599 0.957907
vt 0.961599 0.957907
vt 0.961599 0.957907
vt 0.961599 0.957907
vt 0.961599 0.957907
vt 0.961599 0.957907
vt 0.961599 0.957907
vt 0.961599 0.957907
vt 0.961599 0.957907
vt 0.961599 0.957907
vt 0.961599 0.957907
vt 0.961599 0.957907
vt 0.961599 0.957907
vt 0.961599 0.957907
vt 0.961599 0.957907
vt 0.961599 0.957907
vt 0.961599 0.957907
vt 0.961599 0.957907
vt 0.961599 0.957907
vt 0.961599 0.957907
vt 0.961599 0.957907
vt 0.961599 0.957907
vt 0.961599 0.957907
vt 0.961599 0.957907
vt 0.958725 0.976305
vt 0.958725 0.976305
vt 0.958725 0.976305
vt 0.958725 0.976305
vt 0.958725 0.976305
vt 0.958725 0.976305
vt 0.958725 0.976305
vt 0.958725 0.976305
vt 0.958725 0.976305
vt 0.958725 0.976305
vt 0.961599 0.957907
vt 0.961599 0.957907
vt 0.961599 0.957907
vt 0.961599 0.957907
vt 0.958725 0.976305
vt 0.961599 0.957907
vt 0.961599 0.957907
vn 0.1315 -0.0179 -0.9911
vn 0.1324 -0.0300 -0.9907
vn 0.1326 -0.0326 -0.9906
vn 0.9828 -0.1759 0.0566
vn -0.1221 0.0135 0.9924
vn -0.9828 0.1759 -0.0568
vn -0.1750 -0.9845 -0.0143
vn 0.2067 0.9774 0.0434
vn 0.1947 0.9800 0.0407
vn 0.1845 0.9819 0.0422
vn 0.4027 0.9153 -0.0000
vn -0.0019 -1.0000 0.0000
vn -0.0125 0.0001 0.9999
vn -0.0125 0.0000 0.9999
vn -0.0126 0.0000 0.9999
vn 0.0029 1.0000 -0.0000
vn 0.1495 0.9888 -0.0000
vn 0.0125 0.0000 0.9999
vn 0.0127 -0.0000 0.9999
vn 0.0023 1.0000 -0.0000
vn -0.1327 0.0000 -0.9912
vn 0.9894 0.0000 -0.1450
vn 0.1327 0.0000 0.9912
vn -0.9811 0.0000 0.1936
vn -0.0005 -1.0000 -0.0039
vn 0.0005 1.0000 0.0037
vn 0.1765 0.9843 0.0022
vn 0.1813 0.9827 -0.0387
vn 0.1839 0.9820 0.0432
vn 0.1703 0.9841 0.0513
vn -0.1769 -0.9842 -0.0041
vn -0.1762 -0.9843 -0.0050
vn -0.1868 -0.9822 -0.0173
vn -0.1839 -0.9820 -0.0432
vn -0.1890 -0.9812 -0.0402
vn -0.2026 -0.9787 -0.0321
vn -0.1813 -0.9827 0.0387
vn -0.9733 0.1750 -0.1484
vn -0.9731 0.1750 -0.1499
vn -0.9729 0.1749 -0.1513
vn -0.9750 0.1752 -0.1369
vn 0.9760 -0.1753 0.1295
vn 0.9755 -0.1753 0.1331
vn 0.9755 -0.1753 0.1333
vn 0.9750 -0.1752 0.1369
vn 0.9729 -0.1749 0.1513
vn -0.0005 1.0000 -0.0039
vn -0.0055 0.9991 -0.0414
vn 0.0069 0.9986 0.0517
vn 0.0005 -1.0000 0.0037
vn -0.0069 -0.9986 -0.0517
vn 0.0055 -0.9991 0.0414
vn -0.9963 0.0000 0.0859
vn -0.9871 -0.0000 0.1601
vn -0.9967 0.0000 0.0810
vn 0.9905 0.0000 -0.1373
vn 0.9967 0.0000 -0.0810
vn 0.9871 0.0000 -0.1601
vn -0.1536 -0.9881 0.0000
vn -0.4085 -0.9128 0.0000
vn 0.0475 -0.0128 0.9988
vn 0.0488 -0.0061 0.9988
vn 0.0473 -0.0137 0.9988
vn 0.0194 -0.0018 0.9998
vn 0.0194 -0.0003 0.9998
vn 0.0194 -0.0020 0.9998
vn 0.0125 -0.0000 -0.9999
vn 0.0125 -0.0001 -0.9999
vn 0.0126 0.0000 -0.9999
vn -0.0194 0.0003 -0.9998
vn -0.0194 0.0018 -0.9998
vn -0.0194 0.0020 -0.9998
vn -0.0487 0.0061 -0.9988
vn -0.0469 0.0138 -0.9988
vn -0.0466 0.0152 -0.9988
vn 0.2292 0.9734 -0.0000
vn 0.1038 0.9946 -0.0000
vn -0.0014 -1.0000 0.0000
vn -0.1052 -0.9945 0.0000
vn -0.2305 -0.9731 0.0000
vn -0.0298 0.0044 0.9995
vn -0.0303 0.0029 0.9995
vn -0.0304 0.0027 0.9995
vn 0.0050 -0.0004 1.0000
vn -0.0127 0.0000 -0.9999
vn -0.0125 -0.0000 -0.9999
vn -0.0050 0.0004 -1.0000
vn 0.0301 -0.0029 -0.9995
vn 0.0300 -0.0044 -0.9995
vn 0.0300 -0.0046 -0.9995
vn 0.9881 -0.1348 -0.0742
vn 0.9915 -0.1002 -0.0825
vn 0.9922 -0.0920 -0.0845
vn 0.0898 0.0081 -0.9959
vn 0.0837 -0.0010 -0.9965
vn 0.0930 0.0129 -0.9956
vn -0.8998 0.1635 -0.4045
vn -0.8802 0.2229 -0.4191
vn -0.9064 0.1403 -0.3984
vn 0.6914 0.7215 0.0379
vn -0.3909 0.9077 -0.1527
vn 0.5475 0.0830 0.8327
vn 0.2937 -0.3527 0.8884
vn 0.6767 -0.4068 -0.6137
vn 0.4060 -0.9135 0.0268
vn 0.7473 0.5528 0.3686
vn 0.6078 -0.1900 -0.7710
vn 0.1480 -0.9889 0.0111
vn 0.8452 0.3140 -0.4326
vn -1.0000 0.0000 0.0000
vn 0.1313 -0.0151 -0.9912
vn 0.1897 0.9816 0.0236
vn 0.1754 0.9844 0.0129
vn 0.1752 0.9845 0.0126
vn 0.1749 0.9845 0.0127
vn 0.0051 -0.0001 1.0000
vn -0.1761 -0.9844 -0.0045
vn -0.1859 -0.9824 -0.0203
vn -0.1999 -0.9794 -0.0294
vn -0.1922 -0.9812 -0.0178
vn -0.1703 -0.9841 -0.0513
vn -0.9731 0.1750 -0.1498
vn 0.0490 -0.0051 0.9988
vn 0.0194 -0.0001 0.9998
vn -0.0194 0.0001 -0.9998
vn -0.0490 0.0051 -0.9988
vn -0.0297 0.0045 0.9995
vn -0.0051 0.0001 -1.0000
vn 0.0301 -0.0027 -0.9995
vn 0.9867 -0.1461 -0.0715
vn 0.0803 -0.0060 -0.9967
vn -0.8739 0.2398 -0.4229
s 1
f 1/1/1 75/2/2 74/3/3
f 30/4/4 7/5/4 25/6/4
f 7/5/5 6/7/5 5/8/5
f 36/9/6 1/1/6 31/10/6
f 25/6/7 5/8/7 33/11/7
f 28/12/8 79/13/9 36/9/10
f 53/14/11 58/15/11 54/16/11
f 51/17/12 9/18/12 11/19/12
f 55/20/13 10/21/14 9/18/15
f 52/22/16 10/21/16 60/23/16
f 52/22/17 59/24/17 53/14/17
f 67/25/18 14/26/19 13/27/19
f 16/28/20 72/29/20 64/30/20
f 18/31/21 19/32/21 17/33/21
f 42/34/22 23/35/22 37/36/22
f 24/37/23 21/38/23 23/35/23
f 43/39/24 18/31/24 17/33/24
f 23/35/25 45/40/25 37/36/25
f 20/41/26 48/42/26 40/43/26
f 30/4/27 6/7/27 8/44/27
f 30/4/28 35/45/28 34/46/28
f 29/47/29 36/9/10 35/45/30
f 1/1/31 74/3/32 77/48/33
f 26/49/34 31/10/35 27/50/36
f 25/6/37 32/51/37 26/49/37
f 6/7/38 33/11/39 5/8/38
f 33/11/39 35/45/40 32/51/40
f 35/45/41 31/10/41 32/51/41
f 3/52/42 28/12/43 27/50/44
f 27/50/44 29/47/45 26/49/45
f 29/47/46 25/6/46 26/49/46
f 24/37/47 46/53/47 22/54/47
f 41/55/48 46/53/48 42/34/48
f 41/55/49 48/42/49 47/56/49
f 19/32/50 43/39/50 17/33/50
f 38/57/51 43/39/51 39/58/51
f 38/57/52 45/40/52 44/59/52
f 22/54/53 45/40/53 21/38/53
f 45/40/54 47/56/54 44/59/54
f 47/56/55 43/39/55 44/59/55
f 20/41/56 39/58/56 19/32/56
f 39/58/57 41/55/57 38/57/57
f 41/55/58 37/36/58 38/57/58
f 51/17/59 56/60/59 55/20/59
f 50/61/60 57/62/60 56/60/60
f 58/15/61 56/60/62 57/62/63
f 59/24/64 55/20/65 56/60/66
f 12/63/67 51/17/68 11/19/69
f 51/17/70 53/14/71 50/61/72
f 50/61/73 54/16/74 49/64/75
f 66/65/76 71/66/76 70/67/76
f 64/30/77 71/66/77 65/68/77
f 15/69/78 67/25/78 13/27/78
f 63/70/79 68/71/79 67/25/79
f 61/72/80 68/71/80 62/73/80
f 69/74/81 71/66/82 68/71/83
f 71/66/84 67/25/18 68/71/84
f 16/28/85 63/70/86 15/69/85
f 63/70/86 65/68/87 62/73/87
f 62/73/88 66/65/89 61/72/90
f 78/75/91 74/3/92 75/2/93
f 76/76/94 3/52/95 73/77/96
f 78/75/97 73/77/98 77/48/99
f 75/2/100 79/13/100 78/75/100
f 78/75/101 79/13/101 76/76/101
f 58/15/102 57/62/102 80/78/102
f 70/67/103 69/74/103 81/79/103
f 54/16/104 80/78/104 49/64/104
f 49/64/105 80/78/105 57/62/105
f 80/78/106 54/16/106 58/15/106
f 61/72/107 66/65/107 81/79/107
f 81/79/108 69/74/108 61/72/108
f 81/79/109 66/65/109 70/67/109
f 13/27/110 16/28/110 15/69/110
f 9/18/110 12/63/110 11/19/110
f 1/1/1 2/80/111 75/2/2
f 30/4/4 8/44/4 7/5/4
f 7/5/5 8/44/5 6/7/5
f 36/9/6 2/80/6 1/1/6
f 25/6/7 7/5/7 5/8/7
f 28/12/8 4/81/112 79/13/9
f 4/81/112 76/76/113 79/13/9
f 79/13/9 75/2/114 2/80/115
f 79/13/9 2/80/115 36/9/10
f 53/14/11 59/24/11 58/15/11
f 51/17/12 55/20/12 9/18/12
f 55/20/13 60/23/13 10/21/14
f 52/22/16 12/63/16 10/21/16
f 52/22/17 60/23/17 59/24/17
f 67/25/18 72/29/116 14/26/19
f 16/28/20 14/26/20 72/29/20
f 18/31/21 20/41/21 19/32/21
f 42/34/22 24/37/22 23/35/22
f 24/37/23 22/54/23 21/38/23
f 43/39/24 48/42/24 18/31/24
f 23/35/25 21/38/25 45/40/25
f 20/41/26 18/31/26 48/42/26
f 30/4/27 34/46/27 6/7/27
f 30/4/28 29/47/28 35/45/28
f 29/47/29 28/12/8 36/9/10
f 73/77/117 3/52/118 77/48/33
f 3/52/118 27/50/119 77/48/33
f 27/50/119 31/10/120 77/48/33
f 31/10/120 1/1/31 77/48/33
f 26/49/34 32/51/121 31/10/35
f 25/6/37 33/11/37 32/51/37
f 6/7/38 34/46/122 33/11/39
f 33/11/39 34/46/122 35/45/40
f 35/45/41 36/9/41 31/10/41
f 3/52/42 4/81/42 28/12/43
f 27/50/44 28/12/43 29/47/45
f 29/47/46 30/4/46 25/6/46
f 24/37/47 42/34/47 46/53/47
f 41/55/48 47/56/48 46/53/48
f 41/55/49 40/43/49 48/42/49
f 19/32/50 39/58/50 43/39/50
f 38/57/51 44/59/51 43/39/51
f 38/57/52 37/36/52 45/40/52
f 22/54/53 46/53/53 45/40/53
f 45/40/54 46/53/54 47/56/54
f 47/56/55 48/42/55 43/39/55
f 20/41/56 40/43/56 39/58/56
f 39/58/57 40/43/57 41/55/57
f 41/55/58 42/34/58 37/36/58
f 51/17/59 50/61/59 56/60/59
f 50/61/60 49/64/60 57/62/60
f 58/15/61 59/24/123 56/60/62
f 59/24/64 60/23/124 55/20/65
f 12/63/67 52/22/68 51/17/68
f 51/17/70 52/22/125 53/14/71
f 50/61/73 53/14/126 54/16/74
f 66/65/76 65/68/76 71/66/76
f 64/30/77 72/29/77 71/66/77
f 15/69/78 63/70/78 67/25/78
f 63/70/79 62/73/79 68/71/79
f 61/72/80 69/74/80 68/71/80
f 69/74/81 70/67/127 71/66/82
f 71/66/84 72/29/116 67/25/18
f 16/28/85 64/30/128 63/70/86
f 63/70/86 64/30/128 65/68/87
f 62/73/88 65/68/129 66/65/89
f 78/75/91 77/48/130 74/3/92
f 76/76/94 4/81/131 3/52/95
f 78/75/97 76/76/132 73/77/98
f 13/27/110 14/26/110 16/28/110
f 9/18/110 10/21/110 12/63/110
