# Blender v2.81 (sub 16) OBJ File: 'models.blend'
# www.blender.org
o D_Cart_Cylinder.024
v -0.538195 0.019117 0.322919
v 0.538198 0.019117 0.322919
v -0.538195 0.019117 -0.322917
v 0.538198 0.019117 -0.322917
v -0.645834 0.664953 0.430558
v 0.645837 0.664953 0.430558
v -0.645834 0.664953 -0.430557
v 0.645837 0.664953 -0.430557
v -0.481203 0.090460 0.265927
v 0.481206 0.090460 0.265927
v -0.481203 0.090460 -0.265925
v 0.481206 0.090460 -0.265925
v -0.569724 0.664953 0.354448
v 0.569727 0.664953 0.354448
v -0.569724 0.664953 -0.354447
v 0.569727 0.664953 -0.354447
v -0.491075 0.056813 0.371901
v -0.491075 0.056813 0.439101
v -0.421075 0.178057 0.371901
v -0.421075 0.178057 0.439101
v -0.281074 0.178057 0.371901
v -0.281074 0.178057 0.439101
v -0.211074 0.056813 0.371901
v -0.211074 0.056813 0.439101
v -0.281074 -0.064430 0.371901
v -0.281074 -0.064430 0.439101
v -0.421075 -0.064430 0.371901
v -0.421075 -0.064430 0.439101
v 0.198926 0.056813 0.370852
v 0.198925 0.056813 0.440151
v 0.273925 0.186717 0.370851
v 0.273925 0.186717 0.440151
v 0.423926 0.186717 0.370851
v 0.423926 0.186717 0.440151
v 0.498925 0.056813 0.370852
v 0.498925 0.056813 0.440151
v 0.423926 -0.073091 0.370852
v 0.423924 -0.073091 0.440151
v 0.273925 -0.073091 0.370852
v 0.273925 -0.073091 0.440151
v -0.501074 0.056813 -0.435991
v -0.501074 0.056813 -0.372991
v -0.426075 0.186717 -0.435991
v -0.426075 0.186717 -0.372991
v -0.276074 0.186717 -0.435991
v -0.276074 0.186717 -0.372991
v -0.201074 0.056813 -0.435991
v -0.201075 0.056813 -0.372991
v -0.276074 -0.073091 -0.435991
v -0.276074 -0.073091 -0.372991
v -0.426075 -0.073091 -0.435991
v -0.426075 -0.073091 -0.372991
v 0.198926 0.056813 -0.435991
v 0.198925 0.056813 -0.372991
v 0.273925 0.186717 -0.435991
v 0.273925 0.186717 -0.372991
v 0.423926 0.186717 -0.435991
v 0.423926 0.186717 -0.372991
v 0.498926 0.056813 -0.435991
v 0.498925 0.056813 -0.372991
v 0.423926 -0.073091 -0.435991
v 0.423926 -0.073091 -0.372991
v 0.273925 -0.073091 -0.435991
v 0.273925 -0.073091 -0.372991
vt 0.926032 0.986517
vt 0.926032 0.986517
vt 0.926032 0.986517
vt 0.926032 0.986517
vt 0.926032 0.986517
vt 0.926032 0.986517
vt 0.926032 0.986517
vt 0.926032 0.986517
vt 0.926032 0.986517
vt 0.926032 0.986517
vt 0.926032 0.986517
vt 0.926032 0.986517
vt 0.926032 0.986517
vt 0.926032 0.986517
vt 0.926032 0.986517
vt 0.926032 0.986517
vt 0.933120 0.976629
vt 0.933120 0.976629
vt 0.933120 0.976629
vt 0.933120 0.976629
vt 0.933120 0.976629
vt 0.933120 0.976629
vt 0.933120 0.976629
vt 0.933120 0.976629
vt 0.933120 0.976629
vt 0.933120 0.976629
vt 0.933120 0.976629
vt 0.933120 0.976629
vt 0.933120 0.976629
vt 0.933120 0.976629
vt 0.933120 0.976629
vt 0.933120 0.976629
vt 0.933120 0.976629
vt 0.933120 0.976629
vt 0.933120 0.976629
vt 0.933120 0.976629
vt 0.933120 0.976629
vt 0.933120 0.976629
vt 0.933120 0.976629
vt 0.933120 0.976629
vt 0.933120 0.976629
vt 0.933120 0.976629
vt 0.933120 0.976629
vt 0.933120 0.976629
vt 0.933120 0.976629
vt 0.933120 0.976629
vt 0.933120 0.976629
vt 0.933120 0.976629
vt 0.933120 0.976629
vt 0.933120 0.976629
vt 0.933120 0.976629
vt 0.933120 0.976629
vt 0.933120 0.976629
vt 0.933120 0.976629
vt 0.933120 0.976629
vt 0.933120 0.976629
vt 0.933120 0.976629
vt 0.933120 0.976629
vt 0.933120 0.976629
vt 0.933120 0.976629
vt 0.933120 0.976629
vt 0.933120 0.976629
vt 0.933120 0.976629
vt 0.933120 0.976629
vn 0.0000 -1.0000 0.0000
vn 0.9864 -0.1644 0.0000
vn -0.9864 -0.1644 0.0000
vn 0.0000 -0.1644 -0.9864
vn 0.0000 -0.1644 0.9864
vn 0.0000 1.0000 -0.0000
vn -0.9883 0.1523 -0.0000
vn 0.9883 0.1523 -0.0000
vn 0.0000 0.1523 0.9883
vn 0.0000 0.1523 -0.9883
vn -0.8660 0.5000 -0.0000
vn 0.8660 0.5000 -0.0000
vn 0.8660 -0.5000 0.0000
vn 0.0000 0.0000 1.0000
vn -0.8660 -0.5000 0.0000
vn 0.0000 -0.0000 -1.0000
s 1
f 3/1/1 2/2/1 1/3/1
f 4/4/2 6/5/2 2/2/2
f 1/3/3 7/6/3 3/1/3
f 3/1/4 8/7/4 4/4/4
f 2/2/5 5/8/5 1/3/5
f 10/9/6 11/10/6 9/11/6
f 14/12/7 12/13/7 10/9/7
f 15/14/8 9/11/8 11/10/8
f 16/15/9 11/10/9 12/13/9
f 13/16/10 10/9/10 9/11/10
f 5/8/6 15/14/6 7/6/6
f 6/5/6 13/16/6 5/8/6
f 8/7/6 14/12/6 6/5/6
f 7/6/6 16/15/6 8/7/6
f 18/17/11 19/18/11 17/19/11
f 20/20/6 21/21/6 19/18/6
f 22/22/12 23/23/12 21/21/12
f 24/24/13 25/25/13 23/23/13
f 26/26/14 24/24/14 22/22/14
f 26/26/1 27/27/1 25/25/1
f 28/28/15 17/19/15 27/27/15
f 25/25/16 27/27/16 19/18/16
f 29/29/11 32/30/11 31/31/11
f 32/30/6 33/32/6 31/31/6
f 34/33/12 35/34/12 33/32/12
f 36/35/13 37/36/13 35/34/13
f 38/37/14 36/35/14 34/33/14
f 38/37/1 39/38/1 37/36/1
f 40/39/15 29/29/15 39/38/15
f 35/34/16 37/36/16 39/38/16
f 42/40/11 43/41/11 41/42/11
f 44/43/6 45/44/6 43/41/6
f 45/44/12 48/45/12 47/46/12
f 48/45/13 49/47/13 47/46/13
f 48/45/14 46/48/14 42/40/14
f 50/49/1 51/50/1 49/47/1
f 52/51/15 41/42/15 51/50/15
f 47/46/16 49/47/16 51/50/16
f 53/52/11 56/53/11 55/54/11
f 56/53/6 57/55/6 55/54/6
f 57/55/12 60/56/12 59/57/12
f 60/56/13 61/58/13 59/57/13
f 60/56/14 58/59/14 54/60/14
f 62/61/1 63/62/1 61/58/1
f 64/63/15 53/52/15 63/62/15
f 59/57/16 61/58/16 63/62/16
f 3/1/1 4/4/1 2/2/1
f 4/4/2 8/7/2 6/5/2
f 1/3/3 5/8/3 7/6/3
f 3/1/4 7/6/4 8/7/4
f 2/2/5 6/5/5 5/8/5
f 10/9/6 12/13/6 11/10/6
f 14/12/7 16/15/7 12/13/7
f 15/14/8 13/16/8 9/11/8
f 16/15/9 15/14/9 11/10/9
f 13/16/10 14/12/10 10/9/10
f 5/8/6 13/16/6 15/14/6
f 6/5/6 14/12/6 13/16/6
f 8/7/6 16/15/6 14/12/6
f 7/6/6 15/14/6 16/15/6
f 18/17/11 20/20/11 19/18/11
f 20/20/6 22/22/6 21/21/6
f 22/22/12 24/24/12 23/23/12
f 24/24/13 26/26/13 25/25/13
f 22/22/14 20/20/14 18/17/14
f 18/17/14 28/28/14 22/22/14
f 28/28/14 26/26/14 22/22/14
f 26/26/1 28/28/1 27/27/1
f 28/28/15 18/17/15 17/19/15
f 27/27/16 17/19/16 19/18/16
f 19/18/16 21/21/16 23/23/16
f 23/23/16 25/25/16 19/18/16
f 29/29/11 30/64/11 32/30/11
f 32/30/6 34/33/6 33/32/6
f 34/33/12 36/35/12 35/34/12
f 36/35/13 38/37/13 37/36/13
f 34/33/14 32/30/14 38/37/14
f 32/30/14 30/64/14 38/37/14
f 30/64/14 40/39/14 38/37/14
f 38/37/1 40/39/1 39/38/1
f 40/39/15 30/64/15 29/29/15
f 39/38/16 29/29/16 35/34/16
f 29/29/16 31/31/16 35/34/16
f 31/31/16 33/32/16 35/34/16
f 42/40/11 44/43/11 43/41/11
f 44/43/6 46/48/6 45/44/6
f 45/44/12 46/48/12 48/45/12
f 48/45/13 50/49/13 49/47/13
f 46/48/14 44/43/14 42/40/14
f 42/40/14 52/51/14 50/49/14
f 50/49/14 48/45/14 42/40/14
f 50/49/1 52/51/1 51/50/1
f 52/51/15 42/40/15 41/42/15
f 51/50/16 41/42/16 47/46/16
f 41/42/16 43/41/16 47/46/16
f 43/41/16 45/44/16 47/46/16
f 53/52/11 54/60/11 56/53/11
f 56/53/6 58/59/6 57/55/6
f 57/55/12 58/59/12 60/56/12
f 60/56/13 62/61/13 61/58/13
f 58/59/14 56/53/14 54/60/14
f 54/60/14 64/63/14 62/61/14
f 62/61/14 60/56/14 54/60/14
f 62/61/1 64/63/1 63/62/1
f 64/63/15 54/60/15 53/52/15
f 63/62/16 53/52/16 59/57/16
f 53/52/16 55/54/16 59/57/16
f 55/54/16 57/55/16 59/57/16
