# Blender v2.81 (sub 16) OBJ File: 'models.blend'
# www.blender.org
o D_Column_Big_Cylinder.295
v -0.360241 0.001159 0.360122
v -0.240241 0.541159 0.240122
v -0.360241 0.001159 -0.359878
v -0.240241 0.541159 -0.239878
v 0.359759 0.001159 0.360122
v 0.239759 0.541159 0.240122
v 0.359759 0.001159 -0.359878
v 0.239759 0.541159 -0.239878
v -0.168242 0.601159 0.168122
v -0.168242 0.601159 -0.167878
v 0.167759 0.601159 0.168122
v 0.167759 0.601159 -0.167878
v -0.168242 0.651159 0.168122
v -0.168242 0.651159 -0.167878
v 0.167759 0.651159 0.168122
v 0.167759 0.651159 -0.167878
v -0.215442 0.701159 0.215322
v -0.215442 0.701159 -0.215078
v 0.214959 0.701159 0.215322
v 0.214959 0.701159 -0.215078
v -0.215442 1.001159 0.215322
v -0.215442 1.001159 -0.215078
v 0.214959 1.001159 0.215322
v 0.214959 1.001159 -0.215078
v -0.150769 1.051159 0.150650
v -0.150769 1.051159 -0.150406
v 0.150287 1.051159 0.150650
v 0.150287 1.051159 -0.150406
v -0.360241 5.001158 0.360121
v -0.240241 4.461159 0.240121
v -0.360241 5.001158 -0.359879
v -0.240241 4.461159 -0.239879
v 0.359759 5.001158 0.360121
v 0.239759 4.461159 0.240121
v 0.359759 5.001158 -0.359879
v 0.239759 4.461159 -0.239879
v -0.168242 4.401159 0.168121
v -0.168242 4.401159 -0.167879
v 0.167759 4.401159 0.168121
v 0.167759 4.401159 -0.167879
v -0.168242 4.351159 0.168121
v -0.168242 4.351159 -0.167879
v 0.167759 4.351159 0.168121
v 0.167759 4.351159 -0.167879
v -0.215442 4.301159 0.215321
v -0.215442 4.301159 -0.215079
v 0.214959 4.301159 0.215321
v 0.214959 4.301159 -0.215079
v -0.215442 4.001159 0.215321
v -0.215442 4.001159 -0.215079
v 0.214959 4.001159 0.215321
v 0.214959 4.001159 -0.215079
v -0.150769 3.951159 0.150649
v -0.150769 3.951159 -0.150407
v 0.150287 3.951159 0.150649
v 0.150287 3.951159 -0.150407
v 0.150287 1.990561 -0.150407
v 0.150287 2.575411 -0.150407
v 0.150287 2.352705 -0.086592
v 0.036954 2.216837 -0.150407
v -0.150769 2.766220 0.150650
v -0.150769 3.587708 0.150649
v -0.150769 2.976250 0.064597
v -0.150769 3.297183 0.030181
v -0.046822 3.085306 0.150650
v -0.268903 0.412182 -0.268540
v -0.313063 0.213461 -0.312700
v -0.254739 0.297025 -0.294130
v -0.305850 0.245919 -0.219199
vt 0.974827 0.964994
vt 0.974827 0.964994
vt 0.974827 0.964994
vt 0.974827 0.964994
vt 0.974827 0.964994
vt 0.974827 0.964994
vt 0.974827 0.964994
vt 0.974827 0.964994
vt 0.974827 0.964994
vt 0.974827 0.964994
vt 0.974827 0.964994
vt 0.974827 0.964994
vt 0.973118 0.975004
vt 0.973118 0.975004
vt 0.973118 0.975004
vt 0.974827 0.964994
vt 0.974827 0.964994
vt 0.974827 0.964994
vt 0.974827 0.964994
vt 0.974827 0.964994
vt 0.974827 0.964994
vt 0.973118 0.975004
vt 0.973118 0.975004
vt 0.973118 0.975004
vt 0.973118 0.975004
vt 0.973118 0.975004
vt 0.974827 0.964994
vt 0.974827 0.964994
vt 0.974827 0.964994
vt 0.974827 0.964994
vt 0.974827 0.964994
vt 0.974827 0.964994
vt 0.974827 0.964994
vt 0.974827 0.964994
vt 0.974827 0.964994
vt 0.974827 0.964994
vt 0.974827 0.964994
vt 0.974827 0.964994
vt 0.974827 0.964994
vt 0.973118 0.975004
vt 0.973118 0.975004
vt 0.973118 0.975004
vt 0.973118 0.975004
vt 0.973118 0.975004
vt 0.973118 0.975004
vt 0.973118 0.975004
vt 0.973118 0.975004
vt 0.974827 0.964994
vt 0.974827 0.964994
vt 0.974827 0.964994
vt 0.974827 0.964994
vt 0.974827 0.964994
vt 0.974827 0.964994
vt 0.974827 0.964994
vt 0.974827 0.964994
vt 0.974827 0.964994
vt 0.973118 0.975004
vt 0.973118 0.975004
vt 0.973118 0.975004
vt 0.974827 0.964994
vt 0.974827 0.964994
vt 0.974827 0.964994
vt 0.974827 0.964994
vt 0.974827 0.964994
vt 0.973118 0.975004
vt 0.973118 0.975004
vt 0.973118 0.975004
vt 0.973118 0.975004
vt 0.973118 0.975004
vt 0.974827 0.964994
vt 0.974827 0.964994
vt 0.974827 0.964994
vt 0.974827 0.964994
vt 0.974827 0.964994
vt 0.974827 0.964994
vt 0.974827 0.964994
vt 0.974827 0.964994
vt 0.974827 0.964994
vt 0.974827 0.964994
vt 0.974827 0.964994
vt 0.974827 0.964994
vt 0.973118 0.975004
vt 0.973118 0.975004
vt 0.973118 0.975004
vt 0.973118 0.975004
vt 0.973118 0.975004
vt 0.973118 0.975004
vt 0.974827 0.964994
vt 0.973118 0.975004
vt 0.973118 0.975004
vt 0.973118 0.975004
vt 0.974827 0.964994
vt 0.974827 0.964994
vn -0.9762 0.2169 0.0000
vn -0.0000 0.2169 -0.9762
vn 0.9762 0.2169 -0.0000
vn 0.0000 0.2169 0.9762
vn 0.0000 -1.0000 0.0000
vn 0.0000 0.7682 -0.6402
vn 1.0000 0.0000 0.0000
vn 0.6402 0.7682 -0.0000
vn -0.6402 0.7682 -0.0000
vn 0.0000 0.7682 0.6402
vn -0.7272 -0.6865 0.0000
vn -1.0000 0.0000 0.0000
vn 0.0000 0.0000 1.0000
vn 0.0000 0.0000 -1.0000
vn 0.0000 -0.6865 0.7272
vn 0.0000 -0.6865 -0.7272
vn 0.7272 -0.6865 0.0000
vn 0.6117 0.7911 0.0000
vn -0.6116 0.7911 0.0000
vn 0.0000 0.7911 0.6116
vn 0.0000 0.7911 -0.6116
vn -0.9762 -0.2169 0.0000
vn 0.0000 -0.2169 -0.9762
vn 0.9762 -0.2169 0.0000
vn 0.0000 -0.2169 0.9762
vn 0.0000 1.0000 0.0000
vn 0.0000 -0.7682 -0.6402
vn 0.6402 -0.7682 0.0000
vn -0.6402 -0.7682 0.0000
vn 0.0000 -0.7682 0.6402
vn -0.7272 0.6865 0.0000
vn 0.0000 0.6865 0.7272
vn 0.0000 0.6865 -0.7272
vn 0.7272 0.6865 0.0000
vn 0.6116 -0.7911 0.0000
vn -0.6116 -0.7911 0.0000
vn 0.0000 -0.7911 0.6116
vn 0.0000 -0.7911 -0.6116
vn 0.3274 0.1640 -0.9306
vn 0.6570 -0.2077 -0.7247
vn -0.7585 0.2471 0.6031
vn -0.8798 -0.1820 0.4390
vn -0.6830 0.0779 0.7263
vn -0.8324 0.0207 -0.5537
vn -0.7965 0.5876 -0.1425
s 1
f 2/1/1 66/2/1 69/3/1
f 8/4/2 7/5/2 68/6/2
f 8/4/3 5/7/3 7/5/3
f 6/8/4 1/9/4 5/7/4
f 7/5/5 1/9/5 3/10/5
f 4/11/6 12/12/6 8/4/6
f 12/13/7 15/14/7 11/15/7
f 8/4/8 11/16/8 6/8/8
f 4/11/9 9/17/9 10/18/9
f 2/1/10 11/16/10 9/17/10
f 13/19/11 18/20/11 14/21/11
f 9/22/12 14/23/12 10/24/12
f 11/15/13 13/25/13 9/22/13
f 10/24/14 16/26/14 12/13/14
f 19/27/13 21/28/13 17/29/13
f 15/30/15 17/29/15 13/19/15
f 16/31/16 18/20/16 20/32/16
f 15/30/17 20/32/17 19/27/17
f 24/33/18 27/34/18 23/35/18
f 18/20/14 24/33/14 20/32/14
f 20/32/7 23/35/7 19/27/7
f 17/29/12 22/36/12 18/20/12
f 21/28/19 26/37/19 22/36/19
f 23/35/20 25/38/20 21/28/20
f 24/33/21 26/37/21 28/39/21
f 27/40/7 57/41/7 59/42/7
f 27/40/13 55/43/13 65/44/13
f 26/45/14 54/46/14 60/47/14
f 31/48/22 30/49/22 29/50/22
f 35/51/23 32/52/23 31/48/23
f 33/53/24 36/54/24 35/51/24
f 29/50/25 34/55/25 33/53/25
f 29/50/26 35/51/26 31/48/26
f 40/56/27 32/52/27 36/54/27
f 43/57/7 40/58/7 39/59/7
f 39/60/28 36/54/28 34/55/28
f 32/52/29 37/61/29 30/49/29
f 30/49/30 39/60/30 34/55/30
f 46/62/31 41/63/31 42/64/31
f 42/65/12 37/66/12 38/67/12
f 41/68/13 39/59/13 37/66/13
f 44/69/14 38/67/14 40/58/14
f 49/70/13 47/71/13 45/72/13
f 41/63/32 47/71/32 43/73/32
f 48/74/33 42/64/33 44/75/33
f 43/73/34 48/74/34 44/75/34
f 55/76/35 52/77/35 51/78/35
f 52/77/14 46/62/14 48/74/14
f 51/78/7 48/74/7 47/71/7
f 50/79/12 45/72/12 46/62/12
f 54/80/36 49/70/36 50/79/36
f 53/81/37 51/78/37 49/70/37
f 52/77/38 54/80/38 50/79/38
f 62/82/12 53/83/12 54/46/12
f 59/42/39 57/41/39 60/47/39
f 60/47/40 58/84/40 59/42/40
f 61/85/41 65/44/41 63/86/41
f 65/44/42 62/82/42 64/87/42
f 64/87/43 63/86/43 65/44/43
f 68/6/44 69/3/44 66/2/44
f 69/3/45 68/6/45 67/88/45
f 3/10/1 1/9/1 69/3/1
f 1/9/1 2/1/1 69/3/1
f 2/1/1 4/11/1 66/2/1
f 69/3/1 67/88/1 3/10/1
f 7/5/2 3/10/2 67/88/2
f 68/6/2 66/2/2 8/4/2
f 66/2/2 4/11/2 8/4/2
f 7/5/2 67/88/2 68/6/2
f 8/4/3 6/8/3 5/7/3
f 6/8/4 2/1/4 1/9/4
f 7/5/5 5/7/5 1/9/5
f 4/11/6 10/18/6 12/12/6
f 12/13/7 16/26/7 15/14/7
f 8/4/8 12/12/8 11/16/8
f 4/11/9 2/1/9 9/17/9
f 2/1/10 6/8/10 11/16/10
f 13/19/11 17/29/11 18/20/11
f 9/22/12 13/25/12 14/23/12
f 11/15/13 15/14/13 13/25/13
f 10/24/14 14/23/14 16/26/14
f 19/27/13 23/35/13 21/28/13
f 15/30/15 19/27/15 17/29/15
f 16/31/16 14/21/16 18/20/16
f 15/30/17 16/31/17 20/32/17
f 24/33/18 28/39/18 27/34/18
f 18/20/14 22/36/14 24/33/14
f 20/32/7 24/33/7 23/35/7
f 17/29/12 21/28/12 22/36/12
f 21/28/19 25/38/19 26/37/19
f 23/35/20 27/34/20 25/38/20
f 24/33/21 22/36/21 26/37/21
f 56/89/7 55/43/7 58/84/7
f 55/43/7 27/40/7 59/42/7
f 27/40/7 28/90/7 57/41/7
f 59/42/7 58/84/7 55/43/7
f 55/43/13 53/83/13 62/82/13
f 65/44/13 61/85/13 27/40/13
f 61/85/13 25/91/13 27/40/13
f 55/43/13 62/82/13 65/44/13
f 54/46/14 56/89/14 58/84/14
f 60/47/14 57/41/14 26/45/14
f 57/41/14 28/90/14 26/45/14
f 54/46/14 58/84/14 60/47/14
f 31/48/22 32/52/22 30/49/22
f 35/51/23 36/54/23 32/52/23
f 33/53/24 34/55/24 36/54/24
f 29/50/25 30/49/25 34/55/25
f 29/50/26 33/53/26 35/51/26
f 40/56/27 38/92/27 32/52/27
f 43/57/7 44/69/7 40/58/7
f 39/60/28 40/56/28 36/54/28
f 32/52/29 38/92/29 37/61/29
f 30/49/30 37/61/30 39/60/30
f 46/62/31 45/72/31 41/63/31
f 42/65/12 41/68/12 37/66/12
f 41/68/13 43/57/13 39/59/13
f 44/69/14 42/65/14 38/67/14
f 49/70/13 51/78/13 47/71/13
f 41/63/32 45/72/32 47/71/32
f 48/74/33 46/62/33 42/64/33
f 43/73/34 47/71/34 48/74/34
f 55/76/35 56/93/35 52/77/35
f 52/77/14 50/79/14 46/62/14
f 51/78/7 52/77/7 48/74/7
f 50/79/12 49/70/12 45/72/12
f 54/80/36 53/81/36 49/70/36
f 53/81/37 55/76/37 51/78/37
f 52/77/38 56/93/38 54/80/38
f 54/46/12 26/45/12 63/86/12
f 26/45/12 25/91/12 61/85/12
f 54/46/12 63/86/12 64/87/12
f 61/85/12 63/86/12 26/45/12
f 64/87/12 62/82/12 54/46/12
