# Blender v2.81 (sub 16) OBJ File: 'models.blend'
# www.blender.org
o D_Column_Bottom_Cylinder.293
v -0.360001 -0.000000 0.360002
v -0.240001 0.540000 0.240002
v -0.360001 -0.000000 -0.359998
v -0.240001 0.540000 -0.239999
v 0.359999 -0.000000 0.360002
v 0.239998 0.540000 0.240002
v 0.359999 -0.000000 -0.359998
v 0.239998 0.540000 -0.239999
v -0.168001 0.600000 0.168001
v -0.168001 0.600000 -0.167998
v 0.167999 0.600000 0.168001
v 0.167999 0.600000 -0.167998
v -0.168001 0.650000 0.168001
v -0.168001 0.650000 -0.167998
v 0.167999 0.650000 0.168001
v 0.167999 0.650000 -0.167998
v -0.215201 0.700000 0.215201
v -0.215201 0.700000 -0.215198
v 0.215199 0.700000 0.215201
v 0.215199 0.700000 -0.215198
v -0.215201 1.000000 0.215201
v -0.215201 1.000000 -0.215198
v 0.215199 1.000000 -0.215198
v -0.150529 1.049999 0.150530
v -0.150529 1.049999 -0.150527
v 0.150528 1.049999 0.150530
v 0.150528 1.049999 -0.150527
v 0.150528 1.774837 0.150530
v -0.150529 1.638883 0.150530
v -0.150529 1.800000 -0.150527
v 0.150528 1.739799 -0.150527
v -0.079068 1.903952 0.031666
v 0.215199 0.873052 0.215201
v 0.215199 1.000000 0.152796
v 0.115579 1.000000 0.215201
v 0.263440 0.434515 -0.263439
v 0.313165 0.210752 -0.313164
v 0.195118 0.280504 -0.297664
v 0.293927 0.297326 -0.264711
vt 0.974827 0.964994
vt 0.974827 0.964994
vt 0.974827 0.964994
vt 0.974827 0.964994
vt 0.974827 0.964994
vt 0.974827 0.964994
vt 0.974827 0.964994
vt 0.974827 0.964994
vt 0.974827 0.964994
vt 0.973118 0.975004
vt 0.973118 0.975004
vt 0.973118 0.975004
vt 0.973118 0.975004
vt 0.973118 0.975004
vt 0.973118 0.975004
vt 0.974827 0.964994
vt 0.974827 0.964994
vt 0.974827 0.964994
vt 0.974827 0.964994
vt 0.974827 0.964994
vt 0.974827 0.964994
vt 0.973118 0.975004
vt 0.973118 0.975004
vt 0.973118 0.975004
vt 0.973118 0.975004
vt 0.974827 0.964994
vt 0.974827 0.964994
vt 0.974827 0.964994
vt 0.974827 0.964994
vt 0.974827 0.964994
vt 0.974827 0.964994
vt 0.974827 0.964994
vt 0.974827 0.964994
vt 0.974827 0.964994
vt 0.974827 0.964994
vt 0.974827 0.964994
vt 0.974827 0.964994
vt 0.974827 0.964994
vt 0.974827 0.964994
vt 0.974827 0.964994
vt 0.973118 0.975004
vt 0.973118 0.975004
vt 0.973118 0.975004
vt 0.973118 0.975004
vt 0.973118 0.975004
vt 0.973118 0.975004
vt 0.973118 0.975004
vt 0.974827 0.964994
vt 0.974827 0.964994
vt 0.973118 0.975004
vt 0.974827 0.964994
vt 0.973118 0.975004
vt 0.973118 0.975004
vn -0.9762 0.2169 -0.0000
vn 0.0000 0.2169 -0.9762
vn 0.9762 0.2169 0.0000
vn 0.0000 0.2169 0.9762
vn 0.0000 -1.0000 0.0000
vn 0.0000 0.7682 -0.6402
vn 1.0000 0.0000 0.0000
vn 0.6402 0.7682 -0.0000
vn -0.6402 0.7682 -0.0000
vn 0.0000 0.7682 0.6402
vn -0.7272 -0.6865 0.0000
vn -1.0000 0.0000 0.0000
vn 0.0000 0.0000 1.0000
vn 0.0000 0.0000 -1.0000
vn 0.0000 -0.6865 0.7272
vn 0.0000 -0.6865 -0.7272
vn 0.7272 -0.6865 0.0000
vn 0.5840 0.4583 0.6700
vn -0.6116 0.7911 -0.0000
vn -0.6117 0.7911 -0.0000
vn 0.0000 0.7911 0.6116
vn 0.0000 0.7911 0.6117
vn 0.0000 0.7911 -0.6116
vn -0.2012 0.4454 0.8724
vn -0.9277 0.3291 0.1761
vn 0.1654 0.8273 -0.5369
vn 0.5260 0.8448 -0.0983
vn 0.2958 0.4214 0.8573
vn 0.6117 0.7911 0.0000
vn 0.3037 0.0763 -0.9497
vn 0.1922 0.5115 -0.8375
s 1
f 2/1/1 3/2/1 1/3/1
f 38/4/2 37/5/2 7/6/2
f 6/7/3 5/8/3 39/9/3
f 6/7/4 1/3/4 5/8/4
f 7/6/5 1/3/5 3/2/5
f 8/10/6 10/11/6 12/12/6
f 12/12/7 15/13/7 11/14/7
f 8/10/8 11/14/8 6/15/8
f 2/1/9 10/16/9 4/17/9
f 6/7/10 9/18/10 2/1/10
f 13/19/11 18/20/11 14/21/11
f 9/22/12 14/23/12 10/11/12
f 11/14/13 13/24/13 9/22/13
f 10/11/14 16/25/14 12/12/14
f 35/26/13 17/27/13 33/28/13
f 15/29/15 17/27/15 13/19/15
f 14/21/16 20/30/16 16/31/16
f 16/31/17 19/32/17 15/29/17
f 26/33/18 35/26/18 33/28/18
f 18/20/14 23/34/14 20/30/14
f 20/30/7 34/35/7 33/28/7
f 17/27/12 22/36/12 18/20/12
f 21/37/19 25/38/20 22/36/20
f 35/26/21 24/39/22 21/37/22
f 22/36/23 27/40/23 23/34/23
f 26/41/7 31/42/7 28/43/7
f 29/44/13 26/41/13 28/43/13
f 31/42/14 25/45/14 30/46/14
f 25/45/12 29/44/12 30/46/12
f 28/43/24 32/47/24 29/44/24
f 30/46/25 29/44/25 32/47/25
f 30/46/26 32/47/26 31/42/26
f 31/42/27 32/47/27 28/43/27
f 26/33/28 33/28/28 34/35/28
f 34/35/29 27/40/29 26/33/29
f 39/9/30 38/4/30 36/48/30
f 38/4/31 39/9/31 37/5/31
f 2/1/1 4/17/1 3/2/1
f 7/6/2 3/2/2 38/4/2
f 3/2/2 4/17/2 38/4/2
f 4/17/2 8/49/2 38/4/2
f 8/49/2 36/48/2 38/4/2
f 5/8/3 7/6/3 37/5/3
f 39/9/3 36/48/3 6/7/3
f 36/48/3 8/49/3 6/7/3
f 5/8/3 37/5/3 39/9/3
f 6/7/4 2/1/4 1/3/4
f 7/6/5 5/8/5 1/3/5
f 8/10/6 4/50/6 10/11/6
f 12/12/7 16/25/7 15/13/7
f 8/10/8 12/12/8 11/14/8
f 2/1/9 9/18/9 10/16/9
f 6/7/10 11/51/10 9/18/10
f 13/19/11 17/27/11 18/20/11
f 9/22/12 13/24/12 14/23/12
f 11/14/13 15/13/13 13/24/13
f 10/11/14 14/23/14 16/25/14
f 21/37/13 17/27/13 35/26/13
f 17/27/13 19/32/13 33/28/13
f 15/29/15 19/32/15 17/27/15
f 14/21/16 18/20/16 20/30/16
f 16/31/17 20/30/17 19/32/17
f 18/20/14 22/36/14 23/34/14
f 33/28/7 19/32/7 20/30/7
f 20/30/7 23/34/7 34/35/7
f 17/27/12 21/37/12 22/36/12
f 21/37/19 24/39/19 25/38/20
f 35/26/21 26/33/21 24/39/22
f 22/36/23 25/38/23 27/40/23
f 26/41/7 27/52/7 31/42/7
f 29/44/13 24/53/13 26/41/13
f 31/42/14 27/52/14 25/45/14
f 25/45/12 24/53/12 29/44/12
f 34/35/29 23/34/29 27/40/29
