# Blender v2.81 (sub 16) OBJ File: 'models.blend'
# www.blender.org
o D_Column_Small_Cylinder.296
v -0.360276 0.000435 0.360157
v -0.240277 0.540435 0.240157
v -0.360276 0.000435 -0.359843
v -0.240277 0.540435 -0.239843
v 0.359724 0.000435 0.360157
v 0.239724 0.540435 0.240157
v 0.359724 0.000435 -0.359843
v 0.239724 0.540435 -0.239843
v -0.168276 0.600435 0.168157
v -0.168276 0.600435 -0.167843
v 0.167724 0.600435 0.168157
v 0.167724 0.600435 -0.167843
v -0.168276 0.650435 0.168157
v -0.168276 0.650435 -0.167843
v 0.167724 0.650435 0.168157
v 0.167724 0.650435 -0.167843
v -0.215476 0.700435 0.215357
v -0.215476 0.700435 -0.215043
v 0.214925 0.700435 0.215357
v 0.214925 0.700435 -0.215043
v -0.215476 1.000435 0.215357
v -0.215476 1.000435 -0.215043
v 0.214925 1.000435 0.215357
v 0.214925 1.000435 -0.215043
v -0.150804 1.050435 0.150685
v -0.150804 1.050435 -0.150371
v 0.150252 1.050435 0.150685
v 0.150252 1.050435 -0.150371
v -0.360276 4.000435 0.360156
v -0.240277 3.460436 0.240157
v -0.360276 4.000435 -0.359844
v -0.240277 3.460436 -0.239844
v 0.359724 4.000435 0.360156
v 0.239724 3.460436 0.240157
v 0.359724 4.000435 -0.359844
v 0.239724 3.460436 -0.239844
v -0.168276 3.400435 0.168156
v -0.168276 3.400435 -0.167843
v 0.167724 3.400435 0.168156
v 0.167724 3.400435 -0.167843
v -0.168276 3.350435 0.168156
v -0.168276 3.350435 -0.167843
v 0.167724 3.350435 0.168156
v 0.167724 3.350435 -0.167843
v -0.215476 3.300435 0.215356
v -0.215476 3.300435 -0.215043
v 0.214925 3.300435 0.215356
v 0.214925 3.300435 -0.215043
v -0.215476 3.000435 0.215356
v -0.215476 3.000435 -0.215043
v 0.214925 3.000435 0.215356
v 0.214925 3.000435 -0.215043
v -0.150804 2.950435 0.150685
v -0.150804 2.950435 -0.150372
v 0.150252 2.950435 0.150685
v 0.150252 2.950435 -0.150372
v 0.150252 1.389837 -0.150371
v 0.150252 1.974687 -0.150371
v 0.150252 1.751981 -0.086556
v 0.036919 1.616114 -0.150371
v -0.150804 1.965496 0.150685
v -0.150804 2.786984 0.150685
v -0.150804 2.175526 0.064632
v -0.150804 2.496459 0.030217
v -0.046857 2.284582 0.150685
v -0.268937 0.411458 -0.268505
v -0.313097 0.212738 -0.312665
v -0.254773 0.296301 -0.294095
v -0.305885 0.245195 -0.219164
vt 0.974827 0.964994
vt 0.974827 0.964994
vt 0.974827 0.964994
vt 0.974827 0.964994
vt 0.974827 0.964994
vt 0.974827 0.964994
vt 0.974827 0.964994
vt 0.974827 0.964994
vt 0.974827 0.964994
vt 0.974827 0.964994
vt 0.974827 0.964994
vt 0.974827 0.964994
vt 0.973118 0.975004
vt 0.973118 0.975004
vt 0.973118 0.975004
vt 0.974827 0.964994
vt 0.974827 0.964994
vt 0.974827 0.964994
vt 0.974827 0.964994
vt 0.974827 0.964994
vt 0.974827 0.964994
vt 0.973118 0.975004
vt 0.973118 0.975004
vt 0.973118 0.975004
vt 0.973118 0.975004
vt 0.973118 0.975004
vt 0.974827 0.964994
vt 0.974827 0.964994
vt 0.974827 0.964994
vt 0.974827 0.964994
vt 0.974827 0.964994
vt 0.974827 0.964994
vt 0.974827 0.964994
vt 0.974827 0.964994
vt 0.974827 0.964994
vt 0.974827 0.964994
vt 0.974827 0.964994
vt 0.974827 0.964994
vt 0.974827 0.964994
vt 0.973118 0.975004
vt 0.973118 0.975004
vt 0.973118 0.975004
vt 0.973118 0.975004
vt 0.973118 0.975004
vt 0.973118 0.975004
vt 0.973118 0.975004
vt 0.973118 0.975004
vt 0.974827 0.964994
vt 0.974827 0.964994
vt 0.974827 0.964994
vt 0.974827 0.964994
vt 0.974827 0.964994
vt 0.974827 0.964994
vt 0.974827 0.964994
vt 0.974827 0.964994
vt 0.978544 0.960665
vt 0.978544 0.960665
vt 0.978544 0.960665
vt 0.974827 0.964994
vt 0.973118 0.975004
vt 0.973118 0.975004
vt 0.973118 0.975004
vt 0.974827 0.964994
vt 0.974827 0.964994
vt 0.974827 0.964994
vt 0.974827 0.964994
vt 0.974827 0.964994
vt 0.973118 0.975004
vt 0.973118 0.975004
vt 0.973118 0.975004
vt 0.973118 0.975004
vt 0.973118 0.975004
vt 0.974827 0.964994
vt 0.974827 0.964994
vt 0.974827 0.964994
vt 0.974827 0.964994
vt 0.974827 0.964994
vt 0.974827 0.964994
vt 0.974827 0.964994
vt 0.974827 0.964994
vt 0.974827 0.964994
vt 0.974827 0.964994
vt 0.974827 0.964994
vt 0.974827 0.964994
vt 0.974827 0.964994
vt 0.973118 0.975004
vt 0.973118 0.975004
vt 0.973118 0.975004
vt 0.973118 0.975004
vt 0.973118 0.975004
vt 0.973118 0.975004
vt 0.974827 0.964994
vt 0.973118 0.975004
vt 0.973118 0.975004
vt 0.973118 0.975004
vt 0.978544 0.960665
vt 0.974827 0.964994
vn -0.9762 0.2169 -0.0000
vn -0.0000 0.2169 -0.9762
vn 0.9762 0.2169 -0.0000
vn 0.0000 0.2169 0.9762
vn 0.0000 -1.0000 0.0000
vn 0.0000 0.7682 -0.6402
vn 1.0000 0.0000 0.0000
vn 0.6402 0.7682 0.0000
vn -0.6402 0.7682 0.0000
vn 0.0000 0.7682 0.6402
vn -0.7272 -0.6865 0.0000
vn -1.0000 0.0000 0.0000
vn 0.0000 0.0000 1.0000
vn 0.0000 0.0000 -1.0000
vn 0.0000 -0.6865 0.7272
vn 0.0000 -0.6865 -0.7272
vn 0.7272 -0.6865 0.0000
vn 0.6116 0.7911 0.0000
vn -0.6116 0.7911 0.0000
vn 0.0000 0.7911 0.6117
vn 0.0000 0.7911 -0.6117
vn -0.9762 -0.2169 0.0000
vn 0.0000 -0.2169 -0.9762
vn 0.9762 -0.2169 0.0000
vn 0.0000 -0.2169 0.9762
vn 0.0000 1.0000 0.0000
vn 0.0000 -0.7682 -0.6402
vn 0.6402 -0.7682 0.0000
vn -0.6402 -0.7682 0.0000
vn 0.0000 -0.7682 0.6402
vn -0.7272 0.6865 0.0000
vn 0.0000 0.6864 0.7272
vn 0.0000 0.6864 -0.7272
vn 0.7272 0.6865 0.0000
vn 0.6116 -0.7911 0.0000
vn -0.6116 -0.7911 0.0000
vn 0.0000 -0.7911 0.6117
vn 0.0000 -0.7911 0.6116
vn 0.0000 -0.7911 -0.6116
vn 0.3274 0.1640 -0.9306
vn 0.6570 -0.2077 -0.7247
vn -0.7585 0.2471 0.6031
vn -0.8798 -0.1820 0.4390
vn -0.6830 0.0779 0.7263
vn -0.8324 0.0207 -0.5537
vn -0.7965 0.5876 -0.1425
vn 0.0000 0.6865 0.7272
s 1
f 2/1/1 66/2/1 69/3/1
f 8/4/2 7/5/2 68/6/2
f 8/4/3 5/7/3 7/5/3
f 6/8/4 1/9/4 5/7/4
f 7/5/5 1/9/5 3/10/5
f 8/4/6 10/11/6 12/12/6
f 12/13/7 15/14/7 11/15/7
f 6/8/8 12/12/8 11/16/8
f 2/1/9 10/11/9 4/17/9
f 6/8/10 9/18/10 2/1/10
f 13/19/11 18/20/11 14/21/11
f 9/22/12 14/23/12 10/24/12
f 11/15/13 13/25/13 9/22/13
f 10/24/14 16/26/14 12/13/14
f 19/27/13 21/28/13 17/29/13
f 15/30/15 17/29/15 13/19/15
f 14/21/16 20/31/16 16/32/16
f 16/32/17 19/27/17 15/30/17
f 24/33/18 27/34/18 23/35/18
f 18/20/14 24/33/14 20/31/14
f 20/31/7 23/35/7 19/27/7
f 17/29/12 22/36/12 18/20/12
f 21/28/19 26/37/19 22/36/19
f 23/35/20 25/38/20 21/28/20
f 24/33/21 26/37/21 28/39/21
f 27/40/7 57/41/7 59/42/7
f 27/40/13 55/43/13 65/44/13
f 60/45/14 26/46/14 54/47/14
f 31/48/22 30/49/22 29/50/22
f 35/51/23 32/52/23 31/48/23
f 33/53/24 36/54/24 35/51/24
f 29/50/25 34/55/25 33/53/25
f 29/56/26 35/57/26 31/58/26
f 36/54/27 38/59/27 32/52/27
f 43/60/7 40/61/7 39/62/7
f 34/55/28 40/63/28 36/54/28
f 38/59/29 30/49/29 32/52/29
f 37/64/30 34/55/30 30/49/30
f 46/65/31 41/66/31 42/67/31
f 42/68/12 37/69/12 38/70/12
f 41/71/13 39/62/13 37/69/13
f 44/72/14 38/70/14 40/61/14
f 49/73/13 47/74/13 45/75/13
f 45/75/32 43/76/32 41/66/32
f 48/77/33 42/67/33 44/78/33
f 47/74/34 44/78/34 43/76/34
f 55/79/35 52/80/35 51/81/35
f 52/80/14 46/65/14 48/77/14
f 51/81/7 48/77/7 47/74/7
f 50/82/12 45/75/12 46/65/12
f 54/83/36 49/73/36 50/82/36
f 53/84/37 51/81/38 49/73/37
f 56/85/39 50/82/39 52/80/39
f 62/86/12 53/87/12 54/47/12
f 59/42/40 57/41/40 60/45/40
f 60/45/41 58/88/41 59/42/41
f 61/89/42 65/44/42 63/90/42
f 65/44/43 62/86/43 64/91/43
f 64/91/44 63/90/44 65/44/44
f 68/6/45 69/3/45 66/2/45
f 69/3/46 68/6/46 67/92/46
f 3/10/1 1/9/1 69/3/1
f 1/9/1 2/1/1 69/3/1
f 2/1/1 4/17/1 66/2/1
f 69/3/1 67/92/1 3/10/1
f 7/5/2 3/10/2 67/92/2
f 68/6/2 66/2/2 8/4/2
f 66/2/2 4/17/2 8/4/2
f 7/5/2 67/92/2 68/6/2
f 8/4/3 6/8/3 5/7/3
f 6/8/4 2/1/4 1/9/4
f 7/5/5 5/7/5 1/9/5
f 8/4/6 4/17/6 10/11/6
f 12/13/7 16/26/7 15/14/7
f 6/8/8 8/4/8 12/12/8
f 2/1/9 9/18/9 10/11/9
f 6/8/10 11/16/10 9/18/10
f 13/19/11 17/29/11 18/20/11
f 9/22/12 13/25/12 14/23/12
f 11/15/13 15/14/13 13/25/13
f 10/24/14 14/23/14 16/26/14
f 19/27/13 23/35/13 21/28/13
f 15/30/15 19/27/15 17/29/15
f 14/21/16 18/20/16 20/31/16
f 16/32/17 20/31/17 19/27/17
f 24/33/18 28/39/18 27/34/18
f 18/20/14 22/36/14 24/33/14
f 20/31/7 24/33/7 23/35/7
f 17/29/12 21/28/12 22/36/12
f 21/28/19 25/38/19 26/37/19
f 23/35/20 27/34/20 25/38/20
f 24/33/21 22/36/21 26/37/21
f 56/93/7 55/43/7 58/88/7
f 55/43/7 27/40/7 59/42/7
f 27/40/7 28/94/7 57/41/7
f 59/42/7 58/88/7 55/43/7
f 55/43/13 53/87/13 62/86/13
f 65/44/13 61/89/13 27/40/13
f 61/89/13 25/95/13 27/40/13
f 55/43/13 62/86/13 65/44/13
f 54/47/14 56/93/14 58/88/14
f 60/45/14 57/41/14 26/46/14
f 57/41/14 28/94/14 26/46/14
f 54/47/14 58/88/14 60/45/14
f 31/48/22 32/52/22 30/49/22
f 35/51/23 36/54/23 32/52/23
f 33/53/24 34/55/24 36/54/24
f 29/50/25 30/49/25 34/55/25
f 29/56/26 33/96/26 35/57/26
f 36/54/27 40/63/27 38/59/27
f 43/60/7 44/72/7 40/61/7
f 34/55/28 39/97/28 40/63/28
f 38/59/29 37/64/29 30/49/29
f 37/64/30 39/97/30 34/55/30
f 46/65/31 45/75/31 41/66/31
f 42/68/12 41/71/12 37/69/12
f 41/71/13 43/60/13 39/62/13
f 44/72/14 42/68/14 38/70/14
f 49/73/13 51/81/13 47/74/13
f 45/75/32 47/74/47 43/76/32
f 48/77/33 46/65/33 42/67/33
f 47/74/34 48/77/34 44/78/34
f 55/79/35 56/85/35 52/80/35
f 52/80/14 50/82/14 46/65/14
f 51/81/7 52/80/7 48/77/7
f 50/82/12 49/73/12 45/75/12
f 54/83/36 53/84/36 49/73/36
f 53/84/37 55/79/38 51/81/38
f 56/85/39 54/83/39 50/82/39
f 54/47/12 26/46/12 63/90/12
f 26/46/12 25/95/12 61/89/12
f 54/47/12 63/90/12 64/91/12
f 61/89/12 63/90/12 26/46/12
f 64/91/12 62/86/12 54/47/12
