# Blender v2.81 (sub 16) OBJ File: 'models.blend'
# www.blender.org
o D_Grid_Floor_Cylinder.056
v -1.000001 0.200000 0.999999
v 0.999999 0.200000 0.999999
v -1.000001 0.200000 -1.000001
v 0.999999 0.200000 -1.000001
v -0.820001 0.200000 0.819999
v 0.819999 0.200000 0.819999
v -0.820001 0.200000 -0.820001
v 0.819999 0.200000 -0.820001
v -1.000001 -0.100000 0.999999
v 0.999999 -0.100000 0.999999
v -1.000001 -0.100000 -1.000001
v 0.999999 -0.100000 -1.000001
v -0.820001 -0.100000 0.819999
v 0.819999 -0.100000 0.819999
v -0.820001 -0.100000 -0.820001
v 0.819999 -0.100000 -0.820001
v -0.403671 0.124045 -0.856586
v -0.403671 0.124045 0.866779
v -0.356118 0.089496 -0.856586
v -0.356118 0.089496 0.866779
v -0.374282 0.033594 -0.856586
v -0.374282 0.033595 0.866779
v -0.433061 0.033594 -0.856586
v -0.433061 0.033595 0.866779
v -0.451224 0.089496 -0.856586
v -0.451224 0.089496 0.866778
v -0.403671 0.100156 -0.396773
v -0.403671 0.074365 0.003226
v -0.403671 0.096990 0.403227
v -0.356118 0.062441 0.403227
v -0.356118 0.039816 0.003226
v -0.356118 0.065607 -0.396773
v -0.374282 0.006540 0.403227
v -0.374282 -0.016086 0.003226
v -0.374282 0.009705 -0.396773
v -0.433061 0.006540 0.403227
v -0.433061 -0.016086 0.003226
v -0.433061 0.009705 -0.396773
v -0.451224 0.062441 0.403227
v -0.451224 0.039816 0.003226
v -0.451224 0.065607 -0.396773
v -0.007345 0.124045 -0.856586
v -0.007345 0.124045 0.866779
v 0.040208 0.089496 -0.856586
v 0.040208 0.089496 0.866779
v 0.022045 0.033594 -0.856586
v 0.022045 0.033595 0.866779
v -0.036734 0.033594 -0.856586
v -0.036734 0.033595 0.866779
v -0.054897 0.089496 -0.856586
v -0.054897 0.089496 0.866779
v -0.007345 0.115680 -0.396773
v -0.007345 0.104046 0.003227
v -0.007345 0.115680 0.403227
v 0.040208 0.081131 0.403227
v 0.040208 0.069497 0.003227
v 0.040208 0.081131 -0.396773
v 0.022045 0.025229 0.403227
v 0.022045 0.013595 0.003227
v 0.022045 0.025229 -0.396773
v -0.036734 0.025229 0.403227
v -0.036734 0.013595 0.003227
v -0.036734 0.025229 -0.396773
v -0.054897 0.081131 0.403227
v -0.054897 0.069497 0.003227
v -0.054897 0.081131 -0.396773
v 0.396329 0.124045 -0.856586
v 0.396329 0.124045 0.866780
v 0.443882 0.089496 -0.856586
v 0.443882 0.089496 0.866780
v 0.425718 0.033594 -0.856586
v 0.425718 0.033595 0.866780
v 0.366940 0.033594 -0.856586
v 0.366940 0.033595 0.866780
v 0.348776 0.089496 -0.856586
v 0.348776 0.089496 0.866780
v 0.396329 0.100156 -0.396773
v 0.396329 0.074365 0.003227
v 0.396329 0.096990 0.403227
v 0.443882 0.062441 0.403228
v 0.443882 0.039816 0.003227
v 0.443882 0.065607 -0.396773
v 0.425718 0.006540 0.403228
v 0.425718 -0.016086 0.003227
v 0.425718 0.009705 -0.396773
v 0.366940 0.006540 0.403228
v 0.366940 -0.016086 0.003227
v 0.366940 0.009705 -0.396773
v 0.348776 0.062441 0.403228
v 0.348776 0.039816 0.003227
v 0.348776 0.065607 -0.396773
v -0.840990 0.124045 0.003226
v 0.871160 0.124045 0.003227
v -0.840990 0.089496 -0.044327
v 0.871160 0.089496 -0.044325
v -0.840990 0.033594 -0.026163
v 0.871160 0.033594 -0.026162
v -0.840990 0.033594 0.032615
v 0.871160 0.033594 0.032617
v -0.840990 0.089496 0.050779
v 0.871160 0.089496 0.050780
v -0.407344 0.162713 0.003226
v -0.007345 0.188105 0.003226
v 0.392656 0.174469 0.003227
v 0.392656 0.139920 -0.044326
v -0.007345 0.153556 -0.044326
v -0.407344 0.128164 -0.044327
v 0.392656 0.084018 -0.026162
v -0.007345 0.097654 -0.026163
v -0.407344 0.072262 -0.026163
v 0.392656 0.084018 0.032616
v -0.007345 0.097654 0.032616
v -0.407344 0.072262 0.032616
v 0.392656 0.139920 0.050780
v -0.007345 0.153556 0.050780
v -0.407344 0.128164 0.050779
v -0.840990 0.124045 -0.396775
v 0.871160 0.124045 -0.396773
v -0.840990 0.089496 -0.444328
v 0.871160 0.089496 -0.444326
v -0.840990 0.033594 -0.426164
v 0.871160 0.033594 -0.426163
v -0.840990 0.033594 -0.367385
v 0.871160 0.033594 -0.367384
v -0.840990 0.089496 -0.349222
v 0.871160 0.089496 -0.349220
v -0.407344 0.162713 -0.396774
v -0.007345 0.188105 -0.396774
v 0.392655 0.174469 -0.396773
v 0.392655 0.139920 -0.444327
v -0.007345 0.153556 -0.444327
v -0.407344 0.128164 -0.444327
v 0.392655 0.084018 -0.426163
v -0.007345 0.097654 -0.426163
v -0.407344 0.072262 -0.426164
v 0.392655 0.084018 -0.367384
v -0.007345 0.097654 -0.367385
v -0.407344 0.072262 -0.367385
v 0.392655 0.139920 -0.349221
v -0.007345 0.153556 -0.349221
v -0.407344 0.128164 -0.349222
v -0.840990 0.124045 0.403224
v 0.871160 0.124045 0.403226
v -0.840990 0.089496 0.355672
v 0.871160 0.089496 0.355673
v -0.840990 0.033594 0.373835
v 0.871160 0.033594 0.373837
v -0.840990 0.033594 0.432614
v 0.871160 0.033594 0.432615
v -0.840990 0.089496 0.450777
v 0.871160 0.089496 0.450779
v -0.407344 0.162713 0.403225
v -0.007345 0.188105 0.403226
v 0.392655 0.174469 0.403226
v 0.392655 0.139920 0.355673
v -0.007345 0.153556 0.355672
v -0.407344 0.128164 0.355672
v 0.392655 0.084018 0.373836
v -0.007345 0.097654 0.373836
v -0.407344 0.072262 0.373836
v 0.392655 0.084018 0.432615
v -0.007345 0.097654 0.432615
v -0.407344 0.072262 0.432614
v 0.392655 0.139920 0.450779
v -0.007345 0.153556 0.450778
v -0.407344 0.128164 0.450778
vt 0.975264 0.977409
vt 0.975264 0.977409
vt 0.975264 0.977409
vt 0.975264 0.977409
vt 0.975264 0.977409
vt 0.975264 0.977409
vt 0.975264 0.977409
vt 0.975264 0.977409
vt 0.975264 0.977409
vt 0.975264 0.977409
vt 0.975264 0.977409
vt 0.975264 0.977409
vt 0.975264 0.977409
vt 0.975264 0.977409
vt 0.975264 0.977409
vt 0.975264 0.977409
vt 0.865691 0.976221
vt 0.865691 0.976221
vt 0.865691 0.976221
vt 0.865691 0.976221
vt 0.865691 0.976221
vt 0.865691 0.976221
vt 0.865691 0.976221
vt 0.865691 0.976221
vt 0.865691 0.976221
vt 0.865691 0.976221
vt 0.865691 0.976221
vt 0.865691 0.976221
vt 0.865691 0.976221
vt 0.865691 0.976221
vt 0.865691 0.976221
vt 0.865691 0.976221
vt 0.865691 0.976221
vt 0.865691 0.976221
vt 0.865691 0.976221
vt 0.865691 0.976221
vt 0.865691 0.976221
vt 0.865691 0.976221
vt 0.865691 0.976221
vt 0.865691 0.976221
vt 0.865691 0.976221
vt 0.865691 0.976221
vt 0.865691 0.976221
vt 0.865691 0.976221
vt 0.865691 0.976221
vt 0.865691 0.976221
vt 0.865691 0.976221
vt 0.865691 0.976221
vt 0.865691 0.976221
vt 0.865691 0.976221
vt 0.865691 0.976221
vt 0.865691 0.976221
vt 0.865691 0.976221
vt 0.865691 0.976221
vt 0.865691 0.976221
vt 0.865691 0.976221
vt 0.865691 0.976221
vt 0.865691 0.976221
vt 0.865691 0.976221
vt 0.865691 0.976221
vt 0.865691 0.976221
vt 0.865691 0.976221
vt 0.865691 0.976221
vt 0.865691 0.976221
vt 0.865691 0.976221
vt 0.865691 0.976221
vt 0.865691 0.976221
vt 0.865691 0.976221
vt 0.865691 0.976221
vt 0.865691 0.976221
vt 0.865691 0.976221
vt 0.865691 0.976221
vt 0.865691 0.976221
vt 0.865691 0.976221
vt 0.865691 0.976221
vt 0.865691 0.976221
vt 0.865691 0.976221
vt 0.865691 0.976221
vt 0.865691 0.976221
vt 0.865691 0.976221
vt 0.865691 0.976221
vt 0.865691 0.976221
vt 0.865691 0.976221
vt 0.865691 0.976221
vt 0.865691 0.976221
vt 0.865691 0.976221
vt 0.865691 0.976221
vt 0.865691 0.976221
vt 0.865691 0.976221
vt 0.865691 0.976221
vt 0.865691 0.976221
vt 0.865691 0.976221
vt 0.865691 0.976221
vt 0.865691 0.976221
vt 0.865691 0.976221
vt 0.865691 0.976221
vt 0.865691 0.976221
vt 0.865691 0.976221
vt 0.865691 0.976221
vt 0.865691 0.976221
vt 0.865691 0.976221
vt 0.865691 0.976221
vt 0.865691 0.976221
vt 0.865691 0.976221
vt 0.865691 0.976221
vt 0.865691 0.976221
vt 0.865691 0.976221
vt 0.865691 0.976221
vt 0.865691 0.976221
vt 0.865691 0.976221
vt 0.865691 0.976221
vt 0.865691 0.976221
vt 0.865691 0.976221
vt 0.865691 0.976221
vt 0.865691 0.976221
vt 0.865691 0.976221
vt 0.865691 0.976221
vt 0.865691 0.976221
vt 0.865691 0.976221
vt 0.865691 0.976221
vt 0.865691 0.976221
vt 0.865691 0.976221
vt 0.865691 0.976221
vt 0.865691 0.976221
vt 0.865691 0.976221
vt 0.865691 0.976221
vt 0.865691 0.976221
vt 0.865691 0.976221
vt 0.865691 0.976221
vt 0.865691 0.976221
vt 0.865691 0.976221
vt 0.865691 0.976221
vt 0.865691 0.976221
vt 0.865691 0.976221
vt 0.865691 0.976221
vt 0.865691 0.976221
vt 0.865691 0.976221
vt 0.865691 0.976221
vt 0.865691 0.976221
vt 0.865691 0.976221
vt 0.865691 0.976221
vt 0.865691 0.976221
vt 0.865691 0.976221
vt 0.865691 0.976221
vt 0.865691 0.976221
vt 0.865691 0.976221
vt 0.865691 0.976221
vt 0.865691 0.976221
vt 0.865691 0.976221
vt 0.865691 0.976221
vt 0.865691 0.976221
vt 0.865691 0.976221
vt 0.865691 0.976221
vt 0.865691 0.976221
vt 0.865691 0.976221
vt 0.865691 0.976221
vt 0.865691 0.976221
vt 0.865691 0.976221
vt 0.865691 0.976221
vt 0.865691 0.976221
vt 0.865691 0.976221
vt 0.865691 0.976221
vt 0.865691 0.976221
vt 0.865691 0.976221
vt 0.865691 0.976221
vt 0.865691 0.976221
vn 1.0000 0.0000 0.0000
vn 0.0000 1.0000 -0.0000
vn -1.0000 0.0000 0.0000
vn 0.0000 0.0000 1.0000
vn 0.0000 -0.0000 -1.0000
vn 0.5871 0.8081 -0.0465
vn 0.5871 0.8081 -0.0472
vn 0.5871 0.8081 -0.0464
vn 0.9509 -0.3090 0.0178
vn 0.9509 -0.3090 0.0180
vn 0.9509 -0.3090 0.0177
vn -0.0000 -0.9983 0.0583
vn -0.0000 -0.9984 0.0574
vn -0.5873 0.8083 0.0421
vn -0.5870 0.8079 0.0521
vn -0.5870 0.8079 0.0520
vn -0.9509 -0.3090 0.0180
vn -0.9509 -0.3090 0.0178
vn -0.9509 -0.3090 0.0177
vn -0.5871 0.8081 -0.0472
vn -0.5872 0.8081 -0.0465
vn -0.5872 0.8081 -0.0464
vn -0.5873 0.8083 0.0420
vn -0.5872 0.8082 -0.0457
vn -0.9509 -0.3090 -0.0161
vn -0.9509 -0.3090 -0.0179
vn -0.9509 -0.3090 -0.0181
vn -0.9509 -0.3090 -0.0199
vn -0.9509 -0.3090 0.0175
vn -0.0000 -0.9983 -0.0581
vn -0.0000 -0.9987 -0.0519
vn -0.0000 -0.9979 -0.0643
vn -0.0000 -0.9984 0.0565
vn 0.9509 -0.3090 -0.0179
vn 0.9509 -0.3090 -0.0161
vn 0.9509 -0.3090 -0.0199
vn 0.9509 -0.3090 -0.0181
vn 0.9509 -0.3090 0.0175
vn 0.5870 0.8079 0.0520
vn 0.5873 0.8083 0.0420
vn 0.5870 0.8079 0.0521
vn 0.5873 0.8083 0.0421
vn 0.5872 0.8082 -0.0457
vn 0.5877 0.8089 -0.0190
vn 0.5877 0.8089 -0.0146
vn 0.5877 0.8089 -0.0191
vn 0.9510 -0.3090 0.0073
vn 0.9510 -0.3090 0.0056
vn -0.0000 -0.9998 0.0180
vn -0.0000 -0.9997 0.0236
vn -0.5877 0.8089 0.0192
vn -0.5876 0.8088 0.0235
vn -0.5877 0.8089 0.0191
vn -0.9510 -0.3090 0.0056
vn -0.9510 -0.3090 0.0073
vn -0.5877 0.8089 -0.0146
vn -0.5877 0.8089 -0.0190
vn -0.5877 0.8089 -0.0191
vn -0.5877 0.8089 0.0147
vn -0.5876 0.8088 -0.0235
vn -0.9510 -0.3090 -0.0056
vn -0.9510 -0.3090 -0.0073
vn -0.9510 -0.3090 -0.0090
vn -0.9510 -0.3090 0.0090
vn 0.0000 -0.9998 -0.0182
vn 0.0000 -0.9997 -0.0236
vn 0.0000 -0.9996 -0.0291
vn -0.0000 -0.9996 0.0291
vn 0.9510 -0.3090 -0.0073
vn 0.9510 -0.3090 -0.0056
vn 0.9510 -0.3090 -0.0090
vn 0.9510 -0.3090 0.0090
vn 0.5877 0.8089 0.0191
vn 0.5877 0.8089 0.0147
vn 0.5876 0.8088 0.0235
vn 0.5877 0.8089 0.0192
vn 0.5876 0.8088 -0.0235
vn 0.0849 0.8061 -0.5857
vn -0.0325 -0.3089 -0.9506
vn -0.1048 -0.9945 0.0000
vn -0.0513 0.8080 0.5870
vn -0.0325 -0.3088 0.9506
vn 0.0849 0.8061 0.5857
vn -0.0720 0.8069 0.5863
vn 0.0276 0.8087 0.5876
vn 0.0198 -0.3090 0.9509
vn 0.0275 -0.3089 0.9507
vn 0.0196 -0.3090 0.9509
vn 0.0274 -0.3089 0.9507
vn -0.0105 -0.3090 0.9510
vn 0.0888 -0.9960 0.0000
vn 0.0634 -0.9980 0.0000
vn -0.0341 -0.9994 0.0000
vn 0.0275 -0.3089 -0.9507
vn 0.0198 -0.3090 -0.9509
vn 0.0274 -0.3089 -0.9507
vn 0.0196 -0.3090 -0.9509
vn -0.0105 -0.3090 -0.9510
vn -0.0720 0.8069 -0.5863
vn -0.0513 0.8080 -0.5870
vn 0.0276 0.8087 -0.5876
vn -0.0325 -0.3088 -0.9506
vn -0.0325 -0.3089 0.9506
vn 0.0273 -0.3089 0.9507
vn 0.0198 -0.3089 -0.9509
vn -0.0000 -1.0000 0.0000
vn -0.0513 0.8079 -0.5870
s 1
f 2/1/1 12/2/1 4/3/1
f 5/4/1 15/5/1 7/6/1
f 4/3/2 6/7/2 2/1/2
f 1/8/2 7/6/2 3/9/2
f 3/9/2 8/10/2 4/3/2
f 2/1/2 5/4/2 1/8/2
f 3/9/3 9/11/3 1/8/3
f 7/6/4 16/12/4 8/10/4
f 6/7/5 13/13/5 5/4/5
f 4/3/5 11/14/5 3/9/5
f 1/8/4 10/15/4 2/1/4
f 8/10/3 14/16/3 6/7/3
f 29/17/6 20/18/7 30/19/8
f 30/19/9 22/20/10 33/21/11
f 22/20/12 36/22/13 33/21/13
f 41/23/14 28/24/15 27/25/16
f 24/26/17 39/27/18 36/22/19
f 26/28/20 29/17/21 39/27/22
f 25/29/23 27/25/16 17/30/23
f 39/27/22 28/24/24 40/31/24
f 23/32/25 41/23/26 25/29/25
f 38/33/27 40/31/28 41/23/26
f 36/22/19 40/31/29 37/34/29
f 35/35/30 23/32/31 21/36/31
f 34/37/32 38/33/30 35/35/30
f 33/21/13 37/34/33 34/37/33
f 32/38/34 21/36/35 19/39/35
f 31/40/36 35/35/37 32/38/34
f 31/40/38 33/21/11 34/37/38
f 27/25/39 19/39/40 17/30/40
f 28/24/41 32/38/42 27/25/39
f 28/24/43 30/19/8 31/40/43
f 54/41/44 45/42/45 55/43/46
f 55/43/47 47/44/48 58/45/47
f 47/44/49 61/46/50 58/45/50
f 66/47/51 53/48/52 52/49/53
f 49/50/54 64/51/55 61/46/55
f 51/52/56 54/41/57 64/51/58
f 50/53/59 52/49/53 42/54/59
f 64/51/58 53/48/60 65/55/60
f 48/56/61 66/47/62 50/53/61
f 63/57/62 65/55/63 66/47/62
f 61/46/55 65/55/64 62/58/64
f 46/59/65 63/57/66 48/56/65
f 60/60/66 62/58/67 63/57/66
f 59/61/68 61/46/50 62/58/68
f 57/62/69 46/59/70 44/63/70
f 56/64/71 60/60/69 57/62/69
f 56/64/72 58/45/47 59/61/72
f 52/49/73 44/63/74 42/54/74
f 53/48/75 57/62/76 52/49/73
f 53/48/77 55/43/46 56/64/77
f 79/65/6 70/66/7 80/67/8
f 80/67/9 72/68/10 83/69/11
f 72/68/12 86/70/13 83/69/13
f 91/71/14 78/72/15 77/73/16
f 74/74/17 89/75/18 86/70/19
f 76/76/20 79/65/21 89/75/22
f 75/77/23 77/73/16 67/78/23
f 89/75/22 78/72/24 90/79/24
f 73/80/25 91/71/26 75/77/25
f 88/81/27 90/79/28 91/71/26
f 86/70/19 90/79/29 87/82/29
f 85/83/30 73/80/31 71/84/31
f 85/83/30 87/82/32 88/81/30
f 83/69/13 87/82/33 84/85/33
f 82/86/34 71/84/35 69/87/35
f 81/88/36 85/83/37 82/86/34
f 81/88/38 83/69/11 84/85/38
f 77/73/39 69/87/40 67/78/40
f 78/72/41 82/86/42 77/73/39
f 78/72/43 80/67/8 81/88/43
f 93/89/78 105/90/78 104/91/78
f 95/92/79 108/93/79 105/90/79
f 97/94/80 111/95/80 108/93/80
f 115/96/81 102/97/81 116/98/81
f 111/95/82 101/99/82 114/100/82
f 114/100/83 93/89/83 104/91/83
f 116/98/84 92/101/84 100/102/84
f 115/96/85 104/91/85 103/103/85
f 113/104/86 100/102/87 98/105/87
f 112/106/88 116/98/89 113/104/86
f 112/106/90 114/100/90 115/96/90
f 110/107/91 98/105/91 96/108/91
f 109/109/92 113/104/92 110/107/92
f 108/93/93 112/106/93 109/109/93
f 94/110/94 110/107/95 96/108/94
f 107/111/96 109/109/97 110/107/95
f 105/90/98 109/109/98 106/112/98
f 92/101/99 107/111/99 94/110/99
f 102/97/100 106/112/100 107/111/100
f 104/91/101 106/112/101 103/103/101
f 118/113/78 130/114/78 129/115/78
f 120/116/102 133/117/102 130/114/102
f 122/118/80 136/119/80 133/117/80
f 140/120/81 127/121/81 141/122/81
f 136/119/82 126/123/103 139/124/82
f 139/124/83 118/113/83 129/115/83
f 141/122/84 117/125/84 125/126/84
f 140/120/85 129/115/85 128/127/85
f 138/128/86 125/126/87 123/129/87
f 137/130/88 141/122/104 138/128/86
f 137/130/90 139/124/90 140/120/90
f 135/131/91 123/129/91 121/132/91
f 134/133/92 138/128/92 135/131/92
f 133/117/93 137/130/93 134/133/93
f 119/134/94 135/131/105 121/132/94
f 132/135/96 134/133/97 135/131/105
f 130/114/98 134/133/98 131/136/98
f 117/125/99 132/135/99 119/134/99
f 127/121/100 131/136/100 132/135/100
f 129/115/101 131/136/101 128/127/101
f 143/137/78 155/138/78 154/139/78
f 145/140/79 158/141/79 155/138/79
f 147/142/80 161/143/80 158/141/80
f 165/144/81 152/145/81 166/146/81
f 161/143/103 151/147/82 164/148/103
f 164/148/83 143/137/83 154/139/83
f 166/146/84 142/149/84 150/150/84
f 165/144/85 154/139/85 153/151/85
f 163/152/86 150/150/87 148/153/87
f 162/154/88 166/146/89 163/152/86
f 162/154/90 164/148/90 165/144/90
f 160/155/91 148/153/91 146/156/91
f 159/157/92 163/152/92 160/155/92
f 158/141/93 162/154/93 159/157/93
f 144/158/94 160/155/95 146/156/94
f 157/159/96 159/157/97 160/155/95
f 155/138/98 159/157/98 156/160/98
f 142/149/99 157/159/99 144/158/99
f 152/145/100 156/160/100 157/159/100
f 154/139/101 156/160/101 153/151/101
f 9/11/106 14/16/106 10/15/106
f 11/14/106 13/13/106 9/11/106
f 10/15/106 16/12/106 12/2/106
f 12/2/106 15/5/106 11/14/106
f 2/1/1 10/15/1 12/2/1
f 5/4/1 13/13/1 15/5/1
f 4/3/2 8/10/2 6/7/2
f 1/8/2 5/4/2 7/6/2
f 3/9/2 7/6/2 8/10/2
f 2/1/2 6/7/2 5/4/2
f 3/9/3 11/14/3 9/11/3
f 7/6/4 15/5/4 16/12/4
f 6/7/5 14/16/5 13/13/5
f 4/3/5 12/2/5 11/14/5
f 1/8/4 9/11/4 10/15/4
f 8/10/3 16/12/3 14/16/3
f 29/17/6 18/161/7 20/18/7
f 30/19/9 20/18/10 22/20/10
f 22/20/12 24/26/12 36/22/13
f 41/23/14 40/31/15 28/24/15
f 24/26/17 26/28/17 39/27/18
f 26/28/20 18/161/20 29/17/21
f 25/29/23 41/23/14 27/25/16
f 39/27/22 29/17/21 28/24/24
f 23/32/25 38/33/27 41/23/26
f 38/33/27 37/34/28 40/31/28
f 36/22/19 39/27/18 40/31/29
f 35/35/30 38/33/30 23/32/31
f 34/37/32 37/34/32 38/33/30
f 33/21/13 36/22/13 37/34/33
f 32/38/34 35/35/37 21/36/35
f 31/40/36 34/37/36 35/35/37
f 31/40/38 30/19/9 33/21/11
f 27/25/39 32/38/42 19/39/40
f 28/24/41 31/40/41 32/38/42
f 28/24/43 29/17/6 30/19/8
f 54/41/44 43/162/45 45/42/45
f 55/43/47 45/42/48 47/44/48
f 47/44/49 49/50/49 61/46/50
f 66/47/51 65/55/52 53/48/52
f 49/50/54 51/52/54 64/51/55
f 51/52/56 43/162/56 54/41/57
f 50/53/59 66/47/51 52/49/53
f 64/51/58 54/41/57 53/48/60
f 48/56/61 63/57/62 66/47/62
f 63/57/62 62/58/63 65/55/63
f 61/46/55 64/51/55 65/55/64
f 46/59/65 60/60/66 63/57/66
f 60/60/66 59/61/67 62/58/67
f 59/61/68 58/45/50 61/46/50
f 57/62/69 60/60/69 46/59/70
f 56/64/71 59/61/71 60/60/69
f 56/64/72 55/43/47 58/45/47
f 52/49/73 57/62/76 44/63/74
f 53/48/75 56/64/75 57/62/76
f 53/48/77 54/41/44 55/43/46
f 79/65/6 68/163/7 70/66/7
f 80/67/9 70/66/10 72/68/10
f 72/68/12 74/74/12 86/70/13
f 91/71/14 90/79/15 78/72/15
f 74/74/17 76/76/17 89/75/18
f 76/76/20 68/163/20 79/65/21
f 75/77/23 91/71/14 77/73/16
f 89/75/22 79/65/21 78/72/24
f 73/80/25 88/81/27 91/71/26
f 88/81/27 87/82/28 90/79/28
f 86/70/19 89/75/18 90/79/29
f 85/83/30 88/81/30 73/80/31
f 85/83/30 84/85/32 87/82/32
f 83/69/13 86/70/13 87/82/33
f 82/86/34 85/83/37 71/84/35
f 81/88/36 84/85/36 85/83/37
f 81/88/38 80/67/9 83/69/11
f 77/73/39 82/86/42 69/87/40
f 78/72/41 81/88/41 82/86/42
f 78/72/43 79/65/6 80/67/8
f 93/89/78 95/92/78 105/90/78
f 95/92/79 97/94/102 108/93/79
f 97/94/80 99/164/80 111/95/80
f 115/96/81 103/103/81 102/97/81
f 111/95/82 99/164/82 101/99/82
f 114/100/83 101/99/83 93/89/83
f 116/98/84 102/97/84 92/101/84
f 115/96/85 114/100/85 104/91/85
f 113/104/86 116/98/89 100/102/87
f 112/106/88 115/96/88 116/98/89
f 112/106/90 111/95/90 114/100/90
f 110/107/91 113/104/91 98/105/91
f 109/109/92 112/106/92 113/104/92
f 108/93/93 111/95/93 112/106/93
f 94/110/94 107/111/96 110/107/95
f 107/111/96 106/112/97 109/109/97
f 105/90/98 108/93/98 109/109/98
f 92/101/99 102/97/99 107/111/99
f 102/97/100 103/103/107 106/112/100
f 104/91/101 105/90/101 106/112/101
f 118/113/78 120/116/78 130/114/78
f 120/116/102 122/118/102 133/117/102
f 122/118/80 124/165/80 136/119/80
f 140/120/81 128/127/81 127/121/81
f 136/119/82 124/165/103 126/123/103
f 139/124/83 126/123/83 118/113/83
f 141/122/84 127/121/84 117/125/84
f 140/120/85 139/124/85 129/115/85
f 138/128/86 141/122/104 125/126/87
f 137/130/88 140/120/88 141/122/104
f 137/130/90 136/119/90 139/124/90
f 135/131/91 138/128/91 123/129/91
f 134/133/92 137/130/92 138/128/92
f 133/117/93 136/119/93 137/130/93
f 119/134/94 132/135/96 135/131/105
f 132/135/96 131/136/97 134/133/97
f 130/114/98 133/117/98 134/133/98
f 117/125/99 127/121/99 132/135/99
f 127/121/100 128/127/100 131/136/100
f 129/115/101 130/114/101 131/136/101
f 143/137/78 145/140/78 155/138/78
f 145/140/79 147/142/79 158/141/79
f 147/142/80 149/166/80 161/143/80
f 165/144/81 153/151/81 152/145/81
f 161/143/103 149/166/82 151/147/82
f 164/148/83 151/147/83 143/137/83
f 166/146/84 152/145/84 142/149/84
f 165/144/85 164/148/85 154/139/85
f 163/152/86 166/146/89 150/150/87
f 162/154/88 165/144/88 166/146/89
f 162/154/90 161/143/90 164/148/90
f 160/155/91 163/152/91 148/153/91
f 159/157/92 162/154/92 163/152/92
f 158/141/93 161/143/93 162/154/93
f 144/158/94 157/159/96 160/155/95
f 157/159/96 156/160/97 159/157/97
f 155/138/98 158/141/98 159/157/98
f 142/149/99 152/145/99 157/159/99
f 152/145/100 153/151/100 156/160/100
f 154/139/101 155/138/101 156/160/101
f 9/11/106 13/13/106 14/16/106
f 11/14/106 15/5/106 13/13/106
f 10/15/106 14/16/106 16/12/106
f 12/2/106 16/12/106 15/5/106
