# Blender v2.81 (sub 16) OBJ File: 'models.blend'
# www.blender.org
o D_Rails_05_Cylinder.329
v 0.999895 -0.021055 -0.459123
v 0.999895 0.127079 -0.459123
v 0.999895 -0.021055 -0.359123
v 0.999895 0.127079 -0.359123
v 0.999895 0.127079 -0.381645
v 0.999895 0.127079 -0.437966
v 0.999889 0.078488 -0.388031
v 0.999888 0.078488 -0.431967
v 0.999895 0.053012 -0.449287
v 0.999895 0.053012 -0.369593
v -0.999903 -0.021055 -0.359873
v -0.999903 0.127079 -0.359873
v -0.999903 -0.021055 -0.459873
v -0.999903 0.127079 -0.459873
v -0.999903 0.127079 -0.437351
v -0.999903 0.127079 -0.381029
v -0.999897 0.078488 -0.430964
v -0.999896 0.078488 -0.387029
v -0.999903 0.053012 -0.369708
v -0.999903 0.053012 -0.449403
v 0.588288 -0.019448 -0.460413
v 0.201307 -0.017841 -0.449998
v -0.209108 -0.021055 -0.447394
v -0.616920 -0.024270 -0.463017
v -0.616920 0.123865 -0.463017
v -0.209108 0.127079 -0.447394
v 0.201307 0.130294 -0.449998
v 0.588288 0.128686 -0.460413
v -0.616920 -0.024270 -0.363017
v -0.209108 -0.021055 -0.347394
v 0.201307 -0.017841 -0.349998
v 0.588288 -0.019448 -0.360413
v 0.588288 0.128686 -0.360413
v 0.201307 0.130294 -0.349998
v -0.209108 0.127079 -0.347394
v -0.616920 0.123865 -0.363017
v -0.616920 0.049798 -0.449639
v -0.209108 0.053012 -0.437526
v 0.201307 0.056226 -0.439544
v 0.588288 0.054619 -0.447620
v 0.588288 0.054619 -0.370086
v 0.201307 0.056226 -0.362011
v -0.209108 0.053012 -0.359992
v -0.616920 0.049798 -0.372105
v 0.588288 0.128686 -0.432439
v -0.616920 0.123865 -0.382890
v -0.616920 0.123865 -0.433763
v -0.209108 0.127079 -0.425815
v 0.201307 0.130294 -0.427140
v 0.588288 0.128686 -0.381565
v 0.201307 0.130294 -0.376267
v -0.209108 0.127079 -0.374942
v 0.588280 0.077758 -0.426176
v -0.616927 0.072936 -0.387339
v -0.616927 0.072936 -0.427215
v -0.209115 0.076151 -0.420985
v 0.201300 0.079365 -0.422023
v 0.588280 0.077758 -0.386300
v 0.201300 0.079365 -0.382147
v -0.209115 0.076151 -0.381109
v 0.999895 -0.021055 0.359879
v 0.999895 0.127079 0.359879
v 0.999895 -0.021055 0.459879
v 0.999895 0.127079 0.459879
v 0.999895 0.127079 0.437357
v 0.999895 0.127079 0.381035
v 0.999889 0.078488 0.430970
v 0.999888 0.078488 0.387035
v 0.999895 0.053012 0.369714
v 0.999895 0.053012 0.449408
v -0.999903 -0.021055 0.459129
v -0.999903 0.127079 0.459129
v -0.999903 -0.021055 0.359129
v -0.999903 0.127079 0.359129
v -0.999903 0.127079 0.381651
v -0.999903 0.127079 0.437972
v -0.999897 0.078488 0.388037
v -0.999896 0.078488 0.431973
v -0.999903 0.053012 0.449293
v -0.999903 0.053012 0.369599
v 0.532554 -0.019448 0.360419
v 0.022138 -0.025876 0.352608
v -0.516920 -0.019448 0.344797
v -0.516920 0.128686 0.344797
v 0.022138 0.122258 0.352608
v 0.532554 0.128687 0.360419
v -0.516920 -0.019448 0.444796
v 0.022138 -0.025876 0.452608
v 0.532554 -0.019448 0.460419
v 0.532554 0.128687 0.460419
v 0.022138 0.122258 0.452608
v -0.516920 0.128686 0.444796
v 0.532554 0.128687 0.378391
v -0.516920 0.128686 0.425914
v -0.516920 0.128686 0.369593
v 0.022138 0.122258 0.373992
v 0.532554 0.128687 0.434713
v 0.022138 0.122258 0.430314
v 0.532561 0.080096 0.383488
v -0.516913 0.080095 0.420560
v -0.516913 0.080095 0.376624
v 0.022145 0.073667 0.380056
v 0.532561 0.080096 0.427424
v 0.022145 0.073667 0.423992
v 0.532554 0.054619 0.448469
v 0.022138 0.048191 0.442243
v -0.516920 0.054619 0.436018
v -0.516920 0.054619 0.356324
v 0.022138 0.048191 0.362549
v 0.532554 0.054619 0.368775
vt 0.865588 0.979742
vt 0.865588 0.979742
vt 0.865588 0.979742
vt 0.865588 0.979742
vt 0.865588 0.979742
vt 0.865588 0.979742
vt 0.865588 0.979742
vt 0.865588 0.979742
vt 0.865588 0.979742
vt 0.865588 0.979742
vt 0.865588 0.979742
vt 0.865588 0.979742
vt 0.865588 0.979742
vt 0.865588 0.979742
vt 0.865588 0.979742
vt 0.865588 0.979742
vt 0.865588 0.979742
vt 0.865588 0.979742
vt 0.865588 0.979742
vt 0.865588 0.979742
vt 0.865588 0.979742
vt 0.865588 0.979742
vt 0.865588 0.979742
vt 0.865588 0.979742
vt 0.865588 0.979742
vt 0.865588 0.979742
vt 0.865588 0.979742
vt 0.865588 0.979742
vt 0.865588 0.979742
vt 0.865588 0.979742
vt 0.865588 0.979742
vt 0.865588 0.979742
vt 0.865588 0.979742
vt 0.865588 0.979742
vt 0.865588 0.979742
vt 0.865588 0.979742
vt 0.865588 0.979742
vt 0.865588 0.979742
vt 0.865588 0.979742
vt 0.865588 0.979742
vt 0.865588 0.979742
vt 0.865588 0.979742
vt 0.865588 0.979742
vt 0.865588 0.979742
vt 0.865588 0.979742
vt 0.865588 0.979742
vt 0.865588 0.979742
vt 0.865588 0.979742
vt 0.865588 0.979742
vt 0.865588 0.979742
vt 0.865588 0.979742
vt 0.865588 0.979742
vt 0.865588 0.979742
vt 0.865588 0.979742
vt 0.865588 0.979742
vt 0.865588 0.979742
vt 0.865588 0.979742
vt 0.865588 0.979742
vt 0.865588 0.979742
vt 0.865588 0.979742
vt 0.865588 0.979742
vt 0.865588 0.979742
vt 0.865588 0.979742
vt 0.865588 0.979742
vt 0.865588 0.979742
vt 0.865588 0.979742
vt 0.865588 0.979742
vt 0.865588 0.979742
vt 0.865588 0.979742
vt 0.865588 0.979742
vt 0.865588 0.979742
vt 0.865588 0.979742
vt 0.865588 0.979742
vt 0.865588 0.979742
vt 0.865588 0.979742
vt 0.865588 0.979742
vt 0.865588 0.979742
vt 0.865588 0.979742
vt 0.865588 0.979742
vt 0.865588 0.979742
vt 0.865588 0.979742
vt 0.865588 0.979742
vt 0.865588 0.979742
vt 0.865588 0.979742
vt 0.865588 0.979742
vt 0.865588 0.979742
vt 0.865588 0.979742
vt 0.865588 0.979742
vt 0.865588 0.979742
vt 0.865588 0.979742
vt 0.865588 0.979742
vt 0.865588 0.979742
vt 0.865588 0.979742
vt 0.865588 0.979742
vt 0.865588 0.979742
vt 0.865588 0.979742
vt 0.865588 0.979742
vt 0.865588 0.979742
vt 0.865588 0.979742
vt 0.865588 0.979742
vt 0.865588 0.979742
vt 0.865588 0.979742
vt 0.865588 0.979742
vt 0.865588 0.979742
vt 0.865588 0.979742
vt 0.865588 0.979742
vt 0.865588 0.979742
vt 0.865588 0.979742
vt 0.865588 0.979742
vt 0.865588 0.979742
vn -0.0072 0.1329 -0.9911
vn -0.0061 0.1389 -0.9903
vn -0.0073 0.1321 -0.9912
vn -0.0208 0.1434 -0.9894
vn -0.0251 0.1665 -0.9857
vn -0.0258 0.1701 -0.9851
vn -0.0079 1.0000 0.0000
vn -0.0019 1.0000 0.0000
vn 0.0079 -1.0000 0.0000
vn 0.0019 -1.0000 0.0000
vn 0.0018 -1.0000 0.0000
vn -0.0040 -1.0000 0.0000
vn 0.0208 -0.1332 0.9909
vn 0.0252 -0.1564 0.9874
vn 0.0202 -0.1295 0.9914
vn 0.0074 -0.1610 0.9869
vn 0.0063 -0.1668 0.9860
vn 0.0062 -0.1677 0.9858
vn -0.0355 -0.1623 0.9861
vn -0.0294 -0.1270 0.9915
vn -0.0285 -0.1217 0.9922
vn 0.0316 -0.1724 -0.9845
vn 0.0380 -0.1373 -0.9898
vn 0.0306 -0.1777 -0.9836
vn -0.0040 -0.1329 -0.9911
vn -0.0050 -0.1389 -0.9903
vn -0.0038 -0.1321 -0.9912
vn -0.0265 -0.1434 -0.9893
vn -0.0220 -0.1665 -0.9858
vn -0.0213 -0.1702 -0.9852
vn 0.0354 0.1724 -0.9844
vn 0.0293 0.1373 -0.9901
vn 0.0363 0.1776 -0.9834
vn -0.0316 0.1623 0.9862
vn -0.0380 0.1270 0.9912
vn -0.0390 0.1217 0.9918
vn 0.0038 0.1610 0.9870
vn 0.0048 0.1668 0.9860
vn 0.0049 0.1677 0.9858
vn 0.0265 0.1332 0.9907
vn 0.0220 0.1564 0.9875
vn 0.0272 0.1295 0.9912
vn 0.0126 0.1211 0.9926
vn 0.0138 0.1018 0.9947
vn 0.0125 0.1220 0.9924
vn -0.0035 0.1198 -0.9928
vn -0.0041 0.1151 -0.9933
vn -0.0035 0.1202 -0.9927
vn 0.0018 0.0949 0.9955
vn 0.0024 0.0995 0.9950
vn 0.0024 0.1000 0.9950
vn -0.0018 1.0000 0.0000
vn 0.0040 1.0000 0.0000
vn 0.0012 1.0000 -0.0000
vn 0.0148 0.0896 -0.9959
vn 0.0181 0.1176 -0.9929
vn 0.0145 0.0870 -0.9961
vn -0.0165 0.1249 0.9920
vn -0.0198 0.0970 0.9951
vn -0.0201 0.0944 0.9953
vn -0.0052 0.0935 -0.9956
vn -0.0129 0.1129 -0.9935
vn -0.0131 0.1147 -0.9933
vn -0.0084 -1.0000 0.0000
vn 0.0075 0.1304 0.9914
vn 0.0089 0.1230 0.9924
vn 0.0073 0.1316 0.9913
vn 0.0068 -0.1304 0.9914
vn 0.0054 -0.1230 0.9924
vn 0.0070 -0.1316 0.9913
vn 0.0084 1.0000 0.0000
vn 0.0001 0.0899 -0.9960
vn -0.0034 0.1196 -0.9928
vn -0.0038 0.1225 -0.9925
vn 0.0145 0.9999 -0.0000
vn -0.0082 0.1301 0.9915
vn -0.0079 0.1278 0.9918
vn -0.0082 0.1303 0.9914
vn -0.0030 -0.1731 -0.9849
vn -0.0084 -0.1446 -0.9895
vn -0.0093 -0.1400 -0.9901
vn -0.0057 0.1731 -0.9849
vn -0.0003 0.1446 -0.9895
vn 0.0006 0.1400 -0.9902
vn -0.0039 -1.0000 0.0000
vn -0.0025 0.1658 -0.9862
vn 0.0028 0.1361 -0.9907
vn 0.0036 0.1316 -0.9913
vn 0.0016 -0.1658 -0.9862
vn -0.0037 -0.1361 -0.9907
vn -0.0045 -0.1316 -0.9913
vn 0.0039 1.0000 0.0000
vn 0.0138 0.1225 0.9924
vn -0.0052 0.0940 -0.9956
vn -0.0040 0.1274 -0.9918
vn -0.0044 0.1303 -0.9915
vn -0.0019 -0.1388 0.9903
vn -0.0034 -0.1307 0.9914
vn -0.0017 -0.1400 0.9902
vn -0.0023 0.1388 0.9903
vn -0.0009 0.1307 0.9914
vn -0.0026 0.1400 0.9902
vn -0.0126 0.9999 0.0000
vn 0.0119 0.9999 -0.0000
vn -0.0119 -0.9999 0.0000
vn 0.0126 -0.9999 0.0000
vn -0.0063 -0.1574 0.9875
vn -0.0106 -0.1405 0.9900
vn -0.0103 -0.1386 0.9903
vn -0.0133 -0.1368 0.9905
vn -0.0156 -0.1195 0.9927
vn -0.0131 -0.1386 0.9903
vn 0.0123 -0.1520 -0.9883
vn 0.0101 -0.1348 -0.9908
vn 0.0099 -0.1330 -0.9911
vn 0.0140 -0.1311 -0.9913
vn 0.0164 -0.1140 -0.9933
vn 0.0138 -0.1330 -0.9910
vn 0.0051 0.1302 -0.9915
vn 0.0064 0.1472 -0.9891
vn 0.0050 0.1290 -0.9916
vn -0.0049 0.1249 0.9922
vn -0.0063 0.1421 0.9898
vn -0.0048 0.1238 0.9923
vn 0.0079 0.1279 -0.9918
vn 0.0093 0.1106 -0.9938
vn 0.0094 0.1095 -0.9939
vn -0.0083 0.1226 0.9924
vn -0.0076 0.1055 0.9944
vn -0.0076 0.1043 0.9945
vn -0.0125 0.1368 0.9905
vn -0.0103 0.1195 0.9928
vn -0.0127 0.1386 0.9903
vn -0.0143 0.1574 0.9874
vn -0.0166 0.1405 0.9899
vn -0.0169 0.1386 0.9902
vn 0.0132 0.1311 -0.9913
vn 0.0065 0.1140 -0.9935
vn 0.0135 0.1330 -0.9910
vn 0.0135 0.1520 -0.9883
vn 0.0157 0.1348 -0.9907
vn 0.0159 0.1330 -0.9910
vn -0.0034 -1.0000 0.0000
vn -0.0004 0.1297 -0.9916
vn -0.0007 0.1316 -0.9913
vn -0.0012 -0.1141 -0.9935
vn 0.0012 -0.1297 -0.9916
vn 0.0015 -0.1316 -0.9913
vn 0.0034 1.0000 0.0000
vn -0.0070 0.1213 0.9926
vn -0.0071 0.1225 0.9924
vn 0.0078 0.1315 -0.9913
vn 0.0080 0.1303 -0.9914
vn -0.0022 -0.1419 0.9899
vn -0.0025 -0.1400 0.9902
vn 0.0013 0.1419 0.9899
vn -0.0011 0.1573 0.9875
vn 0.0016 0.1400 0.9902
vn 0.0033 -1.0000 0.0000
vn 0.0271 0.1190 0.9925
vn 0.0288 0.1302 0.9911
vn 0.0290 0.1316 0.9909
vn 0.0296 -0.1302 0.9910
vn 0.0279 -0.1190 0.9925
vn 0.0298 -0.1316 0.9909
vn -0.0033 1.0000 0.0000
vn -0.0239 0.1217 -0.9923
vn -0.0251 0.1103 -0.9936
vn -0.0239 0.1225 -0.9922
vn 0.0241 0.1423 0.9895
vn 0.0231 0.1311 0.9911
vn 0.0230 0.1303 0.9912
vn -0.0269 -0.1413 -0.9896
vn -0.0286 -0.1524 -0.9879
vn -0.0267 -0.1399 -0.9898
vn -0.0296 0.1524 -0.9879
vn -0.0279 0.1413 -0.9896
vn -0.0277 0.1399 -0.9898
vn -1.0000 0.0001 0.0001
vn -1.0000 0.0001 -0.0001
vn 1.0000 0.0001 -0.0001
vn 1.0000 0.0001 0.0001
vn -0.0060 0.1397 -0.9902
vn -0.0201 0.1397 -0.9900
vn 0.0259 -0.1600 0.9868
vn 0.0075 -0.1601 0.9871
vn -0.0364 -0.1676 0.9852
vn 0.0390 -0.1320 -0.9905
vn -0.0052 -0.1397 -0.9902
vn -0.0272 -0.1397 -0.9898
vn 0.0284 0.1320 -0.9908
vn -0.0306 0.1676 0.9854
vn 0.0036 0.1601 0.9871
vn 0.0213 0.1601 0.9869
vn 0.0140 0.1000 0.9949
vn -0.0041 0.1147 -0.9934
vn 0.0018 0.0944 0.9955
vn 0.0184 0.1202 -0.9926
vn -0.0162 0.1275 0.9917
vn 0.0092 0.1218 0.9925
vn 0.0052 -0.1218 0.9925
vn 0.0005 0.0870 -0.9962
vn -0.0079 0.1275 0.9918
vn -0.0021 -0.1777 -0.9841
vn -0.0066 0.1777 -0.9841
vn -0.0033 0.1702 -0.9854
vn 0.0024 -0.1702 -0.9854
vn -0.0036 -0.1295 0.9916
vn -0.0007 0.1295 0.9916
vn -0.0062 -0.1593 0.9872
vn -0.0158 -0.1177 0.9929
vn 0.0125 -0.1538 -0.9880
vn 0.0166 -0.1121 -0.9936
vn 0.0064 0.1483 -0.9889
vn -0.0064 0.1432 0.9897
vn 0.0079 0.1290 -0.9916
vn -0.0082 0.1238 0.9923
vn -0.0101 0.1177 0.9930
vn -0.0140 0.1593 0.9871
vn 0.0065 0.1121 -0.9937
vn 0.0132 0.1538 -0.9880
vn -0.0015 -0.1121 -0.9937
vn -0.0014 0.1593 0.9872
vn 0.0269 0.1177 0.9927
vn 0.0277 -0.1176 0.9927
vn -0.0252 0.1095 -0.9937
vn 0.0242 0.1432 0.9894
vn -0.0288 -0.1537 -0.9877
vn -0.0298 0.1537 -0.9877
vn -1.0000 0.0000 0.0000
vn -1.0000 -0.0001 -0.0001
vn -1.0000 0.0002 -0.0001
vn -1.0000 -0.0002 0.0000
vn -1.0000 -0.0001 0.0000
vn -1.0000 -0.0001 0.0001
vn 1.0000 0.0000 0.0000
vn 1.0000 -0.0001 0.0001
vn 1.0000 0.0002 0.0001
vn 1.0000 -0.0002 0.0000
vn 1.0000 -0.0001 0.0000
vn 1.0000 -0.0001 -0.0001
s 1
f 38/1/1 22/2/2 23/3/3
f 22/2/4 40/4/5 21/5/6
f 26/6/7 47/7/7 48/8/7
f 36/9/7 52/10/7 46/11/7
f 34/12/8 52/10/7 35/13/7
f 23/3/9 29/14/9 24/15/9
f 23/3/9 31/16/10 30/17/9
f 22/2/11 32/18/12 31/16/10
f 33/19/13 42/20/14 41/21/15
f 42/20/16 35/13/17 43/22/18
f 43/22/19 36/9/20 44/23/21
f 25/24/22 38/1/23 37/25/24
f 26/6/25 39/26/26 38/1/27
f 39/26/28 28/27/29 40/4/30
f 37/25/31 23/3/32 24/15/33
f 30/17/34 44/23/35 29/14/36
f 31/16/37 43/22/38 30/17/39
f 41/21/40 31/16/41 32/18/42
f 45/28/43 57/29/44 53/30/45
f 52/10/46 59/31/47 60/32/48
f 48/8/49 57/29/50 49/33/51
f 26/6/7 49/33/8 27/34/52
f 33/19/53 51/35/52 34/12/8
f 27/34/52 45/28/53 28/27/53
f 57/29/52 58/36/54 53/30/54
f 56/37/7 59/31/8 57/29/52
f 56/37/7 54/38/7 60/32/7
f 46/11/55 60/32/56 54/38/57
f 47/7/58 56/37/59 48/8/60
f 50/39/61 59/31/62 51/35/63
f 13/40/64 29/14/64 11/41/64
f 11/41/65 44/23/66 19/42/67
f 19/42/68 36/9/69 12/43/70
f 36/9/71 16/44/71 12/43/71
f 46/11/72 18/45/73 16/44/74
f 18/45/75 55/46/75 17/47/75
f 17/47/76 47/7/77 15/48/78
f 15/48/71 25/24/71 14/49/71
f 25/24/79 20/50/80 14/49/81
f 37/25/82 13/40/83 20/50/84
f 32/18/12 1/51/85 3/52/85
f 21/5/86 9/53/87 1/51/88
f 40/4/89 2/54/90 9/53/91
f 28/27/53 6/55/92 2/54/92
f 45/28/43 8/56/93 6/55/93
f 53/30/54 7/57/52 8/56/52
f 58/36/94 5/58/95 7/57/96
f 5/58/92 33/19/53 4/59/92
f 4/59/97 41/21/98 10/60/99
f 10/60/100 32/18/101 3/52/102
f 86/61/103 96/62/103 93/63/103
f 92/64/104 98/65/104 94/66/104
f 85/67/104 95/68/104 96/62/104
f 82/69/105 87/70/105 83/71/105
f 81/72/106 88/73/106 82/69/106
f 105/74/107 91/75/108 106/76/109
f 91/75/110 107/77/111 106/76/112
f 108/78/113 85/67/114 109/79/115
f 85/67/116 110/80/117 109/79/118
f 98/65/119 103/81/120 104/82/121
f 91/75/103 97/83/103 98/65/103
f 99/84/103 104/82/103 103/81/103
f 102/85/104 100/86/104 104/82/104
f 96/62/122 101/87/123 102/85/124
f 98/65/125 100/86/126 94/66/127
f 96/62/128 99/84/129 93/63/130
f 106/76/131 87/70/132 88/73/133
f 89/88/134 106/76/135 88/73/136
f 109/79/137 81/72/138 82/69/139
f 83/71/140 109/79/141 82/69/142
f 63/89/143 81/72/143 61/90/143
f 81/72/138 69/91/144 61/90/145
f 110/80/146 62/92/147 69/91/148
f 62/92/149 93/63/149 66/93/149
f 66/93/150 99/84/129 68/94/151
f 68/94/149 103/81/149 67/95/149
f 103/81/120 65/96/152 67/95/153
f 65/96/149 90/97/149 64/98/149
f 64/98/154 105/74/107 70/99/155
f 70/99/156 89/88/157 63/89/158
f 73/100/159 87/70/159 71/101/159
f 87/70/160 79/102/161 71/101/162
f 79/102/163 92/64/164 72/103/165
f 92/64/166 76/104/166 72/103/166
f 76/104/167 100/86/168 78/105/169
f 100/86/166 77/106/166 78/105/166
f 101/87/170 75/107/171 77/106/172
f 95/68/166 74/108/166 75/107/166
f 74/108/173 108/78/174 80/109/175
f 108/78/176 73/100/177 80/109/178
f 17/47/179 20/50/179 19/42/180
f 77/106/179 80/109/179 79/102/180
f 67/95/181 70/99/181 69/91/182
f 7/57/181 10/60/181 9/53/182
f 38/1/1 39/26/183 22/2/2
f 22/2/4 39/26/184 40/4/5
f 26/6/7 25/24/7 47/7/7
f 36/9/7 35/13/7 52/10/7
f 34/12/8 51/35/52 52/10/7
f 23/3/9 30/17/9 29/14/9
f 23/3/9 22/2/11 31/16/10
f 22/2/11 21/5/12 32/18/12
f 33/19/13 34/12/185 42/20/14
f 42/20/16 34/12/186 35/13/17
f 43/22/19 35/13/187 36/9/20
f 25/24/22 26/6/188 38/1/23
f 26/6/25 27/34/189 39/26/26
f 39/26/28 27/34/190 28/27/29
f 37/25/31 38/1/191 23/3/32
f 30/17/34 43/22/192 44/23/35
f 31/16/37 42/20/193 43/22/38
f 41/21/40 42/20/194 31/16/41
f 45/28/43 49/33/195 57/29/44
f 52/10/46 51/35/196 59/31/47
f 48/8/49 56/37/197 57/29/50
f 26/6/7 48/8/7 49/33/8
f 33/19/53 50/39/53 51/35/52
f 27/34/52 49/33/8 45/28/53
f 57/29/52 59/31/8 58/36/54
f 56/37/7 60/32/7 59/31/8
f 56/37/7 55/46/7 54/38/7
f 46/11/55 52/10/198 60/32/56
f 47/7/58 55/46/199 56/37/59
f 50/39/61 58/36/94 59/31/62
f 13/40/64 24/15/64 29/14/64
f 11/41/65 29/14/200 44/23/66
f 19/42/68 44/23/201 36/9/69
f 36/9/71 46/11/71 16/44/71
f 46/11/72 54/38/202 18/45/73
f 18/45/75 54/38/75 55/46/75
f 17/47/76 55/46/203 47/7/77
f 15/48/71 47/7/71 25/24/71
f 25/24/79 37/25/204 20/50/80
f 37/25/82 24/15/205 13/40/83
f 32/18/12 21/5/12 1/51/85
f 21/5/86 40/4/206 9/53/87
f 40/4/89 28/27/207 2/54/90
f 28/27/53 45/28/53 6/55/92
f 45/28/43 53/30/45 8/56/93
f 53/30/54 58/36/54 7/57/52
f 58/36/94 50/39/61 5/58/95
f 5/58/92 50/39/53 33/19/53
f 4/59/97 33/19/208 41/21/98
f 10/60/100 41/21/209 32/18/101
f 86/61/103 85/67/103 96/62/103
f 92/64/104 91/75/104 98/65/104
f 85/67/104 84/110/104 95/68/104
f 82/69/105 88/73/105 87/70/105
f 81/72/106 89/88/106 88/73/106
f 105/74/107 90/97/210 91/75/108
f 91/75/110 92/64/211 107/77/111
f 108/78/113 84/110/212 85/67/114
f 85/67/116 86/61/213 110/80/117
f 98/65/119 97/83/214 103/81/120
f 91/75/103 90/97/103 97/83/103
f 99/84/103 102/85/103 104/82/103
f 102/85/104 101/87/104 100/86/104
f 96/62/122 95/68/215 101/87/123
f 98/65/125 104/82/216 100/86/126
f 96/62/128 102/85/217 99/84/129
f 106/76/131 107/77/218 87/70/132
f 89/88/134 105/74/219 106/76/135
f 109/79/137 110/80/220 81/72/138
f 83/71/140 108/78/221 109/79/141
f 63/89/143 89/88/143 81/72/143
f 81/72/138 110/80/220 69/91/144
f 110/80/146 86/61/222 62/92/147
f 62/92/149 86/61/149 93/63/149
f 66/93/150 93/63/130 99/84/129
f 68/94/149 99/84/149 103/81/149
f 103/81/120 97/83/214 65/96/152
f 65/96/149 97/83/149 90/97/149
f 64/98/154 90/97/210 105/74/107
f 70/99/156 105/74/223 89/88/157
f 73/100/159 83/71/159 87/70/159
f 87/70/160 107/77/224 79/102/161
f 79/102/163 107/77/225 92/64/164
f 92/64/166 94/66/166 76/104/166
f 76/104/167 94/66/226 100/86/168
f 100/86/166 101/87/166 77/106/166
f 101/87/170 95/68/227 75/107/171
f 95/68/166 84/110/166 74/108/166
f 74/108/173 84/110/228 108/78/174
f 108/78/176 83/71/229 73/100/177
f 20/50/179 13/40/230 11/41/230
f 19/42/180 12/43/231 18/45/232
f 12/43/231 16/44/233 18/45/232
f 20/50/179 11/41/230 19/42/180
f 15/48/234 14/49/235 17/47/179
f 14/49/235 20/50/179 17/47/179
f 18/45/232 17/47/179 19/42/180
f 80/109/179 73/100/230 71/101/230
f 79/102/180 72/103/231 78/105/232
f 72/103/231 76/104/233 78/105/232
f 80/109/179 71/101/230 79/102/180
f 75/107/234 74/108/235 77/106/179
f 74/108/235 80/109/179 77/106/179
f 78/105/232 77/106/179 79/102/180
f 70/99/181 63/89/236 61/90/236
f 69/91/182 62/92/237 68/94/238
f 62/92/237 66/93/239 68/94/238
f 70/99/181 61/90/236 69/91/182
f 65/96/240 64/98/241 67/95/181
f 64/98/241 70/99/181 67/95/181
f 68/94/238 67/95/181 69/91/182
f 10/60/181 3/52/236 1/51/236
f 9/53/182 2/54/237 8/56/238
f 2/54/237 6/55/239 8/56/238
f 10/60/181 1/51/236 9/53/182
f 5/58/240 4/59/241 7/57/181
f 4/59/241 10/60/181 7/57/181
f 8/56/238 7/57/181 9/53/182
