# Blender v2.81 (sub 16) OBJ File: 'models.blend'
# www.blender.org
o D_Rails_06_Cylinder.328
v -0.999900 -0.021055 0.459129
v -0.999900 0.127079 0.459129
v -0.999900 -0.021055 0.359129
v -0.999900 0.127079 0.359129
v -0.999900 0.127079 0.381650
v -0.999900 0.127079 0.437972
v -0.999894 0.078488 0.388037
v -0.999894 0.078488 0.431973
v -0.999900 0.053012 0.449293
v -0.999900 0.053012 0.369599
v 0.547852 -0.217205 0.547548
v 0.617334 -0.088383 0.587555
v 0.602970 -0.226343 0.466204
v 0.683157 -0.111195 0.505050
v 0.604255 -0.162198 0.557085
v 0.645068 -0.154340 0.495120
v 0.629511 -0.088383 0.569740
v 0.667612 -0.111195 0.527793
v 0.623145 -0.142163 0.549960
v 0.645646 -0.142163 0.517039
v 0.316474 -0.007387 0.410712
v 0.309857 -0.007387 0.450035
v 0.331644 0.041480 0.407010
v 0.323204 0.041480 0.457179
v -0.586983 -0.019448 0.460419
v -0.200002 -0.017841 0.450003
v 0.037472 -0.021055 0.427634
v 0.037472 0.127079 0.427634
v -0.200002 0.130294 0.450003
v -0.586983 0.128686 0.460419
v 0.037472 -0.021055 0.327634
v -0.200002 -0.017841 0.350003
v -0.586983 -0.019448 0.360419
v -0.586983 0.128686 0.360419
v -0.200002 0.130294 0.350003
v 0.037472 0.127079 0.327634
v 0.037472 0.053012 0.417766
v -0.200002 0.056227 0.439550
v -0.586983 0.054619 0.447626
v -0.586983 0.054619 0.370092
v -0.200002 0.056226 0.362016
v 0.037472 0.053012 0.340232
v -0.586983 0.128686 0.432444
v 0.037472 0.127079 0.406056
v -0.200002 0.130294 0.427145
v -0.586983 0.128686 0.381571
v -0.200002 0.130294 0.376272
v 0.037472 0.127079 0.355182
v -0.586976 0.077758 0.426182
v 0.037479 0.076151 0.401225
v -0.199995 0.079365 0.422029
v -0.586976 0.077758 0.386306
v -0.199995 0.079365 0.382153
v 0.037479 0.076151 0.361349
v 0.313541 -0.029585 0.388804
v 0.300676 -0.029585 0.465263
v 0.336214 0.041480 0.379844
v 0.295047 -0.100650 0.372918
v 0.319622 0.041480 0.478458
v 0.278455 -0.100650 0.471531
v -0.999901 -0.021055 -0.359872
v -0.999901 0.127079 -0.359872
v -0.999901 -0.021055 -0.459872
v -0.999901 0.127079 -0.459872
v -0.999901 0.127079 -0.437350
v -0.999901 0.127079 -0.381029
v -0.999894 0.078488 -0.430964
v -0.999894 0.078488 -0.387028
v -0.999901 0.053012 -0.369707
v -0.999901 0.053012 -0.449402
v 0.538578 -0.186543 -0.386536
v 0.597348 -0.043943 -0.412236
v 0.530210 -0.149245 -0.493666
v 0.569497 -0.045338 -0.507520
v 0.591141 -0.043943 -0.432700
v 0.575970 -0.045338 -0.486186
v 0.578231 -0.100331 -0.427249
v 0.565476 -0.100331 -0.469293
v 0.547994 -0.122398 -0.483062
v 0.571130 -0.122398 -0.406800
v -0.531247 -0.019448 -0.360412
v -0.020832 -0.025876 -0.384719
v -0.020832 0.122258 -0.384719
v -0.531247 0.128687 -0.360412
v -0.020832 -0.025876 -0.484719
v -0.531247 -0.019448 -0.460412
v -0.531247 0.128687 -0.460412
v -0.020832 0.122258 -0.484719
v -0.531247 0.128687 -0.378384
v -0.020832 0.122258 -0.406103
v -0.531247 0.128687 -0.434706
v -0.020832 0.122258 -0.462425
v -0.531255 0.080096 -0.383481
v -0.020839 0.073667 -0.412167
v -0.531255 0.080096 -0.427417
v -0.020839 0.073667 -0.456103
v -0.531247 0.054620 -0.448461
v -0.020832 0.048191 -0.474354
v -0.020832 0.048191 -0.394660
v -0.531247 0.054620 -0.368767
v 0.306690 0.022915 -0.371593
v 0.295621 0.021859 -0.450508
v 0.302907 0.047110 -0.433435
v 0.309010 0.047692 -0.389929
v 0.311108 0.094724 -0.441607
v 0.318931 0.095470 -0.385836
v 0.308012 0.094428 -0.463683
v 0.280352 -0.050984 -0.457858
v 0.321902 0.095753 -0.364661
v 0.294241 -0.049660 -0.358836
vt 0.865588 0.979742
vt 0.865588 0.979742
vt 0.865588 0.979742
vt 0.865588 0.979742
vt 0.865588 0.979742
vt 0.865588 0.979742
vt 0.865588 0.979742
vt 0.865588 0.979742
vt 0.865588 0.979742
vt 0.865588 0.979742
vt 0.865588 0.979742
vt 0.865588 0.979742
vt 0.865588 0.979742
vt 0.865588 0.979742
vt 0.865588 0.979742
vt 0.865588 0.979742
vt 0.865588 0.979742
vt 0.865588 0.979742
vt 0.865588 0.979742
vt 0.865588 0.979742
vt 0.865588 0.979742
vt 0.865588 0.979742
vt 0.865588 0.979742
vt 0.865588 0.979742
vt 0.865588 0.979742
vt 0.865588 0.979742
vt 0.865588 0.979742
vt 0.865588 0.979742
vt 0.865588 0.979742
vt 0.865588 0.979742
vt 0.865588 0.979742
vt 0.865588 0.979742
vt 0.865588 0.979742
vt 0.865588 0.979742
vt 0.865588 0.979742
vt 0.865588 0.979742
vt 0.865588 0.979742
vt 0.865588 0.979742
vt 0.865588 0.979742
vt 0.865588 0.979742
vt 0.865588 0.979742
vt 0.865588 0.979742
vt 0.865588 0.979742
vt 0.865588 0.979742
vt 0.865588 0.979742
vt 0.865588 0.979742
vt 0.865588 0.979742
vt 0.865588 0.979742
vt 0.865588 0.979742
vt 0.865588 0.979742
vt 0.865588 0.979742
vt 0.865588 0.979742
vt 0.865588 0.979742
vt 0.865588 0.979742
vt 0.865588 0.979742
vt 0.865588 0.979742
vt 0.865588 0.979742
vt 0.865588 0.979742
vt 0.865588 0.979742
vt 0.865588 0.979742
vt 0.865588 0.979742
vt 0.865588 0.979742
vt 0.865588 0.979742
vt 0.865588 0.979742
vt 0.865588 0.979742
vt 0.865588 0.979742
vt 0.865588 0.979742
vt 0.865588 0.979742
vt 0.865588 0.979742
vt 0.865588 0.979742
vt 0.865588 0.979742
vt 0.865588 0.979742
vt 0.865588 0.979742
vt 0.865588 0.979742
vt 0.865588 0.979742
vt 0.865588 0.979742
vt 0.865588 0.979742
vt 0.865588 0.979742
vt 0.865588 0.979742
vt 0.865588 0.979742
vt 0.865588 0.979742
vt 0.865588 0.979742
vt 0.865588 0.979742
vt 0.865588 0.979742
vt 0.865588 0.979742
vt 0.865588 0.979742
vt 0.865588 0.979742
vt 0.865588 0.979742
vt 0.865588 0.979742
vt 0.865588 0.979742
vt 0.865588 0.979742
vt 0.865588 0.979742
vt 0.865588 0.979742
vt 0.865588 0.979742
vt 0.865588 0.979742
vt 0.865588 0.979742
vt 0.865588 0.979742
vt 0.865588 0.979742
vt 0.865588 0.979742
vt 0.865588 0.979742
vt 0.865588 0.979742
vt 0.865588 0.979742
vt 0.865588 0.979742
vt 0.865588 0.979742
vt 0.865588 0.979742
vt 0.865588 0.979742
vt 0.865588 0.979742
vt 0.865588 0.979742
vt 0.865588 0.979742
vt 0.865588 0.979742
vn 0.2867 0.9580 0.0038
vn 0.2852 0.9575 0.0439
vn 0.2868 0.9580 -0.0000
vn 0.2021 0.0920 -0.9750
vn 0.2017 0.0881 -0.9755
vn 0.2017 0.0875 -0.9755
vn 0.2868 0.9580 0.0020
vn 0.2824 0.9582 0.0453
vn 0.2870 0.9579 -0.0000
vn 0.6748 -0.3724 0.6371
vn 0.7591 -0.3159 0.5692
vn 0.6538 -0.3848 0.6515
vn 0.6719 -0.6387 0.3749
vn 0.7149 -0.5002 0.4886
vn 0.6549 -0.6625 0.3636
vn 0.2411 -0.1811 -0.9535
vn 0.3073 -0.0738 -0.9487
vn 0.2325 -0.1943 -0.9530
vn 0.3368 0.1285 -0.9328
vn 0.3533 0.1569 -0.9223
vn 0.3332 0.1223 -0.9349
vn -0.3733 -0.9245 -0.0767
vn -0.3482 -0.9301 -0.1168
vn -0.3810 -0.9224 -0.0641
vn -0.3751 -0.1040 0.9212
vn -0.3897 -0.2632 0.8825
vn -0.3711 -0.0730 0.9257
vn 0.1233 -0.1659 -0.9784
vn 0.1235 -0.1634 -0.9788
vn 0.1235 -0.1628 -0.9789
vn -0.1362 0.1306 0.9820
vn -0.1362 0.1295 0.9822
vn -0.1362 0.1308 0.9820
vn 0.0943 0.1330 0.9866
vn 0.0928 0.1377 0.9861
vn 0.0947 0.1315 0.9868
vn 0.0208 0.1434 0.9894
vn 0.0251 0.1665 0.9857
vn 0.0258 0.1701 0.9851
vn 0.0135 0.9999 0.0000
vn -0.0135 -0.9999 0.0000
vn 0.0042 -1.0000 0.0000
vn 0.0040 -1.0000 0.0000
vn -0.0208 -0.1332 -0.9909
vn -0.0252 -0.1564 -0.9874
vn -0.0202 -0.1295 -0.9914
vn -0.0928 -0.1609 -0.9826
vn -0.0942 -0.1655 -0.9817
vn -0.0923 -0.1594 -0.9829
vn 0.0892 -0.1330 0.9871
vn 0.0906 -0.1377 0.9863
vn 0.0888 -0.1315 0.9873
vn 0.0265 -0.1434 0.9893
vn 0.0220 -0.1665 0.9858
vn 0.0213 -0.1702 0.9852
vn -0.0885 0.1609 -0.9830
vn -0.0898 0.1656 -0.9821
vn -0.0902 0.1670 -0.9818
vn -0.0265 0.1332 -0.9907
vn -0.0220 0.1564 -0.9875
vn -0.0272 0.1295 -0.9912
vn -0.0126 0.1211 -0.9926
vn -0.0138 0.1018 -0.9947
vn -0.0124 0.1220 -0.9924
vn 0.0884 0.1190 0.9889
vn 0.0893 0.1150 0.9893
vn 0.0882 0.1198 0.9889
vn -0.0858 0.0948 -0.9918
vn -0.0865 0.0988 -0.9913
vn -0.0867 0.0996 -0.9912
vn -0.0040 1.0000 0.0000
vn -0.0042 1.0000 0.0000
vn -0.0012 1.0000 -0.0000
vn 0.0052 0.0935 0.9956
vn 0.0129 0.1129 0.9935
vn 0.0131 0.1147 0.9933
vn 0.6545 -0.6323 0.4145
vn 0.6585 -0.6521 0.3757
vn 0.6603 -0.6638 0.3513
vn -0.2148 0.1409 0.9664
vn -0.2466 0.0980 0.9642
vn -0.2517 0.0910 0.9635
vn 0.3766 0.9237 0.0704
vn 0.3159 0.9255 0.2092
vn 0.3135 0.9251 0.2143
vn 0.3637 0.0616 -0.9295
vn 0.3952 0.2554 -0.8824
vn 0.3975 0.2749 -0.8754
vn -0.2973 -0.9547 -0.0109
vn -0.3026 -0.9523 -0.0394
vn -0.3048 -0.9510 -0.0513
vn -0.2136 -0.1282 0.9685
vn -0.2135 -0.1240 0.9690
vn -0.2136 -0.1290 0.9684
vn 0.2182 0.1629 -0.9622
vn 0.2183 0.1593 -0.9628
vn 0.2183 0.1585 -0.9629
vn 0.3900 0.9179 0.0737
vn 0.3274 0.9199 0.2160
vn 0.3246 0.9195 0.2218
vn -0.2566 0.1347 0.9571
vn -0.3559 -0.0495 0.9332
vn -0.3636 -0.0648 0.9293
vn 0.3727 0.9250 0.0746
vn 0.3149 0.9270 0.2037
vn 0.3107 0.9265 0.2124
vn 0.2753 0.9614 0.0023
vn 0.2719 0.9614 0.0432
vn 0.2754 0.9613 0.0000
vn -0.1386 0.1189 0.9832
vn -0.1388 0.1177 0.9833
vn -0.1386 0.1190 0.9832
vn 0.6440 -0.5779 0.5013
vn 0.0039 -1.0000 0.0000
vn 0.0025 0.1658 0.9862
vn -0.0028 0.1361 0.9907
vn -0.0036 0.1316 0.9913
vn -0.0016 -0.1658 0.9862
vn 0.0037 -0.1361 0.9907
vn 0.0045 -0.1316 0.9913
vn -0.0039 1.0000 0.0000
vn -0.0138 0.1225 -0.9924
vn 0.0018 1.0000 -0.0000
vn 0.0052 0.0940 0.9956
vn 0.0040 0.1274 0.9918
vn 0.0044 0.1303 0.9915
vn 0.0019 -0.1388 -0.9903
vn 0.0034 -0.1307 -0.9914
vn 0.0017 -0.1400 -0.9902
vn 0.0023 0.1388 -0.9903
vn 0.0009 0.1307 -0.9914
vn 0.0025 0.1400 -0.9902
vn 0.4594 0.8847 -0.0792
vn 0.4460 0.8852 -0.1325
vn 0.4600 0.8846 -0.0764
vn 0.2326 0.1377 0.9628
vn 0.2585 0.2278 0.9388
vn 0.2292 0.1262 0.9652
vn 0.4438 0.8928 -0.0768
vn 0.4310 0.8932 -0.1283
vn 0.4444 0.8927 -0.0743
vn 0.1159 -0.0971 0.9885
vn 0.1388 0.0012 0.9903
vn 0.1111 -0.1171 0.9869
vn 0.0786 0.9969 -0.0009
vn 0.0785 0.9966 -0.0235
vn 0.0786 0.9969 0.0000
vn -0.1200 0.0919 -0.9885
vn -0.1632 -0.0423 -0.9857
vn -0.1676 -0.0567 -0.9842
vn -0.0517 0.1332 0.9897
vn -0.0539 0.1732 0.9834
vn -0.0514 0.1289 0.9903
vn 0.0966 0.1293 -0.9869
vn 0.0842 0.0907 -0.9923
vn 0.0994 0.1379 -0.9854
vn 0.0843 0.9964 -0.0010
vn 0.0842 0.9962 -0.0242
vn 0.0843 0.9964 -0.0000
vn 0.8340 -0.4904 -0.2530
vn 0.8430 -0.4733 -0.2557
vn 0.8289 -0.4998 -0.2515
vn 0.2054 0.1434 0.9681
vn 0.2144 0.1836 0.9593
vn 0.2036 0.1355 0.9696
vn 0.4783 0.8741 -0.0846
vn 0.4636 0.8757 -0.1350
vn 0.4799 0.8738 -0.0790
vn -0.2365 -0.1493 -0.9601
vn -0.2493 -0.2148 -0.9443
vn -0.2518 -0.2282 -0.9405
vn 0.0525 -0.1452 -0.9880
vn 0.0572 -0.1805 -0.9819
vn 0.0582 -0.1880 -0.9804
vn 0.8343 -0.3545 -0.4223
vn 0.8998 -0.2914 -0.3246
vn 0.9234 -0.2623 -0.2802
vn 0.0126 0.9999 0.0000
vn -0.0126 -0.9999 0.0000
vn -0.0492 -0.1572 -0.9863
vn -0.0516 -0.1403 -0.9888
vn -0.0519 -0.1384 -0.9890
vn 0.0483 -0.1310 0.9902
vn 0.0461 -0.1139 0.9924
vn 0.0485 -0.1329 0.9899
vn 0.0572 0.1300 0.9899
vn 0.0556 0.1469 0.9876
vn 0.0573 0.1288 0.9900
vn -0.0540 0.1225 -0.9910
vn -0.0527 0.1053 -0.9930
vn -0.0526 0.1042 -0.9932
vn -0.0478 0.1572 -0.9864
vn -0.0456 0.1403 -0.9891
vn -0.0454 0.1384 -0.9893
vn 0.0491 0.1309 0.9902
vn 0.0515 0.1139 0.9922
vn 0.0488 0.1329 0.9899
vn 0.9388 -0.2572 -0.2293
vn 0.9499 -0.3083 -0.0517
vn 0.9290 -0.2399 -0.2818
vn 0.0816 0.9967 -0.0020
vn 0.0803 0.9965 -0.0227
vn 0.0818 0.9967 -0.0000
vn -0.0819 -0.9966 0.0047
vn -0.0783 -0.9967 0.0198
vn -0.0772 -0.9967 0.0242
vn -0.3963 -0.9180 -0.0155
vn -0.4704 -0.8626 -0.1862
vn -0.4946 -0.8321 -0.2510
vn -0.0583 0.1307 -0.9897
vn -0.0031 0.3224 -0.9466
vn 0.0089 0.3622 -0.9320
vn 0.0753 0.1185 -0.9901
vn 0.0660 0.0762 -0.9949
vn 0.0764 0.1235 -0.9894
vn -0.0604 0.1398 0.9883
vn -0.0656 0.1761 0.9822
vn -0.0594 0.1328 0.9894
vn -0.0776 -0.1252 0.9891
vn -0.0665 -0.0878 0.9939
vn -0.0645 -0.0812 0.9946
vn 0.8335 -0.4984 -0.2386
vn 0.0034 -1.0000 0.0000
vn -0.0021 0.1141 0.9935
vn 0.0004 0.1297 0.9916
vn 0.0007 0.1316 0.9913
vn 0.0012 -0.1141 0.9935
vn -0.0012 -0.1297 0.9916
vn -0.0015 -0.1316 0.9913
vn -0.0034 1.0000 0.0000
vn 0.0070 0.1213 -0.9926
vn 0.0054 0.1055 -0.9944
vn 0.0071 0.1225 -0.9924
vn -0.0062 0.1472 0.9891
vn -0.0078 0.1315 0.9913
vn -0.0080 0.1303 0.9914
vn 0.0022 -0.1419 -0.9899
vn -0.0003 -0.1573 -0.9875
vn 0.0025 -0.1400 -0.9902
vn -0.0013 0.1419 -0.9899
vn 0.0011 0.1573 -0.9875
vn -0.0016 0.1400 -0.9902
vn -1.0000 0.0001 0.0001
vn -1.0000 0.0001 -0.0001
vn 0.2850 0.9573 0.0480
vn 0.2022 0.0925 -0.9750
vn 0.2821 0.9582 0.0475
vn 0.7896 -0.2920 0.5397
vn 0.6311 -0.7037 0.3264
vn 0.6485 -0.6807 0.3408
vn 0.3152 -0.0603 -0.9471
vn 0.3560 0.1615 -0.9204
vn -0.3417 -0.9312 -0.1269
vn -0.3912 -0.2911 0.8731
vn 0.1233 -0.1664 -0.9783
vn -0.1362 0.1292 0.9822
vn 0.0923 0.1391 0.9860
vn 0.0201 0.1397 0.9900
vn -0.0259 -0.1600 -0.9868
vn -0.0947 -0.1669 -0.9814
vn 0.0910 -0.1392 0.9861
vn 0.0272 -0.1397 0.9898
vn -0.0880 0.1595 -0.9833
vn -0.0213 0.1601 -0.9869
vn -0.0140 0.1000 -0.9949
vn 0.0894 0.1143 0.9894
vn -0.0856 0.0941 -0.9919
vn 0.6505 -0.6158 0.4446
vn -0.2078 0.1502 0.9666
vn 0.3793 0.9231 0.0638
vn 0.3589 0.0383 -0.9326
vn -0.2952 -0.9554 0.0000
vn -0.2135 -0.1230 0.9692
vn 0.2182 0.1636 -0.9621
vn 0.3930 0.9172 0.0661
vn -0.2480 0.1495 0.9572
vn 0.3772 0.9239 0.0635
vn 0.2717 0.9613 0.0457
vn -0.1388 0.1176 0.9833
vn 0.0033 0.1702 0.9854
vn -0.0024 -0.1702 0.9854
vn 0.0036 -0.1295 -0.9916
vn 0.0007 0.1295 -0.9916
vn 0.4453 0.8851 -0.1351
vn 0.2612 0.2376 0.9356
vn 0.4304 0.8931 -0.1306
vn 0.1431 0.0207 0.9895
vn 0.0785 0.9966 -0.0243
vn -0.1145 0.1084 -0.9875
vn -0.0542 0.1780 0.9825
vn 0.0818 0.0831 -0.9932
vn 0.0842 0.9961 -0.0251
vn 0.8289 -0.4997 -0.2515
vn 0.8493 -0.4608 -0.2577
vn 0.2164 0.1926 0.9571
vn 0.4621 0.8757 -0.1402
vn -0.2336 -0.1349 -0.9629
vn 0.0516 -0.1384 -0.9890
vn 0.8161 -0.3689 -0.4449
vn -0.0490 -0.1591 -0.9860
vn 0.0459 -0.1120 0.9927
vn 0.0555 0.1481 0.9874
vn -0.0541 0.1237 -0.9908
vn -0.0480 0.1591 -0.9861
vn 0.0518 0.1119 0.9924
vn 0.9481 -0.3178 -0.0137
vn 0.0801 0.9965 -0.0246
vn -0.0831 -0.9965 0.0000
vn -0.3575 -0.9318 0.0626
vn -0.0631 0.1133 -0.9916
vn 0.0650 0.0718 -0.9953
vn -0.0667 0.1838 0.9807
vn -0.0798 -0.1326 0.9880
vn -0.0024 0.1121 0.9937
vn 0.0015 -0.1121 0.9937
vn 0.0053 0.1043 -0.9945
vn -0.0061 0.1483 0.9889
vn -0.0006 -0.1593 -0.9872
vn 0.0014 0.1593 -0.9872
vn -1.0000 0.0000 0.0000
vn -1.0000 -0.0001 -0.0001
vn -1.0000 -0.0001 0.0000
vn -1.0000 -0.0001 0.0001
vn -1.0000 0.0002 -0.0002
vn -1.0000 -0.0002 0.0000
s 1
f 50/1/1 21/2/2 54/3/3
f 50/1/4 24/4/5 22/5/6
f 28/6/7 24/4/8 44/7/9
f 19/8/10 12/9/11 15/10/12
f 20/11/13 19/8/14 15/10/15
f 57/12/16 16/13/17 55/14/18
f 55/14/19 13/15/20 58/16/21
f 58/16/22 11/17/23 60/18/24
f 56/19/25 12/9/26 59/20/27
f 42/21/28 57/12/29 55/14/30
f 27/22/31 56/19/32 37/23/33
f 37/23/34 26/24/35 27/22/36
f 26/24/37 39/25/38 25/26/39
f 35/27/40 48/28/40 36/29/40
f 27/22/41 32/30/41 31/31/41
f 26/24/42 33/32/43 32/30/42
f 34/33/44 41/34/45 40/35/46
f 35/27/47 42/21/48 41/34/49
f 28/6/50 38/36/51 37/23/52
f 38/36/53 30/37/54 39/25/55
f 32/30/56 42/21/57 31/31/58
f 40/35/59 32/30/60 33/32/61
f 43/38/62 51/39/63 49/40/64
f 48/28/65 53/41/66 54/3/67
f 44/7/68 51/39/69 45/42/70
f 28/6/40 45/42/40 29/43/40
f 34/33/71 47/44/72 35/27/72
f 29/43/72 43/38/71 30/37/71
f 51/39/72 52/45/73 49/40/73
f 50/1/40 53/41/40 51/39/40
f 46/46/74 53/41/75 47/44/76
f 14/47/77 20/11/78 16/13/79
f 56/19/80 11/17/81 15/10/82
f 24/4/83 12/9/84 17/48/85
f 22/5/86 17/48/87 19/8/88
f 27/22/89 58/16/90 60/18/91
f 37/23/92 59/20/93 28/6/94
f 31/31/95 55/14/96 58/16/97
f 57/12/98 18/49/99 14/47/100
f 23/50/101 20/11/102 18/49/103
f 21/2/104 19/8/105 20/11/106
f 48/28/107 57/12/108 36/29/109
f 54/3/110 23/50/111 48/28/112
f 11/17/113 13/15/113 16/13/113
f 33/32/43 1/51/114 3/52/114
f 25/26/115 9/53/116 1/51/117
f 39/25/118 2/54/119 9/53/120
f 30/37/71 6/55/121 2/54/121
f 43/38/62 8/56/122 6/55/122
f 49/40/73 7/57/123 8/56/123
f 52/45/124 5/58/125 7/57/126
f 5/58/121 34/33/71 4/59/121
f 4/59/127 40/35/128 10/60/129
f 10/60/130 33/32/131 3/52/132
f 105/61/133 74/62/134 107/63/135
f 103/64/136 76/65/137 105/61/138
f 109/66/139 75/67/140 106/68/141
f 101/69/142 72/70/143 109/66/144
f 83/71/145 106/68/146 90/72/147
f 104/73/148 75/67/149 77/74/150
f 96/75/151 105/61/152 92/76/153
f 98/77/154 108/78/155 85/79/156
f 92/76/157 107/63/158 88/80/159
f 80/81/160 79/82/161 78/83/162
f 110/84/163 80/81/164 101/69/165
f 104/73/166 78/83/167 103/64/168
f 102/85/169 74/62/170 79/82/171
f 98/77/172 107/63/173 102/85/174
f 78/83/175 74/62/176 76/65/177
f 83/71/178 89/86/178 84/87/178
f 82/88/179 86/89/179 85/79/179
f 97/90/180 88/80/181 98/77/182
f 83/71/183 100/91/184 99/92/185
f 92/76/186 95/93/187 96/75/188
f 87/94/178 92/76/178 88/80/178
f 94/95/178 95/93/178 93/96/178
f 90/72/189 93/96/190 89/86/191
f 86/89/192 98/77/193 85/79/194
f 99/92/195 81/97/196 82/88/197
f 72/70/198 77/74/199 75/67/200
f 94/95/201 103/64/202 96/75/203
f 82/88/204 108/78/205 110/84/206
f 110/84/207 73/98/208 71/99/209
f 108/78/210 79/82/211 73/98/212
f 90/72/213 104/73/214 94/95/215
f 82/88/216 101/69/217 99/92/218
f 83/71/219 101/69/220 109/66/221
f 73/98/222 80/81/222 71/99/222
f 63/100/223 81/97/223 61/101/223
f 81/97/224 69/102/225 61/101/226
f 100/91/227 62/103/228 69/102/229
f 62/103/230 89/86/230 66/104/230
f 66/104/231 93/96/232 68/105/233
f 68/105/230 95/93/230 67/106/230
f 95/93/234 65/107/235 67/106/236
f 65/107/230 87/94/230 64/108/230
f 64/108/237 97/90/238 70/109/239
f 70/109/240 86/89/241 63/100/242
f 7/57/243 10/60/243 9/53/244
f 67/106/243 70/109/243 69/102/244
f 50/1/1 22/5/245 21/2/2
f 50/1/4 44/7/246 24/4/5
f 28/6/7 59/20/247 24/4/8
f 19/8/10 17/48/248 12/9/11
f 11/17/249 16/13/250 15/10/15
f 16/13/250 20/11/13 15/10/15
f 57/12/16 14/47/251 16/13/17
f 55/14/19 16/13/252 13/15/20
f 58/16/22 13/15/253 11/17/23
f 56/19/25 15/10/254 12/9/26
f 42/21/28 36/29/255 57/12/29
f 27/22/31 60/18/256 56/19/32
f 37/23/34 38/36/257 26/24/35
f 26/24/37 38/36/258 39/25/38
f 35/27/40 47/44/40 48/28/40
f 27/22/41 26/24/41 32/30/41
f 26/24/42 25/26/43 33/32/43
f 34/33/44 35/27/259 41/34/45
f 35/27/47 36/29/260 42/21/48
f 28/6/50 29/43/261 38/36/51
f 38/36/53 29/43/262 30/37/54
f 32/30/56 41/34/263 42/21/57
f 40/35/59 41/34/264 32/30/60
f 43/38/62 45/42/265 51/39/63
f 48/28/65 47/44/266 53/41/66
f 44/7/68 50/1/267 51/39/69
f 28/6/40 44/7/40 45/42/40
f 34/33/71 46/46/71 47/44/72
f 29/43/72 45/42/72 43/38/71
f 51/39/72 53/41/72 52/45/73
f 50/1/40 54/3/40 53/41/40
f 46/46/74 52/45/124 53/41/75
f 14/47/77 18/49/268 20/11/78
f 56/19/80 60/18/269 11/17/81
f 24/4/83 59/20/270 12/9/84
f 22/5/86 24/4/271 17/48/87
f 27/22/89 31/31/272 58/16/90
f 37/23/92 56/19/273 59/20/93
f 31/31/95 42/21/274 55/14/96
f 57/12/98 23/50/275 18/49/99
f 23/50/101 21/2/276 20/11/102
f 21/2/104 22/5/277 19/8/105
f 48/28/107 23/50/278 57/12/108
f 54/3/110 21/2/279 23/50/111
f 33/32/43 25/26/43 1/51/114
f 25/26/115 39/25/280 9/53/116
f 39/25/118 30/37/281 2/54/119
f 30/37/71 43/38/71 6/55/121
f 43/38/62 49/40/64 8/56/122
f 49/40/73 52/45/73 7/57/123
f 52/45/124 46/46/74 5/58/125
f 5/58/121 46/46/71 34/33/71
f 4/59/127 34/33/282 40/35/128
f 10/60/130 40/35/283 33/32/131
f 105/61/133 76/65/284 74/62/134
f 103/64/136 78/83/285 76/65/137
f 109/66/139 72/70/286 75/67/140
f 101/69/142 80/81/287 72/70/143
f 83/71/145 109/66/288 106/68/146
f 104/73/148 106/68/289 75/67/149
f 96/75/151 103/64/290 105/61/152
f 98/77/154 102/85/291 108/78/155
f 92/76/157 105/61/292 107/63/158
f 78/83/162 77/74/293 80/81/160
f 80/81/160 73/98/294 79/82/161
f 110/84/163 71/99/295 80/81/164
f 104/73/166 77/74/296 78/83/167
f 102/85/169 107/63/297 74/62/170
f 98/77/172 88/80/298 107/63/173
f 78/83/175 79/82/299 74/62/176
f 83/71/178 90/72/178 89/86/178
f 82/88/179 81/97/179 86/89/179
f 97/90/180 87/94/300 88/80/181
f 83/71/183 84/87/301 100/91/184
f 92/76/186 91/110/302 95/93/187
f 87/94/178 91/110/178 92/76/178
f 94/95/178 96/75/178 95/93/178
f 90/72/189 94/95/303 93/96/190
f 86/89/192 97/90/304 98/77/193
f 99/92/195 100/91/305 81/97/196
f 72/70/198 80/81/306 77/74/199
f 94/95/201 104/73/307 103/64/202
f 82/88/204 85/79/308 108/78/205
f 110/84/207 108/78/309 73/98/208
f 108/78/210 102/85/310 79/82/211
f 90/72/213 106/68/311 104/73/214
f 82/88/216 110/84/312 101/69/217
f 83/71/219 99/92/313 101/69/220
f 63/100/223 86/89/223 81/97/223
f 81/97/224 100/91/314 69/102/225
f 100/91/227 84/87/315 62/103/228
f 62/103/230 84/87/230 89/86/230
f 66/104/231 89/86/316 93/96/232
f 68/105/230 93/96/230 95/93/230
f 95/93/234 91/110/317 65/107/235
f 65/107/230 91/110/230 87/94/230
f 64/108/237 87/94/318 97/90/238
f 70/109/240 97/90/319 86/89/241
f 10/60/243 3/52/320 1/51/320
f 9/53/244 2/54/321 8/56/244
f 2/54/321 6/55/322 8/56/244
f 10/60/243 1/51/320 9/53/244
f 5/58/322 4/59/323 7/57/243
f 4/59/323 10/60/243 7/57/243
f 8/56/244 7/57/243 9/53/244
f 70/109/243 63/100/320 61/101/320
f 69/102/244 62/103/321 68/105/324
f 62/103/321 66/104/325 68/105/324
f 70/109/243 61/101/320 69/102/244
f 65/107/322 64/108/323 67/106/243
f 64/108/323 70/109/243 67/106/243
f 68/105/324 67/106/243 69/102/244
