# Blender v2.81 (sub 16) OBJ File: 'models.blend'
# www.blender.org
o D_Rocks_Floor_01_Cylinder.301
v -0.488643 -0.000000 -0.769772
v -0.850045 -0.000000 -1.341990
v -1.522653 -0.000000 -0.920357
v -1.141173 -0.000000 -0.237709
v 1.061366 0.000000 1.242029
v 1.683780 0.000000 0.489109
v 1.031250 -0.000000 -0.163422
v 0.539342 0.000000 0.609577
v 0.732088 -0.000000 -0.426435
v 0.057471 -0.000000 -0.269829
v 0.322499 0.000000 0.428881
v 0.326517 0.000000 1.256088
v -0.227632 0.000000 0.292353
v -0.962481 0.000000 0.858547
v -0.866108 0.000000 1.629536
v -0.618742 0.050000 -0.781889
v -1.105460 0.050000 -0.385025
v -0.888309 0.050000 -1.208702
v -1.390004 0.050000 -0.894209
v 1.522086 0.050000 0.503870
v 1.066062 0.050000 1.055511
v 1.043997 0.050000 0.025780
v 0.683591 0.050000 0.592134
v 0.158462 0.050000 -0.211567
v 0.615561 0.050000 -0.317678
v 0.338036 0.050000 0.261860
v 0.142123 0.050000 1.196087
v -0.760740 0.050000 1.478804
v -0.833699 0.050000 0.895132
v -0.277389 0.050000 0.466499
vt 0.974827 0.964994
vt 0.974827 0.964994
vt 0.974827 0.964994
vt 0.974827 0.964994
vt 0.974827 0.964994
vt 0.974827 0.964994
vt 0.974827 0.964994
vt 0.974827 0.964994
vt 0.974827 0.964994
vt 0.974827 0.964994
vt 0.974827 0.964994
vt 0.974827 0.964994
vt 0.974827 0.964994
vt 0.974827 0.964994
vt 0.974827 0.964994
vt 0.974827 0.964994
vt 0.974827 0.964994
vt 0.974827 0.964994
vt 0.974827 0.964994
vt 0.974827 0.964994
vt 0.974827 0.964994
vt 0.974827 0.964994
vt 0.974827 0.964994
vt 0.974827 0.964994
vt 0.974827 0.964994
vt 0.974827 0.964994
vt 0.974827 0.964994
vt 0.974827 0.964994
vt 0.974827 0.964994
vt 0.974827 0.964994
vn -0.0000 1.0000 -0.0000
vn 0.1215 0.9136 0.3880
vn 0.3068 0.9173 0.2536
vn -0.2572 0.9068 -0.3339
vn 0.2630 0.9282 -0.2630
vn -0.3730 0.9267 0.0466
vn -0.2917 0.9257 0.2408
vn 0.3113 0.9333 -0.1790
vn -0.3431 0.9136 -0.2183
vn 0.3028 0.8778 0.3713
vn -0.1203 0.8468 -0.5182
vn 0.3677 0.9005 -0.2322
vn -0.5246 0.8278 0.1990
vn -0.5246 0.8277 0.1990
vn -0.2523 0.8799 -0.4025
vn 0.5882 0.7581 0.2817
vn -0.3811 0.8997 0.2130
s 1
f 16/1/1 19/2/1 17/3/1
f 20/4/1 23/5/1 21/6/1
f 24/7/1 26/8/1 25/9/1
f 27/10/1 29/11/1 28/12/1
f 15/13/2 27/10/2 28/12/2
f 6/14/3 21/6/3 5/15/3
f 14/16/4 30/17/4 13/18/4
f 6/14/5 22/19/5 20/4/5
f 14/16/6 28/12/6 29/11/6
f 8/20/7 21/6/7 23/5/7
f 13/18/8 27/10/8 12/21/8
f 8/20/9 22/19/9 7/22/9
f 1/23/10 17/3/10 4/24/10
f 10/25/11 25/9/11 9/26/11
f 1/23/12 18/27/12 16/1/12
f 10/25/13 26/8/14 24/7/13
f 3/28/15 18/27/15 2/29/15
f 9/26/16 26/8/16 11/30/16
f 3/28/17 17/3/17 19/2/17
f 16/1/1 18/27/1 19/2/1
f 20/4/1 22/19/1 23/5/1
f 27/10/1 30/17/1 29/11/1
f 15/13/2 12/21/2 27/10/2
f 6/14/3 20/4/3 21/6/3
f 14/16/4 29/11/4 30/17/4
f 6/14/5 7/22/5 22/19/5
f 14/16/6 15/13/6 28/12/6
f 8/20/7 5/15/7 21/6/7
f 13/18/8 30/17/8 27/10/8
f 8/20/9 23/5/9 22/19/9
f 1/23/10 16/1/10 17/3/10
f 10/25/11 24/7/11 25/9/11
f 1/23/12 2/29/12 18/27/12
f 10/25/13 11/30/14 26/8/14
f 3/28/15 19/2/15 18/27/15
f 9/26/16 25/9/16 26/8/16
f 3/28/17 4/24/17 17/3/17
