# Blender v2.81 (sub 16) OBJ File: 'models.blend'
# www.blender.org
o D_Rope_Cube.032
v -0.056569 -0.000000 0.000000
v -0.056568 1.080000 -0.000000
v -0.000000 -0.000000 -0.056569
v 0.000000 1.080000 -0.056569
v -0.000000 -0.000000 0.056569
v 0.000000 1.080000 0.056568
v 0.056569 -0.000000 0.000000
v 0.056569 1.080000 -0.000000
vt 0.919055 0.943879
vt 0.919055 0.943879
vt 0.919055 0.943879
vt 0.919055 0.943879
vt 0.919055 0.943879
vt 0.919055 0.943879
vt 0.919055 0.943879
vt 0.919055 0.943879
vn -0.7071 -0.0000 -0.7071
vn 0.7071 -0.0000 -0.7071
vn 0.7071 0.0000 0.7071
vn -0.7071 0.0000 0.7071
vn -0.0000 -1.0000 0.0000
vn 0.0000 1.0000 0.0000
s 1
f 2/1/1 3/2/1 1/3/1
f 4/4/2 7/5/2 3/2/2
f 8/6/3 5/7/3 7/5/3
f 6/8/4 1/3/4 5/7/4
f 7/5/5 1/3/5 3/2/5
f 4/4/6 6/8/6 8/6/6
f 2/1/1 4/4/1 3/2/1
f 4/4/2 8/6/2 7/5/2
f 8/6/3 6/8/3 5/7/3
f 6/8/4 2/1/4 1/3/4
f 7/5/5 5/7/5 1/3/5
f 4/4/6 2/1/6 6/8/6
