# Blender v2.81 (sub 16) OBJ File: 'models.blend'
# www.blender.org
o D_Small_Column_Cylinder.302
v -0.500000 0.600000 0.499997
v -0.500000 2.000000 0.499996
v -0.500000 0.600000 -0.500003
v -0.500000 2.000000 -0.500004
v 0.500000 0.600000 0.499997
v 0.500000 2.000000 0.499996
v 0.500000 0.600000 -0.500003
v 0.500000 2.000000 -0.500004
v -0.700000 0.300000 -0.700003
v -0.700000 0.300000 0.699997
v 0.700000 0.300000 -0.700003
v 0.700000 0.300000 0.699997
v -0.700000 -0.000000 -0.700003
v -0.700000 -0.000000 0.699997
v 0.700000 -0.000000 -0.700003
v 0.700000 -0.000000 0.699997
v -0.700000 2.300000 0.699997
v -0.700000 2.300000 -0.700004
v 0.700000 2.300000 -0.700004
v 0.700000 2.300000 0.699997
v -0.700000 2.600000 0.699997
v -0.700000 2.600000 -0.700004
v 0.700000 2.600000 -0.700004
v 0.700000 2.600000 0.699997
vt 0.973118 0.975004
vt 0.973118 0.975004
vt 0.973118 0.975004
vt 0.973118 0.975004
vt 0.973118 0.975004
vt 0.973118 0.975004
vt 0.973118 0.975004
vt 0.973118 0.975004
vt 0.973118 0.975004
vt 0.973118 0.975004
vt 0.973118 0.975004
vt 0.973118 0.975004
vt 0.973118 0.975004
vt 0.973118 0.975004
vt 0.973118 0.975004
vt 0.973118 0.975004
vt 0.973118 0.975004
vt 0.973118 0.975004
vt 0.973118 0.975004
vt 0.973118 0.975004
vt 0.973118 0.975004
vt 0.973118 0.975004
vt 0.973118 0.975004
vt 0.973118 0.975004
vn -1.0000 -0.0000 0.0000
vn 0.0000 -0.0000 -1.0000
vn 1.0000 -0.0000 0.0000
vn 0.0000 0.0000 1.0000
vn 0.0000 0.5547 -0.8321
vn -0.8321 -0.5547 0.0000
vn -0.8321 0.5547 -0.0000
vn 0.8321 0.5547 -0.0000
vn 0.0000 0.5547 0.8320
vn 0.0000 -1.0000 0.0000
vn 0.0000 -0.5547 0.8321
vn 0.0000 -0.5547 -0.8321
vn 0.8321 -0.5547 0.0000
vn 0.0000 1.0000 0.0000
s 1
f 2/1/1 3/2/1 1/3/1
f 4/4/2 7/5/2 3/2/2
f 8/6/3 5/7/3 7/5/3
f 6/8/4 1/3/4 5/7/4
f 7/5/5 9/9/5 3/2/5
f 2/1/6 18/10/6 4/4/6
f 10/11/4 16/12/4 12/13/4
f 3/2/7 10/11/7 1/3/7
f 5/7/8 11/14/8 7/5/8
f 1/3/9 12/13/9 5/7/9
f 15/15/10 14/16/10 13/17/10
f 11/14/2 13/17/2 9/9/2
f 12/13/3 15/15/3 11/14/3
f 9/9/1 14/16/1 10/11/1
f 17/18/1 22/19/1 18/10/1
f 6/8/11 17/18/11 2/1/11
f 4/4/12 19/20/12 8/6/12
f 6/8/13 19/20/13 20/21/13
f 22/19/14 24/22/14 23/23/14
f 20/21/4 21/24/4 17/18/4
f 18/10/2 23/23/2 19/20/2
f 19/20/3 24/22/3 20/21/3
f 2/1/1 4/4/1 3/2/1
f 4/4/2 8/6/2 7/5/2
f 8/6/3 6/8/3 5/7/3
f 6/8/4 2/1/4 1/3/4
f 7/5/5 11/14/5 9/9/5
f 2/1/6 17/18/6 18/10/6
f 10/11/4 14/16/4 16/12/4
f 3/2/7 9/9/7 10/11/7
f 5/7/8 12/13/8 11/14/8
f 1/3/9 10/11/9 12/13/9
f 15/15/10 16/12/10 14/16/10
f 11/14/2 15/15/2 13/17/2
f 12/13/3 16/12/3 15/15/3
f 9/9/1 13/17/1 14/16/1
f 17/18/1 21/24/1 22/19/1
f 6/8/11 20/21/11 17/18/11
f 4/4/12 18/10/12 19/20/12
f 6/8/13 8/6/13 19/20/13
f 22/19/14 21/24/14 24/22/14
f 20/21/4 24/22/4 21/24/4
f 18/10/2 22/19/2 23/23/2
f 19/20/3 23/23/3 24/22/3
