# Blender v2.81 (sub 16) OBJ File: 'models.blend'
# www.blender.org
o D_Support_01_Cylinder.375
v -0.130011 -0.300000 1.330011
v -0.130011 2.166330 1.102770
v -0.130011 -0.300000 1.070011
v -0.130011 2.166330 0.842770
v 0.129990 -0.300000 1.330011
v 0.129990 2.166330 1.102770
v 0.129990 -0.300000 1.070011
v 0.129990 2.166330 0.842770
v -0.149505 0.503173 1.267630
v -0.097522 1.336422 1.245352
v -0.097522 1.336422 0.985352
v -0.149505 0.503173 1.007631
v 0.162479 1.336422 0.985352
v 0.110495 0.503173 1.007631
v 0.162479 1.336422 1.245352
v 0.110495 0.503173 1.267630
v 0.233850 0.584401 -0.685729
v 0.141779 1.207582 -1.130170
v 0.128742 0.636746 -0.917867
v 0.099509 0.766125 -0.690008
v 0.111716 1.295831 -0.887458
v 0.355924 0.683002 -0.628024
v 0.369925 1.301424 -0.857509
v 0.387763 0.682556 -0.902439
v 0.399988 1.213175 -1.100220
v -0.074640 1.248660 1.134971
v 0.032230 2.088573 0.493525
v -0.059186 1.124177 1.042227
v 0.055735 2.026297 0.352439
v 0.079242 1.248660 1.160608
v 0.186109 2.088573 0.519162
v 0.094693 1.124177 1.067865
v 0.209616 2.026297 0.378076
v 0.000205 1.504801 0.804364
v 0.011289 1.719473 0.636175
v 0.034793 1.657197 0.495088
v 0.009015 1.329024 0.751485
v 0.188672 1.657197 0.520725
v 0.162894 1.329024 0.777122
v 0.165165 1.719473 0.661811
v 0.154084 1.504801 0.830001
v 0.174118 1.605078 0.548040
v 0.175800 1.375237 0.697980
v 0.018930 1.567670 0.540422
v 0.020273 1.367172 0.698323
v 0.195368 1.586258 0.707951
v 0.011295 1.585613 0.699655
v -0.252194 2.534643 1.238922
v 0.084934 1.417115 -1.411444
v -0.256317 2.218240 1.371809
v 0.080811 1.100712 -1.278558
v 0.122730 2.547509 1.281187
v 0.459858 1.429981 -1.369179
v 0.118610 2.231107 1.414074
v 0.455735 1.113579 -1.236292
v -0.105386 2.137937 0.374106
v -0.028210 1.763319 -0.543367
v -0.032333 1.446917 -0.410480
v -0.109506 1.821535 0.506993
v 0.342594 1.459783 -0.368215
v 0.265418 1.834401 0.549259
v 0.346717 1.776186 -0.501102
v 0.269541 2.150804 0.416372
v -0.130011 -0.300000 -1.009993
v -0.130011 -0.300000 -1.269994
v 0.129990 -0.300000 -1.009993
v 0.129990 -0.300000 -1.269994
v 0.037894 1.166521 -1.217754
v -0.091333 0.431322 -1.025032
v -0.092105 1.040469 -1.030972
v -0.092105 0.996731 -1.290973
v -0.091333 0.431322 -1.285031
v 0.167896 1.091070 -1.290973
v 0.168668 0.431322 -1.285031
v 0.167896 0.997702 -1.030972
v 0.168668 0.431322 -1.025032
vt 0.036517 0.480034
vt 0.036517 0.348211
vt 0.036517 0.348211
vt 0.036517 0.480034
vt 0.036517 0.348211
vt 0.036517 0.480034
vt 0.036517 0.348211
vt 0.036517 0.088279
vt 0.036517 0.088279
vt 0.036517 0.088279
vt 0.036517 0.215856
vt 0.036517 0.088279
vt 0.036517 0.215856
vt 0.036517 0.215856
vt 0.036517 0.215856
vt 0.959837 0.948160
vt 0.959837 0.948160
vt 0.959837 0.948160
vt 0.959837 0.948160
vt 0.959837 0.948160
vt 0.036517 0.244350
vt 0.036517 0.327745
vt 0.036517 0.328634
vt 0.036517 0.342651
vt 0.036517 0.257624
vt 0.036517 0.341763
vt 0.036517 0.409055
vt 0.036517 0.457791
vt 0.036517 0.399163
vt 0.036517 0.457791
vt 0.036517 0.399163
vt 0.036517 0.409055
vt 0.036517 0.467684
vt 0.036517 0.334270
vt 0.036517 0.374956
vt 0.036517 0.334270
vt 0.036517 0.374956
vt 0.036517 0.347035
vt 0.036517 0.314497
vt 0.036517 0.387895
vt 0.036517 0.347035
vt 0.036517 0.314497
vt 0.036517 0.353095
vt 0.036517 0.387792
vt 0.036517 0.390884
vt 0.959837 0.948160
vt 0.959837 0.948160
vt 0.959837 0.948160
vt 0.959837 0.948160
vt 0.036517 0.416019
vt 0.036517 0.310770
vt 0.036517 0.365761
vt 0.036517 0.367805
vt 0.036517 0.312814
vt 0.036517 0.418063
vt 0.036517 0.361028
vt 0.036517 0.488279
vt 0.036517 0.540581
vt 0.036517 0.538537
vt 0.036517 0.363071
vt 0.036517 0.475524
vt 0.036517 0.477568
vt 0.036517 0.490323
vt 0.036517 0.427310
vt 0.036517 0.425266
vt 0.959837 0.948160
vt 0.959837 0.948160
vt 0.959837 0.948160
vt 0.959837 0.948160
vt 0.959837 0.948160
vt 0.036517 0.088279
vt 0.036517 0.088279
vt 0.036517 0.088279
vt 0.036517 0.088279
vt 0.036517 0.204444
vt 0.036517 0.294408
vt 0.036517 0.204444
vt 0.036517 0.204444
vt 0.036517 0.204444
vt 0.036517 0.294253
vt 0.036517 0.480034
vt 0.036517 0.467684
vt 0.036517 0.237073
vt 0.036517 0.244420
vt 0.036517 0.354376
vt 0.036517 0.384943
vt 0.959837 0.948160
vt 0.959837 0.948160
vt 0.036517 0.301201
vt 0.036517 0.309239
vn -0.9992 -0.0391 0.0000
vn 0.0000 -0.1693 -0.9856
vn 0.9992 0.0391 -0.0000
vn 0.0000 0.1693 0.9856
vn 0.0000 -1.0000 0.0000
vn 0.0000 0.0774 0.9970
vn 0.0000 0.0267 0.9996
vn 0.9997 0.0243 -0.0000
vn 0.9981 -0.0623 0.0000
vn 0.0000 -0.0774 -0.9970
vn 0.0000 -0.0267 -0.9996
vn -0.9997 -0.0243 0.0000
vn -0.9981 0.0623 -0.0000
vn 0.6060 -0.7922 0.0716
vn 0.1834 -0.9379 -0.2945
vn 0.6809 -0.5853 -0.4403
vn -0.2888 -0.1914 0.9381
vn 0.1166 -0.3487 -0.9299
vn 0.1159 -0.3491 -0.9299
vn 0.1154 -0.3493 -0.9299
vn 0.9931 0.0202 0.1155
vn 0.9931 0.0203 0.1153
vn 0.9931 0.0202 0.1157
vn -0.1129 0.3482 0.9306
vn -0.1145 0.3489 0.9301
vn -0.1154 0.3493 0.9299
vn -0.9931 -0.0203 -0.1157
vn -0.9931 -0.0204 -0.1158
vn -0.9931 -0.0202 -0.1157
vn -0.7859 -0.5756 0.2260
vn -0.9868 -0.0064 -0.1616
vn 0.1531 -0.3638 -0.9188
vn 0.9868 0.0065 0.1616
vn -0.1531 0.3638 0.9188
vn -0.0992 0.7974 0.5953
vn -0.1295 0.6157 0.7773
vn 0.9776 -0.0181 0.2095
vn 0.9778 -0.0273 0.2076
vn 0.9779 -0.0325 0.2065
vn 0.9246 0.2186 0.3120
vn 0.9821 0.1619 0.0959
vn 0.9585 0.0011 0.2850
vn 0.0931 -0.8241 -0.5588
vn 0.0781 -0.8345 -0.5454
vn 0.0570 -0.8542 -0.5167
vn 0.0945 -0.8182 -0.5671
vn -0.9778 0.0273 -0.2076
vn -0.9776 0.0181 -0.2095
vn -0.9779 0.0325 -0.2065
vn -0.9881 -0.0357 -0.1498
vn -0.9940 0.0028 -0.1097
vn -0.9901 -0.0563 -0.1285
vn 0.1472 -0.4832 -0.8630
vn 0.1526 -0.4734 -0.8675
vn 0.1432 -0.4905 -0.8596
vn 0.0184 0.0223 -0.9996
vn 0.0256 0.0280 -0.9993
vn 0.0448 0.0430 -0.9981
vn 0.1195 -0.9928 0.0008
vn 0.1102 -0.9939 -0.0093
vn 0.0088 -0.9930 -0.1180
vn -0.9927 -0.0355 -0.1152
vn -0.0097 -0.9292 0.3693
vn -0.0103 -0.9276 0.3733
vn -0.0102 -0.9277 0.3732
vn 0.9927 0.0355 0.1152
vn 0.0103 0.9276 -0.3733
vn 0.0097 0.9292 -0.3693
vn 0.0102 0.9277 -0.3732
vn -0.1164 0.3859 0.9152
vn 0.1164 -0.3859 -0.9152
vn 0.0155 0.9098 -0.4147
vn 0.0107 0.9261 -0.3772
vn 0.9882 0.0483 0.1456
vn 0.9969 0.0190 0.0761
vn -0.0155 -0.9098 0.4147
vn -0.0107 -0.9261 0.3772
vn -0.9882 -0.0483 -0.1456
vn -0.9969 -0.0190 -0.0761
vn 0.5931 0.7578 0.2721
vn 0.1280 0.7785 0.6145
vn 0.6129 0.3880 0.6884
vn -0.1829 0.5040 -0.8441
vn 0.0000 0.0206 0.9998
vn 0.0002 0.0155 0.9999
vn 0.0012 0.0099 0.9999
vn 0.0000 0.0154 0.9999
vn 0.9986 -0.0528 0.0000
vn 1.0000 0.0013 0.0001
vn 1.0000 0.0012 0.0003
vn 1.0000 0.0014 0.0000
vn 0.0000 -0.0156 -0.9999
vn 0.0000 -0.0206 -0.9998
vn 0.0025 -0.0093 -1.0000
vn 0.0005 -0.0152 -0.9999
vn -0.9986 0.0528 -0.0000
vn -1.0000 -0.0013 0.0001
vn -1.0000 -0.0013 0.0002
vn -1.0000 -0.0014 0.0000
vn -0.7668 0.6330 -0.1065
vn 0.0000 1.0000 0.0000
vn 0.0190 0.9404 -0.3396
vn -0.1311 -0.6027 0.7871
vn 0.0656 0.9169 -0.3938
vn 0.1170 -0.3485 -0.9300
vn 0.9931 0.0203 0.1152
vn -0.1122 0.3479 0.9308
vn 0.9775 -0.0143 0.2103
vn 0.9869 0.0009 0.1615
vn 0.9795 -0.0375 0.1979
vn 0.9959 -0.0110 0.0894
vn 0.9624 -0.1500 0.2266
vn 0.0438 -0.8658 -0.4984
vn -0.9775 0.0143 -0.2103
vn -0.9779 0.0742 -0.1957
vn -0.9915 0.0302 -0.1269
vn -0.9836 -0.0043 -0.1805
vn -0.9798 0.0109 -0.1996
vn 0.1555 -0.4680 -0.8699
vn -0.0025 0.0060 -1.0000
vn 0.2271 -0.9665 0.1198
vn 0.0016 0.0098 1.0000
vn 1.0000 0.0012 0.0004
vn 0.0033 -0.0090 -1.0000
s 1
f 2/1/1 11/2/1 10/3/1
f 11/2/2 8/4/2 13/5/2
f 13/5/3 6/6/3 15/7/3
f 6/6/4 10/3/4 15/7/4
f 7/8/5 1/9/5 3/10/5
f 16/11/6 1/9/6 5/12/6
f 16/11/7 10/3/7 9/13/7
f 7/8/8 16/11/8 5/12/8
f 14/14/9 15/7/9 16/11/9
f 3/10/10 14/14/10 7/8/10
f 11/2/11 14/14/11 12/15/11
f 9/13/12 3/10/12 1/9/12
f 10/3/13 12/15/13 9/13/13
f 17/16/14 24/17/14 22/18/14
f 19/19/15 24/17/15 17/16/15
f 17/16/16 19/19/16 22/18/16
f 17/16/17 22/18/17 20/20/17
f 24/21/18 18/22/19 25/23/20
f 23/24/21 24/21/22 25/23/23
f 20/25/24 23/24/25 21/26/26
f 18/22/27 20/25/28 21/26/29
f 19/19/30 17/16/30 20/20/30
f 35/27/31 29/28/31 36/29/31
f 36/29/32 33/30/32 38/31/32
f 33/30/33 40/32/33 38/31/33
f 31/33/34 35/27/34 40/32/34
f 30/34/35 34/35/35 26/36/35
f 40/32/36 34/35/36 41/37/36
f 39/38/37 30/34/38 32/39/39
f 46/40/40 40/32/41 41/37/42
f 37/41/43 32/39/43 28/42/43
f 45/43/44 39/38/45 37/41/46
f 26/36/47 37/41/48 28/42/49
f 34/35/50 35/27/51 47/44/52
f 42/45/53 36/29/54 38/31/55
f 43/46/56 47/47/57 46/48/58
f 47/47/59 42/49/60 46/48/61
f 57/50/62 51/51/62 58/52/62
f 51/51/63 60/53/64 58/52/65
f 55/54/66 62/55/66 60/53/66
f 62/55/67 49/56/68 57/50/69
f 50/57/70 52/58/70 48/59/70
f 55/54/71 49/56/71 53/60/71
f 52/58/72 56/61/72 48/59/72
f 62/55/67 56/61/73 63/62/73
f 54/63/74 63/62/74 52/58/74
f 60/53/75 63/62/75 61/64/75
f 59/65/76 54/63/76 50/57/76
f 59/65/77 60/53/64 61/64/77
f 56/61/78 50/57/78 48/59/78
f 56/61/79 58/52/79 59/65/79
f 68/66/80 75/67/80 73/68/80
f 70/69/81 75/67/81 68/66/81
f 68/66/82 70/69/82 73/68/82
f 68/66/83 73/68/83 71/70/83
f 67/71/5 64/72/5 65/73/5
f 66/74/84 69/75/85 64/72/84
f 75/76/86 69/75/85 76/77/87
f 67/71/88 76/77/88 66/74/88
f 74/78/89 75/76/90 76/77/91
f 72/79/92 67/71/93 65/73/93
f 71/80/94 74/78/95 72/79/92
f 69/75/96 65/73/96 64/72/96
f 69/75/97 71/80/98 72/79/99
f 70/69/100 68/66/100 71/70/100
f 6/6/101 4/81/101 2/1/101
f 25/23/102 21/26/102 23/24/102
f 28/42/103 30/34/103 26/36/103
f 31/33/104 29/28/104 27/82/104
f 2/1/1 4/81/1 11/2/1
f 11/2/2 4/81/2 8/4/2
f 13/5/3 8/4/3 6/6/3
f 6/6/4 2/1/4 10/3/4
f 7/8/5 5/12/5 1/9/5
f 16/11/6 9/13/6 1/9/6
f 16/11/7 15/7/7 10/3/7
f 7/8/8 14/14/8 16/11/8
f 14/14/9 13/5/9 15/7/9
f 3/10/10 12/15/10 14/14/10
f 11/2/11 13/5/11 14/14/11
f 9/13/12 12/15/12 3/10/12
f 10/3/13 11/2/13 12/15/13
f 24/21/18 19/83/105 18/22/19
f 23/24/21 22/84/106 24/21/22
f 20/25/24 22/84/107 23/24/25
f 18/22/27 19/83/28 20/25/28
f 35/27/31 27/82/31 29/28/31
f 36/29/32 29/28/32 33/30/32
f 33/30/33 31/33/33 40/32/33
f 31/33/34 27/82/34 35/27/34
f 30/34/35 41/37/35 34/35/35
f 40/32/36 35/27/36 34/35/36
f 39/38/37 41/37/108 30/34/38
f 41/37/42 39/38/109 43/85/110
f 46/40/40 42/45/111 40/32/41
f 42/45/111 38/31/112 40/32/41
f 41/37/42 43/85/110 46/40/40
f 37/41/43 39/38/43 32/39/43
f 45/43/44 43/85/113 39/38/45
f 26/36/47 34/35/114 37/41/48
f 35/27/51 36/29/115 44/86/116
f 47/44/52 45/43/117 34/35/50
f 45/43/117 37/41/118 34/35/50
f 35/27/51 44/86/116 47/44/52
f 42/45/53 44/86/119 36/29/54
f 43/46/56 45/87/120 47/47/57
f 47/47/59 44/88/121 42/49/60
f 57/50/62 49/56/62 51/51/62
f 51/51/63 55/54/63 60/53/64
f 55/54/66 53/60/66 62/55/66
f 62/55/67 53/60/68 49/56/68
f 50/57/70 54/63/70 52/58/70
f 55/54/71 51/51/71 49/56/71
f 52/58/72 63/62/72 56/61/72
f 62/55/67 57/50/69 56/61/73
f 54/63/74 61/64/74 63/62/74
f 60/53/75 62/55/75 63/62/75
f 59/65/76 61/64/76 54/63/76
f 59/65/77 58/52/65 60/53/64
f 56/61/78 59/65/78 50/57/78
f 56/61/79 57/50/79 58/52/79
f 67/71/5 66/74/5 64/72/5
f 66/74/84 76/77/87 69/75/85
f 75/76/86 70/89/122 69/75/85
f 67/71/88 74/78/88 76/77/88
f 74/78/89 73/90/123 75/76/90
f 72/79/92 74/78/95 67/71/93
f 71/80/94 73/90/124 74/78/95
f 69/75/96 72/79/96 65/73/96
f 69/75/97 70/89/98 71/80/98
f 6/6/101 8/4/101 4/81/101
f 25/23/102 18/22/102 21/26/102
f 28/42/103 32/39/103 30/34/103
f 31/33/104 33/30/104 29/28/104
