# Blender v2.81 (sub 16) OBJ File: 'models.blend'
# www.blender.org
o D_Support_02_Cylinder.374
v -0.188768 2.271600 1.448024
v -0.188768 2.271600 -1.448002
v -0.188768 1.928400 1.448024
v -0.188768 1.928400 -1.448002
v 0.188753 2.271600 1.448024
v 0.188753 2.271600 -1.448002
v 0.188753 1.928400 1.448024
v 0.188753 1.928400 -1.448002
v -0.193407 2.290165 0.491964
v -0.184126 2.248393 -0.501226
v -0.184126 1.905193 -0.501226
v -0.193407 1.946965 0.491964
v 0.193395 1.905193 -0.501226
v 0.184111 1.946965 0.491964
v 0.193395 2.248393 -0.501226
v 0.184111 2.290165 0.491964
v -0.080086 1.236860 -1.178216
v -0.080086 2.060451 -0.196699
v -0.080086 1.359549 -1.281165
v -0.080086 2.183141 -0.299647
v 0.080077 1.236860 -1.178216
v 0.080077 2.060451 -0.196699
v 0.080077 1.359549 -1.281165
v 0.080077 2.183141 -0.299647
v -0.065788 1.500715 -0.838145
v -0.068648 1.819670 -0.502865
v -0.068648 1.942359 -0.605814
v -0.065788 1.623405 -0.941094
v 0.091512 1.942359 -0.605814
v 0.094371 1.623405 -0.941094
v 0.091512 1.819670 -0.502865
v 0.094371 1.500715 -0.838145
v -0.078004 1.194620 1.291020
v -0.078004 2.068265 0.417375
v -0.078004 1.084311 1.180711
v -0.078004 1.957956 0.307066
v 0.077996 1.194620 1.291020
v 0.077996 2.068265 0.417375
v 0.077996 1.084311 1.180711
v 0.077996 1.957956 0.307066
v -0.069652 1.500602 1.019064
v -0.091929 1.810964 0.720046
v -0.091929 1.700655 0.609737
v -0.069652 1.390294 0.908755
v 0.064070 1.700655 0.609737
v 0.086348 1.390294 0.908755
v 0.064070 1.810964 0.720046
v 0.086348 1.500602 1.019064
v -0.130006 -0.630001 -1.039992
v -0.130006 1.970000 -1.039993
v -0.130006 -0.630001 -1.299993
v -0.130006 1.970000 -1.299993
v 0.129994 -0.630001 -1.039992
v 0.129994 1.970000 -1.039993
v 0.129994 -0.630001 -1.299993
v 0.129994 1.970000 -1.299993
v -0.107933 0.178214 -1.014565
v -0.111439 1.180008 -1.060043
v -0.111439 1.180008 -1.320043
v -0.106798 0.242792 -1.273258
v 0.148561 1.180008 -1.320043
v 0.153203 0.242792 -1.273258
v 0.148561 1.180008 -1.060043
v 0.152068 0.178214 -1.014565
v -0.107234 0.308255 -1.017655
v -0.106798 0.258406 -1.122583
v 0.152706 0.320597 -1.018271
v 0.153203 0.258406 -1.110846
v -0.130006 -0.630000 1.300014
v -0.130006 1.970000 1.300014
v -0.130006 -0.630000 1.040014
v -0.130006 1.970000 1.040014
v 0.129994 -0.630000 1.300014
v 0.129994 1.970000 1.300014
v 0.129994 -0.630000 1.040014
v 0.129994 1.970000 1.040014
v -0.116081 0.229983 1.340115
v -0.153212 1.136751 1.353482
v -0.153212 1.136751 1.093483
v -0.116081 0.229983 1.080115
v 0.106789 1.136751 1.093483
v 0.143920 0.229983 1.080115
v 0.106789 1.136751 1.353482
v 0.143920 0.229983 1.340115
vt 0.036517 0.493069
vt 0.036517 0.442241
vt 0.036517 0.438555
vt 0.036517 0.442241
vt 0.036517 0.438555
vt 0.036517 0.493069
vt 0.036517 0.496756
vt 0.036517 0.442241
vt 0.036517 0.496756
vt 0.036517 0.442241
vt 0.036517 0.499704
vt 0.036517 0.496756
vt 0.036517 0.499704
vt 0.036517 0.445190
vt 0.036517 0.445190
vt 0.036517 0.424970
vt 0.036517 0.482704
vt 0.036517 0.444459
vt 0.036517 0.482704
vt 0.036517 0.444459
vt 0.036517 0.424970
vt 0.036517 0.463216
vt 0.036517 0.332396
vt 0.036517 0.374307
vt 0.036517 0.332396
vt 0.036517 0.374307
vt 0.036517 0.393795
vt 0.036517 0.351884
vt 0.036517 0.393795
vt 0.036517 0.351884
vt 0.036517 0.464457
vt 0.036517 0.406065
vt 0.036517 0.423588
vt 0.036517 0.446936
vt 0.036517 0.406065
vt 0.036517 0.464457
vt 0.036517 0.423588
vt 0.036517 0.325686
vt 0.036517 0.374289
vt 0.036517 0.325686
vt 0.036517 0.374289
vt 0.036517 0.356768
vt 0.036517 0.308165
vt 0.036517 0.356768
vt 0.036517 0.308165
vt 0.036517 0.323365
vt 0.036517 0.448849
vt 0.036517 0.323365
vt 0.036517 0.448849
vt 0.036517 0.323365
vt 0.036517 0.323365
vt 0.036517 0.448849
vt 0.036517 0.035862
vt 0.036517 0.035862
vt 0.036517 0.035862
vt 0.036517 0.035862
vt 0.036517 0.164239
vt 0.036517 0.174497
vt 0.036517 0.176977
vt 0.036517 0.164239
vt 0.036517 0.186856
vt 0.036517 0.174497
vt 0.959837 0.948160
vt 0.959837 0.948160
vt 0.959837 0.948160
vt 0.036517 0.184895
vt 0.959837 0.948160
vt 0.036517 0.448849
vt 0.036517 0.316494
vt 0.036517 0.316494
vt 0.036517 0.448849
vt 0.036517 0.316494
vt 0.036517 0.448849
vt 0.036517 0.316494
vt 0.036517 0.035862
vt 0.036517 0.035862
vt 0.036517 0.035862
vt 0.036517 0.035862
vt 0.036517 0.172462
vt 0.036517 0.172462
vt 0.036517 0.172462
vt 0.036517 0.172462
vt 0.036517 0.496756
vt 0.036517 0.463216
vt 0.036517 0.446936
vt 0.036517 0.448849
vt 0.036517 0.176977
vt 0.959837 0.948160
vt 0.959837 0.948160
vt 0.036517 0.448849
vn -1.0000 0.0000 0.0049
vn 0.0000 -0.9997 -0.0245
vn 1.0000 0.0000 -0.0049
vn 0.0000 0.9997 0.0245
vn 0.0000 0.0000 1.0000
vn 0.0000 0.0000 -1.0000
vn 0.0000 0.9998 0.0194
vn -0.0000 0.9991 -0.0420
vn 1.0000 0.0000 0.0093
vn -0.0000 -0.9998 -0.0194
vn 0.0000 -0.9991 0.0420
vn -1.0000 0.0000 -0.0093
vn -0.9996 -0.0189 -0.0225
vn 0.0000 0.7860 -0.6182
vn 0.9996 0.0189 0.0225
vn 0.0000 -0.7860 0.6182
vn 0.0000 -0.7901 0.6130
vn 0.0000 -0.7245 0.6892
vn 0.9994 -0.0214 -0.0254
vn 1.0000 0.0040 0.0047
vn 0.0000 0.7901 -0.6130
vn 0.0000 0.7245 -0.6892
vn -0.9994 0.0214 0.0255
vn -1.0000 -0.0040 -0.0047
vn -0.9994 0.0249 -0.0249
vn -0.0000 -0.7619 -0.6477
vn 0.9994 -0.0249 0.0249
vn 0.0000 0.7619 0.6477
vn 0.0000 0.6643 0.7474
vn 0.0000 0.6938 0.7201
vn 0.9998 -0.0144 0.0144
vn 0.9987 0.0365 -0.0365
vn 0.0000 -0.6643 -0.7474
vn 0.0000 -0.6938 -0.7201
vn -0.9998 0.0144 -0.0144
vn -0.9987 -0.0365 0.0365
vn -0.9997 -0.0235 0.0000
vn 0.0000 0.0254 -0.9997
vn 0.9997 0.0235 -0.0000
vn 0.0000 -0.0254 0.9997
vn 0.0000 -1.0000 0.0000
vn 0.0000 -0.0314 0.9995
vn 0.9997 -0.0237 -0.0015
vn 0.9999 -0.0127 0.0012
vn 0.9997 -0.0238 -0.0012
vn 1.0000 0.0049 0.0001
vn 1.0000 0.0048 -0.0000
vn 1.0000 0.0056 0.0002
vn 0.0000 0.0306 -0.9995
vn 0.0000 -0.0499 -0.9988
vn -0.9997 0.0241 0.0013
vn -0.9997 0.0236 0.0015
vn -0.9996 0.0271 0.0004
vn 0.0249 -0.8510 0.5247
vn -0.0040 -0.8863 0.4630
vn -0.0194 -0.9031 0.4290
vn -1.0000 -0.0056 -0.0002
vn -1.0000 -0.0049 -0.0001
vn -1.0000 -0.0056 -0.0003
vn 0.0000 0.0486 0.9988
vn 0.0001 0.0486 0.9988
vn -0.0192 0.7932 0.6086
vn -0.0081 0.7791 0.6268
vn -0.0269 0.8028 0.5957
vn -0.9996 0.0278 -0.0000
vn 0.0000 -0.0640 -0.9979
vn 0.9996 -0.0278 0.0000
vn 0.0000 0.0640 0.9979
vn 0.0000 -0.0466 0.9989
vn 0.0000 -0.0147 0.9999
vn 0.9999 -0.0162 0.0000
vn 0.9992 0.0409 -0.0000
vn 0.0000 0.0466 -0.9989
vn 0.0000 0.0147 -0.9999
vn -0.9999 0.0162 -0.0000
vn -0.9992 -0.0409 0.0000
vn 0.9996 -0.0273 0.0000
vn 0.9996 -0.0271 -0.0004
vn 1.0000 0.0093 -0.0009
vn 1.0000 0.0055 0.0003
vn -0.9996 0.0273 -0.0000
vn -0.9999 0.0124 -0.0013
vn 0.0407 -0.8293 0.5573
vn -0.9999 -0.0112 0.0012
vn -1.0000 -0.0048 0.0000
vn 0.0000 0.0485 0.9988
vn 0.0000 0.7684 0.6400
s 1
f 10/1/1 4/2/1 11/3/1
f 11/3/2 8/4/2 13/5/2
f 8/4/3 15/6/3 13/5/3
f 6/7/4 10/1/4 15/6/4
f 7/8/5 1/9/5 3/10/5
f 4/2/6 6/7/6 8/4/6
f 16/11/7 1/9/7 5/12/7
f 16/11/8 10/1/8 9/13/8
f 14/14/3 5/12/3 7/8/3
f 14/14/9 15/6/9 16/11/9
f 3/10/10 14/14/10 7/8/10
f 11/3/11 14/14/11 12/15/11
f 1/9/1 12/15/1 3/10/1
f 10/1/12 12/15/12 9/13/12
f 26/16/13 20/17/13 27/18/13
f 27/18/14 24/19/14 29/20/14
f 24/19/15 31/21/15 29/20/15
f 22/22/16 26/16/16 31/21/16
f 21/23/17 25/24/17 17/25/17
f 31/21/18 25/24/18 32/26/18
f 30/27/19 21/23/19 23/28/19
f 30/27/20 31/21/20 32/26/20
f 28/29/21 23/28/21 19/30/21
f 28/29/22 29/20/22 30/27/22
f 17/25/23 28/29/23 19/30/23
f 26/16/24 28/29/24 25/24/24
f 34/31/25 43/32/25 42/33/25
f 36/34/26 45/35/26 43/32/26
f 45/35/27 38/36/27 47/37/27
f 47/37/28 34/31/28 42/33/28
f 37/38/29 41/39/29 33/40/29
f 47/37/30 41/39/30 48/41/30
f 46/42/31 37/38/31 39/43/31
f 45/35/32 48/41/32 46/42/32
f 44/44/33 39/43/33 35/45/33
f 44/44/34 45/35/34 46/42/34
f 33/40/35 44/44/35 35/45/35
f 41/39/36 43/32/36 44/44/36
f 58/46/37 52/47/37 59/48/37
f 59/48/38 56/49/38 61/50/38
f 56/49/39 63/51/39 61/50/39
f 54/52/40 58/46/40 63/51/40
f 55/53/41 49/54/41 51/55/41
f 53/56/42 57/57/42 49/54/42
f 62/58/43 68/59/44 64/60/45
f 61/50/46 63/51/47 67/61/48
f 60/62/49 55/53/49 51/55/49
f 60/62/50 61/50/50 62/58/50
f 57/57/51 60/62/52 51/55/53
f 68/63/54 65/64/55 66/65/56
f 65/66/57 59/48/58 60/62/59
f 67/61/60 58/46/60 65/66/61
f 57/67/62 68/63/63 66/65/64
f 70/68/65 79/69/65 78/70/65
f 72/71/66 81/72/66 79/69/66
f 81/72/67 74/73/67 83/74/67
f 83/74/68 70/68/68 78/70/68
f 75/75/41 69/76/41 71/77/41
f 73/78/69 77/79/69 69/76/69
f 83/74/70 77/79/70 84/80/70
f 82/81/71 73/78/71 75/75/71
f 81/72/72 84/80/72 82/81/72
f 80/82/73 75/75/73 71/77/73
f 80/82/74 81/72/74 82/81/74
f 69/76/75 80/82/75 71/77/75
f 77/79/76 79/69/76 80/82/76
f 10/1/1 2/83/1 4/2/1
f 11/3/2 4/2/2 8/4/2
f 8/4/3 6/7/3 15/6/3
f 6/7/4 2/83/4 10/1/4
f 7/8/5 5/12/5 1/9/5
f 4/2/6 2/83/6 6/7/6
f 16/11/7 9/13/7 1/9/7
f 16/11/8 15/6/8 10/1/8
f 14/14/3 16/11/3 5/12/3
f 14/14/9 13/5/9 15/6/9
f 3/10/10 12/15/10 14/14/10
f 11/3/11 13/5/11 14/14/11
f 1/9/1 9/13/1 12/15/1
f 10/1/12 11/3/12 12/15/12
f 26/16/13 18/84/13 20/17/13
f 27/18/14 20/17/14 24/19/14
f 24/19/15 22/22/15 31/21/15
f 22/22/16 18/84/16 26/16/16
f 21/23/17 32/26/17 25/24/17
f 31/21/18 26/16/18 25/24/18
f 30/27/19 32/26/19 21/23/19
f 30/27/20 29/20/20 31/21/20
f 28/29/21 30/27/21 23/28/21
f 28/29/22 27/18/22 29/20/22
f 17/25/23 25/24/23 28/29/23
f 26/16/24 27/18/24 28/29/24
f 34/31/25 36/34/25 43/32/25
f 36/34/26 40/85/26 45/35/26
f 45/35/27 40/85/27 38/36/27
f 47/37/28 38/36/28 34/31/28
f 37/38/29 48/41/29 41/39/29
f 47/37/30 42/33/30 41/39/30
f 46/42/31 48/41/31 37/38/31
f 45/35/32 47/37/32 48/41/32
f 44/44/33 46/42/33 39/43/33
f 44/44/34 43/32/34 45/35/34
f 33/40/35 41/39/35 44/44/35
f 41/39/36 42/33/36 43/32/36
f 58/46/37 50/86/37 52/47/37
f 59/48/38 52/47/38 56/49/38
f 56/49/39 54/52/39 63/51/39
f 54/52/40 50/86/40 58/46/40
f 55/53/41 53/56/41 49/54/41
f 53/56/42 64/60/42 57/57/42
f 53/56/77 55/53/78 64/60/45
f 55/53/78 62/58/43 64/60/45
f 68/59/79 62/58/80 67/61/48
f 62/58/80 61/50/46 67/61/48
f 60/62/49 62/58/49 55/53/49
f 60/62/50 59/48/50 61/50/50
f 51/55/53 49/54/81 57/57/51
f 57/57/51 66/87/82 60/62/52
f 68/63/54 67/88/83 65/64/55
f 60/62/59 66/87/84 65/66/57
f 65/66/57 58/46/85 59/48/58
f 67/61/60 63/51/86 58/46/60
f 57/67/62 64/89/87 68/63/63
f 70/68/65 72/71/65 79/69/65
f 72/71/66 76/90/66 81/72/66
f 81/72/67 76/90/67 74/73/67
f 83/74/68 74/73/68 70/68/68
f 75/75/41 73/78/41 69/76/41
f 73/78/69 84/80/69 77/79/69
f 83/74/70 78/70/70 77/79/70
f 82/81/71 84/80/71 73/78/71
f 81/72/72 83/74/72 84/80/72
f 80/82/73 82/81/73 75/75/73
f 80/82/74 79/69/74 81/72/74
f 69/76/75 77/79/75 80/82/75
f 77/79/76 78/70/76 79/69/76
