# Blender v2.81 (sub 16) OBJ File: 'models.blend'
# www.blender.org
o D_Tile_07_Cylinder.289
v 0.899998 0.100000 0.900003
v 0.919119 0.100000 -1.486696
v 0.503641 0.100000 -1.343769
v -1.900001 0.100000 -1.099996
v -1.354398 0.100000 -0.899996
v -1.900001 0.100000 -1.899995
v -1.080881 0.100000 -1.899995
v -1.080881 0.100000 -1.445011
v -1.354398 0.100000 -1.099996
v -0.900001 0.100000 -1.899995
v -0.080881 0.100000 -1.899995
v -0.080881 0.100000 -1.427145
v -0.900001 0.100000 -1.617714
v 0.099999 0.100000 -1.899995
v 0.919119 0.100000 -1.899995
v 1.099997 0.100000 -1.099996
v 1.919119 0.100000 -1.099996
v 1.099997 0.100000 -1.899995
v 1.919119 0.100000 -1.899995
v -1.900001 0.100000 1.900003
v -1.900001 0.100000 1.100004
v -1.080881 0.100000 1.100004
v -0.900001 0.100000 1.900005
v -0.080881 0.100000 1.900005
v -0.080881 0.100000 1.100004
v 0.099999 0.100000 1.900005
v 0.919119 0.100000 1.900005
v 0.099999 0.100000 1.100004
v 0.919119 0.100000 1.100004
v 1.099997 0.100000 1.900005
v 1.919119 0.100000 1.900005
v 1.099997 0.100000 1.100004
v 1.919119 0.100000 1.100004
v -1.900001 0.100000 -0.099996
v -1.080881 0.100000 -0.099996
v -1.900001 0.100000 -0.899996
v -1.900001 0.100000 0.900005
v -1.080881 0.100000 0.900005
v -1.900001 0.100000 0.100004
v -1.080881 0.100000 0.100004
v 1.919119 0.100000 -0.099996
v 1.099997 0.100000 -0.899996
v 1.919119 0.100000 -0.899996
v 1.099997 0.100000 0.900005
v 1.919119 0.100000 0.900005
v -0.900001 0.100000 -0.093717
v 1.919119 0.100000 0.100004
v 1.358074 0.100000 -0.099996
v 1.099997 0.100000 0.647209
v 1.378658 0.100000 0.100004
v 1.099997 0.100000 -0.433307
v 0.099999 0.100000 -1.439056
v 0.899998 0.100000 -0.369371
v 0.617150 0.100000 -0.278951
v 0.401047 0.100000 -0.525924
v -0.061460 0.100000 -0.233499
v -1.080881 0.100000 -0.462396
v -0.597625 0.100000 0.900003
v -1.080881 0.100000 1.520639
v -0.900001 0.100000 0.516766
v -1.438028 0.100000 1.900003
v -0.900001 0.100000 1.469189
v -0.520447 0.100000 1.100004
v 0.899998 0.000000 0.900003
v 0.919119 -0.000000 -1.486696
v 0.503641 -0.000000 -1.343769
v -1.900001 -0.000000 -1.099996
v -1.354398 -0.000000 -0.899996
v -1.900001 -0.000000 -1.899995
v -1.080881 -0.000000 -1.899995
v -1.080881 -0.000000 -1.445011
v -1.354398 -0.000000 -1.099996
v -0.900001 -0.000000 -1.899995
v -0.080881 -0.000000 -1.899995
v -0.080881 -0.000000 -1.427145
v -0.900001 -0.000000 -1.617714
v 0.099999 -0.000000 -1.899995
v 0.919119 -0.000000 -1.899995
v 1.099997 -0.000000 -1.099996
v 1.919119 -0.000000 -1.099996
v 1.099997 -0.000000 -1.899995
v 1.919119 -0.000000 -1.899995
v -1.900001 0.000000 1.900003
v -1.900001 0.000000 1.100004
v -1.080881 0.000000 1.100004
v -0.900001 0.000000 1.900005
v -0.080881 0.000000 1.900005
v -0.080881 0.000000 1.100004
v 0.099999 0.000000 1.900005
v 0.919119 0.000000 1.900005
v 0.099999 0.000000 1.100004
v 0.919119 0.000000 1.100004
v 1.099997 0.000000 1.900005
v 1.919119 0.000000 1.900005
v 1.099997 0.000000 1.100004
v 1.919119 0.000000 1.100004
v -1.900001 -0.000000 -0.099996
v -1.080881 -0.000000 -0.099996
v -1.900001 -0.000000 -0.899996
v -1.900001 0.000000 0.900005
v -1.080881 0.000000 0.900005
v -1.900001 0.000000 0.100004
v -1.080881 0.000000 0.100004
v 1.919119 -0.000000 -0.099996
v 1.099997 -0.000000 -0.899996
v 1.919119 -0.000000 -0.899996
v 1.099997 0.000000 0.900005
v 1.919119 0.000000 0.900005
v -0.900001 -0.000000 -0.093717
v 1.919119 0.000000 0.100004
v 1.358074 -0.000000 -0.099996
v 1.099997 0.000000 0.647209
v 1.378658 0.000000 0.100004
v 1.099997 -0.000000 -0.433307
v 0.099999 -0.000000 -1.439056
v 0.899998 -0.000000 -0.369371
v 0.617150 -0.000000 -0.278951
v 0.401047 -0.000000 -0.525924
v -0.061460 -0.000000 -0.233499
v -1.080881 -0.000000 -0.462396
v -0.597625 0.000000 0.900003
v -1.080881 0.000000 1.520639
v -0.900001 0.000000 0.516766
v -1.438028 0.000000 1.900003
v -0.900001 0.000000 1.469189
v -0.520447 0.000000 1.100004
vt 0.973118 0.975004
vt 0.973118 0.975004
vt 0.973118 0.975004
vt 0.973118 0.975004
vt 0.973118 0.975004
vt 0.973118 0.975004
vt 0.973118 0.975004
vt 0.973118 0.975004
vt 0.973118 0.975004
vt 0.973118 0.975004
vt 0.973118 0.975004
vt 0.973118 0.975004
vt 0.974827 0.964994
vt 0.974827 0.964994
vt 0.974827 0.964994
vt 0.974827 0.964994
vt 0.974827 0.964994
vt 0.974827 0.964994
vt 0.973118 0.975004
vt 0.973118 0.975004
vt 0.973118 0.975004
vt 0.974827 0.964994
vt 0.974827 0.964994
vt 0.974827 0.964994
vt 0.973118 0.975004
vt 0.973118 0.975004
vt 0.973118 0.975004
vt 0.973118 0.975004
vt 0.973118 0.975004
vt 0.973118 0.975004
vt 0.973118 0.975004
vt 0.973118 0.975004
vt 0.973118 0.975004
vt 0.974827 0.964994
vt 0.974827 0.964994
vt 0.974827 0.964994
vt 0.973118 0.975004
vt 0.973118 0.975004
vt 0.973118 0.975004
vt 0.973118 0.975004
vt 0.973118 0.975004
vt 0.973118 0.975004
vt 0.973118 0.975004
vt 0.973118 0.975004
vt 0.973118 0.975004
vt 0.973118 0.975004
vt 0.973118 0.975004
vt 0.973118 0.975004
vt 0.973118 0.975004
vt 0.973118 0.975004
vt 0.973118 0.975004
vt 0.973118 0.975004
vt 0.973118 0.975004
vt 0.973118 0.975004
vt 0.973118 0.975004
vt 0.974827 0.964994
vt 0.974827 0.964994
vt 0.974827 0.964994
vt 0.974827 0.964994
vt 0.974827 0.964994
vt 0.973118 0.975004
vt 0.973118 0.975004
vt 0.973118 0.975004
vt 0.973118 0.975004
vt 0.973118 0.975004
vt 0.973118 0.975004
vt 0.973118 0.975004
vt 0.973118 0.975004
vt 0.973118 0.975004
vt 0.973118 0.975004
vt 0.973118 0.975004
vt 0.974827 0.964994
vt 0.973118 0.975004
vt 0.973118 0.975004
vt 0.974827 0.964994
vt 0.973118 0.975004
vt 0.974827 0.964994
vt 0.974827 0.964994
vt 0.973118 0.975004
vt 0.973118 0.975004
vt 0.973118 0.975004
vt 0.973118 0.975004
vt 0.974827 0.964994
vt 0.973118 0.975004
vt 0.974827 0.964994
vt 0.974827 0.964994
vt 0.974827 0.964994
vt 0.973118 0.975004
vt 0.973118 0.975004
vt 0.974827 0.964994
vt 0.973118 0.975004
vt 0.973118 0.975004
vt 0.973118 0.975004
vt 0.974827 0.964994
vt 0.974827 0.964994
vt 0.973118 0.975004
vt 0.974827 0.964994
vt 0.974827 0.964994
vt 0.974827 0.964994
vt 0.974827 0.964994
vt 0.973118 0.975004
vt 0.973118 0.975004
vt 0.973118 0.975004
vt 0.973118 0.975004
vt 0.973118 0.975004
vt 0.973118 0.975004
vt 0.973118 0.975004
vt 0.973118 0.975004
vt 0.973118 0.975004
vt 0.973118 0.975004
vt 0.973118 0.975004
vt 0.973118 0.975004
vt 0.973118 0.975004
vt 0.973118 0.975004
vt 0.973118 0.975004
vt 0.973118 0.975004
vt 0.973118 0.975004
vt 0.974827 0.964994
vt 0.973118 0.975004
vt 0.973118 0.975004
vt 0.974827 0.964994
vt 0.973118 0.975004
vt 0.974827 0.964994
vt 0.974827 0.964994
vt 0.973118 0.975004
vt 0.974827 0.964994
vt 0.974827 0.964994
vt 0.974827 0.964994
vt 0.974827 0.964994
vt 0.973118 0.975004
vt 0.973118 0.975004
vt 0.974827 0.964994
vt 0.973118 0.975004
vt 0.974827 0.964994
vn 0.0000 1.0000 -0.0000
vn -1.0000 0.0000 0.0000
vn 1.0000 0.0000 0.0000
vn 0.0000 0.0000 1.0000
vn 0.0000 0.0000 -1.0000
vn 0.3253 0.0000 0.9456
vn -0.3045 -0.0000 -0.9525
vn 0.7526 0.0000 -0.6585
vn -0.5344 -0.0000 -0.8452
vn -0.1644 -0.0000 -0.9864
vn 0.8480 0.0000 -0.5300
vn -0.7907 0.0000 0.6122
vn -0.8911 0.0000 -0.4538
vn 0.7836 0.0000 0.6212
vn -0.7851 0.0000 0.6194
vn 0.7281 0.0000 0.6855
vn -0.6972 0.0000 -0.7168
vn -0.2266 0.0000 0.9740
vn -0.2298 0.0000 0.9732
s 1
f 8/1/1 7/2/1 6/3/1
f 17/4/1 18/5/1 16/6/1
f 59/7/1 22/8/1 21/9/1
f 24/10/1 63/11/1 62/12/1
f 27/13/1 28/14/1 26/15/1
f 31/16/1 32/17/1 30/18/1
f 5/19/1 34/20/1 57/21/1
f 38/22/1 39/23/1 37/24/1
f 13/25/1 11/26/1 10/27/1
f 45/28/1 50/29/1 49/30/1
f 48/31/1 41/32/1 43/33/1
f 3/34/1 15/35/1 14/36/1
f 1/37/1 54/38/1 56/39/1
f 81/40/2 16/6/2 18/5/2
f 104/41/3 43/33/3 41/32/3
f 79/42/4 17/4/4 16/6/4
f 106/43/5 42/44/5 43/33/5
f 80/45/3 19/46/3 17/4/3
f 112/47/2 44/48/2 49/30/2
f 82/49/5 18/5/5 19/46/5
f 107/50/4 45/28/4 44/48/4
f 84/51/2 20/52/2 21/9/2
f 108/53/3 47/54/3 45/28/3
f 122/55/3 22/8/3 59/7/3
f 66/56/6 2/57/6 3/34/6
f 85/58/5 21/59/5 22/60/5
f 110/61/5 50/29/5 47/54/5
f 125/62/2 23/63/2 62/12/2
f 105/64/2 51/65/2 42/44/2
f 86/66/4 24/10/4 23/63/4
f 64/67/3 53/68/3 1/37/3
f 87/69/3 25/70/3 24/10/3
f 116/71/7 54/38/7 53/68/7
f 91/72/2 26/15/2 28/14/2
f 117/73/8 55/74/8 54/38/8
f 89/75/4 27/13/4 26/15/4
f 118/76/9 56/39/9 55/74/9
f 90/77/3 29/78/3 27/13/3
f 121/79/4 1/37/4 58/80/4
f 119/81/10 46/82/10 56/39/10
f 92/83/5 28/14/5 29/78/5
f 120/84/11 5/19/11 57/21/11
f 77/85/2 52/86/2 14/36/2
f 95/87/2 30/18/2 32/17/2
f 73/88/2 13/25/2 10/27/2
f 114/89/12 48/31/12 51/65/12
f 93/90/4 31/16/4 30/18/4
f 69/91/2 4/92/2 6/3/2
f 113/93/13 49/30/13 50/29/13
f 94/94/3 33/95/3 31/16/3
f 71/96/3 7/2/3 8/1/3
f 109/97/2 60/98/2 46/99/2
f 96/100/5 32/17/5 33/95/5
f 70/101/5 6/3/5 7/2/5
f 83/102/4 61/103/4 20/52/4
f 99/104/2 34/20/2 36/105/2
f 72/106/14 8/1/14 9/107/14
f 88/108/5 63/11/5 25/70/5
f 97/109/4 35/110/4 34/20/4
f 98/111/3 57/21/3 35/110/3
f 123/112/15 58/80/15 60/113/15
f 68/114/5 36/105/5 5/19/5
f 75/115/3 11/26/3 12/116/3
f 124/117/16 59/7/16 61/103/16
f 102/118/2 37/24/2 39/23/2
f 74/119/5 10/27/5 11/26/5
f 126/120/17 62/12/17 63/11/17
f 100/121/4 38/22/4 37/24/4
f 76/122/18 12/116/18 13/25/18
f 101/123/3 40/124/3 38/22/3
f 67/125/4 9/107/4 4/92/4
f 103/126/5 39/23/5 40/124/5
f 65/127/3 15/35/3 2/57/3
f 115/128/19 3/34/19 52/86/19
f 78/129/5 14/36/5 15/35/5
f 111/130/4 41/32/4 48/31/4
f 6/3/1 4/92/1 9/107/1
f 9/107/1 8/1/1 6/3/1
f 17/4/1 19/46/1 18/5/1
f 21/9/1 20/52/1 61/103/1
f 61/103/1 59/7/1 21/9/1
f 62/12/1 23/63/1 24/10/1
f 24/10/1 25/70/1 63/11/1
f 27/13/1 29/78/1 28/14/1
f 31/16/1 33/95/1 32/17/1
f 36/105/1 34/20/1 5/19/1
f 34/20/1 35/110/1 57/21/1
f 38/22/1 40/124/1 39/23/1
f 13/25/1 12/116/1 11/26/1
f 49/30/1 44/48/1 45/28/1
f 45/28/1 47/54/1 50/29/1
f 42/44/1 51/65/1 43/33/1
f 51/65/1 48/31/1 43/33/1
f 14/36/1 52/86/1 3/34/1
f 3/34/1 2/57/1 15/35/1
f 46/82/1 60/113/1 56/39/1
f 60/113/1 58/80/1 56/39/1
f 58/80/1 1/37/1 56/39/1
f 1/37/1 53/68/1 54/38/1
f 54/38/1 55/74/1 56/39/1
f 81/40/2 79/42/2 16/6/2
f 104/41/3 106/43/3 43/33/3
f 79/42/4 80/45/4 17/4/4
f 106/43/5 105/64/5 42/44/5
f 80/45/3 82/49/3 19/46/3
f 112/47/2 107/50/2 44/48/2
f 82/49/5 81/40/5 18/5/5
f 107/50/4 108/53/4 45/28/4
f 84/51/2 83/102/2 20/52/2
f 108/53/3 110/61/3 47/54/3
f 122/55/3 85/131/3 22/8/3
f 66/56/6 65/127/6 2/57/6
f 85/58/5 84/132/5 21/59/5
f 110/61/5 113/93/5 50/29/5
f 125/62/2 86/66/2 23/63/2
f 105/64/2 114/89/2 51/65/2
f 86/66/4 87/69/4 24/10/4
f 64/67/3 116/71/3 53/68/3
f 87/69/3 88/108/3 25/70/3
f 116/71/7 117/73/7 54/38/7
f 91/72/2 89/75/2 26/15/2
f 117/73/8 118/76/8 55/74/8
f 89/75/4 90/77/4 27/13/4
f 118/76/9 119/81/9 56/39/9
f 90/77/3 92/83/3 29/78/3
f 121/79/4 64/67/4 1/37/4
f 119/81/10 109/133/10 46/82/10
f 92/83/5 91/72/5 28/14/5
f 120/84/11 68/114/11 5/19/11
f 77/85/2 115/128/2 52/86/2
f 95/87/2 93/90/2 30/18/2
f 73/88/2 76/122/2 13/25/2
f 114/89/12 111/130/12 48/31/12
f 93/90/4 94/94/4 31/16/4
f 69/91/2 67/125/2 4/92/2
f 113/93/13 112/47/13 49/30/13
f 94/94/3 96/100/3 33/95/3
f 71/96/3 70/101/3 7/2/3
f 109/97/2 123/134/2 60/98/2
f 96/100/5 95/87/5 32/17/5
f 70/101/5 69/91/5 6/3/5
f 83/102/4 124/117/4 61/103/4
f 99/104/2 97/109/2 34/20/2
f 72/106/14 71/96/14 8/1/14
f 88/108/5 126/120/5 63/11/5
f 97/109/4 98/111/4 35/110/4
f 98/111/3 120/84/3 57/21/3
f 123/112/15 121/79/15 58/80/15
f 68/114/5 99/104/5 36/105/5
f 75/115/3 74/119/3 11/26/3
f 124/117/16 122/55/16 59/7/16
f 102/118/2 100/121/2 37/24/2
f 74/119/5 73/88/5 10/27/5
f 126/120/17 125/62/17 62/12/17
f 100/121/4 101/123/4 38/22/4
f 76/122/18 75/115/18 12/116/18
f 101/123/3 103/126/3 40/124/3
f 67/125/4 72/106/4 9/107/4
f 103/126/5 102/118/5 39/23/5
f 65/127/3 78/129/3 15/35/3
f 115/128/19 66/56/19 3/34/19
f 78/129/5 77/85/5 14/36/5
f 111/130/4 104/41/4 41/32/4
