# Blender v2.81 (sub 16) OBJ File: 'models.blend'
# www.blender.org
o D_Tile_12_Cylinder.284
v -0.899998 0.100000 0.900002
v -0.899998 0.100000 -0.530071
v 0.587433 0.100000 -1.099998
v 0.900003 0.100000 -0.899997
v -1.899997 0.100000 -1.099998
v -1.080875 0.100000 -1.099998
v -1.899997 0.100000 -1.899997
v -1.080875 0.100000 -1.899997
v 1.100002 0.100000 -1.431366
v -0.080875 0.100000 -1.099998
v -0.899998 0.100000 -1.899997
v -0.080875 0.100000 -1.899997
v 0.100002 0.100000 -1.099998
v 1.398916 0.100000 -1.099998
v 0.100002 0.100000 -1.899997
v 0.919125 0.100000 -1.899997
v -1.427784 0.100000 1.100003
v 1.919125 0.100000 -1.099998
v 1.100002 0.100000 -1.899997
v 1.919125 0.100000 -1.899997
v -1.899997 0.100000 1.900002
v -1.080875 0.100000 1.900002
v -1.899997 0.100000 1.100003
v 1.919125 0.100000 0.352752
v 1.919125 0.100000 1.379325
v -0.080875 0.100000 1.900002
v -0.899998 0.100000 1.100003
v -0.080875 0.100000 1.100003
v 0.100002 0.100000 1.900002
v 0.919125 0.100000 1.900002
v 0.100002 0.100000 1.100003
v 0.919125 0.100000 1.100003
v 1.100002 0.100000 1.900002
v 1.919125 0.100000 1.900002
v 1.100002 0.100000 1.100003
v -1.899997 0.100000 -0.099998
v -1.080875 0.100000 -0.099998
v -1.899997 0.100000 -0.899997
v -1.080875 0.100000 -0.899997
v -1.899997 0.100000 0.900002
v -1.080875 0.100000 0.900002
v -1.899997 0.100000 0.100003
v -1.080875 0.100000 0.100003
v 1.100002 0.100000 -0.099998
v 1.919125 0.100000 -0.099998
v 1.100002 0.100000 -0.899997
v 1.919125 0.100000 -0.899997
v 1.100002 0.100000 0.900002
v 1.100002 0.100000 0.100003
v 1.919125 0.100000 0.100003
v 0.900003 0.100000 0.431933
v 0.440167 0.100000 0.900002
v 0.576004 0.100000 0.592465
v 0.452513 0.100000 0.222002
v 0.748884 0.100000 0.444281
v -0.557167 0.100000 -0.899997
v -0.626276 0.100000 -1.099998
v -0.899998 0.100000 -1.373718
v 0.919125 0.100000 -1.307089
v -1.080875 0.100000 1.414640
v -0.651424 0.100000 1.900002
v -0.899998 0.100000 1.657088
v 1.583847 0.100000 0.900002
v 1.650547 0.100000 1.100003
v 1.615877 0.100000 0.547697
v -0.899998 0.000000 0.900002
v -0.899998 -0.000000 -0.530071
v 0.587433 -0.000000 -1.099998
v 0.900003 -0.000000 -0.899997
v -1.899997 -0.000000 -1.099998
v -1.080875 -0.000000 -1.099998
v -1.899997 -0.000000 -1.899997
v -1.080875 -0.000000 -1.899997
v 1.100002 -0.000000 -1.431366
v -0.080875 -0.000000 -1.099998
v -0.899998 -0.000000 -1.899997
v -0.080875 -0.000000 -1.899997
v 0.100002 -0.000000 -1.099998
v 1.398916 -0.000000 -1.099998
v 0.100002 -0.000000 -1.899997
v 0.919125 -0.000000 -1.899997
v -1.427784 0.000000 1.100003
v 1.919125 -0.000000 -1.099998
v 1.100002 -0.000000 -1.899997
v 1.919125 -0.000000 -1.899997
v -1.899997 0.000000 1.900002
v -1.080875 0.000000 1.900002
v -1.899997 0.000000 1.100003
v 1.919125 0.000000 0.352752
v 1.919125 0.000000 1.379325
v -0.080875 0.000000 1.900002
v -0.899998 0.000000 1.100003
v -0.080875 0.000000 1.100003
v 0.100002 0.000000 1.900002
v 0.919125 0.000000 1.900002
v 0.100002 0.000000 1.100003
v 0.919125 0.000000 1.100003
v 1.100002 0.000000 1.900002
v 1.919125 0.000000 1.900002
v 1.100002 0.000000 1.100003
v -1.899997 -0.000000 -0.099998
v -1.080875 -0.000000 -0.099998
v -1.899997 -0.000000 -0.899997
v -1.080875 -0.000000 -0.899997
v -1.899997 0.000000 0.900002
v -1.080875 0.000000 0.900002
v -1.899997 0.000000 0.100003
v -1.080875 0.000000 0.100003
v 1.100002 -0.000000 -0.099998
v 1.919125 -0.000000 -0.099998
v 1.100002 -0.000000 -0.899997
v 1.919125 -0.000000 -0.899997
v 1.100002 0.000000 0.900002
v 1.100002 0.000000 0.100003
v 1.919125 0.000000 0.100003
v 0.900003 0.000000 0.431933
v 0.440167 0.000000 0.900002
v 0.576004 0.000000 0.592465
v 0.452513 0.000000 0.222002
v 0.748884 0.000000 0.444281
v -0.557167 -0.000000 -0.899997
v -0.626276 -0.000000 -1.099998
v -0.899998 -0.000000 -1.373718
v 0.919125 -0.000000 -1.307089
v -1.080875 0.000000 1.414640
v -0.651424 0.000000 1.900002
v -0.899998 0.000000 1.657088
v 1.583847 0.000000 0.900002
v 1.650547 0.000000 1.100003
v 1.615877 0.000000 0.547697
vt 0.973118 0.975004
vt 0.973118 0.975004
vt 0.973118 0.975004
vt 0.973118 0.975004
vt 0.973118 0.975004
vt 0.973118 0.975004
vt 0.974827 0.964994
vt 0.974827 0.964994
vt 0.974827 0.964994
vt 0.974827 0.964994
vt 0.974827 0.964994
vt 0.974827 0.964994
vt 0.973118 0.975004
vt 0.973118 0.975004
vt 0.973118 0.975004
vt 0.974827 0.964994
vt 0.974827 0.964994
vt 0.974827 0.964994
vt 0.973118 0.975004
vt 0.973118 0.975004
vt 0.973118 0.975004
vt 0.973118 0.975004
vt 0.973118 0.975004
vt 0.973118 0.975004
vt 0.974827 0.964994
vt 0.974827 0.964994
vt 0.974827 0.964994
vt 0.974827 0.964994
vt 0.974827 0.964994
vt 0.974827 0.964994
vt 0.973118 0.975004
vt 0.973118 0.975004
vt 0.973118 0.975004
vt 0.973118 0.975004
vt 0.973118 0.975004
vt 0.973118 0.975004
vt 0.974827 0.964994
vt 0.974827 0.964994
vt 0.974827 0.964994
vt 0.974827 0.964994
vt 0.974827 0.964994
vt 0.973118 0.975004
vt 0.973118 0.975004
vt 0.974827 0.964994
vt 0.974827 0.964994
vt 0.974827 0.964994
vt 0.974827 0.964994
vt 0.974827 0.964994
vt 0.974827 0.964994
vt 0.974827 0.964994
vt 0.974827 0.964994
vt 0.973118 0.975004
vt 0.973118 0.975004
vt 0.973118 0.975004
vt 0.973118 0.975004
vt 0.973118 0.975004
vt 0.973118 0.975004
vt 0.973118 0.975004
vt 0.974827 0.964994
vt 0.974827 0.964994
vt 0.974827 0.964994
vt 0.973118 0.975004
vt 0.973118 0.975004
vt 0.973118 0.975004
vt 0.973118 0.975004
vt 0.973118 0.975004
vt 0.973118 0.975004
vt 0.973118 0.975004
vt 0.973118 0.975004
vt 0.973118 0.975004
vt 0.973118 0.975004
vt 0.973118 0.975004
vt 0.973118 0.975004
vt 0.973118 0.975004
vt 0.973118 0.975004
vt 0.973118 0.975004
vt 0.973118 0.975004
vt 0.973118 0.975004
vt 0.974827 0.964994
vt 0.973118 0.975004
vt 0.973118 0.975004
vt 0.973118 0.975004
vt 0.974827 0.964994
vt 0.974827 0.964994
vt 0.974827 0.964994
vt 0.973118 0.975004
vt 0.974827 0.964994
vt 0.974827 0.964994
vt 0.973118 0.975004
vt 0.974827 0.964994
vt 0.974827 0.964994
vt 0.974827 0.964994
vt 0.974827 0.964994
vt 0.974827 0.964994
vt 0.974827 0.964994
vt 0.974827 0.964994
vt 0.974827 0.964994
vt 0.973118 0.975004
vt 0.973118 0.975004
vt 0.973118 0.975004
vt 0.974827 0.964994
vt 0.973118 0.975004
vt 0.973118 0.975004
vt 0.973118 0.975004
vt 0.974827 0.964994
vt 0.973118 0.975004
vt 0.973118 0.975004
vt 0.973118 0.975004
vt 0.973118 0.975004
vt 0.973118 0.975004
vt 0.973118 0.975004
vt 0.973118 0.975004
vt 0.973118 0.975004
vt 0.973118 0.975004
vt 0.973118 0.975004
vt 0.973118 0.975004
vt 0.973118 0.975004
vt 0.973118 0.975004
vt 0.974827 0.964994
vt 0.973118 0.975004
vt 0.973118 0.975004
vt 0.974827 0.964994
vt 0.973118 0.975004
vt 0.974827 0.964994
vt 0.974827 0.964994
vt 0.973118 0.975004
vt 0.974827 0.964994
vt 0.974827 0.964994
vt 0.974827 0.964994
vt 0.974827 0.964994
vt 0.974827 0.964994
vt 0.974827 0.964994
vt 0.973118 0.975004
vt 0.974827 0.964994
vn -0.0000 1.0000 -0.0000
vn 0.0000 0.0000 -1.0000
vn -1.0000 0.0000 0.0000
vn 1.0000 0.0000 0.0000
vn 0.0000 0.0000 1.0000
vn 0.9147 0.0000 0.4040
vn 0.9487 -0.0000 -0.3162
vn -0.6000 0.0000 0.8000
vn 0.0814 0.0000 0.9967
vn -0.7425 0.0000 0.6698
vn -0.7335 0.0000 -0.6797
vn 0.5296 0.0000 0.8482
vn -0.7071 0.0000 0.7071
vn 0.6718 0.0000 -0.7407
vn -0.6989 0.0000 0.7152
vn 0.7208 0.0000 -0.6931
vn 0.9959 0.0000 0.0905
vn 0.5408 -0.0000 0.8412
s 1
f 56/1/1 2/2/1 54/3/1
f 6/4/1 7/5/1 5/6/1
f 14/7/1 18/8/1 20/9/1
f 59/10/1 16/11/1 15/12/1
f 17/13/1 21/14/1 60/15/1
f 30/16/1 31/17/1 29/18/1
f 64/19/1 33/20/1 25/21/1
f 37/22/1 38/23/1 36/24/1
f 41/25/1 42/26/1 40/27/1
f 45/28/1 46/29/1 44/30/1
f 65/31/1 50/32/1 49/33/1
f 61/34/1 26/35/1 28/36/1
f 57/37/1 10/38/1 12/39/1
f 81/40/2 15/12/2 16/11/2
f 111/41/3 44/30/3 46/29/3
f 87/42/4 60/15/4 22/43/4
f 109/44/5 45/28/5 44/30/5
f 79/45/5 18/8/5 14/7/5
f 110/46/4 47/47/4 45/28/4
f 83/48/4 20/9/4 18/8/4
f 112/49/2 46/29/2 47/47/2
f 85/50/2 19/51/2 20/9/2
f 114/52/3 48/53/3 49/33/3
f 88/54/3 21/14/3 23/55/3
f 89/56/4 50/32/4 24/57/4
f 86/58/5 22/43/5 21/14/5
f 115/59/2 49/60/2 50/61/2
f 113/62/5 63/63/5 48/53/5
f 69/64/2 56/1/2 4/65/2
f 82/66/2 23/55/2 17/13/2
f 66/67/5 52/68/5 1/69/5
f 126/70/5 26/35/5 61/34/5
f 117/71/6 53/72/6 52/68/6
f 91/73/4 28/36/4 26/35/4
f 118/74/7 54/3/7 53/72/7
f 93/75/2 27/76/2 28/36/2
f 119/77/8 55/78/8 54/3/8
f 96/79/3 29/18/3 31/17/3
f 67/80/3 1/69/3 2/2/3
f 120/81/9 51/82/9 55/78/9
f 94/83/5 30/16/5 29/18/5
f 74/84/10 14/7/10 9/85/10
f 121/86/11 2/2/11 56/1/11
f 95/87/4 32/88/4 30/16/4
f 116/89/4 4/65/4 51/82/4
f 76/90/3 58/91/3 11/92/3
f 97/93/2 31/17/2 32/88/2
f 78/94/5 3/95/5 13/96/5
f 84/97/3 9/85/3 19/51/3
f 100/98/3 33/20/3 35/99/3
f 72/100/3 5/6/3 7/5/3
f 68/101/12 59/10/12 3/95/12
f 98/102/5 34/103/5 33/20/5
f 70/104/5 6/4/5 5/6/5
f 123/105/13 57/37/13 58/91/13
f 129/106/2 35/99/2 64/19/2
f 71/107/4 8/108/4 6/4/4
f 92/109/3 62/110/3 27/76/3
f 103/111/3 36/24/3 38/23/3
f 73/112/2 7/5/2 8/108/2
f 125/113/14 17/13/14 60/15/14
f 101/114/5 37/22/5 36/24/5
f 99/115/4 25/21/4 34/103/4
f 127/116/15 61/34/15 62/110/15
f 102/117/4 39/118/4 37/22/4
f 122/119/5 10/38/5 57/37/5
f 90/120/16 64/19/16 25/21/16
f 104/121/2 38/23/2 39/118/2
f 75/122/4 12/39/4 10/38/4
f 128/123/17 65/31/17 63/63/17
f 107/124/3 40/27/3 42/26/3
f 77/125/2 11/92/2 12/39/2
f 130/126/18 24/57/18 65/31/18
f 105/127/5 41/25/5 40/27/5
f 80/128/3 13/96/3 15/12/3
f 106/129/4 43/130/4 41/25/4
f 124/131/4 16/11/4 59/10/4
f 108/132/2 42/26/2 43/130/2
f 2/2/1 1/69/1 54/3/1
f 1/69/1 52/68/1 54/3/1
f 52/68/1 53/72/1 54/3/1
f 54/3/1 55/78/1 51/82/1
f 51/82/1 4/65/1 54/3/1
f 4/65/1 56/1/1 54/3/1
f 6/4/1 8/108/1 7/5/1
f 19/51/1 9/85/1 20/9/1
f 9/85/1 14/7/1 20/9/1
f 15/12/1 13/96/1 3/95/1
f 3/95/1 59/10/1 15/12/1
f 23/55/1 21/14/1 17/13/1
f 21/14/1 22/43/1 60/15/1
f 30/16/1 32/88/1 31/17/1
f 35/99/1 33/20/1 64/19/1
f 33/20/1 34/103/1 25/21/1
f 37/22/1 39/118/1 38/23/1
f 41/25/1 43/130/1 42/26/1
f 45/28/1 47/47/1 46/29/1
f 49/33/1 48/53/1 65/31/1
f 48/53/1 63/63/1 65/31/1
f 65/31/1 24/57/1 50/32/1
f 27/76/1 62/110/1 28/36/1
f 62/110/1 61/34/1 28/36/1
f 11/92/1 58/91/1 12/39/1
f 58/91/1 57/37/1 12/39/1
f 81/40/2 80/128/2 15/12/2
f 111/41/3 109/44/3 44/30/3
f 87/42/4 125/113/4 60/15/4
f 109/44/5 110/46/5 45/28/5
f 79/45/5 83/48/5 18/8/5
f 110/46/4 112/49/4 47/47/4
f 83/48/4 85/50/4 20/9/4
f 112/49/2 111/41/2 46/29/2
f 85/50/2 84/97/2 19/51/2
f 114/52/3 113/62/3 48/53/3
f 88/54/3 86/58/3 21/14/3
f 89/56/4 115/133/4 50/32/4
f 86/58/5 87/42/5 22/43/5
f 115/59/2 114/134/2 49/60/2
f 113/62/5 128/123/5 63/63/5
f 69/64/2 121/86/2 56/1/2
f 82/66/2 88/54/2 23/55/2
f 66/67/5 117/71/5 52/68/5
f 126/70/5 91/73/5 26/35/5
f 117/71/6 118/74/6 53/72/6
f 91/73/4 93/75/4 28/36/4
f 118/74/7 119/77/7 54/3/7
f 93/75/2 92/109/2 27/76/2
f 119/77/8 120/81/8 55/78/8
f 96/79/3 94/83/3 29/18/3
f 67/80/3 66/67/3 1/69/3
f 120/81/9 116/89/9 51/82/9
f 94/83/5 95/87/5 30/16/5
f 74/84/10 79/45/10 14/7/10
f 121/86/11 67/80/11 2/2/11
f 95/87/4 97/93/4 32/88/4
f 116/89/4 69/64/4 4/65/4
f 76/90/3 123/105/3 58/91/3
f 97/93/2 96/79/2 31/17/2
f 78/94/5 68/101/5 3/95/5
f 84/97/3 74/84/3 9/85/3
f 100/98/3 98/102/3 33/20/3
f 72/100/3 70/104/3 5/6/3
f 68/101/12 124/131/12 59/10/12
f 98/102/5 99/115/5 34/103/5
f 70/104/5 71/107/5 6/4/5
f 123/105/13 122/119/13 57/37/13
f 129/106/2 100/98/2 35/99/2
f 71/107/4 73/112/4 8/108/4
f 92/109/3 127/116/3 62/110/3
f 103/111/3 101/114/3 36/24/3
f 73/112/2 72/100/2 7/5/2
f 125/113/14 82/66/14 17/13/14
f 101/114/5 102/117/5 37/22/5
f 99/115/4 90/120/4 25/21/4
f 127/116/15 126/70/15 61/34/15
f 102/117/4 104/121/4 39/118/4
f 122/119/5 75/122/5 10/38/5
f 90/120/16 129/106/16 64/19/16
f 104/121/2 103/111/2 38/23/2
f 75/122/4 77/125/4 12/39/4
f 128/123/17 130/126/17 65/31/17
f 107/124/3 105/127/3 40/27/3
f 77/125/2 76/90/2 11/92/2
f 130/126/18 89/56/18 24/57/18
f 105/127/5 106/129/5 41/25/5
f 80/128/3 78/94/3 13/96/3
f 106/129/4 108/132/4 43/130/4
f 124/131/4 81/40/4 16/11/4
f 108/132/2 107/124/2 42/26/2
