# Blender v2.81 (sub 16) OBJ File: 'models.blend'
# www.blender.org
o D_Tile_05_Cylinder.291
v 0.706393 0.100000 -1.299993
v 1.300002 0.100000 1.300007
v -1.299998 0.100000 -1.299993
v -1.499999 0.100000 0.485609
v -1.900000 0.100000 -1.499992
v -1.499999 0.100000 -1.499992
v -1.900000 0.100000 -1.899994
v -1.499999 0.100000 -1.899994
v 1.500001 0.100000 -1.499996
v 1.900000 0.100000 -1.499996
v 1.500001 0.100000 -1.899994
v 1.900000 0.100000 -1.899994
v -1.299998 0.100000 -1.499992
v -0.100001 0.100000 -1.499992
v -1.299998 0.100000 -1.899994
v -0.100001 0.100000 -1.899994
v 0.100001 0.100000 -1.499992
v 1.300002 0.100000 -1.499992
v 0.100001 0.100000 -1.899994
v 1.300002 0.100000 -1.899994
v -1.900000 0.100000 1.900007
v -1.499999 0.100000 1.900007
v -1.900000 0.100000 1.500006
v 1.500001 0.100000 1.900007
v 1.900000 0.100000 1.900007
v 1.500001 0.100000 1.500006
v 1.900000 0.100000 1.500006
v -1.299998 0.100000 1.900007
v -0.100001 0.100000 1.900007
v -0.100001 0.100000 1.500006
v 0.100001 0.100000 1.900007
v 1.300002 0.100000 1.900007
v 0.100001 0.100000 1.500006
v 1.300002 0.100000 1.500006
v -1.900000 0.100000 -1.299991
v -1.899999 0.100000 -0.099993
v -1.499999 0.100000 -1.299991
v -1.499999 0.100000 -0.099993
v -1.900000 0.100000 0.100006
v -1.499999 0.100000 1.701536
v -1.499999 0.100000 0.100006
v -1.764209 0.100000 1.500006
v 1.500001 0.100000 0.100006
v 1.500001 0.100000 1.300007
v 1.900000 0.100000 0.100006
v 1.900000 0.100000 1.300007
v 1.500001 0.100000 -1.299993
v 1.500001 0.100000 -0.099993
v 1.900000 0.100000 -1.299993
v 1.900000 0.100000 -0.099993
v -1.299998 0.100000 0.260304
v -0.400160 0.100000 1.300007
v -0.439501 0.100000 0.803295
v -0.207045 0.100000 0.485607
v -0.504469 0.100000 0.583655
v -0.829314 0.100000 0.195929
v 1.300002 0.100000 -0.872621
v 1.056569 0.100000 -0.947128
v -1.899999 0.100000 0.896875
v -1.299998 0.100000 1.773058
v -0.968491 0.100000 1.500006
v 0.706393 -0.000000 -1.299993
v 1.300002 0.000000 1.300007
v -1.299998 -0.000000 -1.299993
v -1.499999 0.000000 0.485609
v -1.900000 -0.000000 -1.499992
v -1.499999 -0.000000 -1.499992
v -1.900000 -0.000000 -1.899994
v -1.499999 -0.000000 -1.899994
v 1.500001 -0.000000 -1.499996
v 1.900000 -0.000000 -1.499996
v 1.500001 -0.000000 -1.899994
v 1.900000 -0.000000 -1.899994
v -1.299998 -0.000000 -1.499992
v -0.100001 -0.000000 -1.499992
v -1.299998 -0.000000 -1.899994
v -0.100001 -0.000000 -1.899994
v 0.100001 -0.000000 -1.499992
v 1.300002 -0.000000 -1.499992
v 0.100001 -0.000000 -1.899994
v 1.300002 -0.000000 -1.899994
v -1.900000 0.000000 1.900007
v -1.499999 0.000000 1.900007
v -1.900000 0.000000 1.500006
v 1.500001 0.000000 1.900007
v 1.900000 0.000000 1.900007
v 1.500001 0.000000 1.500006
v 1.900000 0.000000 1.500006
v -1.299998 0.000000 1.900007
v -0.100001 0.000000 1.900007
v -0.100001 0.000000 1.500006
v 0.100001 0.000000 1.900007
v 1.300002 0.000000 1.900007
v 0.100001 0.000000 1.500006
v 1.300002 0.000000 1.500006
v -1.900000 -0.000000 -1.299991
v -1.899999 -0.000000 -0.099993
v -1.499999 -0.000000 -1.299991
v -1.499999 -0.000000 -0.099993
v -1.900000 0.000000 0.100006
v -1.499999 0.000000 1.701536
v -1.499999 0.000000 0.100006
v -1.764209 0.000000 1.500006
v 1.500001 0.000000 0.100006
v 1.500001 0.000000 1.300007
v 1.900000 0.000000 0.100006
v 1.900000 0.000000 1.300007
v 1.500001 -0.000000 -1.299993
v 1.500001 -0.000000 -0.099993
v 1.900000 -0.000000 -1.299993
v 1.900000 -0.000000 -0.099993
v -1.299998 0.000000 0.260304
v -0.400160 0.000000 1.300007
v -0.439501 0.000000 0.803295
v -0.207045 0.000000 0.485607
v -0.504469 0.000000 0.583655
v -0.829314 0.000000 0.195929
v 1.300002 -0.000000 -0.872621
v 1.056569 -0.000000 -0.947128
v -1.899999 0.000000 0.896875
v -1.299998 0.000000 1.773058
v -0.968491 0.000000 1.500006
vt 0.974827 0.964994
vt 0.974827 0.964994
vt 0.974827 0.964994
vt 0.973118 0.975004
vt 0.973118 0.975004
vt 0.973118 0.975004
vt 0.973118 0.975004
vt 0.973118 0.975004
vt 0.973118 0.975004
vt 0.974827 0.964994
vt 0.974827 0.964994
vt 0.974827 0.964994
vt 0.974827 0.964994
vt 0.974827 0.964994
vt 0.974827 0.964994
vt 0.973118 0.975004
vt 0.973118 0.975004
vt 0.973118 0.975004
vt 0.973118 0.975004
vt 0.973118 0.975004
vt 0.973118 0.975004
vt 0.974827 0.964994
vt 0.974827 0.964994
vt 0.974827 0.964994
vt 0.974827 0.964994
vt 0.974827 0.964994
vt 0.974827 0.964994
vt 0.973118 0.975004
vt 0.973118 0.975004
vt 0.973118 0.975004
vt 0.973118 0.975004
vt 0.973118 0.975004
vt 0.973118 0.975004
vt 0.973118 0.975004
vt 0.973118 0.975004
vt 0.973118 0.975004
vt 0.973118 0.975004
vt 0.973118 0.975004
vt 0.973118 0.975004
vt 0.973118 0.975004
vt 0.973118 0.975004
vt 0.973118 0.975004
vt 0.973118 0.975004
vt 0.973118 0.975004
vt 0.973118 0.975004
vt 0.974827 0.964994
vt 0.974827 0.964994
vt 0.973118 0.975004
vt 0.973118 0.975004
vt 0.974827 0.964994
vt 0.974827 0.964994
vt 0.973118 0.975004
vt 0.974827 0.964994
vt 0.974827 0.964994
vt 0.974827 0.964994
vt 0.974827 0.964994
vt 0.973118 0.975004
vt 0.973118 0.975004
vt 0.974827 0.964994
vt 0.974827 0.964994
vt 0.974827 0.964994
vt 0.974827 0.964994
vt 0.973118 0.975004
vt 0.974827 0.964994
vt 0.973118 0.975004
vt 0.974827 0.964994
vt 0.974827 0.964994
vt 0.973118 0.975004
vt 0.973118 0.975004
vt 0.974827 0.964994
vt 0.973118 0.975004
vt 0.973118 0.975004
vt 0.973118 0.975004
vt 0.974827 0.964994
vt 0.974827 0.964994
vt 0.973118 0.975004
vt 0.973118 0.975004
vt 0.973118 0.975004
vt 0.973118 0.975004
vt 0.973118 0.975004
vt 0.973118 0.975004
vt 0.973118 0.975004
vt 0.974827 0.964994
vt 0.973118 0.975004
vt 0.973118 0.975004
vt 0.974827 0.964994
vt 0.973118 0.975004
vt 0.974827 0.964994
vt 0.974827 0.964994
vt 0.973118 0.975004
vt 0.974827 0.964994
vt 0.973118 0.975004
vt 0.974827 0.964994
vt 0.974827 0.964994
vt 0.973118 0.975004
vt 0.973118 0.975004
vt 0.974827 0.964994
vt 0.973118 0.975004
vt 0.974827 0.964994
vt 0.973118 0.975004
vt 0.973118 0.975004
vt 0.973118 0.975004
vt 0.973118 0.975004
vt 0.973118 0.975004
vt 0.973118 0.975004
vt 0.973118 0.975004
vt 0.973118 0.975004
vt 0.973118 0.975004
vt 0.973118 0.975004
vt 0.973118 0.975004
vt 0.973118 0.975004
vt 0.973118 0.975004
vt 0.973118 0.975004
vt 0.973118 0.975004
vt 0.973118 0.975004
vt 0.973118 0.975004
vt 0.973118 0.975004
vt 0.973118 0.975004
vt 0.973118 0.975004
vt 0.973118 0.975004
vt 0.973118 0.975004
vt 0.973118 0.975004
vn 0.0000 1.0000 -0.0000
vn 0.7098 0.0000 -0.7044
vn 1.0000 0.0000 0.0000
vn 0.0000 0.0000 -1.0000
vn 0.2927 0.0000 -0.9562
vn -1.0000 0.0000 0.0000
vn 0.7169 0.0000 0.6972
vn 0.0000 0.0000 1.0000
vn -0.6358 0.0000 -0.7719
vn 0.6065 0.0000 -0.7951
vn -0.9969 0.0000 0.0790
vn -0.8070 -0.0000 -0.5905
vn 0.3131 0.0000 0.9497
vn -0.7665 0.0000 0.6422
vn 0.1355 0.0000 0.9908
s 1
f 6/1/1 7/2/1 5/3/1
f 10/4/1 11/5/1 9/6/1
f 14/7/1 15/8/1 13/9/1
f 18/10/1 19/11/1 17/12/1
f 42/13/1 21/14/1 40/15/1
f 25/16/1 26/17/1 24/18/1
f 29/19/1 30/20/1 61/21/1
f 32/22/1 33/23/1 31/24/1
f 36/25/1 37/26/1 35/27/1
f 39/28/1 4/29/1 41/30/1
f 44/31/1 45/32/1 43/33/1
f 48/34/1 49/35/1 47/36/1
f 57/37/1 58/38/1 54/39/1
f 119/40/2 1/41/2 58/38/2
f 90/42/3 30/20/3 29/19/3
f 62/43/4 3/44/4 1/41/4
f 118/45/5 58/38/5 57/37/5
f 94/46/6 31/24/6 33/23/6
f 68/47/6 5/3/6 7/2/6
f 120/48/7 4/29/7 59/49/7
f 92/50/8 32/22/8 31/24/8
f 66/51/8 6/1/8 5/3/8
f 91/52/4 61/21/4 30/20/4
f 93/53/3 34/54/3 32/22/3
f 67/55/3 8/56/3 6/1/3
f 122/57/9 60/58/9 61/21/9
f 95/59/4 33/23/4 34/54/4
f 69/60/4 7/2/4 8/56/4
f 101/61/10 42/13/10 40/15/10
f 98/62/4 35/27/4 37/26/4
f 72/63/6 9/6/6 11/5/6
f 96/64/6 36/25/6 35/27/6
f 70/65/8 10/4/8 9/6/8
f 97/66/8 38/67/8 36/25/8
f 71/68/3 12/69/3 10/4/3
f 99/70/3 37/26/3 38/67/3
f 73/71/4 11/5/4 12/69/4
f 102/72/4 39/28/4 41/30/4
f 76/73/6 13/9/6 15/8/6
f 83/74/3 40/15/3 22/75/3
f 74/76/8 14/7/8 13/9/8
f 65/77/3 41/30/3 4/29/3
f 75/78/3 16/79/3 14/7/3
f 106/80/4 43/33/4 45/32/4
f 77/81/4 15/8/4 16/79/4
f 104/82/6 44/31/6 43/33/6
f 80/83/6 17/12/6 19/11/6
f 105/84/8 46/85/8 44/31/8
f 78/86/8 18/10/8 17/12/8
f 107/87/3 45/32/3 46/85/3
f 79/88/3 20/89/3 18/10/3
f 110/90/4 47/36/4 49/35/4
f 81/91/4 19/11/4 20/89/4
f 108/92/6 48/34/6 47/36/6
f 84/93/6 21/14/6 23/94/6
f 109/95/8 50/96/8 48/34/8
f 82/97/8 22/75/8 21/14/8
f 111/98/3 49/35/3 50/96/3
f 103/99/4 23/94/4 42/13/4
f 64/100/6 51/101/6 3/44/6
f 87/102/6 24/18/6 26/17/6
f 114/103/11 52/104/11 53/105/11
f 85/106/8 25/16/8 24/18/8
f 115/107/12 53/105/12 54/39/12
f 86/108/3 27/109/3 25/16/3
f 116/110/13 54/39/13 55/111/13
f 88/112/4 26/17/4 27/109/4
f 63/113/3 57/37/3 2/114/3
f 117/115/14 55/111/14 56/116/14
f 121/117/6 28/118/6 60/58/6
f 113/119/8 2/114/8 52/104/8
f 112/120/15 56/116/15 51/101/15
f 89/121/8 29/19/8 28/118/8
f 100/122/6 59/49/6 39/28/6
f 6/1/1 8/56/1 7/2/1
f 10/4/1 12/69/1 11/5/1
f 14/7/1 16/79/1 15/8/1
f 18/10/1 20/89/1 19/11/1
f 23/94/1 21/14/1 42/13/1
f 21/14/1 22/75/1 40/15/1
f 25/16/1 27/109/1 26/17/1
f 60/58/1 28/118/1 61/21/1
f 28/118/1 29/19/1 61/21/1
f 32/22/1 34/54/1 33/23/1
f 36/25/1 38/67/1 37/26/1
f 39/28/1 59/49/1 4/29/1
f 44/31/1 46/85/1 45/32/1
f 48/34/1 50/96/1 49/35/1
f 3/44/1 51/101/1 56/116/1
f 56/116/1 55/111/1 54/39/1
f 54/39/1 53/105/1 52/104/1
f 52/104/1 2/114/1 54/39/1
f 2/114/1 57/37/1 54/39/1
f 58/38/1 1/41/1 54/39/1
f 1/41/1 3/44/1 56/116/1
f 54/39/1 1/41/1 56/116/1
f 119/40/2 62/43/2 1/41/2
f 90/42/3 91/52/3 30/20/3
f 62/43/4 64/100/4 3/44/4
f 118/45/5 119/40/5 58/38/5
f 94/46/6 92/50/6 31/24/6
f 68/47/6 66/51/6 5/3/6
f 120/48/7 65/77/7 4/29/7
f 92/50/8 93/53/8 32/22/8
f 66/51/8 67/55/8 6/1/8
f 91/52/4 122/57/4 61/21/4
f 93/53/3 95/59/3 34/54/3
f 67/55/3 69/60/3 8/56/3
f 122/57/9 121/117/9 60/58/9
f 95/59/4 94/46/4 33/23/4
f 69/60/4 68/47/4 7/2/4
f 101/61/10 103/99/10 42/13/10
f 98/62/4 96/64/4 35/27/4
f 72/63/6 70/65/6 9/6/6
f 96/64/6 97/66/6 36/25/6
f 70/65/8 71/68/8 10/4/8
f 97/66/8 99/70/8 38/67/8
f 71/68/3 73/71/3 12/69/3
f 99/70/3 98/62/3 37/26/3
f 73/71/4 72/63/4 11/5/4
f 102/72/4 100/122/4 39/28/4
f 76/73/6 74/76/6 13/9/6
f 83/74/3 101/61/3 40/15/3
f 74/76/8 75/78/8 14/7/8
f 65/77/3 102/72/3 41/30/3
f 75/78/3 77/81/3 16/79/3
f 106/80/4 104/82/4 43/33/4
f 77/81/4 76/73/4 15/8/4
f 104/82/6 105/84/6 44/31/6
f 80/83/6 78/86/6 17/12/6
f 105/84/8 107/87/8 46/85/8
f 78/86/8 79/88/8 18/10/8
f 107/87/3 106/80/3 45/32/3
f 79/88/3 81/91/3 20/89/3
f 110/90/4 108/92/4 47/36/4
f 81/91/4 80/83/4 19/11/4
f 108/92/6 109/95/6 48/34/6
f 84/93/6 82/97/6 21/14/6
f 109/95/8 111/98/8 50/96/8
f 82/97/8 83/74/8 22/75/8
f 111/98/3 110/90/3 49/35/3
f 103/99/4 84/93/4 23/94/4
f 64/100/6 112/120/6 51/101/6
f 87/102/6 85/106/6 24/18/6
f 114/103/11 113/119/11 52/104/11
f 85/106/8 86/108/8 25/16/8
f 115/107/12 114/103/12 53/105/12
f 86/108/3 88/112/3 27/109/3
f 116/110/13 115/107/13 54/39/13
f 88/112/4 87/102/4 26/17/4
f 63/113/3 118/45/3 57/37/3
f 117/115/14 116/110/14 55/111/14
f 121/117/6 89/121/6 28/118/6
f 113/119/8 63/113/8 2/114/8
f 112/120/15 117/115/15 56/116/15
f 89/121/8 90/42/8 29/19/8
f 100/122/6 120/48/6 59/49/6
