# Blender v2.81 (sub 16) OBJ File: 'models.blend'
# www.blender.org
o D_Tile_09_Cylinder.287
v -1.299999 0.100000 1.300007
v 1.300002 0.100000 1.300007
v -1.299999 0.100000 -1.299993
v 1.300002 0.100000 -1.299993
v -1.900000 0.100000 -1.499994
v -1.500000 0.100000 -1.499994
v -1.900000 0.100000 -1.899993
v -1.500000 0.100000 -1.899993
v 1.500000 0.100000 -1.499995
v 1.900001 0.100000 -1.499995
v 1.500000 0.100000 -1.899995
v 1.900001 0.100000 -1.899995
v -1.299999 0.100000 -1.499994
v 1.652144 0.100000 -0.099994
v -1.299999 0.100000 -1.899993
v -0.100000 0.100000 -1.899993
v 0.100001 0.100000 -1.499994
v 1.300002 0.100000 -1.499994
v 0.100001 0.100000 -1.899993
v 1.300002 0.100000 -1.899993
v -1.900000 0.100000 1.900008
v -1.500000 0.100000 1.900008
v -1.900000 0.100000 1.500006
v -1.500000 0.100000 1.500006
v 1.500000 0.100000 1.900008
v 1.500000 0.100000 1.500006
v 1.900001 0.100000 1.500006
v -1.299999 0.100000 1.900008
v 1.020155 0.100000 1.500006
v -1.299999 0.100000 1.500006
v 1.109563 0.100000 1.900008
v 1.300002 0.100000 1.900008
v 1.300002 0.100000 1.500006
v -1.900000 0.100000 -1.299993
v -1.500000 0.100000 -1.299993
v -1.500000 0.100000 -0.099992
v -1.900000 0.100000 0.100007
v -1.900000 0.100000 1.300005
v -1.500000 0.100000 0.100007
v -1.500000 0.100000 1.300005
v 1.500000 0.100000 0.100007
v 1.500000 0.100000 1.300005
v 1.900001 0.100000 0.100007
v 1.900001 0.100000 1.300005
v 1.500000 0.100000 -1.299993
v 1.900001 0.100000 -1.299993
v 1.900001 0.100000 -0.099994
v 0.197619 0.100000 1.300007
v 0.653592 0.100000 1.300007
v 0.456896 0.100000 0.428935
v -0.347761 0.100000 1.500006
v -0.535515 0.100000 1.900008
v 1.136385 0.100000 1.734269
v -1.299999 0.100000 -0.517271
v -1.299999 0.100000 -0.334882
v -0.359743 0.100000 -1.299993
v -0.542131 0.100000 -1.299993
v -0.100000 0.100000 -1.710254
v -0.246290 0.100000 -1.499994
v 1.500000 0.100000 -0.276752
v 1.900001 0.100000 1.768067
v 1.772475 0.100000 1.900008
v -1.742271 0.100000 -0.099992
v -1.900000 0.100000 -0.291856
v -1.299999 0.000000 1.300007
v 1.300002 0.000000 1.300007
v -1.299999 -0.000000 -1.299993
v 1.300002 -0.000000 -1.299993
v -1.900000 -0.000000 -1.499994
v -1.500000 -0.000000 -1.499994
v -1.900000 -0.000000 -1.899993
v -1.500000 -0.000000 -1.899993
v 1.500000 -0.000000 -1.499995
v 1.900001 -0.000000 -1.499995
v 1.500000 -0.000000 -1.899995
v 1.900001 -0.000000 -1.899995
v -1.299999 -0.000000 -1.499994
v 1.652144 -0.000000 -0.099994
v -1.299999 -0.000000 -1.899993
v -0.100000 -0.000000 -1.899993
v 0.100001 -0.000000 -1.499994
v 1.300002 -0.000000 -1.499994
v 0.100001 -0.000000 -1.899993
v 1.300002 -0.000000 -1.899993
v -1.900000 0.000000 1.900008
v -1.500000 0.000000 1.900008
v -1.900000 0.000000 1.500006
v -1.500000 0.000000 1.500006
v 1.500000 0.000000 1.900008
v 1.500000 0.000000 1.500006
v 1.900001 0.000000 1.500006
v -1.299999 0.000000 1.900008
v 1.020155 0.000000 1.500006
v -1.299999 0.000000 1.500006
v 1.109563 0.000000 1.900008
v 1.300002 0.000000 1.900008
v 1.300002 0.000000 1.500006
v -1.900000 -0.000000 -1.299993
v -1.500000 -0.000000 -1.299993
v -1.500000 -0.000000 -0.099992
v -1.900000 0.000000 0.100007
v -1.900000 0.000000 1.300005
v -1.500000 0.000000 0.100007
v -1.500000 0.000000 1.300005
v 1.500000 0.000000 0.100007
v 1.500000 0.000000 1.300005
v 1.900001 0.000000 0.100007
v 1.900001 0.000000 1.300005
v 1.500000 -0.000000 -1.299993
v 1.900001 -0.000000 -1.299993
v 1.900001 -0.000000 -0.099994
v 0.197619 0.000000 1.300007
v 0.653592 0.000000 1.300007
v 0.456896 0.000000 0.428935
v -0.347761 0.000000 1.500006
v -0.535515 0.000000 1.900008
v 1.136385 0.000000 1.734269
v -1.299999 -0.000000 -0.517271
v -1.299999 -0.000000 -0.334882
v -0.359743 -0.000000 -1.299993
v -0.542131 -0.000000 -1.299993
v -0.100000 -0.000000 -1.710254
v -0.246290 -0.000000 -1.499994
v 1.500000 -0.000000 -0.276752
v 1.900001 0.000000 1.768067
v 1.772475 0.000000 1.900008
v -1.742271 -0.000000 -0.099992
v -1.900000 -0.000000 -0.291856
vt 0.973118 0.975004
vt 0.973118 0.975004
vt 0.973118 0.975004
vt 0.973118 0.975004
vt 0.973118 0.975004
vt 0.973118 0.975004
vt 0.974827 0.964994
vt 0.974827 0.964994
vt 0.974827 0.964994
vt 0.974827 0.964994
vt 0.974827 0.964994
vt 0.974827 0.964994
vt 0.973118 0.975004
vt 0.973118 0.975004
vt 0.973118 0.975004
vt 0.973118 0.975004
vt 0.973118 0.975004
vt 0.973118 0.975004
vt 0.974827 0.964994
vt 0.974827 0.964994
vt 0.974827 0.964994
vt 0.974827 0.964994
vt 0.974827 0.964994
vt 0.974827 0.964994
vt 0.973118 0.975004
vt 0.973118 0.975004
vt 0.973118 0.975004
vt 0.974827 0.964994
vt 0.974827 0.964994
vt 0.974827 0.964994
vt 0.973118 0.975004
vt 0.973118 0.975004
vt 0.973118 0.975004
vt 0.974827 0.964994
vt 0.974827 0.964994
vt 0.974827 0.964994
vt 0.974827 0.964994
vt 0.974827 0.964994
vt 0.974827 0.964994
vt 0.973118 0.975004
vt 0.973118 0.975004
vt 0.973118 0.975004
vt 0.973118 0.975004
vt 0.973118 0.975004
vt 0.974827 0.964994
vt 0.974827 0.964994
vt 0.973118 0.975004
vt 0.973118 0.975004
vt 0.974827 0.964994
vt 0.974827 0.964994
vt 0.973118 0.975004
vt 0.973118 0.975004
vt 0.973118 0.975004
vt 0.974827 0.964994
vt 0.974827 0.964994
vt 0.973118 0.975004
vt 0.974827 0.964994
vt 0.974827 0.964994
vt 0.974827 0.964994
vt 0.973118 0.975004
vt 0.973118 0.975004
vt 0.974827 0.964994
vt 0.974827 0.964994
vt 0.973118 0.975004
vt 0.973118 0.975004
vt 0.973118 0.975004
vt 0.974827 0.964994
vt 0.974827 0.964994
vt 0.974827 0.964994
vt 0.973118 0.975004
vt 0.973118 0.975004
vt 0.974827 0.964994
vt 0.974827 0.964994
vt 0.973118 0.975004
vt 0.974827 0.964994
vt 0.973118 0.975004
vt 0.974827 0.964994
vt 0.974827 0.964994
vt 0.974827 0.964994
vt 0.973118 0.975004
vt 0.974827 0.964994
vt 0.974827 0.964994
vt 0.974827 0.964994
vt 0.974827 0.964994
vt 0.974827 0.964994
vt 0.974827 0.964994
vt 0.974827 0.964994
vt 0.974827 0.964994
vt 0.974827 0.964994
vt 0.973118 0.975004
vt 0.974827 0.964994
vt 0.973118 0.975004
vt 0.974827 0.964994
vt 0.973118 0.975004
vt 0.973118 0.975004
vt 0.973118 0.975004
vt 0.973118 0.975004
vt 0.973118 0.975004
vt 0.974827 0.964994
vt 0.973118 0.975004
vt 0.973118 0.975004
vt 0.974827 0.964994
vt 0.973118 0.975004
vt 0.974827 0.964994
vt 0.973118 0.975004
vt 0.973118 0.975004
vt 0.973118 0.975004
vt 0.973118 0.975004
vt 0.973118 0.975004
vt 0.973118 0.975004
vt 0.973118 0.975004
vt 0.973118 0.975004
vt 0.973118 0.975004
vt 0.973118 0.975004
vt 0.973118 0.975004
vt 0.974827 0.964994
vt 0.974827 0.964994
vt 0.974827 0.964994
vt 0.974827 0.964994
vt 0.974827 0.964994
vt 0.974827 0.964994
vt 0.973118 0.975004
vt 0.973118 0.975004
vt 0.974827 0.964994
vt 0.973118 0.975004
vt 0.974827 0.964994
vt 0.974827 0.964994
vt 0.973118 0.975004
vn -0.0000 1.0000 -0.0000
vn 0.0000 0.0000 -1.0000
vn 0.7184 0.0000 0.6956
vn -1.0000 0.0000 0.0000
vn -0.7163 0.0000 -0.6978
vn 0.0000 0.0000 1.0000
vn 0.8209 0.0000 0.5711
vn 1.0000 0.0000 0.0000
vn -0.7579 -0.0000 0.6524
vn 0.7190 0.0000 0.6950
vn -0.7725 0.0000 0.6350
vn 0.9584 0.0000 0.2853
vn -0.9754 0.0000 0.2203
vn 0.9052 0.0000 0.4249
vn -0.9872 0.0000 -0.1598
vn -0.8958 0.0000 0.4445
s 1
f 50/1/1 2/2/1 4/3/1
f 6/4/1 7/5/1 5/6/1
f 10/7/1 11/8/1 9/9/1
f 59/10/1 16/11/1 15/12/1
f 18/13/1 19/14/1 17/15/1
f 22/16/1 23/17/1 21/18/1
f 61/19/1 27/20/1 26/21/1
f 52/22/1 30/23/1 28/24/1
f 64/25/1 36/26/1 35/27/1
f 38/28/1 39/29/1 37/30/1
f 42/31/1 43/32/1 41/33/1
f 60/34/1 47/35/1 46/36/1
f 53/37/1 32/38/1 33/39/1
f 54/40/1 57/41/1 3/42/1
f 68/43/2 56/44/2 4/3/2
f 97/45/2 29/46/2 33/39/2
f 121/47/2 3/42/2 57/41/2
f 118/48/3 57/41/3 54/40/3
f 115/49/2 30/23/2 51/50/2
f 71/51/4 5/6/4 7/5/4
f 120/52/5 55/53/5 56/44/5
f 95/54/6 32/38/6 31/55/6
f 69/56/6 6/4/6 5/6/6
f 123/57/7 58/58/7 59/10/7
f 96/59/8 33/39/8 32/38/8
f 70/60/8 8/61/8 6/4/8
f 124/62/9 14/63/9 60/34/9
f 99/64/2 34/65/2 35/27/2
f 72/66/2 7/5/2 8/61/2
f 89/67/6 62/68/6 25/69/6
f 127/70/6 36/26/6 63/71/6
f 75/72/4 9/9/4 11/8/4
f 126/73/10 61/19/10 62/68/10
f 100/74/8 35/27/8 36/26/8
f 73/75/6 10/7/6 9/9/6
f 98/76/4 64/25/4 34/65/4
f 103/77/2 37/30/2 39/29/2
f 74/78/8 12/79/8 10/7/8
f 128/80/11 63/71/11 64/25/11
f 101/81/4 38/28/4 37/30/4
f 76/82/2 11/8/2 12/79/2
f 102/83/6 40/84/6 38/28/6
f 79/85/4 13/86/4 15/12/4
f 104/87/8 39/29/8 40/84/8
f 109/88/4 60/34/4 45/89/4
f 107/90/2 41/33/2 43/32/2
f 122/91/8 16/11/8 58/58/8
f 105/92/4 42/31/4 41/33/4
f 80/93/2 15/12/2 16/11/2
f 106/94/6 44/95/6 42/31/6
f 83/96/4 17/15/4 19/14/4
f 108/97/8 43/32/8 44/95/8
f 81/98/6 18/13/6 17/15/6
f 110/99/2 45/89/2 46/36/2
f 82/100/8 20/101/8 18/13/8
f 78/102/6 47/35/6 14/63/6
f 84/103/2 19/14/2 20/101/2
f 111/104/8 46/36/8 47/35/8
f 87/105/4 21/18/4 23/17/4
f 65/106/6 48/107/6 1/108/6
f 85/109/6 22/16/6 21/18/6
f 112/110/12 50/1/12 48/107/12
f 86/111/8 24/112/8 22/16/8
f 114/113/13 49/114/13 50/1/13
f 88/115/2 23/17/2 24/112/2
f 92/116/6 52/22/6 28/24/6
f 90/117/4 25/69/4 26/21/4
f 116/118/14 51/50/14 52/22/14
f 125/119/8 27/20/8 61/19/8
f 117/120/15 31/55/15 53/37/15
f 91/121/2 26/21/2 27/20/2
f 119/122/4 1/108/4 55/53/4
f 67/123/4 54/40/4 3/42/4
f 94/124/4 28/24/4 30/23/4
f 113/125/6 2/2/6 49/114/6
f 77/126/6 59/10/6 13/86/6
f 93/127/16 53/37/16 29/46/16
f 66/128/8 4/3/8 2/2/8
f 55/53/1 1/108/1 50/1/1
f 1/108/1 48/107/1 50/1/1
f 50/1/1 49/114/1 2/2/1
f 4/3/1 56/44/1 50/1/1
f 56/44/1 55/53/1 50/1/1
f 6/4/1 8/61/1 7/5/1
f 10/7/1 12/79/1 11/8/1
f 15/12/1 13/86/1 59/10/1
f 59/10/1 58/58/1 16/11/1
f 18/13/1 20/101/1 19/14/1
f 22/16/1 24/112/1 23/17/1
f 26/21/1 25/69/1 62/68/1
f 62/68/1 61/19/1 26/21/1
f 52/22/1 51/50/1 30/23/1
f 35/27/1 34/65/1 64/25/1
f 64/25/1 63/71/1 36/26/1
f 38/28/1 40/84/1 39/29/1
f 42/31/1 44/95/1 43/32/1
f 46/36/1 45/89/1 60/34/1
f 60/34/1 14/63/1 47/35/1
f 33/39/1 29/46/1 53/37/1
f 53/37/1 31/55/1 32/38/1
f 68/43/2 120/52/2 56/44/2
f 97/45/2 93/127/2 29/46/2
f 121/47/2 67/123/2 3/42/2
f 118/48/3 121/47/3 57/41/3
f 115/49/2 94/124/2 30/23/2
f 71/51/4 69/56/4 5/6/4
f 120/52/5 119/122/5 55/53/5
f 95/54/6 96/59/6 32/38/6
f 69/56/6 70/60/6 6/4/6
f 123/57/7 122/91/7 58/58/7
f 96/59/8 97/45/8 33/39/8
f 70/60/8 72/66/8 8/61/8
f 124/62/9 78/102/9 14/63/9
f 99/64/2 98/76/2 34/65/2
f 72/66/2 71/51/2 7/5/2
f 89/67/6 126/73/6 62/68/6
f 127/70/6 100/74/6 36/26/6
f 75/72/4 73/75/4 9/9/4
f 126/73/10 125/119/10 61/19/10
f 100/74/8 99/64/8 35/27/8
f 73/75/6 74/78/6 10/7/6
f 98/76/4 128/80/4 64/25/4
f 103/77/2 101/81/2 37/30/2
f 74/78/8 76/82/8 12/79/8
f 128/80/11 127/70/11 63/71/11
f 101/81/4 102/83/4 38/28/4
f 76/82/2 75/72/2 11/8/2
f 102/83/6 104/87/6 40/84/6
f 79/85/4 77/126/4 13/86/4
f 104/87/8 103/77/8 39/29/8
f 109/88/4 124/62/4 60/34/4
f 107/90/2 105/92/2 41/33/2
f 122/91/8 80/93/8 16/11/8
f 105/92/4 106/94/4 42/31/4
f 80/93/2 79/85/2 15/12/2
f 106/94/6 108/97/6 44/95/6
f 83/96/4 81/98/4 17/15/4
f 108/97/8 107/90/8 43/32/8
f 81/98/6 82/100/6 18/13/6
f 110/99/2 109/88/2 45/89/2
f 82/100/8 84/103/8 20/101/8
f 78/102/6 111/104/6 47/35/6
f 84/103/2 83/96/2 19/14/2
f 111/104/8 110/99/8 46/36/8
f 87/105/4 85/109/4 21/18/4
f 65/106/6 112/110/6 48/107/6
f 85/109/6 86/111/6 22/16/6
f 112/110/12 114/113/12 50/1/12
f 86/111/8 88/115/8 24/112/8
f 114/113/13 113/125/13 49/114/13
f 88/115/2 87/105/2 23/17/2
f 92/116/6 116/118/6 52/22/6
f 90/117/4 89/67/4 25/69/4
f 116/118/14 115/49/14 51/50/14
f 125/119/8 91/121/8 27/20/8
f 117/120/15 95/54/15 31/55/15
f 91/121/2 90/117/2 26/21/2
f 119/122/4 65/106/4 1/108/4
f 67/123/4 118/48/4 54/40/4
f 94/124/4 92/116/4 28/24/4
f 113/125/6 66/128/6 2/2/6
f 77/126/6 123/57/6 59/10/6
f 93/127/16 117/120/16 53/37/16
f 66/128/8 68/43/8 4/3/8
