# Blender v2.81 (sub 16) OBJ File: 'models.blend'
# www.blender.org
o D_Tile_11_Cylinder.285
v -0.900010 0.100000 0.899997
v 0.899990 0.100000 0.899997
v -0.900010 0.100000 -0.900003
v 0.899990 0.100000 -0.900003
v -1.900010 0.100000 -1.100003
v -1.080890 0.100000 -1.100003
v -1.900010 0.100000 -1.900003
v -1.080890 0.100000 -1.900003
v -0.900010 0.100000 -1.100003
v -0.080890 0.100000 -1.100003
v -0.900010 0.100000 -1.900003
v -0.080890 0.100000 -1.900003
v 0.099990 0.100000 -1.100003
v 0.919111 0.100000 -1.100003
v 0.099990 0.100000 -1.900003
v 0.919111 0.100000 -1.900003
v 1.099989 0.100000 -1.100003
v 1.919111 0.100000 -1.100003
v 1.099989 0.100000 -1.900003
v 1.919111 0.100000 -1.900003
v -1.900010 0.100000 1.899997
v -1.080890 0.100000 1.899997
v -1.900010 0.100000 1.099998
v -1.080890 0.100000 1.099998
v -0.900010 0.100000 1.899997
v -0.080890 0.100000 1.899997
v -0.900010 0.100000 1.099998
v -0.080890 0.100000 1.099998
v 0.099990 0.100000 1.899997
v 0.919111 0.100000 1.899997
v 0.099990 0.100000 1.099998
v 0.919111 0.100000 1.099998
v 1.099989 0.100000 1.899997
v 1.919111 0.100000 1.899997
v 1.099989 0.100000 1.099998
v 1.919111 0.100000 1.099998
v -1.900010 0.100000 -0.100003
v -1.080890 0.100000 -0.100003
v -1.900010 0.100000 -0.900003
v -1.080890 0.100000 -0.900003
v -1.900010 0.100000 0.899997
v -1.080890 0.100000 0.899997
v -1.900010 0.100000 0.099997
v -1.080890 0.100000 0.099997
v 1.099989 0.100000 -0.100003
v 1.919111 0.100000 -0.100003
v 1.099989 0.100000 -0.900003
v 1.919111 0.100000 -0.900003
v 1.099989 0.100000 0.899997
v 1.919111 0.100000 0.899997
v 1.099989 0.100000 0.099997
v 1.919111 0.100000 0.099997
v -0.900010 0.000000 0.899997
v 0.899990 0.000000 0.899997
v -0.900010 -0.000000 -0.900003
v 0.899990 -0.000000 -0.900003
v -1.900010 -0.000000 -1.100003
v -1.080890 -0.000000 -1.100003
v -1.900010 -0.000000 -1.900003
v -1.080890 -0.000000 -1.900003
v -0.900010 -0.000000 -1.100003
v -0.080890 -0.000000 -1.100003
v -0.900010 -0.000000 -1.900003
v -0.080890 -0.000000 -1.900003
v 0.099990 -0.000000 -1.100003
v 0.919111 -0.000000 -1.100003
v 0.099990 -0.000000 -1.900003
v 0.919111 -0.000000 -1.900003
v 1.099989 -0.000000 -1.100003
v 1.919111 -0.000000 -1.100003
v 1.099989 -0.000000 -1.900003
v 1.919111 -0.000000 -1.900003
v -1.900010 0.000000 1.899997
v -1.080890 0.000000 1.899997
v -1.900010 0.000000 1.099998
v -1.080890 0.000000 1.099998
v -0.900010 0.000000 1.899997
v -0.080890 0.000000 1.899997
v -0.900010 0.000000 1.099998
v -0.080890 0.000000 1.099998
v 0.099990 0.000000 1.899997
v 0.919111 0.000000 1.899997
v 0.099990 0.000000 1.099998
v 0.919111 0.000000 1.099998
v 1.099989 0.000000 1.899997
v 1.919111 0.000000 1.899997
v 1.099989 0.000000 1.099998
v 1.919111 0.000000 1.099998
v -1.900010 -0.000000 -0.100003
v -1.080890 -0.000000 -0.100003
v -1.900010 -0.000000 -0.900003
v -1.080890 -0.000000 -0.900003
v -1.900010 0.000000 0.899997
v -1.080890 0.000000 0.899997
v -1.900010 0.000000 0.099997
v -1.080890 0.000000 0.099997
v 1.099989 -0.000000 -0.100003
v 1.919111 -0.000000 -0.100003
v 1.099989 -0.000000 -0.900003
v 1.919111 -0.000000 -0.900003
v 1.099989 0.000000 0.899997
v 1.919111 0.000000 0.899997
v 1.099989 0.000000 0.099997
v 1.919111 0.000000 0.099997
vt 0.973118 0.975004
vt 0.973118 0.975004
vt 0.973118 0.975004
vt 0.973118 0.975004
vt 0.973118 0.975004
vt 0.973118 0.975004
vt 0.973118 0.975004
vt 0.973118 0.975004
vt 0.973118 0.975004
vt 0.974827 0.964994
vt 0.974827 0.964994
vt 0.974827 0.964994
vt 0.973118 0.975004
vt 0.973118 0.975004
vt 0.973118 0.975004
vt 0.973118 0.975004
vt 0.973118 0.975004
vt 0.973118 0.975004
vt 0.973118 0.975004
vt 0.973118 0.975004
vt 0.973118 0.975004
vt 0.973118 0.975004
vt 0.973118 0.975004
vt 0.973118 0.975004
vt 0.974827 0.964994
vt 0.974827 0.964994
vt 0.974827 0.964994
vt 0.974827 0.964994
vt 0.974827 0.964994
vt 0.974827 0.964994
vt 0.974827 0.964994
vt 0.974827 0.964994
vt 0.974827 0.964994
vt 0.973118 0.975004
vt 0.973118 0.975004
vt 0.973118 0.975004
vt 0.973118 0.975004
vt 0.973118 0.975004
vt 0.973118 0.975004
vt 0.974827 0.964994
vt 0.974827 0.964994
vt 0.974827 0.964994
vt 0.974827 0.964994
vt 0.974827 0.964994
vt 0.974827 0.964994
vt 0.973118 0.975004
vt 0.974827 0.964994
vt 0.973118 0.975004
vt 0.973118 0.975004
vt 0.973118 0.975004
vt 0.973118 0.975004
vt 0.973118 0.975004
vt 0.973118 0.975004
vt 0.973118 0.975004
vt 0.973118 0.975004
vt 0.973118 0.975004
vt 0.973118 0.975004
vt 0.973118 0.975004
vt 0.973118 0.975004
vt 0.973118 0.975004
vt 0.973118 0.975004
vt 0.973118 0.975004
vt 0.973118 0.975004
vt 0.973118 0.975004
vt 0.973118 0.975004
vt 0.973118 0.975004
vt 0.973118 0.975004
vt 0.973118 0.975004
vt 0.973118 0.975004
vt 0.973118 0.975004
vt 0.973118 0.975004
vt 0.973118 0.975004
vt 0.973118 0.975004
vt 0.973118 0.975004
vt 0.973118 0.975004
vt 0.973118 0.975004
vt 0.973118 0.975004
vt 0.973118 0.975004
vt 0.973118 0.975004
vt 0.973118 0.975004
vt 0.973118 0.975004
vt 0.973118 0.975004
vt 0.973118 0.975004
vt 0.974827 0.964994
vt 0.973118 0.975004
vt 0.973118 0.975004
vt 0.974827 0.964994
vt 0.973118 0.975004
vt 0.974827 0.964994
vt 0.974827 0.964994
vt 0.973118 0.975004
vt 0.974827 0.964994
vt 0.973118 0.975004
vt 0.974827 0.964994
vt 0.973118 0.975004
vt 0.973118 0.975004
vt 0.974827 0.964994
vt 0.973118 0.975004
vt 0.974827 0.964994
vt 0.974827 0.964994
vt 0.974827 0.964994
vt 0.974827 0.964994
vt 0.974827 0.964994
vt 0.974827 0.964994
vn 0.0000 1.0000 -0.0000
vn 1.0000 0.0000 0.0000
vn 0.0000 0.0000 1.0000
vn 0.0000 0.0000 -1.0000
vn -1.0000 0.0000 0.0000
s 1
f 2/1/1 3/2/1 1/3/1
f 6/4/1 7/5/1 5/6/1
f 10/7/1 11/8/1 9/9/1
f 14/10/1 15/11/1 13/12/1
f 18/13/1 19/14/1 17/15/1
f 22/16/1 23/17/1 21/18/1
f 26/19/1 27/20/1 25/21/1
f 30/22/1 31/23/1 29/24/1
f 34/25/1 35/26/1 33/27/1
f 38/28/1 39/29/1 37/30/1
f 42/31/1 43/32/1 41/33/1
f 46/34/1 47/35/1 45/36/1
f 50/37/1 51/38/1 49/39/1
f 66/40/2 16/41/2 14/10/2
f 93/42/3 42/31/3 41/33/3
f 68/43/4 15/11/4 16/41/4
f 94/44/2 44/45/2 42/31/2
f 71/46/5 17/15/5 19/14/5
f 96/47/4 43/32/4 44/45/4
f 69/48/3 18/13/3 17/15/3
f 99/49/5 45/36/5 47/35/5
f 70/50/2 20/51/2 18/13/2
f 97/52/3 46/34/3 45/36/3
f 72/53/4 19/14/4 20/51/4
f 98/54/2 48/55/2 46/34/2
f 75/56/5 21/18/5 23/17/5
f 100/57/4 47/35/4 48/55/4
f 73/58/3 22/16/3 21/18/3
f 103/59/5 49/39/5 51/38/5
f 74/60/2 24/61/2 22/16/2
f 101/62/3 50/37/3 49/39/3
f 76/63/4 23/17/4 24/61/4
f 102/64/2 52/65/2 50/37/2
f 79/66/5 25/21/5 27/20/5
f 104/67/4 51/38/4 52/65/4
f 77/68/3 26/19/3 25/21/3
f 78/69/2 28/70/2 26/19/2
f 55/71/5 1/3/5 3/2/5
f 80/72/4 27/20/4 28/70/4
f 53/73/3 2/1/3 1/3/3
f 83/74/5 29/24/5 31/23/5
f 54/75/2 4/76/2 2/1/2
f 81/77/3 30/22/3 29/24/3
f 56/78/4 3/2/4 4/76/4
f 82/79/2 32/80/2 30/22/2
f 59/81/5 5/6/5 7/5/5
f 84/82/4 31/23/4 32/80/4
f 57/83/3 6/4/3 5/6/3
f 87/84/5 33/27/5 35/26/5
f 58/85/2 8/86/2 6/4/2
f 85/87/3 34/25/3 33/27/3
f 60/88/4 7/5/4 8/86/4
f 86/89/2 36/90/2 34/25/2
f 63/91/5 9/9/5 11/8/5
f 88/92/4 35/26/4 36/90/4
f 61/93/3 10/7/3 9/9/3
f 91/94/5 37/30/5 39/29/5
f 62/95/2 12/96/2 10/7/2
f 89/97/3 38/28/3 37/30/3
f 64/98/4 11/8/4 12/96/4
f 90/99/2 40/100/2 38/28/2
f 67/101/5 13/12/5 15/11/5
f 92/102/4 39/29/4 40/100/4
f 65/103/3 14/10/3 13/12/3
f 95/104/5 41/33/5 43/32/5
f 2/1/1 4/76/1 3/2/1
f 6/4/1 8/86/1 7/5/1
f 10/7/1 12/96/1 11/8/1
f 14/10/1 16/41/1 15/11/1
f 18/13/1 20/51/1 19/14/1
f 22/16/1 24/61/1 23/17/1
f 26/19/1 28/70/1 27/20/1
f 30/22/1 32/80/1 31/23/1
f 34/25/1 36/90/1 35/26/1
f 38/28/1 40/100/1 39/29/1
f 42/31/1 44/45/1 43/32/1
f 46/34/1 48/55/1 47/35/1
f 50/37/1 52/65/1 51/38/1
f 66/40/2 68/43/2 16/41/2
f 93/42/3 94/44/3 42/31/3
f 68/43/4 67/101/4 15/11/4
f 94/44/2 96/47/2 44/45/2
f 71/46/5 69/48/5 17/15/5
f 96/47/4 95/104/4 43/32/4
f 69/48/3 70/50/3 18/13/3
f 99/49/5 97/52/5 45/36/5
f 70/50/2 72/53/2 20/51/2
f 97/52/3 98/54/3 46/34/3
f 72/53/4 71/46/4 19/14/4
f 98/54/2 100/57/2 48/55/2
f 75/56/5 73/58/5 21/18/5
f 100/57/4 99/49/4 47/35/4
f 73/58/3 74/60/3 22/16/3
f 103/59/5 101/62/5 49/39/5
f 74/60/2 76/63/2 24/61/2
f 101/62/3 102/64/3 50/37/3
f 76/63/4 75/56/4 23/17/4
f 102/64/2 104/67/2 52/65/2
f 79/66/5 77/68/5 25/21/5
f 104/67/4 103/59/4 51/38/4
f 77/68/3 78/69/3 26/19/3
f 78/69/2 80/72/2 28/70/2
f 55/71/5 53/73/5 1/3/5
f 80/72/4 79/66/4 27/20/4
f 53/73/3 54/75/3 2/1/3
f 83/74/5 81/77/5 29/24/5
f 54/75/2 56/78/2 4/76/2
f 81/77/3 82/79/3 30/22/3
f 56/78/4 55/71/4 3/2/4
f 82/79/2 84/82/2 32/80/2
f 59/81/5 57/83/5 5/6/5
f 84/82/4 83/74/4 31/23/4
f 57/83/3 58/85/3 6/4/3
f 87/84/5 85/87/5 33/27/5
f 58/85/2 60/88/2 8/86/2
f 85/87/3 86/89/3 34/25/3
f 60/88/4 59/81/4 7/5/4
f 86/89/2 88/92/2 36/90/2
f 63/91/5 61/93/5 9/9/5
f 88/92/4 87/84/4 35/26/4
f 61/93/3 62/95/3 10/7/3
f 91/94/5 89/97/5 37/30/5
f 62/95/2 64/98/2 12/96/2
f 89/97/3 90/99/3 38/28/3
f 64/98/4 63/91/4 11/8/4
f 90/99/2 92/102/2 40/100/2
f 67/101/5 65/103/5 13/12/5
f 92/102/4 91/94/4 39/29/4
f 65/103/3 66/40/3 14/10/3
f 95/104/5 93/42/5 41/33/5
