# Blender v2.81 (sub 16) OBJ File: 'models.blend'
# www.blender.org
o D_Tile_01_Cylinder.304
v -0.800000 0.000000 0.999998
v -0.800000 -0.000000 -1.000000
v 0.800000 0.000000 0.999998
v 0.800000 -0.000000 -1.000000
v -1.000000 -0.000000 -0.800001
v 1.000000 -0.000000 -0.800001
v -1.000000 0.000000 0.799999
v 1.000000 0.000000 0.799999
v 0.720000 0.050000 -0.900000
v -0.720000 0.050000 -0.900000
v -0.720000 0.050000 0.899998
v 0.720000 0.050000 0.899998
v -0.900000 0.050000 -0.720001
v -0.900000 0.050000 0.719999
v 0.900000 0.050000 0.719999
v 0.900000 0.050000 -0.720001
vt 0.973118 0.975004
vt 0.973118 0.975004
vt 0.973118 0.975004
vt 0.973118 0.975004
vt 0.973118 0.975004
vt 0.973118 0.975004
vt 0.973118 0.975004
vt 0.973118 0.975004
vt 0.973118 0.975004
vt 0.973118 0.975004
vt 0.973118 0.975004
vt 0.973118 0.975004
vt 0.973118 0.975004
vt 0.973118 0.975004
vt 0.973118 0.975004
vt 0.973118 0.975004
vn 0.0000 1.0000 -0.0000
vn 0.0000 0.8944 -0.4472
vn 0.2585 0.9308 0.2585
vn -0.4472 0.8944 -0.0000
vn -0.2585 0.9308 0.2585
vn 0.0000 0.8944 0.4472
vn 0.2585 0.9308 -0.2585
vn 0.4472 0.8944 -0.0000
vn -0.2585 0.9308 -0.2585
s 1
f 16/1/1 10/2/1 13/3/1
f 15/4/1 13/3/1 14/5/1
f 12/6/1 14/5/1 11/7/1
f 2/8/2 9/9/2 4/10/2
f 3/11/3 15/4/3 12/6/3
f 7/12/4 13/3/4 5/13/4
f 1/14/5 14/5/5 7/12/5
f 3/11/6 11/7/6 1/14/6
f 4/10/7 16/1/7 6/15/7
f 6/15/8 15/4/8 8/16/8
f 2/8/9 13/3/9 10/2/9
f 16/1/1 9/9/1 10/2/1
f 15/4/1 16/1/1 13/3/1
f 12/6/1 15/4/1 14/5/1
f 2/8/2 10/2/2 9/9/2
f 3/11/3 8/16/3 15/4/3
f 7/12/4 14/5/4 13/3/4
f 1/14/5 11/7/5 14/5/5
f 3/11/6 12/6/6 11/7/6
f 4/10/7 9/9/7 16/1/7
f 6/15/8 16/1/8 15/4/8
f 2/8/9 5/13/9 13/3/9
