# Blender v2.81 (sub 16) OBJ File: 'models.blend'
# www.blender.org
o D_Tile_03_Cylinder.277
v -0.800000 0.000000 1.000000
v -0.800000 -0.000000 -0.999996
v 0.501080 0.000000 0.900002
v 0.800001 -0.000000 -0.999996
v -1.000000 -0.000000 -0.799997
v 1.000001 -0.000000 -0.799997
v -1.000000 0.000000 0.800001
v 0.440609 0.000000 0.720003
v 0.720000 0.050000 -0.899998
v -0.719999 0.050000 -0.899998
v -0.719999 0.050000 0.900002
v 0.721036 0.000000 0.720003
v -0.899999 0.050000 -0.719999
v -0.899999 0.050000 0.720003
v 0.900000 0.000000 0.363760
v 0.900000 0.050000 -0.719999
v -0.899999 0.050000 -0.220926
v -0.899999 0.050000 0.042337
v -1.000000 -0.000000 -0.280928
v -1.000000 0.000000 0.014681
v -0.585242 0.050000 0.150928
v -0.807941 0.050000 -0.037882
v -0.836990 0.050000 -0.183125
v -0.899999 -0.000000 -0.220926
v -0.899999 0.000000 0.042337
v -0.585242 0.000000 0.150928
v -0.807941 0.000000 -0.037882
v -0.836990 -0.000000 -0.183125
v 1.000001 -0.000000 -0.247808
v 1.000001 -0.000000 -0.426291
v 0.900000 0.050000 -0.216772
v 0.900000 0.050000 -0.370970
v 0.803719 0.050000 -0.317709
v 0.513237 0.050000 -0.451328
v 0.216950 0.050000 -0.352564
v 0.501622 0.050000 -0.364183
v 0.757241 0.050000 -0.172470
v 0.900000 -0.000000 -0.216772
v 0.900000 -0.000000 -0.370970
v 0.803719 -0.000000 -0.317709
v 0.513237 -0.000000 -0.451328
v 0.216950 -0.000000 -0.352564
v 0.501622 -0.000000 -0.364183
v 0.757241 -0.000000 -0.172470
v 0.534672 0.000000 1.000000
v 1.000001 0.000000 0.327681
v 0.900000 0.050000 0.363760
v 0.721036 0.050000 0.720003
v 0.440609 0.050000 0.720003
v 0.501080 0.050000 0.900002
v 0.725549 0.050000 0.426706
v 0.719849 0.050000 0.797134
v 0.725549 0.000000 0.426706
v 0.719849 0.000000 0.797134
vt 0.973118 0.975004
vt 0.973118 0.975004
vt 0.973118 0.975004
vt 0.973118 0.975004
vt 0.973118 0.975004
vt 0.973118 0.975004
vt 0.973118 0.975004
vt 0.973118 0.975004
vt 0.973118 0.975004
vt 0.973118 0.975004
vt 0.973118 0.975004
vt 0.973118 0.975004
vt 0.973118 0.975004
vt 0.973118 0.975004
vt 0.973118 0.975004
vt 0.973118 0.975004
vt 0.973118 0.975004
vt 0.973118 0.975004
vt 0.973118 0.975004
vt 0.973118 0.975004
vt 0.973118 0.975004
vt 0.973118 0.975004
vt 0.973118 0.975004
vt 0.973118 0.975004
vt 0.973118 0.975004
vt 0.973118 0.975004
vt 0.973118 0.975004
vt 0.973118 0.975004
vt 0.973118 0.975004
vt 0.973118 0.975004
vt 0.973118 0.975004
vt 0.973118 0.975004
vt 0.973118 0.975004
vt 0.973118 0.975004
vt 0.973118 0.975004
vt 0.973118 0.975004
vt 0.973118 0.975004
vt 0.973118 0.975004
vt 0.973118 0.975004
vt 0.973118 0.975004
vt 0.973118 0.975004
vt 0.973118 0.975004
vt 0.973118 0.975004
vt 0.973118 0.975004
vt 0.973118 0.975004
vt 0.973118 0.975004
vt 0.973118 0.975004
vt 0.973118 0.975004
vt 0.973118 0.975004
vt 0.973118 0.975004
vt 0.973118 0.975004
vt 0.973118 0.975004
vt 0.973118 0.975004
vt 0.973118 0.975004
vn -0.0000 1.0000 -0.0000
vn 0.0000 0.8944 -0.4472
vn 0.3394 0.0000 0.9406
vn -0.4472 0.8944 -0.0000
vn -0.2585 0.9308 0.2585
vn 0.0000 0.8944 0.4472
vn 0.2585 0.9308 -0.2585
vn -0.2662 0.0000 0.9639
vn -0.2585 0.9308 -0.2585
vn -0.5145 -0.0000 0.8575
vn 0.3261 -0.0000 -0.9453
vn -0.9806 0.0000 0.1961
vn -0.6467 -0.0000 0.7628
vn 0.2666 0.0000 -0.9638
vn -0.4179 0.0000 0.9085
vn -0.0408 0.0000 -0.9992
vn 0.4472 0.8944 -0.0000
vn -0.2964 -0.0000 -0.9551
vn 0.6000 -0.0000 -0.8000
vn 0.3162 0.0000 0.9487
vn 0.4841 0.0000 0.8750
vn 0.9479 0.0000 -0.3185
vn 0.9479 0.0000 -0.3184
vn 0.9999 0.0000 0.0154
s 1
f 16/1/1 10/2/1 13/3/1
f 35/4/1 34/5/1 13/3/1
f 11/6/1 49/7/1 14/8/1
f 2/9/2 9/10/2 4/11/2
f 51/12/3 15/13/3 47/14/3
f 19/15/4 13/3/4 5/16/4
f 1/17/5 14/8/5 7/18/5
f 45/19/6 11/6/6 1/17/6
f 4/11/7 16/1/7 6/20/7
f 49/7/8 54/21/8 52/22/8
f 2/9/9 13/3/9 10/2/9
f 17/23/10 28/24/10 23/25/10
f 21/26/11 25/27/11 18/28/11
f 23/25/12 27/29/12 22/30/12
f 20/31/4 14/8/4 18/28/4
f 22/30/13 26/32/13 21/26/13
f 19/15/10 24/33/10 17/23/10
f 18/28/14 25/27/14 20/31/14
f 34/5/15 40/34/15 33/35/15
f 36/36/16 42/37/16 35/4/16
f 30/38/17 16/1/17 32/39/17
f 31/40/18 44/41/18 37/42/18
f 37/42/19 43/43/19 36/36/19
f 35/4/20 41/44/20 34/5/20
f 33/35/21 39/45/21 32/39/21
f 32/39/21 39/45/21 30/38/21
f 29/46/18 38/47/18 31/40/18
f 50/48/22 45/19/23 3/49/22
f 48/50/24 53/51/24 51/12/24
f 49/7/1 52/22/1 48/50/1
f 50/48/22 8/52/22 49/7/22
f 46/53/17 31/40/17 47/14/17
f 52/22/24 12/54/24 48/50/24
f 47/14/3 15/13/3 46/53/3
f 16/1/1 9/10/1 10/2/1
f 18/28/1 14/8/1 21/26/1
f 14/8/1 49/7/1 21/26/1
f 49/7/1 48/50/1 51/12/1
f 51/12/1 47/14/1 37/42/1
f 47/14/1 31/40/1 37/42/1
f 37/42/1 36/36/1 35/4/1
f 23/25/1 22/30/1 21/26/1
f 13/3/1 17/23/1 23/25/1
f 33/35/1 32/39/1 16/1/1
f 34/5/1 33/35/1 16/1/1
f 16/1/1 13/3/1 34/5/1
f 13/3/1 23/25/1 35/4/1
f 23/25/1 21/26/1 35/4/1
f 21/26/1 49/7/1 35/4/1
f 49/7/1 51/12/1 35/4/1
f 51/12/1 37/42/1 35/4/1
f 11/6/1 50/48/1 49/7/1
f 2/9/2 10/2/2 9/10/2
f 51/12/3 53/51/3 15/13/3
f 19/15/4 17/23/4 13/3/4
f 1/17/5 11/6/5 14/8/5
f 45/19/6 50/48/6 11/6/6
f 4/11/7 9/10/7 16/1/7
f 49/7/8 8/52/8 54/21/8
f 2/9/9 5/16/9 13/3/9
f 17/23/10 24/33/10 28/24/10
f 21/26/11 26/32/11 25/27/11
f 23/25/12 28/24/12 27/29/12
f 20/31/4 7/18/4 14/8/4
f 22/30/13 27/29/13 26/32/13
f 34/5/15 41/44/15 40/34/15
f 36/36/16 43/43/16 42/37/16
f 30/38/17 6/20/17 16/1/17
f 31/40/18 38/47/18 44/41/18
f 37/42/19 44/41/19 43/43/19
f 35/4/20 42/37/20 41/44/20
f 33/35/21 40/34/21 39/45/21
f 48/50/24 12/54/24 53/51/24
f 50/48/22 3/49/22 8/52/22
f 46/53/17 29/46/17 31/40/17
f 52/22/24 54/21/24 12/54/24
