# Blender v2.81 (sub 16) OBJ File: 'models.blend'
# www.blender.org
o D_Trapdoor_Cylinder.055
v -0.812944 0.002952 0.277035
v -0.812944 0.118055 0.277035
v -0.812944 0.002952 -0.277035
v -0.812944 0.118055 -0.277035
v 0.798490 -0.006613 0.277035
v 0.798490 0.108490 0.277035
v 0.798490 -0.006613 -0.277035
v 0.798490 0.108490 -0.277035
v -0.812944 0.002952 -0.306742
v -0.812944 0.118055 -0.306742
v -0.812944 0.002952 -0.805718
v -0.812944 0.118055 -0.805718
v 0.798490 -0.006613 -0.306742
v 0.798490 0.108490 -0.306742
v 0.798490 -0.006613 -0.805718
v 0.798490 0.108490 -0.805718
v -0.812944 0.002953 0.805716
v -0.812944 0.118055 0.805716
v -0.812944 0.002952 0.313572
v -0.812944 0.118055 0.313572
v 0.798490 -0.006612 0.805716
v 0.798490 0.108490 0.805716
v 0.798490 -0.006612 0.313572
v 0.798490 0.108490 0.313572
v 0.269279 0.001039 -0.813652
v -0.307534 -0.006613 -0.813652
v -0.307534 0.108490 -0.813652
v 0.269279 0.116142 -0.813652
v -0.307534 -0.006613 -0.314676
v 0.269279 0.001039 -0.314676
v 0.269279 0.116142 -0.314677
v -0.307534 0.108490 -0.314677
v 0.403565 -0.000874 -0.273068
v 0.012607 -0.010439 -0.265135
v -0.485454 0.001039 -0.273068
v -0.485454 0.116142 -0.273068
v 0.012607 0.104664 -0.265135
v 0.403565 0.114229 -0.273068
v -0.485454 0.001039 0.281002
v 0.012607 -0.010439 0.288935
v 0.403565 -0.000874 0.281002
v 0.403565 0.114229 0.281002
v 0.012607 0.104664 0.288935
v -0.485454 0.116142 0.281002
v 0.380349 -0.000874 0.309605
v -0.355135 0.007544 0.309605
v -0.355135 0.122646 0.309605
v 0.380349 0.114229 0.309605
v -0.355135 0.007544 0.801749
v 0.380349 -0.000873 0.801749
v 0.380349 0.114229 0.801749
v -0.355135 0.122646 0.801749
v -0.676663 0.152689 0.278087
v -0.676663 0.262267 0.243556
v -0.676663 0.152689 0.228363
v -0.676663 0.262267 0.193832
v -0.626938 0.152689 0.278087
v -0.626938 0.262267 0.243556
v -0.626938 0.152689 0.228363
v -0.626938 0.262267 0.193832
v -0.676663 0.293590 0.230103
v -0.676663 0.310610 0.193832
v -0.626938 0.293590 0.230103
v -0.626938 0.310610 0.193832
v -0.676663 0.262267 -0.199819
v -0.626938 0.262267 -0.199819
v -0.676663 0.310610 -0.199819
v -0.626938 0.310610 -0.199819
v -0.676663 0.262267 -0.248162
v -0.626938 0.262267 -0.248162
v -0.676663 0.292111 -0.231074
v -0.626938 0.292111 -0.231074
v -0.676663 0.154070 -0.234349
v -0.626938 0.154070 -0.234349
v -0.676663 0.154070 -0.282692
v -0.626938 0.154070 -0.282692
v -0.766903 0.108490 0.345306
v -0.766903 0.154531 0.345306
v -0.766903 0.108490 -0.345308
v -0.766903 0.154531 -0.345308
v -0.536698 0.108490 0.345306
v -0.536698 0.154531 0.345306
v -0.536698 0.108490 -0.345308
v -0.536698 0.154531 -0.345308
v 0.886691 0.173670 -0.792781
v 0.886691 0.173670 -0.358246
v 0.756330 0.173670 -0.792781
v 0.756330 0.043310 -0.792781
v 0.756330 0.173670 -0.358246
v 0.756330 0.043310 -0.358246
v 0.372611 -0.041143 0.753377
v 0.372611 0.045169 0.753377
v 0.372611 -0.041143 -0.786435
v 0.372611 0.045169 -0.786435
v 0.533755 -0.041143 0.753377
v 0.533755 0.045169 0.753377
v 0.533755 -0.041143 -0.786435
v 0.533755 0.045169 -0.786435
v -0.548208 -0.041143 0.753377
v -0.548208 0.045169 0.753377
v -0.548208 -0.041143 -0.786435
v -0.548208 0.045169 -0.786435
v -0.387065 -0.041143 0.753377
v -0.387065 0.045169 0.753377
v -0.387065 -0.041143 -0.786435
v -0.387065 0.045169 -0.786435
v 0.886152 0.173131 0.360040
v 0.886152 0.173132 0.790984
v 0.756869 0.173131 0.360040
v 0.756869 0.043848 0.360040
v 0.756869 0.173132 0.790984
v 0.756869 0.043848 0.790984
v -0.812944 0.002952 -0.558037
v -0.812944 0.002952 -0.475370
v -0.812944 0.118055 -0.473479
v -0.812944 0.118055 -0.555217
v -0.671805 0.116112 -0.508877
v -0.675499 0.001193 -0.512548
v 0.886691 0.047057 -0.792781
v 0.886691 0.047057 -0.358246
v 0.886152 0.046519 0.360040
v 0.886152 0.046519 0.790984
vt 0.962493 0.979421
vt 0.962493 0.979421
vt 0.962493 0.979421
vt 0.962493 0.979421
vt 0.962493 0.979421
vt 0.962493 0.979421
vt 0.962493 0.979421
vt 0.962493 0.979421
vt 0.962493 0.979421
vt 0.962493 0.979421
vt 0.962493 0.979421
vt 0.962493 0.979421
vt 0.962493 0.979421
vt 0.962493 0.979421
vt 0.962493 0.979421
vt 0.962493 0.979421
vt 0.962493 0.979421
vt 0.962493 0.979421
vt 0.962493 0.979421
vt 0.962493 0.979421
vt 0.962493 0.979421
vt 0.962493 0.979421
vt 0.962493 0.979421
vt 0.962493 0.979421
vt 0.962493 0.979421
vt 0.962493 0.979421
vt 0.962493 0.979421
vt 0.962493 0.979421
vt 0.962493 0.979421
vt 0.962493 0.979421
vt 0.962493 0.979421
vt 0.962493 0.979421
vt 0.962493 0.979421
vt 0.962493 0.979421
vt 0.962493 0.979421
vt 0.962493 0.979421
vt 0.962493 0.979421
vt 0.962493 0.979421
vt 0.962493 0.979421
vt 0.962493 0.979421
vt 0.962493 0.979421
vt 0.962493 0.979421
vt 0.962493 0.979421
vt 0.962493 0.979421
vt 0.962493 0.979421
vt 0.962493 0.979421
vt 0.962493 0.979421
vt 0.962493 0.979421
vt 0.962493 0.979421
vt 0.962493 0.979421
vt 0.962493 0.979421
vt 0.962493 0.979421
vt 0.962493 0.979421
vt 0.962493 0.979421
vt 0.869719 0.976980
vt 0.869719 0.976980
vt 0.869719 0.976980
vt 0.869719 0.976980
vt 0.869719 0.976980
vt 0.869719 0.976980
vt 0.869719 0.976980
vt 0.869719 0.976980
vt 0.869719 0.976980
vt 0.869719 0.976980
vt 0.869719 0.976980
vt 0.869719 0.976980
vt 0.869719 0.976980
vt 0.869719 0.976980
vt 0.869719 0.976980
vt 0.869719 0.976980
vt 0.869719 0.976980
vt 0.869719 0.976980
vt 0.869719 0.976980
vt 0.869719 0.976980
vt 0.869719 0.976980
vt 0.869719 0.976980
vt 0.869719 0.976980
vt 0.869719 0.976980
vt 0.869719 0.976980
vt 0.869719 0.976980
vt 0.869719 0.976980
vt 0.869719 0.976980
vt 0.869719 0.976980
vt 0.869719 0.976980
vt 0.869719 0.976980
vt 0.869719 0.976980
vt 0.869719 0.976980
vt 0.869719 0.976980
vt 0.869719 0.976980
vt 0.869719 0.976980
vt 0.869719 0.976980
vt 0.869719 0.976980
vt 0.962493 0.979421
vt 0.962493 0.979421
vt 0.962493 0.979421
vt 0.962493 0.979421
vt 0.962493 0.979421
vt 0.962493 0.979421
vt 0.962493 0.979421
vt 0.962493 0.979421
vt 0.962493 0.979421
vt 0.962493 0.979421
vt 0.962493 0.979421
vt 0.962493 0.979421
vt 0.962493 0.979421
vt 0.962493 0.979421
vt 0.962493 0.979421
vt 0.962493 0.979421
vt 0.869719 0.976980
vt 0.869719 0.976980
vt 0.869719 0.976980
vt 0.869719 0.976980
vt 0.869719 0.976980
vt 0.869719 0.976980
vt 0.962493 0.979421
vt 0.962493 0.979421
vt 0.962493 0.979421
vt 0.869719 0.976980
vt 0.869719 0.976980
vt 0.869719 0.976980
vt 0.869719 0.976980
vt 0.962493 0.979421
vn -1.0000 -0.0000 0.0000
vn -0.0152 -0.0000 -0.9999
vn -0.0100 -0.0000 -0.9999
vn 1.0000 -0.0000 0.0000
vn -0.0140 0.0000 0.9999
vn -0.0121 0.0000 0.9999
vn -0.0145 -0.9999 0.0000
vn 0.0058 1.0000 -0.0000
vn 0.0150 0.0000 -0.9999
vn 0.0157 0.0000 0.9999
vn 0.0180 0.9998 0.0005
vn 0.0169 0.9999 0.0022
vn 0.0203 0.9998 0.0012
vn 0.0048 -0.0000 -1.0000
vn 0.0095 -0.0000 -1.0000
vn 0.0043 0.0000 1.0000
vn 0.0087 0.0000 1.0000
vn -0.0137 -0.9999 0.0000
vn -0.0126 -0.9999 0.0000
vn -0.0100 0.9999 -0.0000
vn 0.0145 0.9999 -0.0000
vn -0.0133 0.9999 -0.0000
vn -0.0166 -0.9999 -0.0026
vn -0.0128 -0.9999 0.0000
vn -0.0178 -0.9998 -0.0005
vn 0.0133 -0.9999 0.0000
vn -0.0150 0.0000 0.9999
vn 0.0000 0.0000 1.0000
vn -0.0157 0.0000 -0.9999
vn -0.0000 0.0000 -1.0000
vn -0.0245 0.9997 -0.0000
vn 0.0230 0.9997 -0.0000
vn -0.0058 -1.0000 0.0000
vn -0.0230 -0.9997 0.0000
vn 0.0245 -0.9997 0.0000
vn 0.0100 0.0000 0.9999
vn 0.0152 0.0000 0.9999
vn 0.0203 0.0000 0.9998
vn -0.0159 0.0000 0.9999
vn 0.0121 -0.0000 -0.9999
vn 0.0140 -0.0000 -0.9999
vn 0.0159 -0.0000 -0.9999
vn -0.0203 -0.0000 -0.9998
vn 0.0137 0.9999 -0.0000
vn 0.0126 0.9999 -0.0000
vn 0.0114 0.9999 -0.0000
vn 0.0100 -0.9999 0.0000
vn -0.0114 -0.9999 0.0000
vn -0.0095 0.0000 1.0000
vn -0.0048 0.0000 1.0000
vn -0.0047 0.0000 1.0000
vn -0.0087 -0.0000 -1.0000
vn -0.0043 -0.0000 -1.0000
vn 0.0047 -0.0000 -1.0000
vn 0.0000 -0.3006 -0.9538
vn 0.0000 0.3006 0.9538
vn 0.0000 -1.0000 0.0000
vn 0.0000 0.9053 0.4248
vn 0.0000 0.3946 0.9188
vn 0.0000 1.0000 -0.0000
vn 0.0000 0.4969 -0.8678
vn 0.0000 0.8606 -0.5093
vn 0.0000 0.3040 -0.9527
vn 0.0000 -0.3040 0.9527
vn -0.3134 -0.0220 0.9494
vn -0.3131 -0.0215 0.9495
vn -0.3121 -0.0203 0.9498
vn -0.2505 0.0258 -0.9678
vn -0.2529 0.0291 -0.9670
vn -0.2604 0.0392 -0.9647
vn 0.0287 -0.9996 0.0000
vn 0.0207 -0.9998 0.0000
vn -0.0151 -0.0000 -0.9999
vn 0.0200 0.9998 -0.0011
vn 0.0175 0.9998 -0.0018
vn 0.0138 0.9999 -0.0000
vn -0.0172 -0.9998 0.0021
vn -0.0202 -0.9998 0.0012
vn -0.0205 -0.9998 -0.0013
vn 0.0151 0.0000 0.9999
vn -0.3144 -0.0232 0.9490
vn -0.2430 0.0159 -0.9699
s 1
f 2/1/1 3/2/1 1/3/1
f 33/4/2 8/5/3 7/6/3
f 8/5/4 5/7/4 7/6/4
f 44/8/5 1/3/6 39/9/5
f 33/4/7 5/7/7 41/10/7
f 36/11/8 2/1/8 44/8/8
f 9/12/1 115/13/1 114/14/1
f 25/15/9 16/16/9 15/17/9
f 16/16/4 13/18/4 15/17/4
f 32/19/10 9/12/10 29/20/10
f 15/17/7 30/21/7 25/15/7
f 117/22/11 10/23/12 32/19/13
f 18/24/1 19/25/1 17/26/1
f 45/27/14 24/28/15 23/29/15
f 24/28/4 21/30/4 23/29/4
f 49/31/16 18/24/17 17/26/17
f 23/29/18 50/32/19 45/27/19
f 20/33/20 52/34/20 47/35/20
f 16/16/21 31/36/21 14/37/21
f 27/38/22 31/36/22 28/39/22
f 9/12/23 114/14/24 118/40/25
f 25/15/26 29/20/26 26/41/26
f 14/37/27 30/21/27 13/18/27
f 30/21/28 32/19/28 29/20/28
f 11/42/29 27/38/29 26/41/29
f 27/38/30 25/15/30 26/41/30
f 38/43/21 6/44/21 8/5/21
f 37/45/31 42/46/31 38/43/31
f 37/45/32 44/8/32 43/47/32
f 35/48/33 1/3/33 3/2/33
f 34/49/34 39/9/34 35/48/34
f 34/49/35 41/10/35 40/50/35
f 6/44/36 41/10/37 5/7/36
f 41/10/37 43/47/38 40/50/38
f 43/47/39 39/9/5 40/50/39
f 3/2/40 36/11/41 35/48/41
f 35/48/41 37/45/42 34/49/42
f 37/45/43 33/4/2 34/49/43
f 24/28/44 51/51/45 22/52/44
f 47/35/46 51/51/45 48/53/45
f 19/25/47 49/31/47 17/26/47
f 45/27/19 49/31/48 46/54/48
f 22/52/49 50/32/50 21/30/49
f 51/51/51 49/31/16 50/32/50
f 20/33/52 46/54/53 19/25/52
f 46/54/53 48/53/54 45/27/14
f 54/55/1 55/56/1 53/57/1
f 56/58/55 59/59/55 55/56/55
f 59/59/4 58/60/4 57/61/4
f 58/60/56 53/57/56 57/61/56
f 59/59/57 53/57/57 55/56/57
f 56/58/57 66/62/57 60/63/57
f 62/64/58 63/65/58 64/66/58
f 60/63/4 63/65/4 58/60/4
f 56/58/1 61/67/1 62/64/1
f 58/60/59 61/67/59 54/55/59
f 66/62/4 72/68/4 68/69/4
f 62/64/1 65/70/1 56/58/1
f 60/63/4 68/69/4 64/66/4
f 64/66/60 67/71/60 62/64/60
f 69/72/61 72/68/61 70/73/61
f 68/69/62 71/74/62 67/71/62
f 65/70/1 71/74/1 69/72/1
f 70/73/4 74/75/4 76/76/4
f 73/77/57 76/76/57 74/75/57
f 70/73/63 75/78/63 69/72/63
f 69/72/1 73/77/1 65/70/1
f 65/70/64 74/75/64 66/62/64
f 78/79/1 79/80/1 77/81/1
f 80/82/30 83/83/30 79/80/30
f 84/84/4 81/85/4 83/83/4
f 82/86/28 77/81/28 81/85/28
f 80/82/60 82/86/60 84/84/60
f 87/87/1 90/88/1 89/89/1
f 85/90/60 89/89/60 86/91/60
f 89/89/28 90/88/28 86/91/28
f 87/87/30 85/90/30 88/92/30
f 92/93/1 93/94/1 91/95/1
f 94/96/30 97/97/30 93/94/30
f 98/98/4 95/99/4 97/97/4
f 96/100/28 91/95/28 95/99/28
f 94/96/60 96/100/60 98/98/60
f 100/101/1 101/102/1 99/103/1
f 102/104/30 105/105/30 101/102/30
f 106/106/4 103/107/4 105/105/4
f 104/108/28 99/103/28 103/107/28
f 102/104/60 104/108/60 106/106/60
f 105/105/57 99/103/57 101/102/57
f 97/97/57 91/95/57 93/94/57
f 109/109/1 112/110/1 111/111/1
f 107/112/60 111/111/60 108/113/60
f 111/111/28 112/110/28 108/113/28
f 109/109/30 107/112/30 110/114/30
f 113/115/1 12/116/1 11/42/1
f 116/117/65 118/40/66 117/22/67
f 114/14/68 117/22/69 118/40/70
f 119/118/71 90/88/71 88/92/71
f 86/91/28 90/88/28 120/119/28
f 122/120/4 107/112/4 108/113/4
f 120/119/4 85/90/4 86/91/4
f 121/121/72 112/110/72 110/114/72
f 108/113/28 112/110/28 122/120/28
f 110/114/30 107/112/30 121/121/30
f 85/90/30 119/118/30 88/92/30
f 2/1/1 4/122/1 3/2/1
f 33/4/2 38/43/73 8/5/3
f 8/5/4 6/44/4 5/7/4
f 44/8/5 2/1/6 1/3/6
f 33/4/7 7/6/7 5/7/7
f 36/11/8 4/122/8 2/1/8
f 9/12/1 10/23/1 115/13/1
f 25/15/9 28/39/9 16/16/9
f 16/16/4 14/37/4 13/18/4
f 32/19/10 10/23/10 9/12/10
f 15/17/7 13/18/7 30/21/7
f 32/19/13 27/38/74 117/22/11
f 27/38/74 12/116/75 117/22/11
f 12/116/75 116/117/76 117/22/11
f 117/22/11 115/13/76 10/23/12
f 18/24/1 20/33/1 19/25/1
f 45/27/14 48/53/54 24/28/15
f 24/28/4 22/52/4 21/30/4
f 49/31/16 52/34/16 18/24/17
f 23/29/18 21/30/18 50/32/19
f 20/33/20 18/24/20 52/34/20
f 16/16/21 28/39/21 31/36/21
f 27/38/22 32/19/22 31/36/22
f 113/115/24 11/42/77 118/40/25
f 11/42/77 26/41/78 118/40/25
f 26/41/78 29/20/79 118/40/25
f 29/20/79 9/12/23 118/40/25
f 25/15/26 30/21/26 29/20/26
f 14/37/27 31/36/27 30/21/27
f 30/21/28 31/36/28 32/19/28
f 11/42/29 12/116/29 27/38/29
f 27/38/30 28/39/30 25/15/30
f 38/43/21 42/46/21 6/44/21
f 37/45/31 43/47/31 42/46/31
f 37/45/32 36/11/32 44/8/32
f 35/48/33 39/9/33 1/3/33
f 34/49/34 40/50/34 39/9/34
f 34/49/35 33/4/35 41/10/35
f 6/44/36 42/46/80 41/10/37
f 41/10/37 42/46/80 43/47/38
f 43/47/39 44/8/5 39/9/5
f 3/2/40 4/122/40 36/11/41
f 35/48/41 36/11/41 37/45/42
f 37/45/43 38/43/73 33/4/2
f 24/28/44 48/53/45 51/51/45
f 47/35/46 52/34/46 51/51/45
f 19/25/47 46/54/47 49/31/47
f 45/27/19 50/32/19 49/31/48
f 22/52/49 51/51/51 50/32/50
f 51/51/51 52/34/16 49/31/16
f 20/33/52 47/35/53 46/54/53
f 46/54/53 47/35/53 48/53/54
f 54/55/1 56/58/1 55/56/1
f 56/58/55 60/63/55 59/59/55
f 59/59/4 60/63/4 58/60/4
f 58/60/56 54/55/56 53/57/56
f 59/59/57 57/61/57 53/57/57
f 56/58/57 65/70/57 66/62/57
f 62/64/58 61/67/58 63/65/58
f 60/63/4 64/66/4 63/65/4
f 56/58/1 54/55/1 61/67/1
f 58/60/59 63/65/59 61/67/59
f 66/62/4 70/73/4 72/68/4
f 62/64/1 67/71/1 65/70/1
f 60/63/4 66/62/4 68/69/4
f 64/66/60 68/69/60 67/71/60
f 69/72/61 71/74/61 72/68/61
f 68/69/62 72/68/62 71/74/62
f 65/70/1 67/71/1 71/74/1
f 70/73/4 66/62/4 74/75/4
f 73/77/57 75/78/57 76/76/57
f 70/73/63 76/76/63 75/78/63
f 69/72/1 75/78/1 73/77/1
f 65/70/64 73/77/64 74/75/64
f 78/79/1 80/82/1 79/80/1
f 80/82/30 84/84/30 83/83/30
f 84/84/4 82/86/4 81/85/4
f 82/86/28 78/79/28 77/81/28
f 80/82/60 78/79/60 82/86/60
f 87/87/1 88/92/1 90/88/1
f 85/90/60 87/87/60 89/89/60
f 92/93/1 94/96/1 93/94/1
f 94/96/30 98/98/30 97/97/30
f 98/98/4 96/100/4 95/99/4
f 96/100/28 92/93/28 91/95/28
f 94/96/60 92/93/60 96/100/60
f 100/101/1 102/104/1 101/102/1
f 102/104/30 106/106/30 105/105/30
f 106/106/4 104/108/4 103/107/4
f 104/108/28 100/101/28 99/103/28
f 102/104/60 100/101/60 104/108/60
f 105/105/57 103/107/57 99/103/57
f 97/97/57 95/99/57 91/95/57
f 109/109/1 110/114/1 112/110/1
f 107/112/60 109/109/60 111/111/60
f 113/115/1 116/117/1 12/116/1
f 116/117/65 113/115/81 118/40/66
f 114/14/68 115/13/82 117/22/69
f 119/118/71 120/119/71 90/88/71
f 122/120/4 121/121/4 107/112/4
f 120/119/4 119/118/4 85/90/4
f 121/121/72 122/120/72 112/110/72
