# Blender v2.81 (sub 16) OBJ File: 'models.blend'
# www.blender.org
o D_Wall_Deco_01_Cylinder.392
v -1.000000 0.000000 0.100001
v 1.000000 0.000000 0.100001
v -1.000000 0.600000 0.100001
v 1.000000 0.600000 0.100001
v -1.000000 0.600000 0.200001
v 1.000000 0.600000 0.200001
v -1.000000 0.700000 0.200001
v 1.000000 0.700000 0.200001
v -1.000000 1.000000 0.000001
v 1.000000 1.000000 0.000001
vt 0.026165 0.347067
vt 0.026165 0.510762
vt 0.026165 0.347067
vt 0.026165 0.510762
vt 0.026165 0.510762
vt 0.026165 0.510762
vt 0.026165 0.538045
vt 0.026165 0.538045
vt 0.026165 0.619892
vt 0.026165 0.619892
vn 0.0000 0.0000 1.0000
vn 0.0000 -1.0000 0.0000
vn 0.0000 0.5547 0.8321
s 1
f 2/1/1 3/2/1 1/3/1
f 4/4/2 5/5/2 3/2/2
f 6/6/1 7/7/1 5/5/1
f 8/8/3 9/9/3 7/7/3
f 2/1/1 4/4/1 3/2/1
f 4/4/2 6/6/2 5/5/2
f 6/6/1 8/8/1 7/7/1
f 8/8/3 10/10/3 9/9/3
