# Blender v2.81 (sub 16) OBJ File: 'models.blend'
# www.blender.org
o D_Wall_Deco_08_Cylinder.307
v -0.494727 1.783491 0.100002
v -0.494727 2.083491 0.100002
v -0.494727 1.783491 0.000002
v -0.494727 2.083491 0.000002
v 0.105272 1.783491 0.100002
v 0.105272 2.083491 0.100002
v 0.105272 1.783491 0.000002
v 0.105272 2.083491 0.000002
v -0.183579 2.112142 0.100002
v -0.183579 2.412142 0.100002
v -0.183579 2.112142 0.000002
v -0.183579 2.412142 0.000002
v 0.416421 2.112142 0.100002
v 0.416421 2.412142 0.100002
v 0.416421 2.112142 0.000002
v 0.416421 2.412142 0.000002
v 0.300576 1.783491 0.100002
v 0.300576 2.083491 0.100002
v 0.300576 1.783491 0.000002
v 0.300576 2.083491 0.000002
v 0.900576 1.783491 0.100002
v 0.900576 2.083491 0.100002
v 0.900576 1.783491 0.000002
v 0.900576 2.083491 0.000002
v -0.955216 0.535179 0.100002
v -0.955216 0.835179 0.100002
v -0.955216 0.535179 0.000002
v -0.955216 0.835179 0.000002
v -0.355215 0.535179 0.100002
v -0.355215 0.835179 0.100002
v -0.355215 0.535179 0.000002
v -0.355215 0.835179 0.000002
v -0.871996 3.508936 0.100002
v -0.871996 3.808936 0.100002
v -0.871996 3.508936 0.000002
v -0.871996 3.808936 0.000002
v -0.271996 3.508936 0.100002
v -0.271996 3.808936 0.100002
v -0.271996 3.508936 0.000002
v -0.271996 3.808936 0.000002
v -0.417054 3.137217 0.100002
v -0.417054 3.437217 0.100002
v -0.417054 3.137217 0.000002
v -0.417054 3.437217 0.000002
v 0.182945 3.137217 0.100002
v 0.182945 3.437217 0.100002
v 0.182945 3.137217 0.000002
v 0.182945 3.437217 0.000002
vt 0.976062 0.976618
vt 0.976062 0.976618
vt 0.976062 0.976618
vt 0.976062 0.976618
vt 0.976062 0.976618
vt 0.976062 0.976618
vt 0.976062 0.976618
vt 0.976062 0.976618
vt 0.976062 0.976618
vt 0.976062 0.976618
vt 0.976062 0.976618
vt 0.976062 0.976618
vt 0.976062 0.976618
vt 0.976062 0.976618
vt 0.976062 0.976618
vt 0.976062 0.976618
vt 0.974124 0.963828
vt 0.974124 0.963828
vt 0.974124 0.963828
vt 0.974124 0.963828
vt 0.974124 0.963828
vt 0.974124 0.963828
vt 0.974124 0.963828
vt 0.974124 0.963828
vt 0.976062 0.976618
vt 0.976062 0.976618
vt 0.976062 0.976618
vt 0.976062 0.976618
vt 0.976062 0.976618
vt 0.976062 0.976618
vt 0.976062 0.976618
vt 0.976062 0.976618
vt 0.976062 0.976618
vt 0.976062 0.976618
vt 0.976062 0.976618
vt 0.976062 0.976618
vt 0.976062 0.976618
vt 0.976062 0.976618
vt 0.976062 0.976618
vt 0.976062 0.976618
vt 0.974124 0.963828
vt 0.974124 0.963828
vt 0.974124 0.963828
vt 0.974124 0.963828
vt 0.974124 0.963828
vt 0.974124 0.963828
vt 0.974124 0.963828
vt 0.974124 0.963828
vn -1.0000 -0.0000 0.0000
vn 1.0000 0.0000 0.0000
vn 0.0000 0.0000 1.0000
vn 0.0000 -1.0000 0.0000
vn 0.0000 1.0000 0.0000
s 1
f 2/1/1 3/2/1 1/3/1
f 8/4/2 5/5/2 7/6/2
f 6/7/3 1/3/3 5/5/3
f 7/6/4 1/3/4 3/2/4
f 4/8/5 6/7/5 8/4/5
f 10/9/1 11/10/1 9/11/1
f 16/12/2 13/13/2 15/14/2
f 14/15/3 9/11/3 13/13/3
f 15/14/4 9/11/4 11/10/4
f 12/16/5 14/15/5 16/12/5
f 18/17/1 19/18/1 17/19/1
f 24/20/2 21/21/2 23/22/2
f 22/23/3 17/19/3 21/21/3
f 23/22/4 17/19/4 19/18/4
f 20/24/5 22/23/5 24/20/5
f 26/25/1 27/26/1 25/27/1
f 32/28/2 29/29/2 31/30/2
f 30/31/3 25/27/3 29/29/3
f 31/30/4 25/27/4 27/26/4
f 28/32/5 30/31/5 32/28/5
f 34/33/1 35/34/1 33/35/1
f 40/36/2 37/37/2 39/38/2
f 38/39/3 33/35/3 37/37/3
f 39/38/4 33/35/4 35/34/4
f 36/40/5 38/39/5 40/36/5
f 42/41/1 43/42/1 41/43/1
f 48/44/2 45/45/2 47/46/2
f 46/47/3 41/43/3 45/45/3
f 47/46/4 41/43/4 43/42/4
f 44/48/5 46/47/5 48/44/5
f 2/1/1 4/8/1 3/2/1
f 8/4/2 6/7/2 5/5/2
f 6/7/3 2/1/3 1/3/3
f 7/6/4 5/5/4 1/3/4
f 4/8/5 2/1/5 6/7/5
f 10/9/1 12/16/1 11/10/1
f 16/12/2 14/15/2 13/13/2
f 14/15/3 10/9/3 9/11/3
f 15/14/4 13/13/4 9/11/4
f 12/16/5 10/9/5 14/15/5
f 18/17/1 20/24/1 19/18/1
f 24/20/2 22/23/2 21/21/2
f 22/23/3 18/17/3 17/19/3
f 23/22/4 21/21/4 17/19/4
f 20/24/5 18/17/5 22/23/5
f 26/25/1 28/32/1 27/26/1
f 32/28/2 30/31/2 29/29/2
f 30/31/3 26/25/3 25/27/3
f 31/30/4 29/29/4 25/27/4
f 28/32/5 26/25/5 30/31/5
f 34/33/1 36/40/1 35/34/1
f 40/36/2 38/39/2 37/37/2
f 38/39/3 34/33/3 33/35/3
f 39/38/4 37/37/4 33/35/4
f 36/40/5 34/33/5 38/39/5
f 42/41/1 44/48/1 43/42/1
f 48/44/2 46/47/2 45/45/2
f 46/47/3 42/41/3 41/43/3
f 47/46/4 45/45/4 41/43/4
f 44/48/5 42/41/5 46/47/5
