# Blender v2.81 (sub 16) OBJ File: 'models.blend'
# www.blender.org
o D_Wall_Deco_04_Cylinder.388
v -0.000006 1.400000 0.080005
v -0.400006 1.800000 0.080005
v -0.000006 1.400000 0.000004
v -0.400006 1.800000 0.000004
v -0.000006 1.600000 0.080005
v -0.200006 1.800000 0.080005
v -0.000006 1.600000 0.000004
v -0.200006 1.800000 0.000004
vt 0.036517 0.421846
vt 0.036517 0.358309
vt 0.036517 0.358309
vt 0.036517 0.421846
vt 0.036517 0.390077
vt 0.036517 0.390077
vt 0.036517 0.421846
vt 0.036517 0.421846
vn -0.7071 -0.7071 0.0000
vn 0.7071 0.7071 0.0000
vn 0.0000 0.0000 1.0000
vn 1.0000 0.0000 0.0000
vn 0.0000 1.0000 0.0000
s 1
f 2/1/1 3/2/1 1/3/1
f 8/4/2 5/5/2 7/6/2
f 6/7/3 1/3/3 5/5/3
f 7/6/4 1/3/4 3/2/4
f 4/8/5 6/7/5 8/4/5
f 2/1/1 4/8/1 3/2/1
f 8/4/2 6/7/2 5/5/2
f 6/7/3 2/1/3 1/3/3
f 7/6/4 5/5/4 1/3/4
f 4/8/5 2/1/5 6/7/5
