# Blender v2.81 (sub 16) OBJ File: 'models.blend'
# www.blender.org
o N_Grass_03_Cylinder.037
v 0.160520 0.303555 0.060640
v 0.106733 -0.017904 0.177990
v -0.005710 0.072602 -0.136914
v -0.156946 0.200604 0.144407
v -0.576276 0.086960 0.267370
v -0.023738 0.009866 0.267370
v -0.576276 0.086960 -0.320630
v -0.023737 0.009866 -0.320630
v 0.215843 0.042414 0.569619
v 0.369742 0.293327 0.386978
v 0.024204 0.281999 0.408766
v 0.194107 0.044912 0.226222
v 0.533582 0.271362 0.057097
v 0.651770 -0.013674 -0.100336
v 0.596599 0.275121 -0.283513
v 0.330810 0.095870 -0.158509
v 0.020397 0.180139 -0.447019
v -0.207824 -0.013482 -0.272586
v -0.246285 0.034631 -0.613476
v -0.299792 0.294783 -0.394712
v -0.140403 0.236342 0.343775
v -0.181325 0.009918 0.602730
v -0.398044 0.005053 0.332528
v -0.408156 0.264768 0.558019
v 0.288197 0.115519 0.876196
v 0.178331 0.370936 0.669577
v -0.011534 0.083430 0.705518
v 0.286984 0.073625 0.534665
v 0.162124 0.024043 0.631023
v 0.619023 0.105276 0.612183
v 0.180964 -0.008450 0.134559
v 0.637863 0.072783 0.115718
v -0.457019 0.099797 0.533650
v 0.021137 0.116926 0.793434
v -0.221150 -0.020100 0.153308
v 0.257004 -0.002971 0.413092
v -0.099351 0.007523 0.172715
v 0.508693 0.048413 0.182071
v -0.108707 0.048413 -0.435328
v 0.499338 0.089303 -0.425973
vt 0.995894 0.930557
vt 0.995894 0.930557
vt 0.995894 0.930557
vt 0.995894 0.930557
vt 0.993942 0.977082
vt 0.993942 0.977082
vt 0.993942 0.977082
vt 0.995894 0.930557
vt 0.995894 0.930557
vt 0.995894 0.930557
vt 0.995894 0.930557
vt 0.995894 0.930557
vt 0.995894 0.930557
vt 0.995894 0.930557
vt 0.995894 0.930557
vt 0.995894 0.930557
vt 0.995894 0.930557
vt 0.995894 0.930557
vt 0.995894 0.930557
vt 0.995894 0.930557
vt 0.995894 0.930557
vt 0.995894 0.930557
vt 0.995894 0.930557
vt 0.995894 0.930557
vt 0.995894 0.930557
vt 0.995894 0.930557
vt 0.995894 0.930557
vt 0.993942 0.977082
vt 0.993942 0.977082
vt 0.993942 0.977082
vt 0.991755 0.990543
vt 0.991755 0.990543
vt 0.991755 0.990543
vt 0.991755 0.990543
vt 0.991755 0.990543
vt 0.991755 0.990543
vt 0.993942 0.977082
vt 0.993942 0.977082
vt 0.991755 0.990543
vt 0.991755 0.990543
vn 0.1441 0.3180 0.9371
vn -0.6386 -0.7695 0.0068
vn -0.3853 0.7441 -0.5457
vn 0.8719 -0.2900 -0.3947
vn 0.1382 0.9904 -0.0000
vn 0.8321 -0.5517 -0.0567
vn -0.0702 0.5765 -0.8141
vn -0.7949 -0.6050 0.0459
vn 0.0327 0.5750 0.8175
vn -0.3284 -0.5574 0.7625
vn -0.0317 -0.5397 -0.8413
vn -0.5882 0.8025 -0.1000
vn 0.9399 0.2919 0.1771
vn 0.2925 0.4264 0.8560
vn -0.9632 -0.2588 0.0722
vn 0.1114 0.6529 -0.7492
vn 0.5544 -0.8132 -0.1773
vn 0.5425 0.5881 0.5999
vn -0.6707 -0.5010 0.5470
vn -0.4780 0.5652 -0.6724
vn 0.6008 -0.6464 -0.4703
vn 0.9310 0.3619 -0.0477
vn -0.4803 0.2108 -0.8514
vn 0.0370 -0.9919 0.1215
vn -0.4833 0.4155 0.7706
vn -0.1774 0.9816 -0.0710
vn 0.0978 0.9649 -0.2436
vn -0.0680 0.9954 0.0680
s 1
f 1/1/1 4/2/1 2/3/1
f 2/3/2 4/2/2 3/4/2
f 3/4/3 4/2/3 1/1/3
f 1/1/4 2/3/4 3/4/4
f 6/5/5 7/6/5 5/7/5
f 9/8/6 12/9/6 10/10/6
f 10/10/7 12/9/7 11/11/7
f 11/11/8 12/9/8 9/8/8
f 9/8/9 10/10/9 11/11/9
f 13/12/10 16/13/10 14/14/10
f 14/14/11 16/13/11 15/15/11
f 15/15/12 16/13/12 13/12/12
f 13/12/13 14/14/13 15/15/13
f 17/16/14 20/17/14 18/18/14
f 18/18/15 20/17/15 19/19/15
f 19/19/16 20/17/16 17/16/16
f 17/16/17 18/18/17 19/19/17
f 21/20/18 24/21/18 22/22/18
f 22/22/19 24/21/19 23/23/19
f 23/23/20 24/21/20 21/20/20
f 21/20/21 22/22/21 23/23/21
f 25/24/22 28/25/22 26/26/22
f 26/26/23 28/25/23 27/27/23
f 27/27/24 28/25/24 25/24/24
f 25/24/25 26/26/25 27/27/25
f 30/28/26 31/29/26 29/30/26
f 34/31/27 35/32/27 33/33/27
f 37/34/28 40/35/28 39/36/28
f 6/5/5 8/37/5 7/6/5
f 30/28/26 32/38/26 31/29/26
f 34/31/27 36/39/27 35/32/27
f 37/34/28 38/40/28 40/35/28
