# Blender v2.81 (sub 16) OBJ File: 'models.blend'
# www.blender.org
o N_Grass_01_Cylinder.017
v 0.074011 0.000000 0.063133
v 0.068724 0.500000 -0.063133
v 0.074011 0.500000 0.063132
v 0.068724 -0.000000 -0.063133
v -0.223073 -0.000000 -0.152513
v -0.139701 0.600000 -0.247487
v -0.223073 0.600000 -0.152513
v -0.139701 -0.000000 -0.247487
v 0.265381 -0.000000 -0.123286
v 0.382863 0.700000 -0.076715
v 0.265381 0.700000 -0.123286
v 0.382863 -0.000000 -0.076714
v -0.155493 -0.000000 -0.048992
v -0.080902 0.800000 -0.151009
v -0.155493 0.800000 -0.048992
v -0.080902 -0.000000 -0.151009
v 0.177211 -0.000000 -0.253382
v 0.091899 0.600000 -0.346618
v 0.177211 0.600000 -0.253382
v 0.091899 -0.000000 -0.346618
v 0.156012 -0.000000 -0.040566
v 0.113102 0.700000 -0.159435
v 0.156012 0.700000 -0.040566
v 0.113102 -0.000000 -0.159435
v -0.015016 0.000000 0.248921
v -0.095003 0.800000 0.151078
v -0.015016 0.800000 0.248920
v -0.095003 0.000000 0.151079
v -0.352796 -0.000000 -0.044328
v -0.262732 0.500000 0.044327
v -0.352796 0.500000 -0.044328
v -0.262732 0.000000 0.044327
v 0.238667 0.000000 0.051853
v 0.156822 0.600000 0.148146
v 0.238667 0.600000 0.051853
v 0.156822 0.000000 0.148147
vt 0.006126 0.480537
vt 0.006126 0.022353
vt 0.006126 0.022353
vt 0.006126 0.022352
vt 0.006126 0.572174
vt 0.006126 0.022353
vt 0.006126 0.022353
vt 0.006126 0.663812
vt 0.006126 0.022353
vt 0.006126 0.022353
vt 0.006126 0.755448
vt 0.006126 0.022353
vt 0.006126 0.572174
vt 0.006126 0.022353
vt 0.006126 0.022353
vt 0.006126 0.663812
vt 0.006126 0.022353
vt 0.006126 0.022353
vt 0.006126 0.755448
vt 0.006126 0.022353
vt 0.006126 0.022353
vt 0.006126 0.022353
vt 0.006126 0.480537
vt 0.006126 0.022353
vt 0.006126 0.572174
vt 0.006126 0.022353
vt 0.006126 0.022353
vt 0.006126 0.480537
vt 0.006126 0.572174
vt 0.006126 0.663812
vt 0.006126 0.755448
vt 0.006126 0.572174
vt 0.006126 0.663812
vt 0.006126 0.755448
vt 0.006126 0.480537
vt 0.006126 0.572174
vn -0.9991 0.0000 0.0418
vn 0.7515 0.0000 0.6597
vn -0.3685 0.0000 0.9296
vn 0.8072 0.0000 0.5902
vn -0.7378 0.0000 0.6751
vn -0.9406 0.0000 0.3395
vn -0.7742 0.0000 0.6329
vn -0.7015 0.0000 0.7127
vn 0.7620 0.0000 0.6476
s 1
f 3/1/1 4/2/1 1/3/1
f 8/4/2 7/5/2 5/6/2
f 12/7/3 11/8/3 9/9/3
f 16/10/4 15/11/4 13/12/4
f 19/13/5 20/14/5 17/15/5
f 23/16/6 24/17/6 21/18/6
f 27/19/7 28/20/7 25/21/7
f 32/22/8 31/23/8 29/24/8
f 35/25/9 36/26/9 33/27/9
f 3/1/1 2/28/1 4/2/1
f 8/4/2 6/29/2 7/5/2
f 12/7/3 10/30/3 11/8/3
f 16/10/4 14/31/4 15/11/4
f 19/13/5 18/32/5 20/14/5
f 23/16/6 22/33/6 24/17/6
f 27/19/7 26/34/7 28/20/7
f 32/22/8 30/35/8 31/23/8
f 35/25/9 34/36/9 36/26/9
