# Blender v2.81 (sub 16) OBJ File: 'models.blend'
# www.blender.org
o N_Log_Cylinder.059
v -1.585526 0.010589 -0.504745
v 1.517160 -0.355067 -0.366011
v 1.517262 -0.497040 -0.000352
v -1.585550 -0.355068 0.365307
v 1.517160 -0.355067 0.365307
v 1.517262 0.010591 0.507279
v -1.585550 0.376248 0.365306
v 1.517160 0.376249 0.365305
v -1.597305 0.416098 -0.149056
v 1.517262 0.518222 -0.000352
v 1.517160 0.376249 -0.366011
v -0.034195 0.010590 -0.417735
v 1.517262 0.010591 -0.507983
v 0.761132 -0.288440 -0.299381
v -1.581584 -0.336338 -0.347278
v -0.034195 -0.406794 -0.000352
v -1.585529 -0.493804 -0.000352
v 0.761132 -0.288440 0.298679
v -1.004616 -0.298196 0.308433
v -0.034195 0.010590 0.417033
v -1.585529 0.010595 0.504045
v 0.761131 0.309621 0.298679
v -1.004616 0.319376 0.308433
v -0.034195 0.427974 -0.000352
v -1.233182 0.430431 -0.021901
v 0.761131 0.309621 -0.299382
v -1.581669 0.358111 -0.347092
v -1.592430 0.408082 0.156583
v -1.599262 0.010590 -0.418416
v 1.530872 0.010591 -0.418416
v -1.599262 -0.285028 -0.295969
v 1.530872 -0.285027 -0.295970
v -1.599262 -0.407475 -0.000352
v 1.530872 -0.407474 -0.000352
v -1.599262 -0.285028 0.295266
v 1.530872 -0.285027 0.295266
v -1.599262 0.010590 0.417712
v 1.530872 0.010591 0.417712
v -1.599863 0.305219 0.296389
v 1.530872 0.306209 0.295266
v 1.530872 0.428655 -0.000352
v -1.599321 0.306092 -0.296095
v 1.530872 0.306209 -0.295970
v -1.269500 -0.045067 -0.354652
v 1.422506 0.010591 -0.363358
v 1.411251 -0.227649 -0.238591
v 1.422506 -0.352415 -0.000352
v 1.411251 -0.227648 0.237887
v 1.422506 0.010591 0.362654
v 1.411251 0.248830 0.237887
v 1.422506 0.373596 -0.000352
v 1.411251 0.248830 -0.238591
v -1.334254 -0.265367 -0.231853
v -1.361149 -0.375985 0.010567
v -1.332449 -0.256456 0.240119
v -1.263678 -0.023972 0.353962
v -1.209248 0.193463 0.233832
v -1.225405 0.323331 -0.024369
v -1.210586 0.188640 -0.240528
vt 0.960588 0.974757
vt 0.960588 0.974757
vt 0.960588 0.974757
vt 0.960588 0.974757
vt 0.960588 0.974757
vt 0.960588 0.974757
vt 0.960588 0.974757
vt 0.960588 0.974757
vt 0.960588 0.974757
vt 0.960588 0.974757
vt 0.960588 0.974757
vt 0.960588 0.974757
vt 0.960588 0.974757
vt 0.960588 0.974757
vt 0.960588 0.974757
vt 0.960588 0.974757
vt 0.960588 0.974757
vt 0.960588 0.974757
vt 0.960588 0.974757
vt 0.960588 0.974757
vt 0.960588 0.974757
vt 0.960588 0.974757
vt 0.960588 0.974757
vt 0.960588 0.974757
vt 0.960588 0.974757
vt 0.960588 0.974757
vt 0.960588 0.974757
vt 0.960588 0.974757
vt 0.960588 0.974757
vt 0.960588 0.974757
vt 0.960588 0.974757
vt 0.960588 0.974757
vt 0.960588 0.974757
vt 0.960588 0.974757
vt 0.960588 0.974757
vt 0.960588 0.974757
vt 0.960588 0.974757
vt 0.960588 0.974757
vt 0.960588 0.974757
vt 0.960588 0.974757
vt 0.960588 0.974757
vt 0.960588 0.974757
vt 0.960588 0.974757
vt 0.960588 0.974757
vt 0.960588 0.974757
vt 0.960588 0.974757
vt 0.960588 0.974757
vt 0.960588 0.974757
vt 0.960588 0.974757
vt 0.960588 0.974757
vt 0.960588 0.974757
vt 0.960588 0.974757
vt 0.960588 0.974757
vt 0.959846 0.945552
vt 0.959846 0.945552
vt 0.959846 0.945552
vt 0.960588 0.974757
vt 0.959846 0.945552
vt 0.959846 0.945552
vt 0.959846 0.945552
vt 0.960588 0.974757
vt 0.960588 0.974757
vt 0.960588 0.974757
vt 0.960588 0.974757
vt 0.960588 0.974757
vt 0.959846 0.945552
vt 0.959846 0.945552
vt 0.959846 0.945552
vt 0.959846 0.945552
vt 0.959846 0.945552
vt 0.959846 0.945552
vt 0.959846 0.945552
vt 0.959846 0.945552
vt 0.959846 0.945552
vt 0.959846 0.945552
vn -0.1133 -0.3596 -0.9262
vn -0.1133 -0.9262 -0.3596
vn -0.1133 -0.9262 0.3596
vn -0.1133 -0.3596 0.9262
vn -0.1133 0.3596 0.9262
vn -0.1133 0.9262 0.3596
vn -0.1133 0.9262 -0.3596
vn -0.1133 0.3596 -0.9262
vn 0.0587 0.9593 -0.2763
vn -0.9878 0.1459 0.0548
vn -0.3277 -0.0455 0.9437
vn 0.0259 0.9512 -0.3075
vn -0.0509 0.4816 -0.8749
vn 0.1180 0.9630 0.2421
vn -0.0509 0.8749 -0.4816
vn 0.0071 0.9361 0.3516
vn 0.0071 0.3516 0.9361
vn -0.0509 0.8749 0.4816
vn 0.1253 0.3520 0.9276
vn 0.0071 -0.3516 0.9361
vn -0.0509 0.4816 0.8749
vn 0.1253 -0.3520 0.9276
vn 0.0071 -0.9361 0.3516
vn -0.0509 -0.4816 0.8749
vn 0.1253 -0.9276 0.3520
vn 0.0257 -0.9511 -0.3080
vn -0.0509 -0.8749 0.4816
vn 0.0257 0.3080 -0.9511
vn 0.0257 -0.3080 -0.9511
vn -0.0509 -0.8749 -0.4816
vn 0.5310 0.3243 0.7828
vn -0.0509 -0.4816 -0.8749
vn 0.5310 0.7828 0.3243
vn 0.5310 0.7828 -0.3243
vn 0.5310 0.3243 -0.7828
vn 0.5310 -0.3243 -0.7828
vn 0.5310 -0.7828 -0.3243
vn 0.5310 -0.7828 0.3243
vn 0.5310 -0.3243 0.7828
vn -0.2403 -0.3714 0.8968
vn -0.2372 -0.3767 0.8954
vn -0.2368 -0.3775 0.8952
vn -0.3597 -0.8028 0.4756
vn -0.3871 -0.8332 -0.3949
vn -0.2111 -0.4317 -0.8770
vn -0.1188 0.4648 -0.8774
vn -0.1844 0.8810 -0.4357
vn -0.1382 0.9067 0.3984
vn -0.2367 0.5252 0.8174
vn -0.9669 -0.0976 -0.2356
vn 1.0000 0.0000 0.0000
vn 0.9873 -0.0602 -0.1473
vn 0.9884 -0.0560 -0.1415
vn 0.9867 -0.0621 -0.1499
vn -0.9669 -0.2356 -0.0976
vn 0.9873 -0.1472 -0.0601
vn 0.9884 -0.1415 -0.0560
vn 0.9888 -0.1392 -0.0543
vn -0.9887 -0.1404 0.0532
vn 0.9873 -0.1472 0.0601
vn 0.9884 -0.1415 0.0560
vn 0.9867 -0.1499 0.0621
vn -0.9855 -0.0649 0.1568
vn 0.9873 -0.0601 0.1472
vn 0.9884 -0.0560 0.1415
vn 0.9888 -0.0543 0.1392
vn -0.9861 0.0609 0.1544
vn -0.9871 0.0573 0.1494
vn -0.9875 0.0559 0.1475
vn 0.9873 0.0601 0.1472
vn 0.9884 0.0560 0.1415
vn 0.9867 0.0621 0.1499
vn 0.9873 0.1473 0.0602
vn 0.9884 0.1415 0.0560
vn 0.9888 0.1392 0.0543
vn 0.9873 0.1473 -0.0602
vn 0.9884 0.1415 -0.0560
vn 0.9867 0.1499 -0.0621
vn -0.9710 0.1976 -0.1345
vn -0.9670 0.0973 -0.2355
vn 0.9873 0.0602 -0.1473
vn 0.9884 0.0560 -0.1415
vn 0.9888 0.0543 -0.1392
vn -0.4443 -0.0116 -0.8958
vn -0.9648 0.2628 0.0000
vn -0.9647 0.2634 -0.0006
vn -0.9647 0.2635 -0.0006
vn 0.0060 0.9748 -0.2232
vn 0.0132 0.9885 0.1503
vn -0.0038 0.9471 0.3210
vn 0.0495 0.4663 0.8832
vn 0.0495 -0.4663 0.8832
vn 0.0495 -0.8832 0.4663
vn 0.0510 -0.9096 -0.4123
vn 0.0510 0.4121 -0.9097
vn 0.0510 -0.4123 -0.9096
vn 0.4138 0.4069 0.8144
vn 0.4138 0.8144 0.4069
vn 0.4138 0.8144 -0.4069
vn 0.4138 0.4069 -0.8144
vn 0.4138 -0.4069 -0.8144
vn 0.4138 -0.8144 -0.4069
vn 0.4138 -0.8144 0.4069
vn 0.4138 -0.4069 0.8144
vn -0.2404 -0.3713 0.8969
vn -0.3111 -0.7589 0.5721
vn -0.3089 -0.7582 -0.5743
vn -0.2490 -0.3692 -0.8954
vn -0.2259 0.3728 -0.9000
vn -0.1041 0.9189 -0.3806
vn -0.1591 0.9121 0.3778
vn -0.1133 0.3802 0.9179
vn -0.9842 -0.0823 -0.1566
vn 0.9960 -0.0898 0.0000
vn 0.9960 0.0000 -0.0898
vn 0.9960 0.0898 -0.0000
vn 0.9960 0.0000 0.0898
vn 0.9888 -0.0543 -0.1392
vn -0.9842 -0.1566 -0.0823
vn 0.9867 -0.1499 -0.0621
vn -0.9855 -0.1568 0.0649
vn 0.9888 -0.1392 0.0543
vn -0.9887 -0.0532 0.1404
vn 0.9867 -0.0621 0.1499
vn -0.9856 0.0626 0.1568
vn 0.9888 0.0543 0.1392
vn 0.9867 0.1499 0.0621
vn 0.9888 0.1392 -0.0543
vn -0.9843 0.0820 -0.1566
vn 0.9867 0.0621 -0.1499
vn -0.9720 0.2348 -0.0007
vn -0.9635 0.2644 0.0420
vn -0.9933 -0.1157 0.0040
vn -0.9643 0.2619 -0.0386
vn -0.9645 0.2641 -0.0013
s 1
f 13/1/1 2/2/1 14/3/1
f 2/2/2 3/4/2 14/3/2
f 3/4/3 5/5/3 18/6/3
f 5/5/4 6/7/4 18/6/4
f 6/7/5 8/8/5 22/9/5
f 8/8/6 10/10/6 22/9/6
f 10/10/7 11/11/7 26/12/7
f 11/11/8 13/1/8 26/12/8
f 25/13/9 27/14/9 9/15/9
f 28/16/10 39/17/10 7/18/10
f 9/15/11 58/19/11 25/13/11
f 27/14/12 24/20/12 26/12/12
f 26/12/13 13/1/13 12/21/13
f 25/13/14 7/18/14 23/22/14
f 24/20/15 10/10/15 26/12/15
f 24/20/16 23/22/16 22/9/16
f 23/22/17 20/23/17 22/9/17
f 22/9/18 10/10/18 24/20/18
f 21/24/19 23/22/19 7/18/19
f 20/23/20 19/25/20 18/6/20
f 20/23/21 6/7/21 22/9/21
f 4/26/22 19/25/22 21/24/22
f 19/25/23 16/27/23 18/6/23
f 18/6/24 6/7/24 20/23/24
f 17/28/25 19/25/25 4/26/25
f 16/27/26 15/29/26 14/3/26
f 16/27/27 3/4/27 18/6/27
f 12/21/28 27/14/28 26/12/28
f 15/29/29 12/21/29 14/3/29
f 14/3/30 3/4/30 16/27/30
f 30/30/31 46/31/31 32/32/31
f 12/21/32 13/1/32 14/3/32
f 46/31/33 34/33/33 32/32/33
f 34/33/34 48/34/34 36/35/34
f 48/34/35 38/36/35 36/35/35
f 38/36/36 50/37/36 40/38/36
f 50/37/37 41/39/37 40/38/37
f 41/39/38 52/40/38 43/41/38
f 52/40/39 30/30/39 43/41/39
f 59/42/40 29/43/41 44/44/42
f 9/15/43 59/42/43 58/19/43
f 57/45/44 28/16/44 58/19/44
f 37/46/45 57/45/45 56/47/45
f 55/48/46 37/46/46 56/47/46
f 54/49/47 35/50/47 55/48/47
f 53/51/48 33/52/48 54/49/48
f 44/44/49 31/53/49 53/51/49
f 29/43/50 15/29/50 31/53/50
f 46/54/51 52/55/51 50/56/51
f 32/32/52 13/1/53 30/30/54
f 15/29/55 33/52/55 31/53/55
f 32/32/56 3/4/57 2/2/58
f 35/50/59 17/28/59 4/26/59
f 36/35/60 3/4/61 34/33/62
f 35/50/63 21/24/63 37/46/63
f 36/35/64 6/7/65 5/5/66
f 39/17/67 21/24/68 7/18/69
f 40/38/70 6/7/71 38/36/72
f 40/38/73 10/10/74 8/8/75
f 43/41/76 10/10/77 41/39/78
f 9/15/79 27/14/79 42/57/79
f 27/14/80 29/43/80 42/57/80
f 43/41/81 13/1/82 11/11/83
f 28/16/84 25/13/84 58/19/84
f 59/58/85 53/59/86 57/60/87
f 27/14/88 25/13/88 24/20/88
f 25/13/89 28/16/89 7/18/89
f 24/20/90 25/13/90 23/22/90
f 23/22/91 21/24/91 20/23/91
f 20/23/92 21/24/92 19/25/92
f 19/25/93 17/28/93 16/27/93
f 16/27/94 17/28/94 15/29/94
f 12/21/95 1/61/95 27/14/95
f 15/29/96 1/61/96 12/21/96
f 30/30/97 45/62/97 46/31/97
f 46/31/98 47/63/98 34/33/98
f 34/33/99 47/63/99 48/34/99
f 48/34/100 49/64/100 38/36/100
f 38/36/101 49/64/101 50/37/101
f 50/37/102 51/65/102 41/39/102
f 41/39/103 51/65/103 52/40/103
f 52/40/104 45/62/104 30/30/104
f 59/42/40 42/57/105 29/43/41
f 9/15/106 42/57/106 59/42/106
f 57/45/107 39/17/107 28/16/107
f 37/46/108 39/17/108 57/45/108
f 55/48/109 35/50/109 37/46/109
f 54/49/110 33/52/110 35/50/110
f 53/51/111 31/53/111 33/52/111
f 44/44/112 29/43/112 31/53/112
f 29/43/113 1/61/113 15/29/113
f 51/66/114 50/56/114 52/55/114
f 50/56/115 49/67/115 48/68/115
f 46/54/116 48/68/116 47/69/116
f 50/56/51 48/68/51 46/54/51
f 46/54/117 45/70/117 52/55/117
f 32/32/52 2/2/118 13/1/53
f 15/29/119 17/28/119 33/52/119
f 32/32/56 34/33/120 3/4/57
f 35/50/121 33/52/121 17/28/121
f 36/35/60 5/5/122 3/4/61
f 35/50/123 4/26/123 21/24/123
f 36/35/64 38/36/124 6/7/65
f 39/17/67 37/46/125 21/24/68
f 40/38/70 8/8/126 6/7/71
f 40/38/73 41/39/127 10/10/74
f 43/41/76 11/11/128 10/10/77
f 27/14/129 1/61/129 29/43/129
f 43/41/81 30/30/130 13/1/82
f 54/71/131 55/72/131 53/59/131
f 55/72/132 56/73/132 57/60/132
f 57/60/133 58/74/133 59/58/133
f 59/58/134 44/75/134 53/59/134
f 57/60/87 53/59/86 55/72/135
