# Blender v2.81 (sub 16) OBJ File: 'models.blend'
# www.blender.org
o N_Mushrooms_Cylinder.060
v -0.112300 0.000000 0.308096
v -0.132828 0.045792 0.287568
v -0.046870 0.000000 0.290564
v -0.039693 0.054712 0.262860
v 0.001028 0.000000 0.338462
v 0.028732 0.054712 0.331284
v -0.016504 0.000000 0.403891
v 0.004023 0.045792 0.424419
v -0.081934 0.000000 0.421423
v -0.089111 0.036872 0.449128
v -0.129832 0.000000 0.373526
v -0.157536 0.036872 0.380702
v -0.100118 0.360601 0.323283
v -0.053853 0.353165 0.311230
v -0.019640 0.353165 0.345443
v -0.031693 0.360601 0.391709
v -0.077957 0.368037 0.403761
v -0.112170 0.368037 0.369548
v -0.208165 0.324889 0.224343
v -0.021947 0.294959 0.175833
v 0.115758 0.294959 0.313539
v 0.067247 0.324889 0.499755
v -0.118970 0.354819 0.548267
v -0.256676 0.354819 0.410560
v -0.213110 0.372505 0.207256
v -0.011996 0.340181 0.154864
v 0.136727 0.340181 0.303587
v 0.084335 0.372505 0.504701
v -0.116779 0.404830 0.557092
v -0.265502 0.404830 0.408370
v -0.172801 0.432025 0.232385
v -0.015933 0.406812 0.191520
v 0.100071 0.406812 0.307523
v 0.059206 0.432026 0.464393
v -0.097663 0.457239 0.505257
v -0.213667 0.457238 0.389255
v -0.086450 0.467737 0.309630
v -0.040194 0.460303 0.297579
v -0.005988 0.460303 0.331785
v -0.018038 0.467737 0.378041
v -0.064294 0.475172 0.390092
v -0.098501 0.475172 0.355886
v -0.025911 0.214610 0.420141
v -0.095954 0.217882 0.438864
v -0.058506 0.211337 0.298779
v -0.007187 0.211337 0.350098
v -0.147273 0.217882 0.387545
v -0.128549 0.214610 0.317503
v -0.064402 -0.000000 -0.259175
v -0.064402 0.066528 -0.300646
v 0.019401 -0.000000 -0.210791
v 0.055317 0.066528 -0.231527
v 0.019401 -0.000000 -0.114024
v 0.055317 0.066528 -0.093287
v -0.064402 -0.000000 -0.065639
v -0.064402 0.066528 -0.024167
v -0.148205 -0.000000 -0.114024
v -0.184121 0.066528 -0.093287
v -0.148205 -0.000000 -0.210791
v -0.184121 0.066528 -0.231527
v -0.067810 0.360417 -0.231527
v -0.008123 0.355877 -0.196967
v -0.008123 0.355877 -0.127848
v -0.067810 0.360417 -0.093287
v -0.127497 0.364957 -0.127848
v -0.127497 0.364957 -0.196967
v -0.071742 0.308726 -0.440615
v 0.168500 0.290453 -0.301511
v 0.168500 0.290453 -0.023303
v -0.071742 0.308727 0.115801
v -0.311983 0.327000 -0.023303
v -0.311983 0.327000 -0.301511
v -0.066499 0.377647 -0.462871
v 0.192961 0.357912 -0.312640
v 0.192961 0.357912 -0.012175
v -0.066499 0.377647 0.138058
v -0.325960 0.397383 -0.012175
v -0.325960 0.397383 -0.312640
v -0.059946 0.463798 -0.396770
v 0.142433 0.448405 -0.279588
v 0.142433 0.448405 -0.045225
v -0.059946 0.463799 0.071955
v -0.262325 0.479192 -0.045225
v -0.262325 0.479192 -0.279588
v -0.056014 0.515489 -0.231514
v 0.003661 0.510950 -0.196960
v 0.003661 0.510950 -0.127854
v -0.056014 0.515489 -0.093301
v -0.115690 0.520028 -0.127854
v -0.115690 0.520028 -0.196960
v -0.081680 0.213408 -0.058727
v -0.171469 0.213408 -0.110567
v 0.008109 0.213408 -0.214246
v 0.008109 0.213408 -0.110567
v -0.171469 0.213408 -0.214246
v -0.081680 0.213408 -0.266087
v 0.385216 0.000000 0.144657
v 0.396569 0.045792 0.156009
v 0.319787 0.000000 0.162188
v 0.315778 0.051261 0.177549
v 0.271889 0.000000 0.114290
v 0.256528 0.051261 0.118299
v 0.289421 0.000000 0.048860
v 0.278068 0.045792 0.037509
v 0.354850 0.000000 0.031328
v 0.358860 0.040322 0.015966
v 0.402748 0.000000 0.079227
v 0.418110 0.040322 0.075217
v 0.372696 0.254185 0.124808
v 0.329812 0.247281 0.135979
v 0.298097 0.247281 0.104266
v 0.309268 0.254185 0.061381
v 0.352153 0.261088 0.050210
v 0.383868 0.261088 0.081923
v 0.472859 0.221082 0.216517
v 0.300247 0.193297 0.261479
v 0.172598 0.193297 0.133830
v 0.217560 0.221082 -0.038783
v 0.390173 0.248868 -0.083745
v 0.517822 0.248868 0.043904
v 0.477434 0.265219 0.232365
v 0.291013 0.235210 0.280925
v 0.153152 0.235210 0.143064
v 0.201712 0.265219 -0.043358
v 0.388133 0.295227 -0.091918
v 0.525994 0.295227 0.045944
v 0.440059 0.320390 0.209081
v 0.294651 0.296983 0.246958
v 0.187119 0.296983 0.139427
v 0.224996 0.320389 -0.005982
v 0.370405 0.343796 -0.043859
v 0.477936 0.343796 0.063673
v 0.360009 0.353492 0.137485
v 0.317132 0.346590 0.148654
v 0.285423 0.346590 0.116946
v 0.296592 0.353492 0.074069
v 0.339469 0.360394 0.062900
v 0.371177 0.360394 0.094609
v 0.306505 0.147168 0.042732
v 0.364452 0.147168 0.027204
v 0.333398 0.147168 0.143100
v 0.290977 0.147168 0.100680
v 0.406873 0.147168 0.069624
v 0.391346 0.147168 0.127573
vt 0.980528 0.947969
vt 0.980528 0.947969
vt 0.980528 0.947969
vt 0.980528 0.947969
vt 0.980528 0.947969
vt 0.980528 0.947969
vt 0.980528 0.947969
vt 0.980528 0.947969
vt 0.980528 0.947969
vt 0.980528 0.947969
vt 0.980528 0.947969
vt 0.980528 0.947969
vt 0.980528 0.947969
vt 0.980528 0.947969
vt 0.980503 0.928749
vt 0.980503 0.928749
vt 0.980503 0.928749
vt 0.980528 0.947969
vt 0.980528 0.947969
vt 0.980528 0.947969
vt 0.980528 0.947969
vt 0.980528 0.947969
vt 0.980528 0.947969
vt 0.980528 0.947969
vt 0.980528 0.947969
vt 0.980528 0.947969
vt 0.980503 0.928749
vt 0.980503 0.928749
vt 0.980503 0.928749
vt 0.980503 0.928749
vt 0.980503 0.928749
vt 0.980503 0.928749
vt 0.980503 0.928749
vt 0.980503 0.928749
vt 0.980503 0.928749
vt 0.980503 0.928749
vt 0.980503 0.928749
vt 0.980503 0.928749
vt 0.980503 0.928749
vt 0.980503 0.928749
vt 0.980503 0.928749
vt 0.980503 0.928749
vt 0.980503 0.928749
vt 0.980503 0.928749
vt 0.980503 0.928749
vt 0.980503 0.928749
vt 0.980503 0.928749
vt 0.980503 0.928749
vt 0.980503 0.928749
vt 0.980503 0.928749
vt 0.980503 0.928749
vt 0.980503 0.928749
vt 0.980503 0.928749
vt 0.980528 0.947969
vt 0.980528 0.947969
vt 0.980528 0.947969
vt 0.980528 0.947969
vt 0.980528 0.947969
vt 0.980528 0.947969
vt 0.980528 0.947969
vt 0.980528 0.947969
vt 0.980528 0.947969
vt 0.980528 0.947969
vt 0.980528 0.947969
vt 0.980528 0.947969
vt 0.980528 0.947969
vt 0.980503 0.928749
vt 0.980503 0.928749
vt 0.980503 0.928749
vt 0.980528 0.947969
vt 0.980528 0.947969
vt 0.980528 0.947969
vt 0.980528 0.947969
vt 0.980528 0.947969
vt 0.980528 0.947969
vt 0.980528 0.947969
vt 0.980528 0.947969
vt 0.980528 0.947969
vt 0.980503 0.928749
vt 0.980503 0.928749
vt 0.980503 0.928749
vt 0.980503 0.928749
vt 0.980503 0.928749
vt 0.980503 0.928749
vt 0.980503 0.928749
vt 0.980503 0.928749
vt 0.980503 0.928749
vt 0.980503 0.928749
vt 0.980503 0.928749
vt 0.980503 0.928749
vt 0.980503 0.928749
vt 0.980503 0.928749
vt 0.980503 0.928749
vt 0.980503 0.928749
vt 0.980503 0.928749
vt 0.980503 0.928749
vt 0.980503 0.928749
vt 0.980503 0.928749
vt 0.980503 0.928749
vt 0.980503 0.928749
vt 0.980503 0.928749
vt 0.980503 0.928749
vt 0.980503 0.928749
vt 0.980503 0.928749
vt 0.980503 0.928749
vt 0.980528 0.947969
vt 0.980528 0.947969
vt 0.980528 0.947969
vt 0.980528 0.947969
vt 0.980528 0.947969
vt 0.980528 0.947969
vt 0.980528 0.947969
vt 0.980528 0.947969
vt 0.980528 0.947969
vt 0.980528 0.947969
vt 0.980528 0.947969
vt 0.980528 0.947969
vt 0.980528 0.947969
vt 0.980528 0.947969
vt 0.980528 0.947969
vt 0.980528 0.947969
vt 0.980528 0.947969
vt 0.980503 0.928749
vt 0.980503 0.928749
vt 0.980503 0.928749
vt 0.980528 0.947969
vt 0.980528 0.947969
vt 0.980528 0.947969
vt 0.980528 0.947969
vt 0.980528 0.947969
vt 0.980528 0.947969
vt 0.980528 0.947969
vt 0.980528 0.947969
vt 0.980528 0.947969
vt 0.980503 0.928749
vt 0.980503 0.928749
vt 0.980503 0.928749
vt 0.980503 0.928749
vt 0.980503 0.928749
vt 0.980503 0.928749
vt 0.980503 0.928749
vt 0.980503 0.928749
vt 0.980503 0.928749
vt 0.980503 0.928749
vt 0.980503 0.928749
vt 0.980503 0.928749
vt 0.980503 0.928749
vt 0.980503 0.928749
vt 0.980503 0.928749
vt 0.980503 0.928749
vt 0.980503 0.928749
vt 0.980503 0.928749
vt 0.980503 0.928749
vt 0.980503 0.928749
vt 0.980503 0.928749
vt 0.980503 0.928749
vt 0.980503 0.928749
vt 0.980503 0.928749
vt 0.980503 0.928749
vt 0.980503 0.928749
vt 0.980503 0.928749
vt 0.980528 0.947969
vn -0.2118 -0.4542 -0.8654
vn -0.2047 -0.4414 -0.8737
vn -0.2269 -0.4813 -0.8467
vn 0.6446 -0.4110 -0.6446
vn 0.8737 -0.4414 0.2047
vn 0.8654 -0.4542 0.2118
vn 0.8467 -0.4813 0.2269
vn 0.2530 -0.5102 0.8220
vn 0.2373 -0.5308 0.8136
vn 0.2145 -0.5597 0.8004
vn 0.2647 0.1930 0.9448
vn 0.2720 0.1893 0.9435
vn 0.2757 0.1874 0.9428
vn -0.5877 -0.5560 0.5877
vn -0.8136 -0.5308 -0.2373
vn -0.8220 -0.5102 -0.2530
vn -0.8005 -0.5597 -0.2145
vn 0.0709 -0.9950 -0.0709
vn 0.7066 0.0389 -0.7066
vn 0.7066 0.0388 -0.7066
vn -0.6860 0.2426 0.6860
vn -0.2499 0.0911 -0.9640
vn -0.2425 0.0870 -0.9662
vn -0.2531 0.0928 -0.9630
vn 0.9640 0.0911 0.2499
vn 0.9662 0.0870 0.2425
vn 0.9675 0.0847 0.2384
vn -0.9448 0.1930 -0.2647
vn -0.9435 0.1893 -0.2720
vn -0.9453 0.1945 -0.2618
vn 0.2210 -0.1789 0.9587
vn -0.3849 -0.9217 0.0479
vn -0.0479 -0.9217 0.3850
vn 0.1437 -0.9705 0.1934
vn -0.1934 -0.9705 -0.1437
vn -0.3122 -0.8973 0.3122
vn 0.8698 0.4696 0.1511
vn 0.8699 0.4696 0.1511
vn 0.6366 -0.4353 -0.6366
vn -0.7040 -0.0934 0.7040
vn 0.8913 -0.3498 0.2884
vn -0.2884 -0.3498 -0.8913
vn -0.9587 -0.1789 -0.2210
vn 0.3550 0.8649 -0.3550
vn -0.1511 0.4696 -0.8698
vn -0.1511 0.4696 -0.8699
vn -0.7312 0.6175 -0.2897
vn 0.2897 0.6175 0.7312
vn 0.6494 0.3956 -0.6494
vn -0.5108 0.6915 0.5108
vn 0.1255 0.9841 -0.1255
vn -0.1190 0.9857 0.1190
vn 0.4450 0.8951 -0.0279
vn 0.0279 0.8951 -0.4450
vn -0.2091 0.9555 -0.2080
vn 0.2080 0.9555 0.2091
vn -0.9652 0.0676 -0.2525
vn -0.9641 0.0657 -0.2573
vn -0.9659 0.0688 -0.2497
vn 0.9476 0.1820 0.2625
vn 0.9508 0.1782 0.2535
vn 0.9531 0.1753 0.2466
vn -0.2625 0.1820 -0.9476
vn -0.2535 0.1782 -0.9508
vn -0.2685 0.1846 -0.9454
vn -0.7070 0.0134 0.7070
vn 0.6865 0.2399 -0.6865
vn 0.2525 0.0676 0.9652
vn 0.2573 0.0657 0.9641
vn 0.2605 0.0645 0.9633
vn 0.4400 -0.4751 -0.7621
vn 0.4400 -0.4750 -0.7621
vn 0.8800 -0.4751 0.0000
vn 0.4400 -0.4751 0.7621
vn -0.4400 -0.4751 0.7621
vn -0.4821 0.2387 0.8430
vn -0.4772 0.2412 0.8451
vn -0.4858 0.2369 0.8414
vn -0.8800 -0.4751 0.0000
vn -0.4400 -0.4751 -0.7621
vn -0.4400 -0.4750 -0.7621
vn 0.2015 -0.9795 0.0000
vn 0.9936 0.1132 -0.0000
vn -0.9604 0.2787 -0.0000
vn 0.4967 0.1562 -0.8538
vn 0.5000 0.1581 -0.8515
vn 0.5037 0.1603 -0.8489
vn 0.4967 0.1562 0.8538
vn 0.5000 0.1581 0.8515
vn 0.4940 0.1545 0.8556
vn -0.4821 0.2387 -0.8430
vn -0.4772 0.2412 -0.8451
vn -0.4720 0.2437 -0.8472
vn -0.5006 -0.2313 0.8342
vn -0.2101 -0.9482 -0.2384
vn -0.2101 -0.9482 0.2384
vn 0.0643 -0.9690 0.2384
vn 0.0643 -0.9690 -0.2384
vn -0.3474 -0.9377 0.0000
vn 0.4575 0.5191 0.7219
vn 0.9401 -0.3409 0.0000
vn -0.9808 -0.1948 0.0000
vn 0.4599 -0.3044 0.8342
vn 0.4599 -0.3044 -0.8342
vn -0.5006 -0.2313 -0.8342
vn 0.4109 0.9117 -0.0000
vn 0.4575 0.5191 -0.7219
vn -0.3737 0.5824 -0.7219
vn -0.3737 0.5824 0.7219
vn 0.8731 0.4875 -0.0000
vn -0.7893 0.6140 -0.0000
vn 0.0758 0.9971 -0.0000
vn -0.2683 0.9633 -0.0000
vn 0.2411 0.9246 0.2949
vn 0.2411 0.9246 -0.2949
vn -0.0985 0.9504 -0.2949
vn -0.0985 0.9504 0.2949
vn -0.4948 0.1435 -0.8571
vn -0.4948 0.1434 -0.8571
vn 0.4836 0.2540 0.8376
vn 0.4836 0.2540 -0.8376
vn -0.9963 0.0858 -0.0000
vn 0.9520 0.3060 -0.0000
vn -0.4948 0.1435 0.8571
vn 0.2410 -0.2786 0.9297
vn 0.2371 -0.2718 0.9327
vn 0.2477 -0.2905 0.9243
vn -0.6831 -0.2581 0.6831
vn -0.6831 -0.2582 0.6831
vn -0.9327 -0.2718 -0.2371
vn -0.9297 -0.2786 -0.2410
vn -0.9243 -0.2905 -0.2477
vn -0.2589 -0.3024 -0.9173
vn -0.2528 -0.3118 -0.9159
vn -0.2449 -0.3238 -0.9139
vn -0.2597 0.1665 -0.9512
vn -0.2681 0.1697 -0.9483
vn -0.2553 0.1648 -0.9527
vn 0.6695 -0.3217 -0.6695
vn 0.9159 -0.3118 0.2528
vn 0.9173 -0.3024 0.2589
vn 0.9139 -0.3238 0.2449
vn -0.0707 -0.9950 0.0707
vn -0.7069 0.0250 0.7069
vn 0.6907 0.2141 -0.6907
vn 0.2536 0.0718 0.9647
vn 0.2460 0.0748 0.9664
vn 0.2396 0.0774 0.9678
vn -0.9646 0.0718 -0.2536
vn -0.9664 0.0748 -0.2460
vn -0.9636 0.0699 -0.2582
vn 0.9512 0.1665 0.2597
vn 0.9483 0.1697 0.2681
vn 0.9462 0.1720 0.2742
vn -0.2210 -0.1787 -0.9588
vn 0.3851 -0.9216 -0.0480
vn 0.0480 -0.9216 -0.3851
vn -0.1435 -0.9705 -0.1936
vn 0.1936 -0.9705 0.1435
vn 0.3123 -0.8972 -0.3123
vn -0.8699 0.4695 -0.1510
vn -0.6365 -0.4355 0.6365
vn 0.7040 -0.0931 -0.7040
vn -0.8912 -0.3499 -0.2885
vn -0.8913 -0.3499 -0.2885
vn 0.2885 -0.3499 0.8912
vn 0.9588 -0.1787 0.2210
vn -0.3551 0.8647 0.3551
vn 0.1510 0.4695 0.8699
vn 0.7311 0.6176 0.2899
vn -0.2899 0.6176 -0.7311
vn -0.6495 0.3954 0.6495
vn 0.5107 0.6917 -0.5107
vn -0.1257 0.9841 0.1257
vn 0.1188 0.9858 -0.1188
vn -0.4452 0.8950 0.0281
vn -0.0281 0.8950 0.4452
vn 0.2089 0.9555 0.2082
vn -0.2082 0.9555 -0.2089
vn 0.9608 0.1176 0.2512
vn 0.9603 0.1163 0.2535
vn 0.9613 0.1192 0.2482
vn -0.9244 0.2794 -0.2595
vn -0.9262 0.2772 -0.2556
vn -0.9291 0.2734 -0.2490
vn 0.2595 0.2794 0.9244
vn 0.2556 0.2772 0.9262
vn 0.2649 0.2825 0.9220
vn 0.7066 0.0373 -0.7066
vn -0.6601 0.3584 0.6601
vn -0.2512 0.1176 -0.9608
vn -0.2535 0.1163 -0.9603
vn -0.2571 0.1144 -0.9596
vn -0.1943 -0.4227 -0.8852
vn 0.8852 -0.4227 0.1944
vn 0.2670 -0.4913 0.8290
vn 0.2618 0.1945 0.9453
vn -0.8290 -0.4913 -0.2670
vn -0.2384 0.0847 -0.9675
vn 0.9630 0.0929 0.2531
vn -0.9428 0.1874 -0.2757
vn -0.9633 0.0645 -0.2605
vn 0.9454 0.1846 0.2685
vn -0.2466 0.1753 -0.9531
vn -0.7071 0.0134 0.7070
vn 0.2497 0.0687 0.9659
vn -0.4720 0.2437 0.8472
vn 0.4940 0.1545 -0.8556
vn 0.5037 0.1604 0.8489
vn -0.4858 0.2369 -0.8414
vn 0.2319 -0.2625 0.9366
vn -0.9366 -0.2625 -0.2320
vn -0.2648 -0.2934 -0.9186
vn -0.2742 0.1720 -0.9462
vn 0.9186 -0.2934 0.2648
vn 0.2582 0.0699 0.9636
vn -0.9678 0.0774 -0.2396
vn 0.9527 0.1648 0.2553
vn 0.2885 -0.3499 0.8913
vn 0.9596 0.1144 0.2571
vn -0.9220 0.2825 -0.2649
vn 0.2489 0.2734 0.9291
vn -0.2483 0.1192 -0.9613
s 1
f 2/1/1 3/2/2 1/3/3
f 3/2/4 6/4/4 5/5/4
f 5/5/5 8/6/6 7/7/7
f 7/7/8 10/8/9 9/9/10
f 44/10/11 16/11/12 17/12/13
f 9/9/14 12/13/14 11/14/14
f 12/13/15 1/3/16 11/14/17
f 18/15/18 23/16/18 24/17/18
f 45/18/19 15/19/20 46/20/19
f 44/10/21 18/21/21 47/22/21
f 48/23/22 14/24/23 45/18/24
f 43/25/25 15/19/26 16/11/27
f 47/22/28 13/26/29 48/23/30
f 22/27/31 29/28/31 23/16/31
f 16/29/32 21/30/32 22/27/32
f 13/31/33 20/32/33 14/33/33
f 13/31/34 24/17/34 19/34/34
f 17/35/35 22/27/35 23/16/35
f 14/33/36 21/30/36 15/36/36
f 27/37/37 34/38/38 28/39/38
f 20/32/39 27/37/39 21/30/39
f 23/16/40 30/40/40 24/17/40
f 22/27/41 27/37/41 28/39/41
f 19/34/42 26/41/42 20/32/42
f 24/17/43 25/42/43 19/34/43
f 32/43/44 39/44/44 33/45/44
f 26/41/45 31/46/46 32/43/45
f 25/42/47 36/47/47 31/46/47
f 29/28/48 34/38/48 35/48/48
f 26/41/49 33/45/49 27/37/49
f 29/28/50 36/47/50 30/40/50
f 40/49/51 39/44/51 37/50/51
f 35/48/52 42/51/52 36/47/52
f 34/38/53 39/44/53 40/49/53
f 31/46/54 38/52/54 32/43/54
f 36/47/55 37/50/55 31/46/55
f 34/38/56 41/53/56 35/48/56
f 12/13/57 48/23/58 2/1/59
f 8/6/60 46/20/61 43/25/62
f 2/1/63 45/18/64 4/54/65
f 12/13/66 44/10/66 47/22/66
f 6/4/67 45/18/67 46/20/67
f 10/8/68 43/25/69 44/10/70
f 50/55/71 51/56/71 49/57/72
f 51/56/73 54/58/73 53/59/73
f 54/58/74 55/60/74 53/59/74
f 55/60/75 58/61/75 57/62/75
f 91/63/76 65/64/77 92/65/78
f 58/61/79 59/66/79 57/62/79
f 59/66/80 50/55/80 49/57/81
f 65/67/82 72/68/82 66/69/82
f 93/70/83 63/71/83 94/72/83
f 95/73/84 65/64/84 66/74/84
f 93/70/85 61/75/86 62/76/87
f 94/72/88 64/77/89 91/63/90
f 96/78/91 66/74/92 61/75/93
f 70/79/94 77/80/94 71/81/94
f 64/82/95 69/83/95 70/79/95
f 61/84/96 68/85/96 62/86/96
f 66/69/97 67/87/97 61/84/97
f 64/82/98 71/81/98 65/67/98
f 62/86/99 69/83/99 63/88/99
f 76/89/100 81/90/100 82/91/100
f 68/85/101 75/92/101 69/83/101
f 71/81/102 78/93/102 72/68/102
f 70/79/103 75/92/103 76/89/103
f 67/87/104 74/94/104 68/85/104
f 67/87/105 78/93/105 73/95/105
f 80/96/106 87/97/106 81/90/106
f 73/95/107 80/96/107 74/94/107
f 73/95/108 84/98/108 79/99/108
f 76/89/109 83/100/109 77/80/109
f 75/92/110 80/96/110 81/90/110
f 77/80/111 84/98/111 78/93/111
f 88/101/112 87/97/112 85/102/112
f 84/98/113 89/103/113 90/104/113
f 81/90/114 88/101/114 82/91/114
f 80/96/115 85/102/115 86/105/115
f 84/98/116 85/102/116 79/99/116
f 83/100/117 88/101/117 89/103/117
f 60/106/118 96/78/118 50/55/119
f 56/107/120 94/72/120 91/63/120
f 50/55/121 93/70/121 52/108/121
f 58/61/122 95/73/122 60/106/122
f 54/58/123 93/70/123 94/72/123
f 58/61/124 91/63/124 92/65/124
f 98/109/125 99/110/126 97/111/127
f 99/110/128 102/112/128 101/113/129
f 101/113/130 104/114/131 103/115/132
f 103/115/133 106/116/134 105/117/135
f 139/118/136 113/119/137 140/120/138
f 105/117/139 108/121/139 107/122/139
f 108/121/140 97/111/141 107/122/142
f 114/123/143 119/124/143 120/125/143
f 141/126/144 111/127/144 142/128/144
f 140/120/145 114/129/145 143/130/145
f 141/126/146 109/131/147 110/132/148
f 142/128/149 112/133/150 139/118/151
f 144/134/152 114/129/153 109/131/154
f 119/124/155 124/135/155 125/136/155
f 112/137/156 117/138/156 118/139/156
f 110/140/157 115/141/157 116/142/157
f 114/123/158 115/141/158 109/143/158
f 113/144/159 118/139/159 119/124/159
f 111/145/160 116/142/160 117/138/160
f 123/146/161 130/147/161 124/135/161
f 116/142/162 123/146/162 117/138/162
f 120/125/163 125/136/163 126/148/163
f 117/138/164 124/135/164 118/139/165
f 116/142/166 121/149/166 122/150/166
f 115/141/167 126/148/167 121/149/167
f 129/151/168 134/152/168 135/153/168
f 121/149/169 128/154/169 122/150/169
f 121/149/170 132/155/170 127/156/170
f 124/135/171 131/157/171 125/136/171
f 122/150/172 129/151/172 123/146/172
f 126/148/173 131/157/173 132/155/173
f 137/158/174 136/159/174 135/153/174
f 132/155/175 137/158/175 138/160/175
f 129/151/176 136/159/176 130/147/176
f 128/154/177 133/161/177 134/152/177
f 132/155/178 133/161/178 127/156/178
f 131/157/179 136/159/179 137/158/179
f 108/121/180 144/134/181 98/109/182
f 104/114/183 142/128/184 139/118/185
f 98/109/186 141/126/187 100/162/188
f 108/121/189 140/120/189 143/130/189
f 100/162/190 142/128/190 102/112/190
f 106/116/191 139/118/192 140/120/193
f 2/1/1 4/54/194 3/2/2
f 3/2/4 4/54/4 6/4/4
f 5/5/5 6/4/195 8/6/6
f 7/7/8 8/6/196 10/8/9
f 44/10/11 43/25/197 16/11/12
f 9/9/14 10/8/14 12/13/14
f 12/13/15 2/1/198 1/3/16
f 18/15/18 17/35/18 23/16/18
f 45/18/19 14/24/20 15/19/20
f 44/10/21 17/12/21 18/21/21
f 48/23/22 13/26/199 14/24/23
f 43/25/25 46/20/200 15/19/26
f 47/22/28 18/21/201 13/26/29
f 22/27/31 28/39/31 29/28/31
f 16/29/32 15/36/32 21/30/32
f 13/31/33 19/34/33 20/32/33
f 13/31/34 18/15/34 24/17/34
f 17/35/35 16/29/35 22/27/35
f 14/33/36 20/32/36 21/30/36
f 27/37/37 33/45/37 34/38/38
f 20/32/39 26/41/39 27/37/39
f 23/16/40 29/28/40 30/40/40
f 22/27/41 21/30/41 27/37/41
f 19/34/42 25/42/42 26/41/42
f 24/17/43 30/40/43 25/42/43
f 32/43/44 38/52/44 39/44/44
f 26/41/45 25/42/46 31/46/46
f 25/42/47 30/40/47 36/47/47
f 29/28/48 28/39/48 34/38/48
f 26/41/49 32/43/49 33/45/49
f 29/28/50 35/48/50 36/47/50
f 39/44/51 38/52/51 37/50/51
f 37/50/51 42/51/51 41/53/51
f 41/53/51 40/49/51 37/50/51
f 35/48/52 41/53/52 42/51/52
f 34/38/53 33/45/53 39/44/53
f 31/46/54 37/50/54 38/52/54
f 36/47/55 42/51/55 37/50/55
f 34/38/56 40/49/56 41/53/56
f 12/13/57 47/22/202 48/23/58
f 8/6/60 6/4/203 46/20/61
f 2/1/63 48/23/204 45/18/64
f 12/13/66 10/8/205 44/10/66
f 6/4/67 4/54/67 45/18/67
f 10/8/68 8/6/206 43/25/69
f 50/55/71 52/108/71 51/56/71
f 51/56/73 52/108/73 54/58/73
f 54/58/74 56/107/74 55/60/74
f 55/60/75 56/107/75 58/61/75
f 91/63/76 64/77/207 65/64/77
f 58/61/79 60/106/79 59/66/79
f 59/66/80 60/106/80 50/55/80
f 65/67/82 71/81/82 72/68/82
f 93/70/83 62/76/83 63/71/83
f 95/73/84 92/65/84 65/64/84
f 93/70/85 96/78/208 61/75/86
f 94/72/88 63/71/209 64/77/89
f 96/78/91 95/73/210 66/74/92
f 70/79/94 76/89/94 77/80/94
f 64/82/95 63/88/95 69/83/95
f 61/84/96 67/87/96 68/85/96
f 66/69/97 72/68/97 67/87/97
f 64/82/98 70/79/98 71/81/98
f 62/86/99 68/85/99 69/83/99
f 76/89/100 75/92/100 81/90/100
f 68/85/101 74/94/101 75/92/101
f 71/81/102 77/80/102 78/93/102
f 70/79/103 69/83/103 75/92/103
f 67/87/104 73/95/104 74/94/104
f 67/87/105 72/68/105 78/93/105
f 80/96/106 86/105/106 87/97/106
f 73/95/107 79/99/107 80/96/107
f 73/95/108 78/93/108 84/98/108
f 76/89/109 82/91/109 83/100/109
f 75/92/110 74/94/110 80/96/110
f 77/80/111 83/100/111 84/98/111
f 87/97/112 86/105/112 85/102/112
f 85/102/112 90/104/112 89/103/112
f 89/103/112 88/101/112 85/102/112
f 84/98/113 83/100/113 89/103/113
f 81/90/114 87/97/114 88/101/114
f 80/96/115 79/99/115 85/102/115
f 84/98/116 90/104/116 85/102/116
f 83/100/117 82/91/117 88/101/117
f 60/106/118 95/73/118 96/78/118
f 56/107/120 54/58/120 94/72/120
f 50/55/121 96/78/121 93/70/121
f 58/61/122 92/65/122 95/73/122
f 54/58/123 52/108/123 93/70/123
f 58/61/124 56/107/124 91/63/124
f 98/109/125 100/162/211 99/110/126
f 99/110/128 100/162/128 102/112/128
f 101/113/130 102/112/212 104/114/131
f 103/115/133 104/114/213 106/116/134
f 139/118/136 112/133/214 113/119/137
f 105/117/139 106/116/139 108/121/139
f 108/121/140 98/109/215 97/111/141
f 114/123/143 113/144/143 119/124/143
f 141/126/144 110/132/144 111/127/144
f 140/120/145 113/119/145 114/129/145
f 141/126/146 144/134/216 109/131/147
f 142/128/149 111/127/217 112/133/150
f 144/134/152 143/130/218 114/129/153
f 119/124/155 118/139/155 124/135/155
f 112/137/156 111/145/156 117/138/156
f 110/140/157 109/143/157 115/141/157
f 114/123/158 120/125/158 115/141/158
f 113/144/159 112/137/159 118/139/159
f 111/145/160 110/140/160 116/142/160
f 123/146/161 129/151/161 130/147/161
f 116/142/162 122/150/162 123/146/162
f 120/125/163 119/124/163 125/136/163
f 117/138/164 123/146/164 124/135/164
f 116/142/166 115/141/219 121/149/166
f 115/141/167 120/125/167 126/148/167
f 129/151/168 128/154/168 134/152/168
f 121/149/169 127/156/169 128/154/169
f 121/149/170 126/148/170 132/155/170
f 124/135/171 130/147/171 131/157/171
f 122/150/172 128/154/172 129/151/172
f 126/148/173 125/136/173 131/157/173
f 135/153/174 134/152/174 133/161/174
f 133/161/174 138/160/174 135/153/174
f 138/160/174 137/158/174 135/153/174
f 132/155/175 131/157/175 137/158/175
f 129/151/176 135/153/176 136/159/176
f 128/154/177 127/156/177 133/161/177
f 132/155/178 138/160/178 133/161/178
f 131/157/179 130/147/179 136/159/179
f 108/121/180 143/130/220 144/134/181
f 104/114/183 102/112/221 142/128/184
f 98/109/186 144/134/222 141/126/187
f 108/121/189 106/116/189 140/120/189
f 100/162/190 141/126/190 142/128/190
f 106/116/191 104/114/223 139/118/192
