# Blender v2.81 (sub 16) OBJ File: 'models.blend'
# www.blender.org
o N_Stump_Normal_03_CUPlane.021
v 0.587703 -0.000000 -0.411421
v 0.125528 -0.000000 -0.596316
v -0.265683 -0.000000 -0.288508
v -0.188032 -0.000388 0.225649
v 0.267455 0.000000 0.389089
v 0.658666 0.000000 0.081281
v 0.346501 1.544462 -0.074773
v 0.067902 1.547100 -0.186019
v 0.389548 1.524629 0.221460
v 0.182791 1.547100 0.511518
v -0.276763 1.547100 0.429454
v -0.317795 1.547100 -0.021893
vt 0.038866 0.007963
vt 0.038866 0.173249
vt 0.038866 0.007963
vt 0.038866 0.007963
vt 0.038866 0.173531
vt 0.038866 0.007922
vt 0.038866 0.007963
vt 0.038866 0.171127
vt 0.038866 0.173531
vt 0.038866 0.007963
vt 0.038866 0.173531
vt 0.038866 0.173531
vn 0.3596 0.2519 -0.8984
vn 0.3607 0.2517 -0.8981
vn 0.3594 0.2520 -0.8985
vn 0.9742 0.1836 -0.1313
vn 0.9733 0.1827 -0.1389
vn 0.9732 0.1825 -0.1402
vn -0.2051 -0.1301 0.9701
vn -0.3069 -0.1013 0.9463
vn -0.3362 -0.0926 0.9372
vn 0.6482 0.0317 0.7608
vn 0.7841 0.0054 0.6206
vn 0.8142 -0.0014 0.5805
vn -0.9859 -0.0761 0.1488
vn -0.6738 0.1562 -0.7222
vn -0.8879 0.0489 -0.4575
vn -0.4300 0.1517 -0.8900
vn 0.0148 0.9998 0.0123
vn -0.0000 1.0000 -0.0000
vn 0.3610 0.2516 -0.8980
vn 0.9744 0.1839 -0.1293
vn -0.1741 -0.1384 0.9750
vn 0.6179 0.0369 0.7854
vn -0.6080 0.1823 -0.7727
vn -0.9947 -0.0491 0.0904
vn 0.0343 0.9994 -0.0056
vn 0.0646 0.9979 0.0040
vn -0.0183 0.9974 0.0694
s 1
f 2/1/1 7/2/2 1/3/3
f 7/2/4 6/4/5 1/3/6
f 10/5/7 4/6/8 5/7/9
f 5/7/10 9/8/11 10/5/12
f 4/6/13 11/9/13 3/10/13
f 3/10/14 12/11/15 8/12/16
f 8/12/17 12/11/18 11/9/18
f 2/1/1 8/12/19 7/2/2
f 7/2/4 9/8/20 6/4/5
f 10/5/7 11/9/21 4/6/8
f 5/7/10 6/4/22 9/8/11
f 8/12/16 2/1/23 3/10/14
f 3/10/14 11/9/24 12/11/15
f 11/9/18 10/5/25 8/12/17
f 10/5/25 9/8/26 8/12/17
f 9/8/26 7/2/27 8/12/17
