# Blender v2.81 (sub 16) OBJ File: 'models.blend'
# www.blender.org
o N_Stump_Normal_04_CUPlane.029
v -0.172168 -0.000000 -0.271975
v -0.410901 0.000000 0.145805
v -0.122990 -0.004305 0.578773
v 0.309010 0.000000 -0.274121
v 0.297446 1.402920 0.100561
v 0.150044 1.411628 0.361705
v 0.327824 -0.002934 0.581951
v 0.567029 -0.003524 0.189909
v 0.591873 1.345520 0.096345
v 0.652649 1.411628 0.282555
v 0.569541 1.411628 0.543751
vt 0.037051 0.005318
vt 0.037051 0.156848
vt 0.037051 0.005778
vt 0.037051 0.149774
vt 0.037051 0.005401
vt 0.037051 0.005778
vt 0.037051 0.155916
vt 0.037051 0.156848
vt 0.037051 0.005464
vt 0.037051 0.156848
vt 0.037051 0.005778
vn -0.8076 0.2384 0.5394
vn 0.8727 -0.0498 -0.4857
vn 0.0005 0.2580 -0.9661
vn 0.0288 0.2581 -0.9657
vn 0.0365 0.2581 -0.9654
vn -0.7977 0.3879 -0.4618
vn -0.7995 0.3889 -0.4578
vn -0.7972 0.3876 -0.4629
vn 0.8616 -0.1246 0.4920
vn 0.9345 -0.0879 0.3451
vn 0.8462 -0.1307 0.5165
vn 0.9539 -0.0382 -0.2978
vn -0.0786 0.1437 0.9865
vn -0.3293 0.1047 0.9384
vn -0.0074 0.1529 0.9882
vn -0.0035 0.9997 -0.0225
vn -0.0000 1.0000 -0.0000
vn 0.0549 0.9895 -0.1335
vn -0.0043 0.2580 -0.9661
vn -0.7998 0.3891 -0.4570
vn 0.9501 -0.0773 0.3023
vn -0.3964 0.0924 0.9134
vn 0.1719 0.9093 -0.3789
vn 0.0388 0.9916 -0.1232
s 1
f 3/1/1 6/2/1 2/3/1
f 9/4/2 8/5/2 4/6/2
f 4/6/3 5/7/4 9/4/5
f 5/7/6 2/3/7 6/2/8
f 8/5/9 11/8/10 7/9/11
f 9/4/12 10/10/12 8/5/12
f 7/9/13 6/2/14 3/1/15
f 6/2/16 11/8/17 10/10/18
f 4/6/3 1/11/19 5/7/4
f 5/7/6 1/11/20 2/3/7
f 8/5/9 10/10/21 11/8/10
f 7/9/13 11/8/22 6/2/14
f 10/10/18 9/4/23 5/7/24
f 5/7/24 6/2/16 10/10/18
