# Blender v2.81 (sub 16) OBJ File: 'models.blend'
# www.blender.org
o N_Stump_Normal_02_CUPlane.022
v -0.367373 -0.000000 -0.399279
v -0.480274 0.000000 0.097456
v -0.106538 0.000000 0.443600
v 0.380098 0.000000 0.293007
v 0.493000 -0.000000 -0.203729
v 0.119264 0.000000 -0.549872
v -0.120748 1.307092 -0.227166
v -0.180537 1.235758 0.093793
v 0.047345 1.304959 0.326872
v 0.424398 1.278923 0.219712
v 0.501434 1.288602 -0.117864
v 0.199645 1.622459 -0.295524
vt 0.039159 0.019634
vt 0.039159 0.159288
vt 0.039159 0.019634
vt 0.039159 0.151883
vt 0.039159 0.019634
vt 0.039159 0.019634
vt 0.039159 0.019634
vt 0.039159 0.156502
vt 0.039159 0.159517
vt 0.039159 0.019634
vt 0.039159 0.157538
vt 0.039159 0.193267
vn 0.2917 0.0496 0.9552
vn 0.2805 0.0466 0.9587
vn 0.2952 0.0505 0.9541
vn -0.9663 0.2072 -0.1531
vn -0.9531 0.2249 -0.2025
vn -0.9491 0.2296 -0.2157
vn 0.9749 -0.0211 0.2216
vn 0.9749 -0.0211 0.2218
vn -0.6799 0.1618 0.7153
vn -0.7170 0.1498 0.6808
vn -0.6702 0.1647 0.7236
vn -0.3460 0.1645 -0.9237
vn -0.3009 0.1761 -0.9372
vn -0.2909 0.1786 -0.9399
vn 0.5990 0.0892 -0.7958
vn 0.6610 0.0549 -0.7484
vn 0.5829 0.0976 -0.8067
vn -0.0592 0.9966 -0.0571
vn -0.0403 0.9886 -0.1453
vn -0.0115 0.9616 -0.2742
vn -0.1516 0.3541 0.9229
vn -0.0088 0.9765 0.2154
vn 0.2760 0.0455 0.9601
vn -0.9701 0.2010 -0.1360
vn 0.9748 -0.0212 0.2219
vn -0.7287 0.1458 0.6692
vn -0.3558 0.1619 -0.9204
vn 0.6788 0.0444 -0.7329
vn -0.0736 0.9972 0.0118
s 1
f 4/1/1 9/2/2 3/3/3
f 8/4/4 1/5/5 2/6/6
f 5/7/7 10/8/8 4/1/7
f 3/3/9 8/4/10 2/6/11
f 7/9/12 6/10/13 1/5/14
f 11/11/15 6/10/16 12/12/17
f 10/8/18 8/4/19 9/2/20
f 7/9/21 11/11/21 12/12/21
f 8/4/22 11/11/22 7/9/22
f 4/1/1 10/8/23 9/2/2
f 8/4/4 7/9/24 1/5/5
f 5/7/7 11/11/25 10/8/8
f 3/3/9 9/2/26 8/4/10
f 7/9/12 12/12/27 6/10/13
f 11/11/15 5/7/28 6/10/16
f 10/8/18 11/11/29 8/4/19
