# Blender v2.81 (sub 16) OBJ File: 'models.blend'
# www.blender.org
o V_Banner_02_Cylinder.377
v -0.400000 0.660000 0.125990
v 0.399999 0.660000 0.125990
v -0.400000 1.960000 0.125990
v 0.399999 1.960000 0.125990
v -0.000002 0.160000 0.125990
v -0.000002 0.000000 -0.099998
v -0.000002 2.200000 -0.099998
v 0.095103 0.000000 -0.030900
v 0.095103 2.200000 -0.030900
v 0.058776 0.000000 0.080902
v 0.058776 2.200000 0.080902
v -0.058780 0.000000 0.080902
v -0.058780 2.200000 0.080902
v -0.095107 0.000000 -0.030900
v -0.095107 2.200000 -0.030900
v 0.499999 1.912286 -0.059567
v -0.500003 1.912287 -0.059567
v 0.499999 2.007392 0.009532
v -0.500003 2.007392 0.009531
v 0.499999 1.971065 0.121335
v -0.500003 1.971065 0.121336
v 0.499999 1.853508 0.121335
v -0.500003 1.853508 0.121336
v 0.499999 1.817181 0.009532
v -0.500003 1.817181 0.009531
vt 0.928762 0.943662
vt 0.928762 0.943662
vt 0.928762 0.943662
vt 0.928762 0.943662
vt 0.036517 0.485383
vt 0.036517 0.135931
vt 0.036517 0.135931
vt 0.036517 0.485383
vt 0.036517 0.135931
vt 0.036517 0.485383
vt 0.036517 0.135931
vt 0.959837 0.948160
vt 0.959837 0.948160
vt 0.959837 0.948160
vt 0.036517 0.485383
vt 0.036517 0.135931
vt 0.036517 0.485383
vt 0.959837 0.948160
vt 0.959837 0.948160
vt 0.959837 0.948160
vt 0.036517 0.439682
vt 0.036517 0.454788
vt 0.036517 0.439682
vt 0.036517 0.449018
vt 0.036517 0.449018
vt 0.036517 0.430345
vt 0.959837 0.948160
vt 0.959837 0.948160
vt 0.959837 0.948160
vt 0.036517 0.430345
vt 0.036517 0.424575
vt 0.959837 0.948160
vt 0.959837 0.948160
vt 0.959837 0.948160
vt 0.928762 0.943662
vt 0.959837 0.948160
vt 0.959837 0.948160
vt 0.959837 0.948160
vt 0.959837 0.948160
vt 0.036517 0.454788
vt 0.959837 0.948160
vt 0.959837 0.948160
vt 0.036517 0.424575
vt 0.959837 0.948160
vt 0.959837 0.948160
vn 0.0000 0.0000 1.0000
vn 0.5878 -0.0000 -0.8090
vn 0.9511 0.0000 0.3090
vn 0.0000 1.0000 -0.0000
vn -0.9511 0.0000 0.3090
vn -0.5878 -0.0000 -0.8090
vn -0.0000 -1.0000 0.0000
vn 0.0000 0.5878 -0.8090
vn 0.0000 0.9511 0.3090
vn -1.0000 0.0000 0.0000
vn -0.0000 -0.9511 0.3090
vn -0.0000 -0.5878 -0.8090
vn 1.0000 0.0000 0.0000
s 1
f 2/1/1 3/2/1 1/3/1
f 2/1/1 1/3/1 5/4/1
f 7/5/2 8/6/2 6/7/2
f 9/8/3 10/9/3 8/6/3
f 11/10/1 12/11/1 10/9/1
f 7/12/4 13/13/4 11/14/4
f 13/15/5 14/16/5 12/11/5
f 15/17/6 6/7/6 14/16/6
f 8/18/7 10/19/7 12/20/7
f 17/21/8 18/22/8 16/23/8
f 18/22/9 21/24/9 20/25/9
f 21/24/1 22/26/1 20/25/1
f 17/27/10 23/28/10 21/29/10
f 23/30/11 24/31/11 22/26/11
f 24/31/12 17/21/12 16/23/12
f 18/32/13 22/33/13 24/34/13
f 2/1/1 4/35/1 3/2/1
f 7/5/2 9/8/2 8/6/2
f 9/8/3 11/10/3 10/9/3
f 11/10/1 13/15/1 12/11/1
f 11/14/4 9/36/4 7/12/4
f 7/12/4 15/37/4 13/13/4
f 13/15/5 15/17/5 14/16/5
f 15/17/6 7/5/6 6/7/6
f 14/38/7 6/39/7 12/20/7
f 6/39/7 8/18/7 12/20/7
f 17/21/8 19/40/8 18/22/8
f 18/22/9 19/40/9 21/24/9
f 21/24/1 23/30/1 22/26/1
f 21/29/10 19/41/10 17/27/10
f 17/27/10 25/42/10 23/28/10
f 23/30/11 25/43/11 24/31/11
f 24/31/12 25/43/12 17/21/12
f 24/34/13 16/44/13 18/32/13
f 18/32/13 20/45/13 22/33/13
