# Blender v2.81 (sub 16) OBJ File: 'models.blend'
# www.blender.org
o V_Book_02_Cylinder.175
v -0.089998 -0.030000 0.100003
v -0.089998 -0.010000 0.100003
v -0.089998 -0.030000 -0.199997
v -0.089998 -0.010000 -0.199997
v 0.110002 -0.030000 0.100003
v 0.110002 -0.010000 0.100003
v 0.110002 -0.030000 -0.199997
v 0.110002 -0.010000 -0.199997
v -0.089998 0.010000 -0.199997
v -0.109998 -0.010000 0.100003
v -0.089998 0.010000 0.100003
v -0.109998 -0.010000 -0.199997
v -0.109998 0.010000 0.100003
v -0.109998 0.010000 -0.199997
v -0.089998 0.030000 -0.199997
v -0.089998 0.030000 0.100003
v 0.110002 0.010000 0.100003
v 0.110002 0.010000 -0.199997
v 0.110002 0.030000 -0.199997
v 0.110002 0.030000 0.100003
v -0.089998 -0.010000 0.090003
v -0.089998 0.010000 0.090003
v -0.089998 -0.010000 -0.189997
v -0.089998 0.010000 -0.189997
v 0.100001 -0.010000 0.090003
v 0.100001 0.010000 0.090003
v 0.100001 -0.010000 -0.189997
v 0.100001 0.010000 -0.189997
vt 0.919469 0.928765
vt 0.919469 0.928765
vt 0.919469 0.928765
vt 0.919469 0.928765
vt 0.919469 0.928765
vt 0.919469 0.928765
vt 0.919469 0.928765
vt 0.919469 0.928765
vt 0.919469 0.928765
vt 0.919469 0.928765
vt 0.919469 0.928765
vt 0.919469 0.928765
vt 0.919469 0.928765
vt 0.919469 0.928765
vt 0.919469 0.928765
vt 0.919469 0.928765
vt 0.919469 0.928765
vt 0.919469 0.928765
vt 0.919469 0.928765
vt 0.919469 0.928765
vt 0.885991 0.942493
vt 0.885991 0.942493
vt 0.885991 0.942493
vt 0.885991 0.942493
vt 0.885991 0.942493
vt 0.885991 0.942493
vt 0.885991 0.942493
vt 0.885991 0.942493
vn 0.0000 0.0000 1.0000
vn 0.0000 0.0000 -1.0000
vn 1.0000 -0.0000 0.0000
vn 0.0000 -1.0000 0.0000
vn 0.0000 1.0000 -0.0000
vn -0.7071 -0.7071 0.0000
vn -1.0000 0.0000 0.0000
vn -0.7071 0.7071 -0.0000
s 1
f 2/1/1 13/2/1 10/3/1
f 4/4/2 7/5/2 3/6/2
f 8/7/3 5/8/3 7/5/3
f 6/9/1 1/10/1 5/8/1
f 7/5/4 1/10/4 3/6/4
f 4/4/5 6/9/5 8/7/5
f 9/11/2 14/12/2 15/13/2
f 1/10/6 12/14/6 3/6/6
f 4/4/2 3/6/2 12/14/2
f 1/10/1 2/1/1 10/3/1
f 4/4/3 11/15/3 2/1/3
f 12/14/2 9/11/2 4/4/2
f 10/3/7 14/12/7 12/14/7
f 18/16/3 20/17/3 17/18/3
f 13/2/1 11/15/1 16/19/1
f 13/2/8 15/13/8 14/12/8
f 16/19/5 19/20/5 15/13/5
f 11/15/1 20/17/1 16/19/1
f 9/11/4 17/18/4 11/15/4
f 15/13/2 18/16/2 9/11/2
f 24/21/2 27/22/2 23/23/2
f 28/24/3 25/25/3 27/22/3
f 26/26/1 21/27/1 25/25/1
f 2/1/1 11/15/1 13/2/1
f 4/4/2 8/7/2 7/5/2
f 8/7/3 6/9/3 5/8/3
f 6/9/1 2/1/1 1/10/1
f 7/5/4 5/8/4 1/10/4
f 4/4/5 2/1/5 6/9/5
f 1/10/6 10/3/6 12/14/6
f 4/4/3 9/11/3 11/15/3
f 12/14/2 14/12/2 9/11/2
f 10/3/7 13/2/7 14/12/7
f 18/16/3 19/20/3 20/17/3
f 13/2/8 16/19/8 15/13/8
f 16/19/5 20/17/5 19/20/5
f 11/15/1 17/18/1 20/17/1
f 9/11/4 18/16/4 17/18/4
f 15/13/2 19/20/2 18/16/2
f 24/21/2 28/24/2 27/22/2
f 28/24/3 26/26/3 25/25/3
f 26/26/1 22/28/1 21/27/1
