# Blender v2.81 (sub 16) OBJ File: 'models.blend'
# www.blender.org
o V_Candlabrum_Cylinder.174
v -0.006849 0.270540 -0.012499
v -0.006849 0.270540 0.012501
v -0.000003 0.250000 0.025001
v 0.006844 0.229461 0.012501
v 0.006844 0.229461 -0.012499
v -0.000003 0.250000 -0.024999
v 0.134689 0.315309 -0.012499
v 0.134689 0.315309 0.012501
v 0.149998 0.300000 0.025001
v 0.165307 0.284691 0.012501
v 0.165307 0.284691 -0.012499
v 0.149998 0.300000 -0.024999
v 0.178626 0.403468 -0.012499
v 0.178626 0.403468 0.012501
v 0.199996 0.400000 0.025001
v 0.221369 0.396532 0.012501
v 0.221369 0.396532 -0.012499
v 0.199996 0.400000 -0.024999
v 0.178346 0.550000 -0.012499
v 0.178346 0.550000 0.012501
v 0.199996 0.550000 0.025001
v 0.221647 0.550000 0.012501
v 0.221647 0.550000 -0.012499
v 0.199996 0.550000 -0.024999
v 0.006844 0.270540 0.012501
v 0.006844 0.270540 -0.012499
v -0.006849 0.229461 -0.012499
v -0.006849 0.229461 0.012501
v -0.134695 0.315309 0.012501
v -0.134695 0.315309 -0.012499
v -0.150004 0.300000 -0.024999
v -0.165312 0.284691 -0.012499
v -0.165312 0.284691 0.012501
v -0.150004 0.300000 0.025001
v -0.178632 0.403468 0.012501
v -0.178632 0.403468 -0.012499
v -0.200002 0.400000 -0.024999
v -0.221375 0.396532 -0.012499
v -0.221375 0.396532 0.012501
v -0.200002 0.400000 0.025001
v -0.178351 0.550000 0.012501
v -0.178351 0.550000 -0.012499
v -0.200002 0.550000 -0.024999
v -0.221653 0.550000 -0.012499
v -0.221653 0.550000 0.012501
v -0.200002 0.550000 0.025001
v -0.012502 0.150000 0.021652
v 0.012497 0.150000 0.021652
v 0.024996 0.150000 0.000001
v 0.012497 0.150000 -0.021649
v -0.012502 0.150000 -0.021649
v -0.025002 0.150000 0.000001
v -0.012502 0.700000 0.021652
v 0.012497 0.700000 0.021652
v 0.024996 0.700000 0.000001
v 0.012497 0.700000 -0.021650
v -0.012502 0.700000 -0.021650
v -0.025002 0.700000 0.000001
v -0.021253 0.100000 0.036807
v 0.021247 0.100000 0.036807
v 0.042497 0.100000 0.000001
v 0.021247 0.100000 -0.036805
v -0.021253 0.100000 -0.036805
v -0.042503 0.100000 0.000001
v -0.012753 0.050000 0.022085
v 0.012748 0.050000 0.022085
v 0.025498 0.050000 0.000001
v 0.012748 0.050000 -0.022083
v -0.012753 0.050000 -0.022083
v -0.025504 0.050000 0.000001
v -0.031878 0.000000 0.055210
v 0.031872 0.000000 0.055210
v 0.063748 0.000000 0.000001
v 0.031872 0.000000 -0.055208
v -0.031878 0.000000 -0.055208
v -0.063753 0.000000 0.000001
v -0.154538 0.580000 0.026251
v -0.154538 0.580000 -0.026249
v -0.200002 0.580000 -0.052499
v -0.245469 0.580000 -0.026249
v -0.245469 0.580000 0.026251
v -0.200002 0.580000 0.052501
v 0.154532 0.580000 -0.026249
v 0.154532 0.580000 0.026251
v 0.199996 0.580000 0.052501
v 0.245463 0.580000 0.026251
v 0.245463 0.580000 -0.026249
v 0.199996 0.580000 -0.052499
v -0.022503 0.730000 0.038972
v 0.022497 0.730000 0.038972
v 0.044997 0.730000 0.000001
v 0.022497 0.730000 -0.038970
v -0.022503 0.730000 -0.038970
v -0.045003 0.730000 0.000001
v -0.200002 0.580000 -0.024999
v -0.200002 0.700000 -0.024999
v -0.178351 0.580000 -0.012499
v -0.178351 0.700000 -0.012499
v -0.178351 0.580000 0.012501
v -0.178351 0.700000 0.012501
v -0.200002 0.580000 0.025001
v -0.200002 0.700000 0.025001
v -0.221653 0.580000 0.012501
v -0.221653 0.700000 0.012501
v -0.221653 0.580000 -0.012499
v -0.221653 0.700000 -0.012499
v -0.000003 0.730000 -0.024999
v -0.000003 0.850000 -0.024999
v 0.021648 0.730000 -0.012499
v 0.021648 0.850000 -0.012499
v 0.021648 0.730000 0.012501
v 0.021648 0.850000 0.012501
v -0.000003 0.730000 0.025001
v -0.000003 0.850000 0.025001
v -0.021654 0.730000 0.012501
v -0.021654 0.850000 0.012501
v -0.021654 0.730000 -0.012499
v -0.021654 0.850000 -0.012499
v 0.199996 0.580000 -0.024999
v 0.199996 0.700000 -0.024999
v 0.221647 0.580000 -0.012499
v 0.221647 0.700000 -0.012499
v 0.221647 0.580000 0.012501
v 0.221647 0.700000 0.012501
v 0.199996 0.580000 0.025001
v 0.199996 0.700000 0.025001
v 0.178346 0.580000 0.012501
v 0.178346 0.700000 0.012501
v 0.178346 0.580000 -0.012499
v 0.178346 0.700000 -0.012499
vt 0.930768 0.927270
vt 0.930768 0.927270
vt 0.930768 0.927270
vt 0.930768 0.927270
vt 0.930768 0.927270
vt 0.930768 0.927270
vt 0.930768 0.927270
vt 0.930768 0.927270
vt 0.930768 0.927270
vt 0.930768 0.927270
vt 0.930768 0.927270
vt 0.930768 0.927270
vt 0.930768 0.927270
vt 0.930768 0.927270
vt 0.930768 0.927270
vt 0.930768 0.927270
vt 0.930768 0.927270
vt 0.930768 0.927270
vt 0.930768 0.927270
vt 0.930768 0.927270
vt 0.930768 0.927270
vt 0.930768 0.927270
vt 0.930768 0.927270
vt 0.930768 0.927270
vt 0.930768 0.927270
vt 0.930768 0.927270
vt 0.930768 0.927270
vt 0.930768 0.927270
vt 0.930768 0.927270
vt 0.930768 0.927270
vt 0.930768 0.927270
vt 0.930768 0.927270
vt 0.930768 0.927270
vt 0.930768 0.927270
vt 0.930768 0.927270
vt 0.930768 0.927270
vt 0.930768 0.927270
vt 0.930768 0.927270
vt 0.930768 0.927270
vt 0.930768 0.927270
vt 0.930768 0.927270
vt 0.930768 0.927270
vt 0.930768 0.927270
vt 0.930768 0.927270
vt 0.930768 0.927270
vt 0.930768 0.927270
vt 0.930768 0.927270
vt 0.930768 0.927270
vt 0.930768 0.927270
vt 0.930768 0.927270
vt 0.930768 0.927270
vt 0.930768 0.927270
vt 0.930768 0.927270
vt 0.930768 0.927270
vt 0.930768 0.927270
vt 0.930768 0.927270
vt 0.930768 0.927270
vt 0.930768 0.927270
vt 0.930768 0.927270
vt 0.930768 0.927270
vt 0.930768 0.927270
vt 0.930768 0.927270
vt 0.930768 0.927270
vt 0.930768 0.927270
vt 0.930768 0.927270
vt 0.930768 0.927270
vt 0.930768 0.927270
vt 0.930768 0.927270
vt 0.930768 0.927270
vt 0.930768 0.927270
vt 0.930768 0.927270
vt 0.930768 0.927270
vt 0.930768 0.927270
vt 0.930768 0.927270
vt 0.930768 0.927270
vt 0.930768 0.927270
vt 0.930768 0.927270
vt 0.930768 0.927270
vt 0.930768 0.927270
vt 0.930768 0.927270
vt 0.930768 0.927270
vt 0.930768 0.927270
vt 0.930768 0.927270
vt 0.930768 0.927270
vt 0.930768 0.927270
vt 0.930768 0.927270
vt 0.930768 0.927270
vt 0.930768 0.927270
vt 0.930768 0.927270
vt 0.930768 0.927270
vt 0.930768 0.927270
vt 0.930768 0.927270
vt 0.930768 0.927270
vt 0.930768 0.927270
vt 0.880418 0.929644
vt 0.880418 0.929644
vt 0.880418 0.929644
vt 0.880418 0.929644
vt 0.880418 0.929644
vt 0.880418 0.929644
vt 0.880418 0.929644
vt 0.880418 0.929644
vt 0.880418 0.929644
vt 0.880418 0.929644
vt 0.880418 0.929644
vt 0.880418 0.929644
vt 0.880418 0.929644
vt 0.880418 0.929644
vt 0.880418 0.929644
vt 0.880418 0.929644
vt 0.880418 0.929644
vt 0.880418 0.929644
vt 0.880418 0.929644
vt 0.880418 0.929644
vt 0.880418 0.929644
vt 0.880418 0.929644
vt 0.880418 0.929644
vt 0.880418 0.929644
vt 0.880418 0.929644
vt 0.880418 0.929644
vt 0.880418 0.929644
vt 0.880418 0.929644
vt 0.880418 0.929644
vt 0.880418 0.929644
vt 0.880418 0.929644
vt 0.880418 0.929644
vt 0.880418 0.929644
vt 0.880418 0.929644
vt 0.880418 0.929644
vt 0.880418 0.929644
vn -0.1698 0.5114 -0.8424
vn -0.1528 0.4805 -0.8636
vn -0.1508 0.4768 -0.8660
vn -0.3016 0.9534 0.0000
vn -0.1528 0.4805 0.8636
vn -0.1698 0.5114 0.8424
vn -0.1508 0.4768 0.8660
vn 0.1599 -0.4777 0.8639
vn 0.1761 -0.5069 0.8438
vn 0.1581 -0.4743 0.8660
vn 0.3291 -0.9443 0.0000
vn 0.1761 -0.5069 -0.8438
vn 0.1599 -0.4777 -0.8639
vn 0.1581 -0.4743 -0.8660
vn -0.4648 0.2323 -0.8544
vn -0.4634 0.2311 -0.8555
vn -0.4650 0.2325 -0.8542
vn -0.8950 0.4461 0.0000
vn -0.4634 0.2311 0.8555
vn -0.4648 0.2323 0.8544
vn -0.4650 0.2325 0.8542
vn 0.4631 -0.2317 0.8555
vn 0.4644 -0.2327 0.8545
vn 0.4646 -0.2329 0.8543
vn 0.8940 -0.4481 0.0000
vn 0.4644 -0.2327 -0.8545
vn 0.4631 -0.2317 -0.8555
vn 0.4646 -0.2329 -0.8543
vn -0.5044 -0.0001 -0.8635
vn -0.5005 -0.0009 -0.8657
vn -0.5049 -0.0000 -0.8632
vn -1.0000 -0.0019 0.0000
vn -0.5005 -0.0009 0.8657
vn -0.5044 -0.0001 0.8635
vn -0.5049 0.0000 0.8632
vn 0.5005 -0.0001 0.8657
vn 0.5043 -0.0008 0.8635
vn 0.5047 -0.0009 0.8633
vn 1.0000 -0.0018 0.0000
vn 0.5043 -0.0008 -0.8635
vn 0.5005 -0.0001 -0.8657
vn 0.5047 -0.0009 -0.8633
vn 0.1698 0.5114 0.8424
vn 0.1528 0.4805 0.8636
vn 0.1508 0.4768 0.8660
vn 0.3016 0.9534 0.0000
vn 0.1528 0.4805 -0.8636
vn 0.1698 0.5114 -0.8424
vn 0.1508 0.4768 -0.8660
vn -0.1599 -0.4777 -0.8639
vn -0.1761 -0.5069 -0.8438
vn -0.1581 -0.4743 -0.8660
vn -0.3291 -0.9443 0.0000
vn -0.1761 -0.5069 0.8438
vn -0.1599 -0.4777 0.8639
vn -0.1581 -0.4743 0.8660
vn 0.4648 0.2323 0.8544
vn 0.4634 0.2311 0.8555
vn 0.4650 0.2325 0.8542
vn 0.8950 0.4461 0.0000
vn 0.4634 0.2311 -0.8555
vn 0.4648 0.2323 -0.8544
vn 0.4650 0.2325 -0.8542
vn -0.4631 -0.2317 -0.8555
vn -0.4644 -0.2327 -0.8545
vn -0.4646 -0.2329 -0.8543
vn -0.8940 -0.4481 0.0000
vn -0.4644 -0.2327 0.8545
vn -0.4631 -0.2317 0.8555
vn -0.4646 -0.2329 0.8543
vn 0.5044 -0.0001 0.8635
vn 0.5005 -0.0009 0.8657
vn 0.5049 0.0000 0.8632
vn 1.0000 -0.0019 0.0000
vn 0.5005 -0.0009 -0.8657
vn 0.5044 -0.0001 -0.8635
vn 0.5049 -0.0000 -0.8632
vn -0.5005 -0.0001 -0.8657
vn -0.5043 -0.0008 -0.8635
vn -0.5047 -0.0009 -0.8633
vn -1.0000 -0.0018 0.0000
vn -0.5043 -0.0008 0.8635
vn -0.5005 -0.0001 0.8657
vn -0.5047 -0.0009 0.8633
vn -0.8660 0.0000 0.5000
vn 0.0000 0.0000 1.0000
vn 0.8660 0.0000 0.5000
vn 0.8660 -0.0000 -0.5000
vn 0.0000 -0.0000 -1.0000
vn -0.8660 -0.0000 -0.5000
vn -0.8288 0.2901 -0.4785
vn -0.8288 0.2901 0.4785
vn 0.0000 0.2901 -0.9570
vn 0.8288 0.2901 0.4785
vn 0.0000 0.2901 0.9570
vn 0.8288 0.2901 -0.4785
vn -0.8308 -0.2824 0.4796
vn -0.8308 -0.2824 0.4797
vn 0.8308 -0.2824 -0.4796
vn 0.8308 -0.2824 -0.4797
vn 0.0000 -0.2825 0.9593
vn -0.8308 -0.2824 -0.4796
vn -0.8308 -0.2824 -0.4797
vn 0.8308 -0.2824 0.4796
vn 0.8308 -0.2824 0.4797
vn 0.0000 -0.2825 -0.9593
vn -0.7220 0.5523 -0.4168
vn 0.7220 0.5523 0.4168
vn 0.0000 0.5523 -0.8337
vn -0.7220 0.5523 0.4168
vn 0.7220 0.5523 -0.4168
vn 0.0000 0.5523 0.8337
vn 0.3916 -0.6217 -0.6783
vn 0.7832 -0.6217 0.0000
vn 0.3916 -0.6217 0.6783
vn 0.3916 -0.6218 0.6783
vn -0.7832 -0.6218 0.0000
vn -0.3916 -0.6218 -0.6783
vn -0.3916 -0.6218 0.6783
vn 0.7832 -0.6218 0.0000
vn -0.7832 -0.6217 0.0000
vn 0.3916 -0.6218 -0.6783
vn -0.3916 -0.6217 0.6783
vn -0.3916 -0.6217 -0.6783
vn 0.0000 -0.5000 -0.8660
vn -0.7500 -0.5000 -0.4330
vn 0.0000 -0.5000 0.8660
vn 0.7500 -0.5000 0.4330
vn -0.7500 -0.5000 0.4330
vn 0.7500 -0.5000 -0.4330
vn 0.0000 1.0000 0.0000
vn 0.5000 -0.0000 -0.8660
vn 1.0000 0.0000 0.0000
vn 0.5000 0.0000 0.8660
vn -0.5000 0.0000 0.8660
vn -1.0000 -0.0000 0.0000
vn -0.5000 -0.0000 -0.8660
vn -0.1715 0.5145 -0.8402
vn -0.1715 0.5145 0.8402
vn 0.1776 -0.5097 0.8418
vn 0.1776 -0.5097 -0.8418
vn -0.4631 0.2308 -0.8557
vn -0.4631 0.2308 0.8557
vn 0.4629 -0.2314 0.8557
vn 0.4629 -0.2314 -0.8557
vn -0.5000 -0.0010 -0.8660
vn -0.5000 -0.0010 0.8660
vn 0.1715 0.5145 0.8402
vn 0.1715 0.5145 -0.8402
vn -0.1776 -0.5097 -0.8418
vn -0.1776 -0.5097 0.8418
vn 0.4631 0.2308 0.8557
vn 0.4631 0.2308 -0.8557
vn -0.4629 -0.2314 -0.8557
vn -0.4629 -0.2314 0.8557
vn 0.5000 -0.0010 0.8660
vn 0.5000 -0.0010 -0.8660
s 1
f 7/1/1 6/2/2 1/3/3
f 8/4/4 1/3/4 2/5/4
f 3/6/5 8/4/6 2/5/7
f 4/7/8 9/8/9 3/6/10
f 11/9/11 4/7/11 5/10/11
f 12/11/12 5/10/13 6/2/14
f 7/1/15 18/12/16 12/11/17
f 14/13/18 7/1/18 8/4/18
f 15/14/19 8/4/20 9/8/21
f 16/15/22 9/8/23 10/16/24
f 17/17/25 10/16/25 11/9/25
f 12/11/26 17/17/27 11/9/28
f 13/18/29 24/19/30 18/12/31
f 20/20/32 13/18/32 14/13/32
f 21/21/33 14/13/34 15/14/35
f 22/22/36 15/14/37 16/15/38
f 23/23/39 16/15/39 17/17/39
f 18/12/40 23/23/41 17/17/42
f 29/24/43 3/6/44 25/25/45
f 30/26/46 25/25/46 26/27/46
f 6/2/47 30/26/48 26/27/49
f 27/28/50 31/29/51 6/2/52
f 33/30/53 27/28/53 28/31/53
f 34/32/54 28/31/55 3/6/56
f 29/24/57 40/33/58 34/32/59
f 36/34/60 29/24/60 30/26/60
f 37/35/61 30/26/62 31/29/63
f 38/36/64 31/29/65 32/37/66
f 39/38/67 32/37/67 33/30/67
f 34/32/68 39/38/69 33/30/70
f 35/39/71 46/40/72 40/33/73
f 42/41/74 35/39/74 36/34/74
f 43/42/75 36/34/76 37/35/77
f 44/43/78 37/35/79 38/36/80
f 45/44/81 38/36/81 39/38/81
f 40/33/82 45/44/83 39/38/84
f 53/45/85 52/46/85 47/47/85
f 54/48/86 47/47/86 48/49/86
f 55/50/87 48/49/87 49/51/87
f 56/52/88 49/51/88 50/53/88
f 57/54/89 50/53/89 51/55/89
f 58/56/90 51/55/90 52/46/90
f 52/46/91 63/57/91 64/58/91
f 52/46/92 59/59/92 47/47/92
f 50/53/93 63/57/93 51/55/93
f 49/51/94 60/60/94 61/61/94
f 47/47/95 60/60/95 48/49/95
f 49/51/96 62/62/96 50/53/96
f 64/58/97 65/63/98 59/59/97
f 61/61/99 68/64/100 62/62/99
f 59/59/101 66/65/101 60/60/101
f 63/57/102 70/66/103 64/58/102
f 60/60/104 67/67/105 61/61/104
f 62/62/106 69/68/106 63/57/106
f 70/66/107 75/69/107 76/70/107
f 67/67/108 72/71/108 73/72/108
f 69/68/109 74/73/109 75/69/109
f 70/66/110 71/74/110 65/63/110
f 67/67/111 74/73/111 68/64/111
f 65/63/112 72/71/112 66/65/112
f 43/42/113 78/75/113 42/41/113
f 42/41/114 77/76/114 41/77/114
f 46/40/115 77/76/115 82/78/116
f 45/44/117 80/79/117 44/43/117
f 44/43/118 79/80/118 43/42/118
f 45/44/119 82/78/119 81/81/119
f 23/23/120 86/82/120 22/22/120
f 20/20/121 83/83/121 19/84/121
f 22/22/116 85/85/116 21/21/116
f 23/23/122 88/86/122 87/87/122
f 21/21/123 84/88/123 20/20/123
f 24/19/124 83/83/124 88/86/118
f 57/54/125 92/89/125 56/52/125
f 58/56/126 93/90/126 57/54/126
f 54/48/127 89/91/127 53/45/127
f 55/50/128 90/92/128 54/48/128
f 58/56/129 89/91/129 94/93/129
f 55/50/130 92/89/130 91/94/130
f 80/79/131 81/81/131 82/78/131
f 92/89/131 93/90/131 89/91/131
f 84/88/131 85/85/131 86/82/131
f 96/95/132 97/96/132 95/97/132
f 98/98/133 99/99/133 97/96/133
f 100/100/134 101/101/134 99/99/134
f 102/102/135 103/103/135 101/101/135
f 102/102/131 100/100/131 96/95/131
f 104/104/136 105/105/136 103/103/136
f 106/106/137 95/97/137 105/105/137
f 108/107/132 109/108/132 107/109/132
f 110/110/133 111/111/133 109/108/133
f 112/112/134 113/113/134 111/111/134
f 114/114/135 115/115/135 113/113/135
f 114/114/131 112/112/131 108/107/131
f 116/116/136 117/117/136 115/115/136
f 118/118/137 107/109/137 117/117/137
f 120/119/132 121/120/132 119/121/132
f 122/122/133 123/123/133 121/120/133
f 124/124/134 125/125/134 123/123/134
f 126/126/135 127/127/135 125/125/135
f 126/126/131 124/124/131 120/119/131
f 128/128/136 129/129/136 127/127/136
f 130/130/137 119/121/137 129/129/137
f 7/1/1 12/11/138 6/2/2
f 8/4/4 7/1/4 1/3/4
f 3/6/5 9/8/139 8/4/6
f 4/7/8 10/16/140 9/8/9
f 11/9/11 10/16/11 4/7/11
f 12/11/12 11/9/141 5/10/13
f 7/1/15 13/18/142 18/12/16
f 14/13/18 13/18/18 7/1/18
f 15/14/19 14/13/143 8/4/20
f 16/15/22 15/14/144 9/8/23
f 17/17/25 16/15/25 10/16/25
f 12/11/26 18/12/145 17/17/27
f 13/18/29 19/84/146 24/19/30
f 20/20/32 19/84/32 13/18/32
f 21/21/33 20/20/147 14/13/34
f 22/22/36 21/21/134 15/14/37
f 23/23/39 22/22/39 16/15/39
f 18/12/40 24/19/132 23/23/41
f 29/24/43 34/32/148 3/6/44
f 30/26/46 29/24/46 25/25/46
f 6/2/47 31/29/149 30/26/48
f 27/28/50 32/37/150 31/29/51
f 33/30/53 32/37/53 27/28/53
f 34/32/54 33/30/151 28/31/55
f 29/24/57 35/39/152 40/33/58
f 36/34/60 35/39/60 29/24/60
f 37/35/61 36/34/153 30/26/62
f 38/36/64 37/35/154 31/29/65
f 39/38/67 38/36/67 32/37/67
f 34/32/68 40/33/155 39/38/69
f 35/39/71 41/77/156 46/40/72
f 42/41/74 41/77/74 35/39/74
f 43/42/75 42/41/157 36/34/76
f 44/43/78 43/42/137 37/35/79
f 45/44/81 44/43/81 38/36/81
f 40/33/82 46/40/135 45/44/83
f 53/45/85 58/56/85 52/46/85
f 54/48/86 53/45/86 47/47/86
f 55/50/87 54/48/87 48/49/87
f 56/52/88 55/50/88 49/51/88
f 57/54/89 56/52/89 50/53/89
f 58/56/90 57/54/90 51/55/90
f 52/46/91 51/55/91 63/57/91
f 52/46/92 64/58/92 59/59/92
f 50/53/93 62/62/93 63/57/93
f 49/51/94 48/49/94 60/60/94
f 47/47/95 59/59/95 60/60/95
f 49/51/96 61/61/96 62/62/96
f 64/58/97 70/66/98 65/63/98
f 61/61/99 67/67/100 68/64/100
f 59/59/101 65/63/101 66/65/101
f 63/57/102 69/68/103 70/66/103
f 60/60/104 66/65/105 67/67/105
f 62/62/106 68/64/106 69/68/106
f 70/66/107 69/68/107 75/69/107
f 67/67/108 66/65/108 72/71/108
f 69/68/109 68/64/109 74/73/109
f 70/66/110 76/70/110 71/74/110
f 67/67/111 73/72/111 74/73/111
f 65/63/112 71/74/112 72/71/112
f 43/42/113 79/80/122 78/75/113
f 42/41/114 78/75/114 77/76/114
f 46/40/115 41/77/115 77/76/115
f 45/44/117 81/81/117 80/79/117
f 44/43/118 80/79/118 79/80/118
f 45/44/119 46/40/119 82/78/119
f 23/23/120 87/87/120 86/82/120
f 20/20/121 84/88/121 83/83/121
f 22/22/116 86/82/116 85/85/116
f 23/23/122 24/19/122 88/86/122
f 21/21/123 85/85/119 84/88/123
f 24/19/124 19/84/124 83/83/124
f 57/54/125 93/90/125 92/89/125
f 58/56/126 94/93/126 93/90/126
f 54/48/127 90/92/127 89/91/127
f 55/50/128 91/94/128 90/92/128
f 58/56/129 53/45/129 89/91/129
f 55/50/130 56/52/130 92/89/130
f 82/78/131 77/76/131 80/79/131
f 77/76/131 78/75/131 80/79/131
f 78/75/131 79/80/131 80/79/131
f 93/90/131 94/93/131 89/91/131
f 89/91/131 90/92/131 91/94/131
f 91/94/131 92/89/131 89/91/131
f 86/82/131 87/87/131 84/88/131
f 87/87/131 88/86/131 84/88/131
f 88/86/131 83/83/131 84/88/131
f 96/95/132 98/98/132 97/96/132
f 98/98/133 100/100/133 99/99/133
f 100/100/134 102/102/134 101/101/134
f 102/102/135 104/104/135 103/103/135
f 100/100/131 98/98/131 96/95/131
f 96/95/131 106/106/131 104/104/131
f 104/104/131 102/102/131 96/95/131
f 104/104/136 106/106/136 105/105/136
f 106/106/137 96/95/137 95/97/137
f 108/107/132 110/110/132 109/108/132
f 110/110/133 112/112/133 111/111/133
f 112/112/134 114/114/134 113/113/134
f 114/114/135 116/116/135 115/115/135
f 112/112/131 110/110/131 108/107/131
f 108/107/131 118/118/131 116/116/131
f 116/116/131 114/114/131 108/107/131
f 116/116/136 118/118/136 117/117/136
f 118/118/137 108/107/137 107/109/137
f 120/119/132 122/122/132 121/120/132
f 122/122/133 124/124/133 123/123/133
f 124/124/134 126/126/134 125/125/134
f 126/126/135 128/128/135 127/127/135
f 124/124/131 122/122/131 120/119/131
f 120/119/131 130/130/131 128/128/131
f 128/128/131 126/126/131 120/119/131
f 128/128/136 130/130/136 129/129/136
f 130/130/137 120/119/137 119/121/137
