# Blender v2.81 (sub 16) OBJ File: 'models.blend'
# www.blender.org
o V_Ladder_Cylinder.372
v 0.399986 0.000000 0.099999
v 0.399986 4.500001 0.099998
v 0.399986 0.000000 -0.100002
v 0.399986 4.500001 -0.100002
v 0.599985 0.000000 0.099999
v 0.599985 4.500001 0.099998
v 0.599985 0.000000 -0.100002
v 0.599985 4.500001 -0.100002
v -0.600016 0.000000 0.099999
v -0.600016 4.500001 0.099999
v -0.600016 0.000000 -0.100002
v -0.600016 4.500001 -0.100002
v -0.400014 0.000000 0.099999
v -0.400014 4.500001 0.099999
v -0.400014 0.000000 -0.100002
v -0.400014 4.500001 -0.100002
v -0.534476 0.584614 0.084613
v 0.473144 0.584615 0.084611
v -0.534476 0.584614 -0.084615
v 0.473144 0.584615 -0.084615
v -0.534476 0.415386 0.084613
v 0.473144 0.415387 0.084611
v -0.534476 0.415386 -0.084615
v 0.473144 0.415387 -0.084615
v -0.534476 1.184614 0.084613
v 0.473144 1.184615 0.084611
v -0.534476 1.184614 -0.084616
v 0.473144 1.184615 -0.084616
v -0.534476 1.015387 0.084613
v 0.473144 1.015387 0.084611
v -0.534476 1.015387 -0.084615
v 0.473144 1.015387 -0.084615
v -0.556741 1.786003 0.084613
v 0.473144 1.784615 0.084611
v -0.556741 1.786003 -0.084616
v 0.473144 1.784615 -0.084616
v -0.534476 1.615387 0.084613
v 0.473144 1.615387 0.084611
v -0.534476 1.615387 -0.084616
v 0.473144 1.615387 -0.084616
v -0.534476 2.384614 0.084613
v 0.473144 2.384615 0.084611
v -0.534476 2.384614 -0.084616
v 0.473144 2.384615 -0.084616
v -0.534476 2.215386 0.084613
v 0.473144 2.215387 0.084611
v -0.534476 2.215386 -0.084616
v 0.473144 2.215387 -0.084616
v -0.534476 3.584614 0.084612
v 0.473144 3.584615 0.084611
v -0.534476 3.584614 -0.084616
v 0.473144 3.584615 -0.084616
v -0.534476 3.415387 0.084613
v 0.473144 3.415387 0.084611
v -0.534476 3.415387 -0.084616
v 0.473144 3.415387 -0.084616
v -0.534476 2.984614 0.084613
v 0.473144 2.984615 0.084611
v -0.534476 2.984614 -0.084616
v 0.473144 2.984615 -0.084616
v -0.534476 2.815387 0.084613
v 0.473144 2.815387 0.084611
v -0.534476 2.815387 -0.084616
v 0.473144 2.815387 -0.084616
v -0.534476 4.184615 0.084612
v 0.473144 4.184615 0.084611
v -0.534476 4.184615 -0.084616
v 0.473144 4.184615 -0.084616
v -0.534476 4.015386 0.084612
v 0.473144 4.015388 0.084611
v -0.534476 4.015386 -0.084616
v 0.473144 4.015388 -0.084616
v 0.385807 1.329865 0.099998
v 0.407073 3.042535 0.099998
v 0.407073 3.042534 -0.100002
v 0.385807 1.329865 -0.100002
v 0.607075 3.042534 -0.100002
v 0.585806 1.329865 -0.100002
v 0.607075 3.042534 0.099998
v 0.585806 1.329865 0.099998
v -0.573454 3.147187 0.099999
v -0.573454 3.147187 -0.100002
v -0.373583 3.140012 -0.100002
v -0.373583 3.140012 0.099999
v -0.615314 1.981267 -0.100002
v -0.415443 1.974091 -0.100002
v -0.415443 1.974091 0.099999
v -0.615314 1.981267 0.099999
vt 0.036517 0.619211
vt 0.036517 0.850717
vt 0.036517 0.619211
vt 0.036517 0.850717
vt 0.036517 0.619211
vt 0.036517 0.619211
vt 0.036517 0.850717
vt 0.036517 0.135931
vt 0.036517 0.135931
vt 0.036517 0.135931
vt 0.959837 0.948160
vt 0.959837 0.948160
vt 0.959837 0.948160
vt 0.036517 0.850717
vt 0.036517 0.635834
vt 0.036517 0.635834
vt 0.036517 0.850717
vt 0.036517 0.634695
vt 0.036517 0.634695
vt 0.036517 0.850717
vt 0.036517 0.135931
vt 0.036517 0.135931
vt 0.036517 0.135931
vt 0.959837 0.948160
vt 0.959837 0.948160
vt 0.959837 0.948160
vt 0.036517 0.228793
vt 0.036517 0.228792
vt 0.036517 0.228792
vt 0.036517 0.201912
vt 0.036517 0.201912
vt 0.036517 0.201912
vt 0.036517 0.201912
vt 0.036517 0.324097
vt 0.036517 0.324097
vt 0.036517 0.324097
vt 0.036517 0.297216
vt 0.036517 0.297216
vt 0.036517 0.297216
vt 0.036517 0.297216
vt 0.036517 0.419402
vt 0.036517 0.419623
vt 0.036517 0.419623
vt 0.036517 0.419402
vt 0.036517 0.392521
vt 0.036517 0.392521
vt 0.036517 0.392521
vt 0.036517 0.514707
vt 0.036517 0.514707
vt 0.036517 0.514707
vt 0.036517 0.487826
vt 0.036517 0.487826
vt 0.036517 0.487826
vt 0.036517 0.487826
vt 0.036517 0.705316
vt 0.036517 0.705316
vt 0.036517 0.705316
vt 0.036517 0.678436
vt 0.036517 0.678436
vt 0.036517 0.678436
vt 0.036517 0.678436
vt 0.036517 0.610012
vt 0.036517 0.610012
vt 0.036517 0.610012
vt 0.036517 0.583131
vt 0.036517 0.583131
vt 0.036517 0.583131
vt 0.036517 0.583131
vt 0.036517 0.800621
vt 0.036517 0.800621
vt 0.036517 0.800621
vt 0.036517 0.773741
vt 0.036517 0.773741
vt 0.036517 0.773741
vt 0.036517 0.773741
vt 0.036517 0.347169
vt 0.036517 0.135931
vt 0.036517 0.347169
vt 0.036517 0.347169
vt 0.036517 0.347169
vt 0.036517 0.449499
vt 0.036517 0.450638
vt 0.036517 0.449499
vt 0.036517 0.450638
vt 0.036517 0.135931
vt 0.036517 0.850717
vt 0.959837 0.948160
vt 0.036517 0.850717
vt 0.959837 0.948160
vt 0.036517 0.228793
vt 0.036517 0.324097
vt 0.036517 0.392521
vt 0.036517 0.514707
vt 0.036517 0.705316
vt 0.036517 0.610012
vt 0.036517 0.800621
vn -1.0000 -0.0049 0.0000
vn 0.0000 -0.0000 -1.0000
vn 1.0000 0.0049 0.0000
vn 0.0000 0.0000 1.0000
vn 0.0000 -1.0000 0.0000
vn 0.0000 1.0000 0.0000
vn -0.9998 -0.0196 0.0000
vn 0.9998 0.0194 0.0000
vn 0.0013 1.0000 0.0000
vn 0.9999 0.0107 -0.0000
vn 0.9999 -0.0124 0.0000
vn -0.9999 -0.0107 0.0000
vn -0.9999 0.0124 -0.0000
vn 0.9994 -0.0359 0.0000
vn -0.9994 0.0359 0.0000
vn -1.0000 -0.0077 0.0000
vn 1.0000 0.0078 -0.0000
s 1
f 74/1/1 4/2/1 75/3/1
f 75/3/2 8/4/2 77/5/2
f 8/4/3 79/6/3 77/5/3
f 6/7/4 74/1/4 79/6/4
f 7/8/5 1/9/5 3/10/5
f 4/11/6 6/12/6 8/13/6
f 10/14/7 82/15/7 81/16/7
f 82/15/2 16/17/2 83/18/2
f 16/17/8 84/19/8 83/18/8
f 14/20/4 81/16/4 84/19/4
f 15/21/5 9/22/5 11/23/5
f 12/24/6 14/25/6 16/26/6
f 18/27/6 19/28/6 17/29/6
f 19/28/2 24/30/2 23/31/2
f 23/31/5 22/32/5 21/33/5
f 22/32/4 17/29/4 21/33/4
f 26/34/6 27/35/6 25/36/6
f 27/35/2 32/37/2 31/38/2
f 31/38/5 30/39/5 29/40/5
f 30/39/4 25/36/4 29/40/4
f 34/41/9 35/42/9 33/43/9
f 36/44/2 39/45/2 35/42/2
f 39/45/5 38/46/5 37/47/5
f 37/47/4 34/41/4 33/43/4
f 42/48/6 43/49/6 41/50/6
f 43/49/2 48/51/2 47/52/2
f 47/52/5 46/53/5 45/54/5
f 46/53/4 41/50/4 45/54/4
f 50/55/6 51/56/6 49/57/6
f 51/56/2 56/58/2 55/59/2
f 55/59/5 54/60/5 53/61/5
f 54/60/4 49/57/4 53/61/4
f 58/62/6 59/63/6 57/64/6
f 59/63/2 64/65/2 63/66/2
f 63/66/5 62/67/5 61/68/5
f 62/67/4 57/64/4 61/68/4
f 66/69/6 67/70/6 65/71/6
f 67/70/2 72/72/2 71/73/2
f 71/73/5 70/74/5 69/75/5
f 70/74/4 65/71/4 69/75/4
f 80/76/4 1/9/4 5/77/4
f 80/76/4 74/1/4 73/78/4
f 78/79/10 5/77/10 7/8/10
f 77/5/11 80/76/11 78/79/11
f 3/10/2 78/79/2 7/8/2
f 75/3/2 78/79/2 76/80/2
f 1/9/12 76/80/12 3/10/12
f 73/78/13 75/3/13 76/80/13
f 87/81/4 81/16/4 88/82/4
f 83/18/14 87/81/14 86/83/14
f 82/15/2 86/83/2 85/84/2
f 81/16/15 85/84/15 88/82/15
f 88/82/16 11/23/16 9/22/16
f 11/23/2 86/83/2 15/21/2
f 86/83/17 13/85/17 15/21/17
f 87/81/4 9/22/4 13/85/4
f 74/1/1 2/86/1 4/2/1
f 75/3/2 4/2/2 8/4/2
f 8/4/3 6/7/3 79/6/3
f 6/7/4 2/86/4 74/1/4
f 7/8/5 5/77/5 1/9/5
f 4/11/6 2/87/6 6/12/6
f 10/14/7 12/88/7 82/15/7
f 82/15/2 12/88/2 16/17/2
f 16/17/8 14/20/8 84/19/8
f 14/20/4 10/14/4 81/16/4
f 15/21/5 13/85/5 9/22/5
f 12/24/6 10/89/6 14/25/6
f 18/27/6 20/90/6 19/28/6
f 19/28/2 20/90/2 24/30/2
f 23/31/5 24/30/5 22/32/5
f 22/32/4 18/27/4 17/29/4
f 26/34/6 28/91/6 27/35/6
f 27/35/2 28/91/2 32/37/2
f 31/38/5 32/37/5 30/39/5
f 30/39/4 26/34/4 25/36/4
f 34/41/9 36/44/9 35/42/9
f 36/44/2 40/92/2 39/45/2
f 39/45/5 40/92/5 38/46/5
f 37/47/4 38/46/4 34/41/4
f 42/48/6 44/93/6 43/49/6
f 43/49/2 44/93/2 48/51/2
f 47/52/5 48/51/5 46/53/5
f 46/53/4 42/48/4 41/50/4
f 50/55/6 52/94/6 51/56/6
f 51/56/2 52/94/2 56/58/2
f 55/59/5 56/58/5 54/60/5
f 54/60/4 50/55/4 49/57/4
f 58/62/6 60/95/6 59/63/6
f 59/63/2 60/95/2 64/65/2
f 63/66/5 64/65/5 62/67/5
f 62/67/4 58/62/4 57/64/4
f 66/69/6 68/96/6 67/70/6
f 67/70/2 68/96/2 72/72/2
f 71/73/5 72/72/5 70/74/5
f 70/74/4 66/69/4 65/71/4
f 80/76/4 73/78/4 1/9/4
f 80/76/4 79/6/4 74/1/4
f 78/79/10 80/76/10 5/77/10
f 77/5/11 79/6/11 80/76/11
f 3/10/2 76/80/2 78/79/2
f 75/3/2 77/5/2 78/79/2
f 1/9/12 73/78/12 76/80/12
f 73/78/13 74/1/13 75/3/13
f 87/81/4 84/19/4 81/16/4
f 83/18/14 84/19/14 87/81/14
f 82/15/2 83/18/2 86/83/2
f 81/16/15 82/15/15 85/84/15
f 88/82/16 85/84/16 11/23/16
f 11/23/2 85/84/2 86/83/2
f 86/83/17 87/81/17 13/85/17
f 87/81/4 88/82/4 9/22/4
