# Blender v2.81 (sub 16) OBJ File: 'models.blend'
# www.blender.org
o V_Logs_Small_Cylinder.379
v -0.999996 0.256537 0.005224
v 1.000001 0.256536 0.005224
v -0.999996 0.103464 0.005224
v 1.000001 0.103463 0.005224
v -0.999996 -0.004776 0.113463
v 1.000001 -0.004776 0.113463
v -0.999996 -0.004776 0.266536
v 1.000001 -0.004776 0.266536
v -0.999996 0.103464 0.374775
v 1.000001 0.103463 0.374775
v -0.999996 0.256537 0.374775
v 1.000001 0.256537 0.374775
v -0.999996 0.364776 0.266536
v 1.000001 0.364776 0.266536
v -0.999996 0.364776 0.113463
v 1.000001 0.364776 0.113462
v -0.961805 0.256537 -0.374776
v 1.038195 0.256536 -0.374776
v -0.961805 0.103463 -0.374776
v 1.038195 0.103463 -0.374776
v -0.961805 -0.004776 -0.266537
v 1.038195 -0.004776 -0.266537
v -0.961805 -0.004776 -0.113464
v 1.038195 -0.004776 -0.113464
v -0.961805 0.103464 -0.005225
v 1.038195 0.103463 -0.005225
v -0.961805 0.256537 -0.005225
v 1.038195 0.256536 -0.005225
v -0.961805 0.364776 -0.113464
v 1.038195 0.364776 -0.113464
v -0.961805 0.364776 -0.266537
v 1.038195 0.364776 -0.266538
v -1.057081 0.588672 -0.184776
v 0.942919 0.588672 -0.184777
v -1.057081 0.435599 -0.184776
v 0.942919 0.435598 -0.184777
v -1.057081 0.327359 -0.076537
v 0.942919 0.327359 -0.076537
v -1.057081 0.327359 0.076537
v 0.942919 0.327359 0.076536
v -1.057081 0.435599 0.184776
v 0.942919 0.435598 0.184775
v -1.057081 0.588672 0.184776
v 0.942919 0.588672 0.184775
v -1.057081 0.696911 0.076537
v 0.942919 0.696911 0.076536
v -1.057081 0.696911 -0.076537
v 0.942919 0.696911 -0.076537
vt 0.036517 0.176680
vt 0.036517 0.152366
vt 0.036517 0.176680
vt 0.036517 0.152366
vt 0.036517 0.135173
vt 0.036517 0.135173
vt 0.036517 0.135173
vt 0.036517 0.135173
vt 0.036517 0.152366
vt 0.036517 0.152366
vt 0.036517 0.176680
vt 0.036517 0.176680
vt 0.036517 0.193873
vt 0.959837 0.948160
vt 0.959837 0.948160
vt 0.959837 0.948160
vt 0.036517 0.193873
vt 0.036517 0.193873
vt 0.036517 0.193873
vt 0.959837 0.948160
vt 0.959837 0.948160
vt 0.959837 0.948160
vt 0.036517 0.176680
vt 0.036517 0.152366
vt 0.036517 0.176680
vt 0.036517 0.152366
vt 0.036517 0.135173
vt 0.036517 0.135173
vt 0.036517 0.135173
vt 0.036517 0.135173
vt 0.036517 0.152366
vt 0.036517 0.176680
vt 0.036517 0.176680
vt 0.036517 0.193873
vt 0.959837 0.948160
vt 0.959837 0.948160
vt 0.959837 0.948160
vt 0.036517 0.193873
vt 0.036517 0.193873
vt 0.036517 0.193873
vt 0.959837 0.948160
vt 0.959837 0.948160
vt 0.959837 0.948160
vt 0.036517 0.229437
vt 0.036517 0.205123
vt 0.036517 0.205123
vt 0.036517 0.187930
vt 0.036517 0.187930
vt 0.036517 0.187930
vt 0.036517 0.187930
vt 0.036517 0.205123
vt 0.036517 0.205123
vt 0.036517 0.229437
vt 0.036517 0.229437
vt 0.036517 0.246630
vt 0.959837 0.948160
vt 0.959837 0.948160
vt 0.959837 0.948160
vt 0.036517 0.246630
vt 0.036517 0.246630
vt 0.036517 0.246630
vt 0.959837 0.948160
vt 0.959837 0.948160
vt 0.959837 0.948160
vt 0.959837 0.948160
vt 0.959837 0.948160
vt 0.959837 0.948160
vt 0.959837 0.948160
vt 0.959837 0.948160
vt 0.959837 0.948160
vt 0.959837 0.948160
vt 0.959837 0.948160
vt 0.959837 0.948160
vt 0.959837 0.948160
vt 0.036517 0.152366
vt 0.959837 0.948160
vt 0.959837 0.948160
vt 0.959837 0.948160
vt 0.959837 0.948160
vt 0.959837 0.948160
vt 0.959837 0.948160
vt 0.959837 0.948160
vt 0.959837 0.948160
vt 0.959837 0.948160
vt 0.959837 0.948160
vt 0.036517 0.229437
vt 0.959837 0.948160
vt 0.959837 0.948160
vt 0.959837 0.948160
vt 0.959837 0.948160
vt 0.959837 0.948160
vt 0.959837 0.948160
vt 0.959837 0.948160
vt 0.959837 0.948160
vt 0.959837 0.948160
vt 0.959837 0.948160
vn -0.0000 -0.0000 -1.0000
vn -0.0000 -0.7071 -0.7071
vn -0.0000 -1.0000 0.0000
vn -0.0000 -0.7071 0.7071
vn 0.0000 0.0000 1.0000
vn 0.0000 0.7071 0.7071
vn 1.0000 0.0000 0.0000
vn 0.0000 1.0000 0.0000
vn 0.0000 0.7071 -0.7071
vn -1.0000 0.0000 0.0000
s 1
f 2/1/1 3/2/1 1/3/1
f 4/4/2 5/5/2 3/2/2
f 6/6/3 7/7/3 5/5/3
f 8/8/4 9/9/4 7/7/4
f 10/10/5 11/11/5 9/9/5
f 12/12/6 13/13/6 11/11/6
f 2/14/7 14/15/7 10/16/7
f 14/17/8 15/18/8 13/13/8
f 16/19/9 1/3/9 15/18/9
f 3/20/10 7/21/10 11/22/10
f 18/23/1 19/24/1 17/25/1
f 20/26/2 21/27/2 19/24/2
f 22/28/3 23/29/3 21/27/3
f 24/30/4 25/31/4 23/29/4
f 25/31/5 28/32/5 27/33/5
f 28/32/6 29/34/6 27/33/6
f 18/35/7 30/36/7 26/37/7
f 30/38/8 31/39/8 29/34/8
f 32/40/9 17/25/9 31/39/9
f 19/41/10 23/42/10 27/43/10
f 33/44/1 36/45/1 35/46/1
f 36/45/2 37/47/2 35/46/2
f 38/48/3 39/49/3 37/47/3
f 40/50/4 41/51/4 39/49/4
f 42/52/5 43/53/5 41/51/5
f 44/54/6 45/55/6 43/53/6
f 40/56/7 38/57/7 46/58/7
f 46/59/8 47/60/8 45/55/8
f 48/61/9 33/44/9 47/60/9
f 43/62/10 45/63/10 47/64/10
f 2/1/1 4/4/1 3/2/1
f 4/4/2 6/6/2 5/5/2
f 6/6/3 8/8/3 7/7/3
f 8/8/4 10/10/4 9/9/4
f 10/10/5 12/12/5 11/11/5
f 12/12/6 14/17/6 13/13/6
f 6/65/7 4/66/7 2/14/7
f 2/14/7 16/67/7 14/15/7
f 14/15/7 12/68/7 10/16/7
f 10/16/7 8/69/7 6/65/7
f 6/65/7 2/14/7 10/16/7
f 14/17/8 16/19/8 15/18/8
f 16/19/9 2/1/9 1/3/9
f 15/70/10 1/71/10 3/20/10
f 3/20/10 5/72/10 7/21/10
f 7/21/10 9/73/10 11/22/10
f 11/22/10 13/74/10 15/70/10
f 15/70/10 3/20/10 11/22/10
f 18/23/1 20/26/1 19/24/1
f 20/26/2 22/28/2 21/27/2
f 22/28/3 24/30/3 23/29/3
f 24/30/4 26/75/4 25/31/4
f 25/31/5 26/75/5 28/32/5
f 28/32/6 30/38/6 29/34/6
f 22/76/7 20/77/7 18/35/7
f 18/35/7 32/78/7 30/36/7
f 30/36/7 28/79/7 26/37/7
f 26/37/7 24/80/7 22/76/7
f 22/76/7 18/35/7 26/37/7
f 30/38/8 32/40/8 31/39/8
f 32/40/9 18/23/9 17/25/9
f 31/81/10 17/82/10 19/41/10
f 19/41/10 21/83/10 23/42/10
f 23/42/10 25/84/10 27/43/10
f 27/43/10 29/85/10 31/81/10
f 31/81/10 19/41/10 27/43/10
f 33/44/1 34/86/1 36/45/1
f 36/45/2 38/48/2 37/47/2
f 38/48/3 40/50/3 39/49/3
f 40/50/4 42/52/4 41/51/4
f 42/52/5 44/54/5 43/53/5
f 44/54/6 46/59/6 45/55/6
f 38/57/7 36/87/7 34/88/7
f 34/88/7 48/89/7 38/57/7
f 48/89/7 46/58/7 38/57/7
f 46/58/7 44/90/7 42/91/7
f 42/91/7 40/56/7 46/58/7
f 46/59/8 48/61/8 47/60/8
f 48/61/9 34/86/9 33/44/9
f 47/64/10 33/92/10 35/93/10
f 35/93/10 37/94/10 47/64/10
f 37/94/10 39/95/10 47/64/10
f 39/95/10 41/96/10 47/64/10
f 41/96/10 43/62/10 47/64/10
