# Blender v2.81 (sub 16) OBJ File: 'models.blend'
# www.blender.org
o V_Post_Cylinder.380
v -0.199998 0.000000 0.200005
v -0.199998 1.000000 0.200005
v -0.199998 0.000000 -0.199995
v -0.199998 1.000000 -0.199995
v 0.200000 0.000000 0.200005
v 0.200000 1.000000 0.200005
v 0.200000 0.000000 -0.199995
v 0.200000 1.000000 -0.199995
v -0.099999 1.200000 0.100004
v -0.099999 1.200000 -0.099995
v 0.100001 1.200000 0.100004
v 0.100001 1.200000 -0.099995
v -0.099999 5.000000 0.100004
v -0.099999 5.000000 -0.099996
v 0.100001 5.000000 0.100003
v 0.100001 5.000000 -0.099996
v -0.399998 4.400001 0.070003
v -0.399998 4.600000 0.070003
v -0.399998 4.400001 -0.069997
v -0.399998 4.600000 -0.069997
v 1.100002 4.400001 0.070003
v 1.100002 4.600000 0.070003
v 1.100002 4.400001 -0.069997
v 1.100002 4.600000 -0.069997
v 0.017427 3.707309 0.045119
v -0.073718 3.798456 0.045119
v 0.017427 3.707309 -0.045111
v -0.073718 3.798456 -0.045111
v 0.765351 4.455232 0.045119
v 0.674203 4.546379 0.045119
v 0.765351 4.455232 -0.045112
v 0.674203 4.546379 -0.045111
vt 0.081546 0.919482
vt 0.081546 0.919482
vt 0.081546 0.919482
vt 0.081546 0.919482
vt 0.081546 0.919482
vt 0.081546 0.919482
vt 0.081546 0.919482
vt 0.081546 0.919482
vt 0.081546 0.919482
vt 0.081546 0.919482
vt 0.036517 0.326541
vt 0.036517 0.930138
vt 0.036517 0.326541
vt 0.081546 0.919482
vt 0.081546 0.919482
vt 0.959837 0.948160
vt 0.959837 0.948160
vt 0.959837 0.948160
vt 0.036517 0.326541
vt 0.036517 0.930138
vt 0.036517 0.326541
vt 0.036517 0.930138
vt 0.036517 0.930138
vt 0.959837 0.948160
vt 0.959837 0.948160
vt 0.959837 0.948160
vt 0.036517 0.866602
vt 0.036517 0.834834
vt 0.036517 0.834834
vt 0.959837 0.948160
vt 0.959837 0.948160
vt 0.959837 0.948160
vt 0.036517 0.866602
vt 0.036517 0.834834
vt 0.036517 0.834834
vt 0.036517 0.866602
vt 0.036517 0.739283
vt 0.036517 0.843606
vt 0.036517 0.724806
vt 0.036517 0.858084
vt 0.036517 0.724806
vt 0.036517 0.843606
vt 0.036517 0.858084
vt 0.959837 0.948160
vt 0.959837 0.948160
vt 0.959837 0.948160
vt 0.036517 0.866602
vt 0.036517 0.739283
vn -1.0000 0.0000 0.0000
vn 0.0000 -0.0000 -1.0000
vn 1.0000 -0.0000 0.0000
vn 0.0000 0.0000 1.0000
vn -0.8944 0.4472 0.0000
vn 0.0000 0.4472 0.8944
vn 0.0000 0.4472 -0.8944
vn 0.8944 0.4472 0.0000
vn 0.0000 1.0000 0.0000
vn 0.0000 -1.0000 0.0000
vn 0.7071 -0.7071 0.0000
vn -0.7071 0.7071 0.0000
s 1
f 2/1/1 3/2/1 1/3/1
f 4/4/2 7/5/2 3/2/2
f 8/6/3 5/7/3 7/5/3
f 6/8/4 1/3/4 5/7/4
f 4/4/5 9/9/5 10/10/5
f 11/11/4 13/12/4 9/13/4
f 6/8/6 9/9/6 2/1/6
f 4/4/7 12/14/7 8/6/7
f 8/6/8 11/15/8 6/8/8
f 14/16/9 15/17/9 16/18/9
f 10/19/2 16/20/2 12/21/2
f 12/21/3 15/22/3 11/11/3
f 9/13/1 14/23/1 10/19/1
f 18/24/1 19/25/1 17/26/1
f 20/27/2 23/28/2 19/29/2
f 24/30/3 21/31/3 23/32/3
f 22/33/4 17/34/4 21/35/4
f 23/28/10 17/34/10 19/29/10
f 20/27/9 22/33/9 24/36/9
f 28/37/2 31/38/2 27/39/2
f 30/40/4 25/41/4 29/42/4
f 31/38/11 25/41/11 27/39/11
f 28/37/12 30/40/12 32/43/12
f 1/3/10 7/5/10 5/7/10
f 2/1/1 4/4/1 3/2/1
f 4/4/2 8/6/2 7/5/2
f 8/6/3 6/8/3 5/7/3
f 6/8/4 2/1/4 1/3/4
f 4/4/5 2/1/5 9/9/5
f 11/11/4 15/22/4 13/12/4
f 6/8/6 11/15/6 9/9/6
f 4/4/7 10/10/7 12/14/7
f 8/6/8 12/14/8 11/15/8
f 14/16/9 13/44/9 15/17/9
f 10/19/2 14/23/2 16/20/2
f 12/21/3 16/20/3 15/22/3
f 9/13/1 13/12/1 14/23/1
f 18/24/1 20/45/1 19/25/1
f 20/27/2 24/36/2 23/28/2
f 24/30/3 22/46/3 21/31/3
f 22/33/4 18/47/4 17/34/4
f 23/28/10 21/35/10 17/34/10
f 20/27/9 18/47/9 22/33/9
f 28/37/2 32/43/2 31/38/2
f 30/40/4 26/48/4 25/41/4
f 31/38/11 29/42/11 25/41/11
f 28/37/12 26/48/12 30/40/12
f 1/3/10 3/2/10 7/5/10
