# Blender v2.81 (sub 16) OBJ File: 'models.blend'
# www.blender.org
o V_Torch_Cylinder.063
v -0.199996 -0.140000 0.060000
v -0.199996 0.280000 0.060000
v -0.199996 -0.140000 -0.060000
v -0.199996 0.280000 -0.060000
v -0.169998 -0.140000 0.060000
v -0.169998 0.280000 0.060000
v -0.169998 -0.140000 -0.060000
v -0.169998 0.280000 -0.060000
v -0.169998 0.172000 0.012000
v -0.169998 0.196000 0.012000
v -0.169998 0.172000 -0.012000
v -0.169998 0.196000 -0.012000
v -0.085996 0.172000 0.012000
v -0.085996 0.196000 0.012000
v -0.085996 0.172000 -0.012000
v -0.085996 0.196000 -0.012000
v -0.085996 0.160000 0.048000
v -0.085996 0.208000 0.048000
v -0.085996 0.160000 -0.048000
v -0.085996 0.208000 -0.048000
v 0.010004 0.160000 0.048000
v 0.010004 0.208000 0.048000
v 0.010004 0.160000 -0.048000
v 0.010004 0.208000 -0.048000
v -0.157997 -0.104000 0.048000
v -0.157997 -0.056000 0.048000
v -0.157997 -0.104000 -0.048000
v -0.157997 -0.056000 -0.048000
v -0.061998 -0.104000 0.048000
v -0.061998 -0.056000 0.048000
v -0.061998 -0.104000 -0.048000
v -0.061998 -0.056000 -0.048000
v -0.169998 -0.092000 0.012000
v -0.169998 -0.068000 0.012000
v -0.169998 -0.092000 -0.012000
v -0.169998 -0.068000 -0.012000
v -0.157997 -0.092000 0.012000
v -0.157997 -0.068000 0.012000
v -0.157997 -0.092000 -0.012000
v -0.157997 -0.068000 -0.012000
v -0.176209 -0.220766 0.023039
v -0.046935 0.321037 0.038400
v -0.176209 -0.220766 -0.023041
v -0.046935 0.321037 -0.038400
v -0.131698 -0.232693 0.023039
v 0.027248 0.301159 0.038400
v -0.131698 -0.232693 -0.023041
v 0.027248 0.301159 -0.038400
v -0.065480 0.326006 0.057599
v -0.065480 0.326006 -0.057601
v 0.045794 0.296190 0.057599
v 0.045794 0.296190 -0.057601
v -0.013303 0.520737 0.057599
v -0.013303 0.520737 -0.057601
v 0.097971 0.490921 0.057599
v 0.097971 0.490921 -0.057601
v 0.003389 0.516264 0.040320
v 0.003389 0.516264 -0.040320
v 0.081282 0.495393 0.040320
v 0.081282 0.495393 -0.040320
v 0.013328 0.553356 0.040320
v 0.013328 0.553356 -0.040320
v 0.091220 0.532485 0.040320
v 0.091220 0.532485 -0.040320
vt 0.930675 0.993392
vt 0.930675 0.993392
vt 0.930675 0.993392
vt 0.930675 0.993392
vt 0.930675 0.993392
vt 0.930675 0.993392
vt 0.930675 0.993392
vt 0.930675 0.993392
vt 0.930675 0.993392
vt 0.930675 0.993392
vt 0.930675 0.993392
vt 0.930675 0.993392
vt 0.930675 0.993392
vt 0.930675 0.993392
vt 0.930675 0.993392
vt 0.930675 0.993392
vt 0.930675 0.993392
vt 0.930675 0.993392
vt 0.930675 0.993392
vt 0.930675 0.993392
vt 0.930675 0.993392
vt 0.930675 0.993392
vt 0.930675 0.993392
vt 0.930675 0.993392
vt 0.930675 0.993392
vt 0.930675 0.993392
vt 0.930675 0.993392
vt 0.930675 0.993392
vt 0.930675 0.993392
vt 0.930675 0.993392
vt 0.930675 0.993392
vt 0.930675 0.993392
vt 0.930675 0.993392
vt 0.930675 0.993392
vt 0.930675 0.993392
vt 0.930675 0.993392
vt 0.930675 0.993392
vt 0.930675 0.993392
vt 0.959842 0.974383
vt 0.959842 0.974383
vt 0.959842 0.974383
vt 0.959842 0.974383
vt 0.959842 0.974383
vt 0.959842 0.974383
vt 0.959842 0.974383
vt 0.913537 0.941005
vt 0.913537 0.941005
vt 0.913537 0.941005
vt 0.913537 0.941005
vt 0.913537 0.941005
vt 0.913537 0.941005
vt 0.913537 0.941005
vt 0.913537 0.941005
vt 0.913537 0.941005
vt 0.913537 0.941005
vt 0.913537 0.941005
vt 0.913537 0.941005
vt 0.913537 0.941005
vt 0.913537 0.941005
vt 0.959842 0.974383
vt 0.959842 0.974383
vt 0.959842 0.974383
vt 0.913537 0.941005
vt 0.913537 0.941005
vt 0.959842 0.974383
vt 0.959842 0.974383
vt 0.959842 0.974383
vt 0.959842 0.974383
vt 0.959842 0.974383
vt 0.930675 0.993392
vt 0.930675 0.993392
vt 0.959842 0.974383
vn -1.0000 0.0000 0.0000
vn 0.0000 -0.0000 -1.0000
vn 1.0000 0.0000 0.0000
vn 0.0000 0.0000 1.0000
vn 0.0000 -1.0000 0.0000
vn 0.0000 1.0000 0.0000
vn -0.9727 0.2321 0.0000
vn -0.0071 -0.0266 -0.9996
vn 0.9584 -0.2854 0.0000
vn -0.0071 -0.0266 0.9996
vn -0.2588 -0.9659 0.0000
vn 0.2588 0.9659 0.0000
vn 0.9659 -0.2588 0.0000
vn -0.9659 0.2588 0.0000
s 1
f 2/1/1 3/2/1 1/3/1
f 4/4/2 7/5/2 3/2/2
f 8/6/3 5/7/3 7/5/3
f 6/8/4 1/3/4 5/7/4
f 7/5/5 1/3/5 3/2/5
f 4/4/6 6/8/6 8/6/6
f 12/9/2 15/10/2 11/11/2
f 14/12/4 9/13/4 13/14/4
f 15/10/5 9/13/5 11/11/5
f 12/9/6 14/12/6 16/15/6
f 18/16/1 19/17/1 17/18/1
f 20/19/2 23/20/2 19/17/2
f 24/21/3 21/22/3 23/20/3
f 22/23/4 17/18/4 21/22/4
f 23/20/5 17/18/5 19/17/5
f 20/19/6 22/23/6 24/21/6
f 26/24/1 27/25/1 25/26/1
f 28/27/2 31/28/2 27/25/2
f 32/29/3 29/30/3 31/28/3
f 30/31/4 25/26/4 29/30/4
f 31/28/5 25/26/5 27/25/5
f 28/27/6 30/31/6 32/29/6
f 36/32/2 39/33/2 35/34/2
f 38/35/4 33/36/4 37/37/4
f 39/33/5 33/36/5 35/34/5
f 36/32/6 38/35/6 40/38/6
f 41/39/7 44/40/7 43/41/7
f 44/40/8 47/42/8 43/41/8
f 48/43/9 45/44/9 47/42/9
f 45/44/10 42/45/10 41/39/10
f 47/42/11 41/39/11 43/41/11
f 44/46/11 49/47/11 50/48/11
f 50/48/2 56/49/2 52/50/2
f 46/51/11 49/47/11 42/52/11
f 44/46/11 52/50/11 48/53/11
f 48/53/11 51/54/11 46/51/11
f 55/55/12 60/56/12 59/57/12
f 52/50/13 55/55/13 51/54/13
f 49/47/14 54/58/14 50/48/14
f 49/47/4 55/55/4 53/59/4
f 59/60/4 61/61/4 57/62/4
f 53/59/12 58/63/12 54/58/12
f 55/55/12 57/64/12 53/59/12
f 56/49/12 58/63/12 60/56/12
f 62/65/12 63/66/12 64/67/12
f 60/68/2 62/65/2 64/67/2
f 60/68/13 63/66/13 59/60/13
f 57/62/14 62/65/14 58/69/14
f 2/1/1 4/4/1 3/2/1
f 4/4/2 8/6/2 7/5/2
f 8/6/3 6/8/3 5/7/3
f 6/8/4 2/1/4 1/3/4
f 7/5/5 5/7/5 1/3/5
f 4/4/6 2/1/6 6/8/6
f 12/9/2 16/15/2 15/10/2
f 14/12/4 10/70/4 9/13/4
f 15/10/5 13/14/5 9/13/5
f 12/9/6 10/70/6 14/12/6
f 18/16/1 20/19/1 19/17/1
f 20/19/2 24/21/2 23/20/2
f 24/21/3 22/23/3 21/22/3
f 22/23/4 18/16/4 17/18/4
f 23/20/5 21/22/5 17/18/5
f 20/19/6 18/16/6 22/23/6
f 26/24/1 28/27/1 27/25/1
f 28/27/2 32/29/2 31/28/2
f 32/29/3 30/31/3 29/30/3
f 30/31/4 26/24/4 25/26/4
f 31/28/5 29/30/5 25/26/5
f 28/27/6 26/24/6 30/31/6
f 36/32/2 40/38/2 39/33/2
f 38/35/4 34/71/4 33/36/4
f 39/33/5 37/37/5 33/36/5
f 36/32/6 34/71/6 38/35/6
f 41/39/7 42/45/7 44/40/7
f 44/40/8 48/43/8 47/42/8
f 48/43/9 46/72/9 45/44/9
f 45/44/10 46/72/10 42/45/10
f 47/42/11 45/44/11 41/39/11
f 44/46/11 42/52/11 49/47/11
f 50/48/2 54/58/2 56/49/2
f 46/51/11 51/54/11 49/47/11
f 44/46/11 50/48/11 52/50/11
f 48/53/11 52/50/11 51/54/11
f 55/55/12 56/49/12 60/56/12
f 52/50/13 56/49/13 55/55/13
f 49/47/14 53/59/14 54/58/14
f 49/47/4 51/54/4 55/55/4
f 59/60/4 63/66/4 61/61/4
f 53/59/12 57/64/12 58/63/12
f 55/55/12 59/57/12 57/64/12
f 56/49/12 54/58/12 58/63/12
f 62/65/12 61/61/12 63/66/12
f 60/68/2 58/69/2 62/65/2
f 60/68/13 64/67/13 63/66/13
f 57/62/14 61/61/14 62/65/14
