# Blender v2.81 (sub 16) OBJ File: 'models.blend'
# www.blender.org
o V_Vase_Cylinder.062
v -0.320900 0.027143 0.293625
v -0.320900 0.027143 -0.293616
v 0.247033 0.038154 -0.293616
v -0.365117 -0.011921 0.000005
v -0.344492 0.327584 0.335733
v -0.189938 0.684201 -0.176025
v -0.344492 0.327584 -0.335724
v -0.048605 0.014651 -0.335337
v 0.212853 0.609466 -0.246123
v 0.325684 0.286104 -0.335724
v 0.286097 -0.006065 0.000005
v 0.302797 0.583286 0.157300
v 0.325684 0.286104 0.335733
v 0.185389 0.015702 0.333860
v -0.119170 0.661727 0.254328
v -0.052571 -0.049415 0.000005
v -0.009622 0.303325 0.442691
v 0.432217 0.275978 0.000005
v -0.009622 0.303325 -0.442683
v -0.451464 0.330672 0.000005
v -0.264618 0.824079 0.027397
v -0.195324 0.776435 -0.239807
v 0.073061 0.755309 -0.317213
v 0.328332 0.669789 -0.239807
v 0.410740 0.686539 0.027397
v 0.328332 0.669789 0.294600
v 0.073061 0.755309 0.372007
v -0.195324 0.776435 0.294600
v -0.143179 0.712538 -0.070044
v 0.061208 0.682222 -0.212363
v 0.233380 0.624541 -0.160154
v 0.288962 0.635839 0.020067
v 0.147295 0.653382 0.226392
v -0.119811 0.696471 0.200288
v 0.068460 0.717841 -0.044452
vt 0.916424 0.942525
vt 0.916424 0.942525
vt 0.916424 0.942525
vt 0.916424 0.942525
vt 0.916424 0.942525
vt 0.916424 0.942525
vt 0.916424 0.942525
vt 0.916424 0.942525
vt 0.916424 0.942525
vt 0.916424 0.942525
vt 0.916424 0.942525
vt 0.916424 0.942525
vt 0.916424 0.942525
vt 0.916424 0.942525
vt 0.916424 0.942525
vt 0.916424 0.942525
vt 0.916424 0.942525
vt 0.916424 0.942525
vt 0.916424 0.942525
vt 0.916424 0.942525
vt 0.916424 0.942525
vt 0.916424 0.942525
vt 0.916424 0.942525
vt 0.916424 0.942525
vt 0.916424 0.942525
vt 0.916424 0.942525
vt 0.916424 0.942525
vt 0.916424 0.942525
vt 0.916424 0.942525
vt 0.916424 0.942525
vt 0.916424 0.942525
vt 0.916424 0.942525
vt 0.916424 0.942525
vt 0.896266 0.944936
vt 0.896266 0.944936
vt 0.896266 0.944936
vt 0.896266 0.944936
vt 0.896266 0.944936
vt 0.896266 0.944936
vt 0.896266 0.944936
vt 0.916424 0.942525
vn -0.8335 0.4821 -0.2700
vn 0.3009 0.3507 -0.8868
vn 0.9266 0.2435 0.2867
vn -0.2549 0.3877 0.8859
vn 0.5441 -0.8233 -0.1617
vn 0.5010 -0.8570 -0.1210
vn 0.4650 -0.8809 -0.0882
vn 0.1942 -0.2731 -0.9422
vn 0.7958 -0.5680 0.2098
vn 0.1263 -0.9867 0.1024
vn -0.2486 -0.5962 -0.7634
vn -0.2621 -0.5727 -0.7767
vn -0.2702 -0.5582 -0.7845
vn -0.2780 -0.4772 0.8336
vn -0.9561 -0.2023 -0.2119
vn -0.0778 -0.9798 0.1843
vn -0.0694 -0.9790 0.1919
vn -0.0394 -0.9751 0.2183
vn -0.0970 -0.9811 -0.1672
vn -0.0946 -0.9810 -0.1694
vn -0.0737 -0.9794 -0.1880
vn 0.1146 -0.9779 -0.1748
vn 0.1252 -0.9785 -0.1640
vn -0.2087 -0.2719 0.9394
vn -0.1658 -0.3171 0.9338
vn -0.3108 -0.1558 0.9376
vn 0.2833 0.5111 0.8115
vn 0.2818 0.5125 0.8112
vn 0.2927 -0.1584 0.9430
vn 0.8508 -0.4420 0.2843
vn 0.8507 -0.4421 0.2844
vn 0.8499 -0.4430 0.2853
vn 0.8861 -0.3991 -0.2356
vn 0.8879 -0.3901 -0.2440
vn 0.8955 -0.3340 -0.2942
vn 0.8811 0.4222 -0.2133
vn 0.8814 0.4193 -0.2174
vn 0.8756 0.4536 -0.1658
vn 0.2271 -0.3009 -0.9262
vn 0.2162 -0.3110 -0.9255
vn 0.2829 -0.2471 -0.9268
vn -0.2419 -0.2299 -0.9427
vn -0.2400 -0.2281 -0.9436
vn -0.3101 -0.2943 -0.9040
vn -0.1414 0.5220 -0.8412
vn -0.1278 0.5275 -0.8399
vn -0.0400 0.5603 -0.8273
vn -0.9543 -0.1794 -0.2389
vn -0.9543 -0.1786 -0.2397
vn -0.9466 -0.1165 -0.3005
vn -0.9543 -0.1786 0.2397
vn -0.9543 -0.1794 0.2389
vn -0.9466 -0.1165 0.3005
vn -0.7650 0.6107 0.2045
vn -0.7635 0.6150 0.1971
vn -0.7548 0.6368 0.1574
vn -0.8084 -0.5794 0.1036
vn -0.8095 -0.5775 0.1057
vn -0.8105 -0.5758 0.1075
vn -0.0266 -0.7938 0.6075
vn -0.0681 -0.8129 0.5784
vn -0.1133 -0.8310 0.5446
vn -0.3868 0.9201 0.0616
vn 0.6778 0.7348 -0.0253
vn 0.6866 0.7260 -0.0392
vn 0.6703 0.7419 -0.0138
vn -0.1517 0.9834 -0.0998
vn -0.2649 0.9609 -0.0808
vn -0.0462 0.9922 -0.1161
vn 0.6986 0.7135 0.0540
vn 0.1222 0.8413 -0.5266
vn 0.2893 0.8902 0.3520
vn 0.2599 0.8442 0.4688
vn 0.2275 0.7866 0.5740
vn 0.1947 0.8400 -0.5065
vn 0.2057 0.8316 -0.5159
vn 0.2162 0.8232 -0.5249
vn 0.0970 0.8113 0.5765
vn 0.3880 0.9046 -0.1764
vn -0.0325 0.9975 0.0621
vn 0.3109 0.9410 0.1335
vn 0.0006 0.9782 -0.2075
vn 0.1381 0.9718 0.1911
vn 0.3669 0.9067 -0.2082
vn 0.5603 -0.8090 -0.1774
vn -0.2441 -0.6038 -0.7588
vn -0.1178 -0.9819 0.1484
vn -0.1178 -0.9819 -0.1484
vn 0.1039 -0.9771 -0.1855
vn -0.0816 -0.4006 0.9126
vn 0.2851 0.5094 0.8119
vn 0.8515 -0.4411 0.2835
vn 0.8727 -0.4521 -0.1842
vn 0.8838 0.3829 -0.2689
vn 0.1584 -0.3629 -0.9183
vn -0.1564 -0.1491 -0.9764
vn -0.2351 0.4803 -0.8450
vn -0.9546 -0.2406 -0.1758
vn -0.9546 -0.2406 0.1758
vn -0.7729 0.5825 0.2516
vn -0.8078 -0.5804 0.1025
vn -0.0017 -0.7813 0.6241
vn 0.6946 0.7175 -0.0522
vn -0.3806 0.9228 -0.0595
vn 0.3101 0.9172 0.2500
vn 0.1853 0.8469 -0.4984
s 1
f 20/1/1 6/2/1 7/3/1
f 19/4/2 9/5/2 10/6/2
f 18/7/3 12/8/3 13/9/3
f 17/10/4 15/11/4 5/12/4
f 25/13/5 9/5/6 24/14/7
f 9/5/8 23/15/8 24/14/8
f 12/8/9 25/13/9 26/16/9
f 16/17/10 11/18/10 14/19/10
f 23/15/11 6/2/12 22/20/13
f 15/11/14 27/21/14 28/22/14
f 6/2/15 21/23/15 22/20/15
f 1/24/16 16/17/17 14/19/18
f 16/17/19 2/25/20 8/26/21
f 16/17/22 3/27/22 11/18/23
f 1/24/24 17/10/25 5/12/26
f 17/10/27 12/8/27 15/11/28
f 14/19/29 13/9/29 17/10/29
f 11/18/30 13/9/31 14/19/32
f 18/7/33 3/27/34 10/6/35
f 18/7/36 9/5/37 12/8/38
f 3/27/39 19/4/40 10/6/41
f 8/26/42 7/3/43 19/4/44
f 19/4/45 6/2/46 9/5/47
f 2/25/48 20/1/49 7/3/50
f 20/1/51 1/24/52 5/12/53
f 20/1/54 15/11/55 6/2/56
f 21/23/57 15/11/58 28/22/59
f 27/21/60 12/8/61 26/16/62
f 24/14/63 32/28/63 25/13/63
f 21/23/64 34/29/65 29/30/66
f 26/16/67 32/28/68 33/31/69
f 22/20/70 21/23/70 29/30/70
f 27/21/71 26/16/71 33/31/71
f 22/20/72 30/32/73 23/15/74
f 27/21/75 34/29/76 28/22/77
f 23/15/78 31/33/78 24/14/78
f 32/34/79 31/35/79 35/36/79
f 29/37/80 34/38/80 35/36/80
f 33/39/81 32/34/81 35/36/81
f 30/40/82 29/37/82 35/36/82
f 34/38/83 33/39/83 35/36/83
f 31/35/84 30/40/84 35/36/84
f 25/13/5 12/8/85 9/5/6
f 23/15/11 9/5/86 6/2/12
f 1/24/16 4/41/87 16/17/17
f 16/17/19 4/41/88 2/25/20
f 16/17/22 8/26/89 3/27/22
f 1/24/24 14/19/90 17/10/25
f 17/10/27 13/9/91 12/8/27
f 11/18/30 18/7/92 13/9/31
f 18/7/33 11/18/93 3/27/34
f 18/7/36 10/6/94 9/5/37
f 3/27/39 8/26/95 19/4/40
f 8/26/42 2/25/96 7/3/43
f 19/4/45 7/3/97 6/2/46
f 2/25/48 4/41/98 20/1/49
f 20/1/51 4/41/99 1/24/52
f 20/1/54 5/12/100 15/11/55
f 21/23/57 6/2/101 15/11/58
f 27/21/60 15/11/102 12/8/61
f 24/14/63 31/33/63 32/28/63
f 21/23/64 28/22/103 34/29/65
f 26/16/67 25/13/104 32/28/68
f 22/20/72 29/30/105 30/32/73
f 27/21/75 33/31/106 34/29/76
f 23/15/78 30/32/78 31/33/78
